<svg xmlns="http://www.w3.org/2000/svg" width="1100" height="1100" viewBox="0 0 1100 1100">
<rect width="1100" height="1100" fill="#f6f3ec"/>
<circle cx="604.14921875" cy="513.9005208333333" r="284.99999999999994" fill="none" stroke="#c9c2b2" stroke-dasharray="6 5"/>
<text x="604.14921875" y="513.9005208333333" font-size="11" fill="#b6ad99" text-anchor="middle">xinyi</text>
<circle cx="340.7594465097318" cy="607.0656054973458" r="284.99999999999994" fill="none" stroke="#c9c2b2" stroke-dasharray="6 5"/>
<text x="340.7594465097318" y="607.0656054973458" font-size="11" fill="#b6ad99" text-anchor="middle">daan</text>
<circle cx="76.84524170096114" cy="464.832143506173" r="274.4297598134425" fill="none" stroke="#c9c2b2" stroke-dasharray="6 5"/>
<text x="76.84524170096114" y="464.832143506173" font-size="11" fill="#b6ad99" text-anchor="middle">zhongzheng</text>
<circle cx="-60.835727223937965" cy="531.7660976948079" r="209.68987650971007" fill="none" stroke="#c9c2b2" stroke-dasharray="6 5"/>
<text x="-60.835727223937965" y="531.7660976948079" font-size="11" fill="#b6ad99" text-anchor="middle">wanhua</text>
<circle cx="198.68068951581404" cy="303.1269710111126" r="237.3779124893148" fill="none" stroke="#c9c2b2" stroke-dasharray="6 5"/>
<text x="198.68068951581404" y="303.1269710111126" font-size="11" fill="#b6ad99" text-anchor="middle">zhongshan</text>
<circle cx="66.88534437095404" cy="252.69867345904862" r="195.10399554249932" fill="none" stroke="#c9c2b2" stroke-dasharray="6 5"/>
<text x="66.88534437095404" y="252.69867345904862" font-size="11" fill="#b6ad99" text-anchor="middle">datong</text>
<circle cx="721" cy="360" r="237.5" fill="none" stroke="#c9c2b2" stroke-dasharray="6 5"/>
<text x="721" y="360" font-size="11" fill="#b6ad99" text-anchor="middle">songshan</text>
<circle cx="225.54031506671402" cy="9.233858444523435" r="189.26814954441681" fill="none" stroke="#c9c2b2" stroke-dasharray="6 5"/>
<text x="225.54031506671402" y="9.233858444523435" font-size="11" fill="#b6ad99" text-anchor="middle">shilin</text>
<circle cx="906.6119697392969" cy="155.8499281828823" r="197.07503590855885" fill="none" stroke="#c9c2b2" stroke-dasharray="6 5"/>
<text x="906.6119697392969" y="155.8499281828823" font-size="11" fill="#b6ad99" text-anchor="middle">neihu</text>
<circle cx="1067.451196716616" cy="502.9589821166713" r="206.98047868664648" fill="none" stroke="#c9c2b2" stroke-dasharray="6 5"/>
<text x="1067.451196716616" y="502.9589821166713" font-size="11" fill="#b6ad99" text-anchor="middle">nangang</text>
<circle cx="63.48503142671575" cy="793.2574842866421" r="187.12114175895547" fill="none" stroke="#c9c2b2" stroke-dasharray="6 5"/>
<text x="63.48503142671575" y="793.2574842866421" font-size="11" fill="#b6ad99" text-anchor="middle">gongguan-guting</text>
<circle cx="-103.87022523098574" cy="290.1285002287108" r="217.9567417436619" fill="none" stroke="#c9c2b2" stroke-dasharray="6 5"/>
<text x="-103.87022523098574" y="290.1285002287108" font-size="11" fill="#b6ad99" text-anchor="middle">sanchong</text>
<circle cx="-103.43591965488747" cy="152.25639673180757" r="170.46154425779676" fill="none" stroke="#c9c2b2" stroke-dasharray="6 5"/>
<text x="-103.43591965488747" y="152.25639673180757" font-size="11" fill="#b6ad99" text-anchor="middle">luzhou</text>
<circle cx="-206.7606024388682" cy="532.3667432441429" r="161.6381869286903" fill="none" stroke="#c9c2b2" stroke-dasharray="6 5"/>
<text x="-206.7606024388682" y="532.3667432441429" font-size="11" fill="#b6ad99" text-anchor="middle">xinzhuang</text>
<circle cx="-175.9397679264797" cy="735.2658782729037" r="181.48494198161993" fill="none" stroke="#c9c2b2" stroke-dasharray="6 5"/>
<text x="-175.9397679264797" y="735.2658782729037" font-size="11" fill="#b6ad99" text-anchor="middle">banqiao</text>
<circle cx="-28.040650748448343" cy="882.8112837642582" r="227.7129836281766" fill="none" stroke="#c9c2b2" stroke-dasharray="6 5"/>
<text x="-28.040650748448343" y="882.8112837642582" font-size="11" fill="#b6ad99" text-anchor="middle">zhonghe</text>
<circle cx="80.94017657311883" cy="803.2923046505159" r="187.6239293707525" fill="none" stroke="#c9c2b2" stroke-dasharray="6 5"/>
<text x="80.94017657311883" y="803.2923046505159" font-size="11" fill="#b6ad99" text-anchor="middle">yonghe</text>
<circle cx="-125.85009905980564" cy="902.3048388716009" r="143.79789341697992" fill="none" stroke="#c9c2b2" stroke-dasharray="6 5"/>
<text x="-125.85009905980564" y="902.3048388716009" font-size="11" fill="#b6ad99" text-anchor="middle">tucheng-sanxia</text>
<circle cx="347.97660560656135" cy="1182.4210607098948" r="245.9415236094036" fill="none" stroke="#c9c2b2" stroke-dasharray="6 5"/>
<text x="347.97660560656135" y="1182.4210607098948" font-size="11" fill="#b6ad99" text-anchor="middle">xindian</text>
<circle cx="1202.3671432088554" cy="282.3621976579055" r="200.72835175657087" fill="none" stroke="#c9c2b2" stroke-dasharray="6 5"/>
<text x="1202.3671432088554" y="282.3621976579055" font-size="11" fill="#b6ad99" text-anchor="middle">xizhi</text>
<circle cx="151.41852198443127" cy="-92.15904791397179" r="147.62276963539583" fill="none" stroke="#c9c2b2" stroke-dasharray="6 5"/>
<text x="151.41852198443127" y="-92.15904791397179" font-size="11" fill="#b6ad99" text-anchor="middle">beitou</text>
<circle cx="237.30886947580888" cy="-107.4531462303504" r="160.35442590984158" fill="none" stroke="#c9c2b2" stroke-dasharray="6 5"/>
<text x="237.30886947580888" y="-107.4531462303504" font-size="11" fill="#b6ad99" text-anchor="middle">tianmu</text>
<circle cx="349.660431684316" cy="-203.27677686697177" r="333.89928052614" fill="#c1a97e" fill-opacity="0.25" stroke="#a8895c"/>
<circle cx="349.660431684316" cy="-203.27677686697177" r="2.5" fill="#8a6b3f"/>
<circle cx="494.825628610513" cy="-240.83265658264725" r="266.35903429407523" fill="#c1a97e" fill-opacity="0.25" stroke="#a8895c"/>
<circle cx="494.825628610513" cy="-240.83265658264725" r="2.5" fill="#8a6b3f"/>
<circle cx="171.47917473180797" cy="-123.078849295076" r="275.28787292232147" fill="#c1a97e" fill-opacity="0.25" stroke="#a8895c"/>
<circle cx="171.47917473180797" cy="-123.078849295076" r="2.5" fill="#8a6b3f"/>
<circle cx="702.2196278359544" cy="-198.23450865842358" r="257.2726104269651" fill="#c1a97e" fill-opacity="0.25" stroke="#a8895c"/>
<circle cx="702.2196278359544" cy="-198.23450865842358" r="2.5" fill="#8a6b3f"/>
<circle cx="459.46601307395764" cy="-251.52756425189523" r="193.13917210889042" fill="#c1a97e" fill-opacity="0.25" stroke="#a8895c"/>
<circle cx="459.46601307395764" cy="-251.52756425189523" r="2.5" fill="#8a6b3f"/>
<circle cx="758.990069279525" cy="1180.4826459777266" r="356.5" fill="#c1a97e" fill-opacity="0.25" stroke="#a8895c"/>
<circle cx="758.990069279525" cy="1180.4826459777266" r="2.5" fill="#8a6b3f"/>
<circle cx="987.5805044663349" cy="1169.905714660641" r="277.13431949534544" fill="#c1a97e" fill-opacity="0.25" stroke="#a8895c"/>
<circle cx="987.5805044663349" cy="1169.905714660641" r="2.5" fill="#8a6b3f"/>
<circle cx="504.1201857391783" cy="1146.4375853906822" r="279" fill="#c1a97e" fill-opacity="0.25" stroke="#a8895c"/>
<circle cx="504.1201857391783" cy="1146.4375853906822" r="2.5" fill="#8a6b3f"/>
<circle cx="233.8928530058093" cy="1091.8979662757556" r="248.00000000000006" fill="#c1a97e" fill-opacity="0.25" stroke="#a8895c"/>
<circle cx="233.8928530058093" cy="1091.8979662757556" r="2.5" fill="#8a6b3f"/>
<circle cx="690.5698999232798" cy="649.9383848646656" r="77.5" fill="#c1a97e" fill-opacity="0.25" stroke="#a8895c"/>
<circle cx="690.5698999232798" cy="649.9383848646656" r="2.5" fill="#8a6b3f"/>
<circle cx="717.6016032396667" cy="696.5088844646066" r="85.25000000000001" fill="#c1a97e" fill-opacity="0.25" stroke="#a8895c"/>
<circle cx="717.6016032396667" cy="696.5088844646066" r="2.5" fill="#8a6b3f"/>
<circle cx="765.0799999999999" cy="648.99" r="62.000000000000014" fill="#c1a97e" fill-opacity="0.25" stroke="#a8895c"/>
<circle cx="765.0799999999999" cy="648.99" r="2.5" fill="#8a6b3f"/>
<circle cx="742.4151906194836" cy="576.4608331677027" r="50.375" fill="#c1a97e" fill-opacity="0.25" stroke="#a8895c"/>
<circle cx="742.4151906194836" cy="576.4608331677027" r="2.5" fill="#8a6b3f"/>
<circle cx="1005.4524310081827" cy="710.0800816921158" r="217" fill="#c1a97e" fill-opacity="0.25" stroke="#a8895c"/>
<circle cx="1005.4524310081827" cy="710.0800816921158" r="2.5" fill="#8a6b3f"/>
<circle cx="1210.1457445520145" cy="594.0097163034676" r="232.50000000000003" fill="#c1a97e" fill-opacity="0.25" stroke="#a8895c"/>
<circle cx="1210.1457445520145" cy="594.0097163034676" r="2.5" fill="#8a6b3f"/>
<circle cx="845.4889231372555" cy="-83.19054957983315" r="217" fill="#c1a97e" fill-opacity="0.25" stroke="#a8895c"/>
<circle cx="845.4889231372555" cy="-83.19054957983315" r="2.5" fill="#8a6b3f"/>
<circle cx="1027.6370787571425" cy="72.36292124285757" r="186" fill="#c1a97e" fill-opacity="0.25" stroke="#a8895c"/>
<circle cx="1027.6370787571425" cy="72.36292124285757" r="2.5" fill="#8a6b3f"/>
<circle cx="-76.4765023188437" cy="40.98784186593957" r="204.8096257580835" fill="#c1a97e" fill-opacity="0.25" stroke="#a8895c"/>
<circle cx="-76.4765023188437" cy="40.98784186593957" r="2.5" fill="#8a6b3f"/>
<circle cx="-249.0308872276239" cy="611.4639144021249" r="245.85565760849968" fill="#c1a97e" fill-opacity="0.25" stroke="#a8895c"/>
<circle cx="-249.0308872276239" cy="611.4639144021249" r="2.5" fill="#8a6b3f"/>
<circle cx="1301.128862973761" cy="550" r="338.0079883381925" fill="#c1a97e" fill-opacity="0.25" stroke="#a8895c"/>
<circle cx="1301.128862973761" cy="550" r="2.5" fill="#8a6b3f"/>
<circle cx="1320.8200701732599" cy="334.17038035148727" r="246.6624224554431" fill="#c1a97e" fill-opacity="0.25" stroke="#a8895c"/>
<circle cx="1320.8200701732599" cy="334.17038035148727" r="2.5" fill="#8a6b3f"/>
<circle cx="1247.7301214261445" cy="843.7811037583766" r="293.7811037583766" fill="#c1a97e" fill-opacity="0.25" stroke="#a8895c"/>
<circle cx="1247.7301214261445" cy="843.7811037583766" r="2.5" fill="#8a6b3f"/>
<circle cx="1317.0456278985546" cy="741.7614069746387" r="230.11368836956638" fill="#c1a97e" fill-opacity="0.25" stroke="#a8895c"/>
<circle cx="1317.0456278985546" cy="741.7614069746387" r="2.5" fill="#8a6b3f"/>
<circle cx="550" cy="1334.725" r="359.665625" fill="#c1a97e" fill-opacity="0.25" stroke="#a8895c"/>
<circle cx="550" cy="1334.725" r="2.5" fill="#8a6b3f"/>
<circle cx="754.7759682698138" cy="1339.8501633264248" r="269.134129726041" fill="#c1a97e" fill-opacity="0.25" stroke="#a8895c"/>
<circle cx="754.7759682698138" cy="1339.8501633264248" r="2.5" fill="#8a6b3f"/>
<circle cx="368.70506459599767" cy="1335.6113867506765" r="277.98556761947015" fill="#c1a97e" fill-opacity="0.25" stroke="#a8895c"/>
<circle cx="368.70506459599767" cy="1335.6113867506765" r="2.5" fill="#8a6b3f"/>
<circle cx="929.8403178792344" cy="1246.3739161119297" r="253.22687858615626" fill="#c1a97e" fill-opacity="0.25" stroke="#a8895c"/>
<circle cx="929.8403178792344" cy="1246.3739161119297" r="2.5" fill="#8a6b3f"/>
<circle cx="-105.42285391802545" cy="1026.6711664858367" r="250.25236240506422" fill="#c1a97e" fill-opacity="0.25" stroke="#a8895c"/>
<circle cx="-105.42285391802545" cy="1026.6711664858367" r="2.5" fill="#8a6b3f"/>
<circle cx="-232.32892940309307" cy="829.4031890725332" r="223.5225512580266" fill="#c1a97e" fill-opacity="0.25" stroke="#a8895c"/>
<circle cx="-232.32892940309307" cy="829.4031890725332" r="2.5" fill="#8a6b3f"/>
<circle cx="0.2604480447811284" cy="1157.606873213663" r="219.89582078208753" fill="#c1a97e" fill-opacity="0.25" stroke="#a8895c"/>
<circle cx="0.2604480447811284" cy="1157.606873213663" r="2.5" fill="#8a6b3f"/>
<circle cx="-288.14662677643184" cy="468.8890361184098" r="243.33289164477057" fill="#c1a97e" fill-opacity="0.25" stroke="#a8895c"/>
<circle cx="-288.14662677643184" cy="468.8890361184098" r="2.5" fill="#8a6b3f"/>
<circle cx="-238.4199118510369" cy="296.579314047881" r="225.2628319574391" fill="#c1a97e" fill-opacity="0.25" stroke="#a8895c"/>
<circle cx="-238.4199118510369" cy="296.579314047881" r="2.5" fill="#8a6b3f"/>
<circle cx="387.7729915806254" cy="-276.27622954934793" r="270.37834736562434" fill="#c1a97e" fill-opacity="0.25" stroke="#a8895c"/>
<circle cx="387.7729915806254" cy="-276.27622954934793" r="2.5" fill="#8a6b3f"/>
<circle cx="557.2283401923843" cy="-282.37117446147874" r="233.5309908308758" fill="#c1a97e" fill-opacity="0.25" stroke="#a8895c"/>
<circle cx="557.2283401923843" cy="-282.37117446147874" r="2.5" fill="#8a6b3f"/>
<circle cx="161.54481494035974" cy="-186.95497965600316" r="221.97439146265157" fill="#c1a97e" fill-opacity="0.25" stroke="#a8895c"/>
<circle cx="161.54481494035974" cy="-186.95497965600316" r="2.5" fill="#8a6b3f"/>
<circle cx="269.4650000000001" cy="592.37" r="86.25" fill="#79b55a" fill-opacity="0.45" stroke="#579a41"/>
<circle cx="193.38927550036573" cy="97.98432842643763" r="52.49999999999999" fill="#79b55a" fill-opacity="0.45" stroke="#579a41"/>
<circle cx="477.20844906701785" cy="428.68074844502974" r="30.000000000000004" fill="#79b55a" fill-opacity="0.45" stroke="#579a41"/>
<circle cx="506.68062499999996" cy="474.19109375" r="22.499999999999996" fill="#79b55a" fill-opacity="0.45" stroke="#579a41"/>
<circle cx="79.52787762144027" cy="467.7383753829037" r="37.5" fill="#79b55a" fill-opacity="0.45" stroke="#579a41"/>
<circle cx="689.3650617543832" cy="647.1887930655566" r="93.75" fill="#79b55a" fill-opacity="0.45" stroke="#579a41"/>
<circle cx="750.8299999999999" cy="658.49" r="101.25000000000001" fill="#79b55a" fill-opacity="0.45" stroke="#579a41"/>
<circle cx="3.557869387157325" cy="311.21856477422" r="63.74999999999999" fill="#79b55a" fill-opacity="0.45" stroke="#579a41"/>
<circle cx="-104.28929609443912" cy="496.9495165328833" r="63.74999999999999" fill="#79b55a" fill-opacity="0.45" stroke="#579a41"/>
<circle cx="312.9710986326342" cy="156.53202373017274" r="67.5" fill="#79b55a" fill-opacity="0.45" stroke="#579a41"/>
<circle cx="464.519498956551" cy="141.59316168129925" r="60.00000000000001" fill="#79b55a" fill-opacity="0.45" stroke="#579a41"/>
<circle cx="-21.558135640750493" cy="669.113084810431" r="41.25" fill="#79b55a" fill-opacity="0.45" stroke="#579a41"/>
<circle cx="86.82724067555449" cy="710.6925899697055" r="37.5" fill="#79b55a" fill-opacity="0.45" stroke="#579a41"/>
<path d="M-116.0,447.7 L0.4,312.6 L31.5,189.4 L32.4,89.7 L-11.8,38.5 L-84.6,58.8 L-57.8,-12.8" fill="none" stroke="#5ec4cc" stroke-width="62" stroke-linecap="round" stroke-linejoin="round"/>
<path d="M308.2,1268.0 L155.8,1066.5 L254.3,860.7 L72.8,677.1 L-88.7,767.9 L-116.0,447.7" fill="none" stroke="#5ec4cc" stroke-width="42" stroke-linecap="round" stroke-linejoin="round"/>
<path d="M1194.3,245.2 L643.2,359.6 L599.7,109.2 L189.6,145.4 L60.9,-51.5 L-37.6,3.4" fill="none" stroke="#5ec4cc" stroke-width="45" stroke-linecap="round" stroke-linejoin="round"/>
<path d="M12.9,395.5 L269.4,463.3 L664.3,436.6 L706.7,458.3 L736.7,410.9 L773.7,389.4 L847.8,370.8 L1036.0,348.3" fill="none" stroke="#8e8878" stroke-width="17" stroke-linecap="round" stroke-linejoin="round"/>
<path d="M109.7,492.1 L312.5,499.6 L405.0,481.3 L460.1,471.8 L510.3,472.9" fill="none" stroke="#8e8878" stroke-width="14.000000000000002" stroke-linecap="round" stroke-linejoin="round"/>
<path d="M107.9,500.5 L186.7,543.0 L198.1,546.8 L220.7,549.9 L675.9,568.0 L701.5,561.1 L711.3,545.5 L719.0,520.6" fill="none" stroke="#8e8878" stroke-width="12" stroke-linecap="round" stroke-linejoin="round"/>
<path d="M-108.5,532.1 L-20.8,537.5 L32.2,587.2 L116.2,625.6 L330.5,632.6 L401.2,660.4 L456.7,707.0 L529.5,756.8" fill="none" stroke="#8e8878" stroke-width="11" stroke-linecap="round" stroke-linejoin="round"/>
<path d="M36.0,346.0 L51.1,341.2 L70.0,338.6 L82.5,339.9 L137.3,353.3 L174.5,356.5 L604.8,359.5 L705.9,308.3" fill="none" stroke="#8e8878" stroke-width="13" stroke-linecap="round" stroke-linejoin="round"/>
<path d="M218.6,445.6 L257.8,434.2 L292.1,418.4 L372.1,399.1 L480.2,377.7 L622.7,370.5 L679.2,377.8 L718.0,365.0" fill="none" stroke="#8e8878" stroke-width="11" stroke-linecap="round" stroke-linejoin="round"/>
<path d="M92.8,534.7 L147.1,360.6 L150.5,210.5 L188.0,125.9 L179.4,75.2 L229.7,-41.3 L240.0,-116.7 L315.1,-172.8" fill="none" stroke="#8e8878" stroke-width="15" stroke-linecap="round" stroke-linejoin="round"/>
<path d="M396.5,683.0 L375.9,608.2 L374.7,587.3 L369.7,557.6 L380.9,474.3 L401.1,304.6 L402.8,294.4 L412.0,269.1" fill="none" stroke="#8e8878" stroke-width="14.000000000000002" stroke-linecap="round" stroke-linejoin="round"/>
<path d="M347.4,676.4 L347.8,603.2 L341.9,579.2 L346.7,556.3 L347.0,540.5 L345.7,524.8 L348.7,504.7 L355.5,276.3" fill="none" stroke="#8e8878" stroke-width="11" stroke-linecap="round" stroke-linejoin="round"/>
<path d="M29.2,639.6 L3.0,614.5 L-13.5,590.4 L-14.7,573.6 L-0.9,538.1 L5.3,517.3 L32.7,408.5" fill="none" stroke="#8e8878" stroke-width="11" stroke-linecap="round" stroke-linejoin="round"/>
<path d="M250.3,807.4 L270.1,793.6 L306.7,776.5 L337.5,754.2 L342.4,736.6 L424.3,650.9 L534.0,435.7 L606.5,363.0" fill="none" stroke="#8e8878" stroke-width="13" stroke-linecap="round" stroke-linejoin="round"/>
<path d="M97.8,545.4 L174.3,659.2 L271.3,759.8 L291.3,789.9 L309.8,895.2 L305.1,914.5 L326.1,948.1 L318.0,993.5" fill="none" stroke="#8e8878" stroke-width="11" stroke-linecap="round" stroke-linejoin="round"/>
<path d="M455.1,253.7 L465.0,313.9 L469.3,331.6 L477.4,350.2 L484.0,361.6 L461.3,405.0 L423.5,571.2 L427.5,621.2" fill="none" stroke="#8e8878" stroke-width="10" stroke-linecap="round" stroke-linejoin="round"/>
<path d="M618.1,419.3 L620.7,445.2 L620.9,492.2 L619.3,587.2 L620.2,626.5 L619.1,658.6 L617.2,683.3 L623.9,696.4" fill="none" stroke="#8e8878" stroke-width="9" stroke-linecap="round" stroke-linejoin="round"/>
<path d="M503.8,505.4 L530.9,506.0 L571.7,506.7 L610.1,507.4" fill="none" stroke="#8e8878" stroke-width="8" stroke-linecap="round" stroke-linejoin="round"/>
<path d="M195.6,0.6 L131.0,177.6 L96.3,361.0 L122.7,521.5 L265.0,564.3 L369.0,555.7 L459.8,562.6 L649.3,568.0 L708.3,593.2 L712.8,616.3" fill="none" stroke="#E3002C" stroke-width="1.6" stroke-opacity="0.85"/>
<path d="M-52.8,472.4 L95.1,455.2 L284.0,464.5 L377.3,466.7 L663.8,436.2 L740.0,407.5 L1038.3,348.1" fill="none" stroke="#0070BD" stroke-width="1.6" stroke-opacity="0.85"/>
<path d="M122.5,921.7 L141.6,645.0 L113.4,512.0 L227.0,426.5 L454.4,363.7 L652.5,369.9" fill="none" stroke="#1DA742" stroke-width="1.6" stroke-opacity="0.85"/>
<path d="M265.9,928.8 L312.5,664.0 L284.0,455.0 L171.2,265.9 L29.5,326.9" fill="none" stroke="#F8B61C" stroke-width="1.6" stroke-opacity="0.85"/>
<path d="M664.0,948.9 L456.5,701.9 L350.3,464.4 L360.0,312.5 L464.5,170.0 L484.2,32.7" fill="none" stroke="#C48C31" stroke-width="1.6" stroke-opacity="0.85"/>
<path d="M733.6,573.0 L731.9,577.2 L730.1,581.7 L728.2,586.1 L726.2,590.6 L724.0,595.1 L721.9,596.3 L719.9,596.8 L717.8,597.2 L715.8,597.8 L713.5,598.8 L711.1,600.6 L708.5,602.9 L705.7,606.1 L702.6,610.1 L699.2,615.0 L697.3,618.2 L700.2,616.0 L702.7,614.7 L704.9,614.4 L706.7,615.1 L708.0,616.7 L708.9,619.2 L709.2,622.5 L709.1,626.3 L708.3,630.9 L707.3,634.9 L707.1,631.0 L706.3,628.6 L704.8,627.3 L702.5,627.6 L699.8,629.2 L696.3,632.7 L693.6,636.0 L696.8,633.8 L699.3,632.9 L699.6,635.5 L696.5,641.0 L693.2,646.7 L692.1,648.5" fill="none" stroke="#4a4438" stroke-width="1.4" stroke-dasharray="2 3"/>
<circle cx="550" cy="550" r="4" fill="#232019"/>
<text x="556" y="546" font-size="11" fill="#232019">Taipei 101</text>
<circle cx="549.4585078125" cy="473.83009895833334" r="4" fill="#232019"/>
<text x="555.4585078125" y="469.83009895833334" font-size="11" fill="#232019">Taipei City Hall</text>
<circle cx="476.524905943034" cy="429.04335931188155" r="4" fill="#232019"/>
<text x="482.524905943034" y="425.04335931188155" font-size="11" fill="#232019">Sun Yat-sen Hall</text>
<circle cx="475.77622783497696" cy="406.1914414302679" r="4" fill="#232019"/>
<text x="481.77622783497696" y="402.1914414302679" font-size="11" fill="#232019">Taipei Dome</text>
<circle cx="529.423296875" cy="519.3154427083333" r="4" fill="#232019"/>
<text x="535.423296875" y="515.3154427083333" font-size="11" fill="#232019">Grand Hyatt Taipei</text>
<circle cx="582.6700286458333" cy="536.2821979166666" r="4" fill="#232019"/>
<text x="588.6700286458333" y="532.2821979166666" font-size="11" fill="#232019">Breeze Nan Shan</text>
<circle cx="599.9977786458334" cy="491.8798385416667" r="4" fill="#232019"/>
<text x="605.9977786458334" y="487.8798385416667" font-size="11" fill="#232019">Mitsukoshi A11</text>
<circle cx="412.24859283066803" cy="371.2081735912533" r="4" fill="#232019"/>
<text x="418.24859283066803" y="367.2081735912533" font-size="11" fill="#232019">Taipei Arena</text>
<circle cx="652.1574399952056" cy="370.02657381707695" r="4" fill="#232019"/>
<text x="658.1574399952056" y="366.02657381707695" font-size="11" fill="#232019">Raohe Night Market</text>
<circle cx="141.0702561367496" cy="540.1210932957542" r="4" fill="#232019"/>
<text x="147.0702561367496" y="536.1210932957542" font-size="11" fill="#232019">CKS Memorial Hall</text>
<circle cx="50.19234559340708" cy="484.34010429086663" r="4" fill="#232019"/>
<text x="56.19234559340708" y="480.34010429086663" font-size="11" fill="#232019">Presidential Office</text>
<circle cx="97.52061117436972" cy="403.24481006910923" r="4" fill="#232019"/>
<text x="103.52061117436972" y="399.24481006910923" font-size="11" fill="#232019">Taipei Main Station</text>
<circle cx="-47.872828328597734" cy="513.7680627201909" r="4" fill="#232019"/>
<text x="-41.872828328597734" y="509.76806272019087" font-size="11" fill="#232019">Longshan Temple</text>
<circle cx="97.98238626718677" cy="151.17708620211982" r="4" fill="#232019"/>
<text x="103.98238626718677" y="147.17708620211982" font-size="11" fill="#232019">Bao’an Temple</text>
<circle cx="194.7128761625483" cy="89.80889969129231" r="4" fill="#232019"/>
<text x="200.7128761625483" y="85.80889969129231" font-size="11" fill="#232019">Grand Hotel</text>
<circle cx="194.4250142034839" cy="11.863804431922517" r="4" fill="#232019"/>
<text x="200.4250142034839" y="7.863804431922517" font-size="11" fill="#232019">Shilin Night Market</text>
<circle cx="483.2085665794299" cy="34.20080359861163" r="4" fill="#232019"/>
<text x="489.2085665794299" y="30.20080359861163" font-size="11" fill="#232019">Miramar Ferris Wheel</text>
<circle cx="411.57987986727005" cy="-105.50878341720568" r="4" fill="#232019"/>
<text x="417.57987986727005" y="-109.50878341720568" font-size="11" fill="#232019">Palace Museum</text>
<circle cx="582.48953125" cy="625.80890625" r="2" fill="#6b6455"/>
<circle cx="873" cy="531" r="2" fill="#6b6455"/>
<circle cx="236.5" cy="436" r="2" fill="#6b6455"/>
<circle cx="438.89073699094854" cy="431.4834527903451" r="2" fill="#6b6455"/>
<circle cx="359.9995494315747" cy="673.5002928694764" r="2" fill="#6b6455"/>
<circle cx="597.5" cy="265.00000000000006" r="2" fill="#6b6455"/>
<circle cx="613.8572399191688" cy="422.2855201616625" r="2" fill="#6b6455"/>
<circle cx="198.49999999999994" cy="607" r="2" fill="#6b6455"/>
<circle cx="455" cy="768.5" r="2" fill="#6b6455"/>
<circle cx="312.5" cy="293.5" r="2" fill="#6b6455"/>
<path d="M544.2780104166667,541.2095546875 L554.2780104166667,551.2095546875 M544.2780104166667,551.2095546875 L554.2780104166667,541.2095546875" stroke="#d81b9f" stroke-width="1.6"/>
<text x="555.2780104166667" y="558.2095546875" font-size="9" fill="#d81b9f">taipei-101</text>
<path d="M544.4585078125,468.83009895833334 L554.4585078125,478.83009895833334 M544.4585078125,478.83009895833334 L554.4585078125,468.83009895833334" stroke="#d81b9f" stroke-width="1.6"/>
<text x="555.4585078125" y="485.83009895833334" font-size="9" fill="#d81b9f">city-hall</text>
<path d="M471.524905943034,424.04335931188155 L481.524905943034,434.04335931188155 M471.524905943034,434.04335931188155 L481.524905943034,424.04335931188155" stroke="#d81b9f" stroke-width="1.6"/>
<text x="482.524905943034" y="441.04335931188155" font-size="9" fill="#d81b9f">sun-yat-sen-hall</text>
<path d="M470.77622783497696,401.1914414302679 L480.77622783497696,411.1914414302679 M470.77622783497696,411.1914414302679 L480.77622783497696,401.1914414302679" stroke="#d81b9f" stroke-width="1.6"/>
<text x="481.77622783497696" y="418.1914414302679" font-size="9" fill="#d81b9f">taipei-dome</text>
<path d="M524.423296875,514.3154427083333 L534.423296875,524.3154427083333 M524.423296875,524.3154427083333 L534.423296875,514.3154427083333" stroke="#d81b9f" stroke-width="1.6"/>
<text x="535.423296875" y="531.3154427083333" font-size="9" fill="#d81b9f">grand-hyatt</text>
<path d="M577.6700286458333,531.2821979166666 L587.6700286458333,541.2821979166666 M577.6700286458333,541.2821979166666 L587.6700286458333,531.2821979166666" stroke="#d81b9f" stroke-width="1.6"/>
<text x="588.6700286458333" y="548.2821979166666" font-size="9" fill="#d81b9f">breeze-nanshan</text>
<path d="M594.9977786458334,486.8798385416667 L604.9977786458334,496.8798385416667 M594.9977786458334,496.8798385416667 L604.9977786458334,486.8798385416667" stroke="#d81b9f" stroke-width="1.6"/>
<text x="605.9977786458334" y="503.8798385416667" font-size="9" fill="#d81b9f">mitsukoshi-a11</text>
<path d="M407.24859283066803,366.2081735912533 L417.24859283066803,376.2081735912533 M407.24859283066803,376.2081735912533 L417.24859283066803,366.2081735912533" stroke="#d81b9f" stroke-width="1.6"/>
<text x="418.24859283066803" y="383.2081735912533" font-size="9" fill="#d81b9f">taipei-arena</text>
<path d="M647.1574399952056,365.02657381707695 L657.1574399952056,375.02657381707695 M647.1574399952056,375.02657381707695 L657.1574399952056,365.02657381707695" stroke="#d81b9f" stroke-width="1.6"/>
<text x="658.1574399952056" y="382.02657381707695" font-size="9" fill="#d81b9f">raohe-night-market</text>
<path d="M136.0702561367496,535.1210932957542 L146.0702561367496,545.1210932957542 M136.0702561367496,545.1210932957542 L146.0702561367496,535.1210932957542" stroke="#d81b9f" stroke-width="1.6"/>
<text x="147.0702561367496" y="552.1210932957542" font-size="9" fill="#d81b9f">cks-memorial</text>
<path d="M45.19234559340708,479.34010429086663 L55.19234559340708,489.34010429086663 M45.19234559340708,489.34010429086663 L55.19234559340708,479.34010429086663" stroke="#d81b9f" stroke-width="1.6"/>
<text x="56.19234559340708" y="496.34010429086663" font-size="9" fill="#d81b9f">presidential-office</text>
<path d="M92.52061117436972,398.24481006910923 L102.52061117436972,408.24481006910923 M92.52061117436972,408.24481006910923 L102.52061117436972,398.24481006910923" stroke="#d81b9f" stroke-width="1.6"/>
<text x="103.52061117436972" y="415.24481006910923" font-size="9" fill="#d81b9f">main-station</text>
<path d="M-52.872828328597734,508.76806272019087 L-42.872828328597734,518.7680627201909 M-52.872828328597734,518.7680627201909 L-42.872828328597734,508.76806272019087" stroke="#d81b9f" stroke-width="1.6"/>
<text x="-41.872828328597734" y="525.7680627201909" font-size="9" fill="#d81b9f">longshan-temple</text>
<path d="M189.7128761625483,84.80889969129231 L199.7128761625483,94.80889969129231 M189.7128761625483,94.80889969129231 L199.7128761625483,84.80889969129231" stroke="#d81b9f" stroke-width="1.6"/>
<text x="200.7128761625483" y="101.80889969129231" font-size="9" fill="#d81b9f">grand-hotel</text>
<path d="M189.4250142034839,6.863804431922517 L199.4250142034839,16.863804431922517 M189.4250142034839,16.863804431922517 L199.4250142034839,6.863804431922517" stroke="#d81b9f" stroke-width="1.6"/>
<text x="200.4250142034839" y="23.863804431922517" font-size="9" fill="#d81b9f">shilin-night-market</text>
<path d="M406.57987986727005,-110.50878341720568 L416.57987986727005,-100.50878341720568 M406.57987986727005,-100.50878341720568 L416.57987986727005,-110.50878341720568" stroke="#d81b9f" stroke-width="1.6"/>
<text x="417.57987986727005" y="-93.50878341720568" font-size="9" fill="#d81b9f">palace-museum</text>
<path d="M478.2085665794299,29.20080359861163 L488.2085665794299,39.20080359861163 M478.2085665794299,39.20080359861163 L488.2085665794299,29.20080359861163" stroke="#d81b9f" stroke-width="1.6"/>
<text x="489.2085665794299" y="46.20080359861163" font-size="9" fill="#d81b9f">miramar-ferris-wheel</text>
<path d="M92.98238626718677,146.17708620211982 L102.98238626718677,156.17708620211982 M92.98238626718677,156.17708620211982 L102.98238626718677,146.17708620211982" stroke="#d81b9f" stroke-width="1.6"/>
<text x="103.98238626718677" y="163.17708620211982" font-size="9" fill="#d81b9f">baoan-temple</text>
<path d="M264.4650000000001,587.37 L274.4650000000001,597.37 M264.4650000000001,597.37 L274.4650000000001,587.37" stroke="#d81b9f" stroke-width="1.6"/>
<path d="M74.52787762144027,462.7383753829037 L84.52787762144027,472.7383753829037 M74.52787762144027,472.7383753829037 L84.52787762144027,462.7383753829037" stroke="#d81b9f" stroke-width="1.6"/>
<path d="M685.5698999232798,644.9383848646656 L695.5698999232798,654.9383848646656 M685.5698999232798,654.9383848646656 L695.5698999232798,644.9383848646656" stroke="#d81b9f" stroke-width="1.6"/>
<path d="M735.285,683.3199999999999 L745.285,693.3199999999999 M735.285,693.3199999999999 L745.285,683.3199999999999" stroke="#d81b9f" stroke-width="1.6"/>
<path d="M737.4151906194836,571.4608331677027 L747.4151906194836,581.4608331677027 M737.4151906194836,581.4608331677027 L747.4151906194836,571.4608331677027" stroke="#d81b9f" stroke-width="1.6"/>
<path d="M483.58528555341695,-288.66622683807066 L493.58528555341695,-278.66622683807066 M483.58528555341695,-278.66622683807066 L493.58528555341695,-288.66622683807066" stroke="#d81b9f" stroke-width="1.6"/>
<text x="494.58528555341695" y="-271.66622683807066" font-size="9" fill="#d81b9f">qixingshan</text>
<path d="M324.27261795474,-284.6287211722241 L334.27261795474,-274.6287211722241 M324.27261795474,-274.6287211722241 L334.27261795474,-284.6287211722241" stroke="#d81b9f" stroke-width="1.6"/>
<text x="335.27261795474" y="-267.6287211722241" font-size="9" fill="#d81b9f">datun</text>
<path d="M-137.4986930238399,-10.042638992483262 L-127.4986930238399,-0.04263899248326197 M-137.4986930238399,-0.04263899248326197 L-127.4986930238399,-10.042638992483262" stroke="#d81b9f" stroke-width="1.6"/>
<text x="-126.4986930238399" y="6.957361007516738" font-size="9" fill="#d81b9f">guanyinshan</text>
<path d="M754.104477336309,1175.299384226245 L764.104477336309,1185.299384226245 M754.104477336309,1185.299384226245 L764.104477336309,1175.299384226245" stroke="#d81b9f" stroke-width="1.6"/>
<text x="765.104477336309" y="1192.299384226245" font-size="9" fill="#d81b9f">maokong</text>
<path d="M12.9,395.5 L269.4,463.3 L664.3,436.6 L706.7,458.3 L736.7,410.9 L773.7,389.4 L847.8,370.8 L1036.0,348.3" fill="none" stroke="#d81b9f" stroke-width="1.3" stroke-opacity="0.85"/>
<path d="M109.4,492.5 L172.9,501.5 L190.3,502.2 L230.7,502.3 L262.3,503.4 L372.8,499.3 L510.3,473.1" fill="none" stroke="#d81b9f" stroke-width="1.3" stroke-opacity="0.85"/>
<path d="M107.9,500.5 L186.7,543.0 L198.1,546.8 L220.7,549.9 L675.9,568.0 L701.5,561.1 L711.3,545.5 L719.0,520.6" fill="none" stroke="#d81b9f" stroke-width="1.3" stroke-opacity="0.85"/>
<path d="M-108.5,532.1 L-20.8,537.5 L32.2,587.2 L116.2,625.6 L330.5,632.6 L401.2,660.4 L456.7,707.0 L529.5,756.8" fill="none" stroke="#d81b9f" stroke-width="1.3" stroke-opacity="0.85"/>
<path d="M36.0,346.0 L51.1,341.2 L70.0,338.6 L82.5,339.9 L137.3,353.3 L174.5,356.5 L604.8,359.5 L705.9,308.3" fill="none" stroke="#d81b9f" stroke-width="1.3" stroke-opacity="0.85"/>
<path d="M218.6,445.6 L257.8,434.2 L292.1,418.4 L372.1,399.1 L480.2,377.7 L622.7,370.5 L679.2,377.8 L718.0,365.0" fill="none" stroke="#d81b9f" stroke-width="1.3" stroke-opacity="0.85"/>
<path d="M92.8,534.7 L147.1,360.6 L150.5,210.5 L188.0,125.9 L179.4,75.2 L229.7,-41.3 L240.0,-116.7 L315.1,-172.8" fill="none" stroke="#d81b9f" stroke-width="1.3" stroke-opacity="0.85"/>
<path d="M396.5,683.0 L375.9,608.2 L374.7,587.3 L369.7,557.6 L380.9,474.3 L401.1,304.6 L402.8,294.4 L412.0,269.1" fill="none" stroke="#d81b9f" stroke-width="1.3" stroke-opacity="0.85"/>
<path d="M347.4,676.4 L347.8,603.2 L341.9,579.2 L346.7,556.3 L347.0,540.5 L345.7,524.8 L348.7,504.7 L355.5,276.3" fill="none" stroke="#d81b9f" stroke-width="1.3" stroke-opacity="0.85"/>
<path d="M29.2,639.6 L3.0,614.5 L-13.5,590.4 L-14.7,573.6 L-0.9,538.1 L5.3,517.3 L32.7,408.5" fill="none" stroke="#d81b9f" stroke-width="1.3" stroke-opacity="0.85"/>
<path d="M250.3,807.4 L270.1,793.6 L306.7,776.5 L337.5,754.2 L342.4,736.6 L424.3,650.9 L534.0,435.7 L606.5,363.0" fill="none" stroke="#d81b9f" stroke-width="1.3" stroke-opacity="0.85"/>
<path d="M97.8,545.4 L174.3,659.2 L271.3,759.8 L291.3,789.9 L309.8,895.2 L305.1,914.5 L326.1,948.1 L318.0,993.5" fill="none" stroke="#d81b9f" stroke-width="1.3" stroke-opacity="0.85"/>
<path d="M455.1,253.7 L465.0,313.9 L469.3,331.6 L477.4,350.2 L484.0,361.6 L461.3,405.0 L423.5,571.2 L427.5,621.2" fill="none" stroke="#d81b9f" stroke-width="1.3" stroke-opacity="0.85"/>
<path d="M618.1,419.3 L620.7,445.2 L620.9,492.2 L619.3,587.2 L620.2,626.5 L619.1,658.6 L617.2,683.3 L623.9,696.4" fill="none" stroke="#d81b9f" stroke-width="1.3" stroke-opacity="0.85"/>
<path d="M503.8,505.4 L530.9,506.0 L571.7,506.7 L610.1,507.4" fill="none" stroke="#d81b9f" stroke-width="1.3" stroke-opacity="0.85"/>
<path d="M-7.1,390.5 L25.1,376.5 L264.6,431.6 L419.3,420.5 L500.6,382.9 L551.9,378.4 L615.5,372.0 L669.2,384.6" fill="none" stroke="#d81b9f" stroke-width="1.3" stroke-opacity="0.85"/>
<path d="M57.4,250.7 L334.1,248.7 L422.7,257.3 L568.8,238.8 L759.1,179.6 L839.7,183.5 L873.1,199.2 L894.9,200.9" fill="none" stroke="#d81b9f" stroke-width="1.3" stroke-opacity="0.85"/>
<path d="M38.8,311.4 L86.5,307.7 L159.9,295.3 L182.1,294.6 L289.1,295.8 L395.7,298.2 L452.6,292.6 L585.1,281.9" fill="none" stroke="#d81b9f" stroke-width="1.3" stroke-opacity="0.85"/>
<path d="M202.8,165.2 L196.4,344.3 L205.4,381.2 L216.3,397.0 L246.9,428.2 L245.4,548.9 L265.9,620.7 L256.8,696.6" fill="none" stroke="#d81b9f" stroke-width="1.3" stroke-opacity="0.85"/>
<path d="M259.0,196.1 L279.6,215.6 L286.6,232.5 L283.1,443.7 L295.4,503.0 L294.4,557.5 L296.4,577.1 L292.4,657.4" fill="none" stroke="#d81b9f" stroke-width="1.3" stroke-opacity="0.85"/>
<path d="M115.1,-95.5 L147.0,-86.1 L127.7,-40.4 L132.0,3.8 L164.5,11.7 L176.8,35.1 L122.4,158.8 L93.5,385.0" fill="none" stroke="#d81b9f" stroke-width="1.3" stroke-opacity="0.85"/>
<path d="M183.4,-73.7 L190.5,-69.8" fill="none" stroke="#d81b9f" stroke-width="1.3" stroke-opacity="0.85"/>
<path d="M145.8,-90.8 L184.7,-113.1 L194.7,-120.3 L204.7,-126.8 L220.6,-134.2 L235.0,-140.0 L254.6,-152.5 L269.2,-160.1" fill="none" stroke="#d81b9f" stroke-width="1.3" stroke-opacity="0.85"/>
<path d="M231.7,-90.9 L253.7,-101.6 L265.9,-111.6 L284.7,-135.9 L296.2,-144.1 L305.8,-150.0 L318.2,-158.6" fill="none" stroke="#d81b9f" stroke-width="1.3" stroke-opacity="0.85"/>
<path d="M501.0,19.0 L687.3,79.4 L706.7,49.8 L723.3,58.5 L740.6,37.9 L779.6,54.1 L812.7,28.2" fill="none" stroke="#d81b9f" stroke-width="1.3" stroke-opacity="0.85"/>
<path d="M805.5,259.9 L790.0,74.1 L847.6,87.2 L880.7,89.6 L876.7,67.0 L897.6,63.6 L911.7,53.3" fill="none" stroke="#d81b9f" stroke-width="1.3" stroke-opacity="0.85"/>
<path d="M735.1,357.0 L753.6,349.0 L790.9,343.9 L829.2,331.8 L905.9,342.3 L1003.9,324.8 L1066.0,332.7" fill="none" stroke="#d81b9f" stroke-width="1.3" stroke-opacity="0.85"/>
<path d="M1044.2,449.0 L1035.8,430.6 L1034.9,410.9 L1037.7,392.5 L1035.7,373.7 L1039.9,352.5 L1041.8,333.4" fill="none" stroke="#d81b9f" stroke-width="1.3" stroke-opacity="0.85"/>
<path d="M-196.9,479.7 L-187.2,449.2 L-164.0,422.4 L-116.9,345.4 L-111.0,332.9 L-77.8,291.9 L-14.0,251.9" fill="none" stroke="#d81b9f" stroke-width="1.3" stroke-opacity="0.85"/>
<path d="M-198.0,730.8 L-196.9,713.4 L-193.2,661.5 L-191.2,636.4 L-187.1,597.7 L-184.0,583.5 L-168.6,535.0 L-160.6,528.8" fill="none" stroke="#d81b9f" stroke-width="1.3" stroke-opacity="0.85"/>
<path d="M330.5,1228.5 L345.9,1192.3 L352.7,1170.1 L354.8,1160.8 L352.3,1135.2 L350.5,1122.7 L328.2,1057.7" fill="none" stroke="#d81b9f" stroke-width="1.3" stroke-opacity="0.85"/>
<path d="M-28.8,850.7 L63.9,850.9 L66.7,838.4 L69.8,821.6 L75.7,800.1 L78.7,785.1 L83.2,764.3 L87.6,743.0" fill="none" stroke="#d81b9f" stroke-width="1.3" stroke-opacity="0.85"/>
<path d="M-49.1,845.8 L-42.8,865.5 L-28.2,884.1 L-7.8,917.4 L8.6,936.9 L126.9,975.1 L157.1,988.3 L194.3,997.3" fill="none" stroke="#d81b9f" stroke-width="1.3" stroke-opacity="0.85"/>
<path d="M1084.5,332.8 L1138.4,346.4 L1168.0,319.0 L1254.9,275.5 L1259.6,260.7 L1253.9,231.1 L1258.0,225.4 L1294.8,285.1" fill="none" stroke="#d81b9f" stroke-width="1.3" stroke-opacity="0.85"/>
<path d="M-117.2,126.7 L-115.9,131.7 L-112.9,132.6 L-107.9,131.5 L-105.3,133.2 L-100.5,144.6 L-99.0,149.4 L-100.7,158.4" fill="none" stroke="#d81b9f" stroke-width="1.3" stroke-opacity="0.85"/>
<path d="M-289.1,625.4 L-280.8,608.0 L-276.8,586.6 L-253.4,558.3 L-227.0,535.6 L-217.7,620.9 L-218.1,543.7 L-211.4,513.4" fill="none" stroke="#d81b9f" stroke-width="1.3" stroke-opacity="0.85"/>
<path d="M-203.2,971.3 L-198.4,965.3 L-188.5,962.1 L-173.4,964.7 L-169.7,958.3 L-172.4,931.3 L-184.5,880.5 L-187.4,839.6" fill="none" stroke="#d81b9f" stroke-width="1.3" stroke-opacity="0.85"/>
<path d="M-116.0,447.7 L0.4,312.6 L31.5,189.4 L32.4,89.7 L-11.8,38.5 L-84.6,58.8 L-33.3,-79.3 L-35.7,-126.7 L-62.3,-102.8 L-102.8,-62.3" fill="none" stroke="#d81b9f" stroke-width="1.3" stroke-opacity="0.85" stroke-dasharray="8 5"/>
<path d="M339.1,1311.0 L260.2,1255.6 L337.0,1273.0 L365.6,1296.5 L406.7,1288.5 L155.8,1066.5 L254.3,860.7 L72.8,677.1 L-88.7,767.9 L-116.0,447.7" fill="none" stroke="#d81b9f" stroke-width="1.3" stroke-opacity="0.85" stroke-dasharray="8 5"/>
<path d="M1442.5,483.0 L1440.0,455.6 L1408.1,295.6 L1347.0,142.8 L1325.0,259.0 L643.2,359.6 L599.7,109.2 L189.6,145.4 L60.9,-51.5 L-64.5,18.0" fill="none" stroke="#d81b9f" stroke-width="1.3" stroke-opacity="0.85" stroke-dasharray="8 5"/>
<path d="M-8.8,249.1 L16.5,248.4" fill="none" stroke="#d81b9f" stroke-width="1.3" stroke-opacity="0.85"/>
<path d="M-13.2,381.3 L-17.5,378.4 L-22.0,375.2 L-60.4,347.2" fill="none" stroke="#d81b9f" stroke-width="1.3" stroke-opacity="0.85"/>
<path d="M358.6,75.2 L356.7,117.1 L356.7,122.6 L356.2,137.7" fill="none" stroke="#d81b9f" stroke-width="1.3" stroke-opacity="0.85"/>
<path d="M613.6,227.3 L650.2,213.8 L659.6,210.7 L674.5,206.3" fill="none" stroke="#d81b9f" stroke-width="1.3" stroke-opacity="0.85"/>
<path d="M438.125,196.25500000000005 L448.125,206.25500000000005 M438.125,206.25500000000005 L448.125,196.25500000000005" stroke="#d81b9f" stroke-width="1.6"/>
<path d="M558.5,177.7 L447.5,173.3 L403.0,171.7 L312.1,168.6" fill="none" stroke="#d81b9f" stroke-width="1.3" stroke-opacity="0.85"/>
<rect x="20" y="1066" width="50" height="4" fill="#232019"/>
<text x="20" y="1060" font-size="12" fill="#232019">1 km (authored, pre-spread)</text>
<text x="20" y="24" font-size="14" fill="#232019">grid / spread — game data (grey/green) vs OSM geo-truth (magenta)</text>
</svg>
