<svg xmlns="http://www.w3.org/2000/svg" width="1100" height="1100" viewBox="0 0 1100 1100">
<rect width="1100" height="1100" fill="#f6f3ec"/>
<circle cx="702.7285657051282" cy="448.1809561965812" r="803.8461538461537" fill="none" stroke="#c9c2b2" stroke-dasharray="6 5"/>
<circle cx="-40.16566369050008" cy="710.9542719155909" r="803.8461538461537" fill="none" stroke="#c9c2b2" stroke-dasharray="6 5"/>
<circle cx="-784.5390618690838" cy="309.78296886356486" r="774.0326558840686" fill="none" stroke="#c9c2b2" stroke-dasharray="6 5"/>
<circle cx="-1172.8699998623892" cy="498.57104478022717" r="591.4329850273874" fill="none" stroke="#c9c2b2" stroke-dasharray="6 5"/>
<circle cx="-440.9006193143707" cy="-146.3085433019902" r="669.5274454826828" fill="none" stroke="#c9c2b2" stroke-dasharray="6 5"/>
<circle cx="-812.6310799793603" cy="-288.5422030642218" r="550.2933207608955" fill="none" stroke="#c9c2b2" stroke-dasharray="6 5"/>
<circle cx="1032.3076923076924" cy="14.102564102564088" r="669.8717948717948" fill="none" stroke="#c9c2b2" stroke-dasharray="6 5"/>
<circle cx="-365.1427010938835" cy="-975.2378351564723" r="533.8332423047653" fill="none" stroke="#c9c2b2" stroke-dasharray="6 5"/>
<circle cx="1555.828632598017" cy="-561.7053307662293" r="555.8526653831146" fill="none" stroke="#c9c2b2" stroke-dasharray="6 5"/>
<circle cx="2009.4777343289172" cy="417.3202059700984" r="583.791093731567" fill="none" stroke="#c9c2b2" stroke-dasharray="6 5"/>
<circle cx="-822.2217062323402" cy="1236.1108531161701" r="527.7775793201308" fill="none" stroke="#c9c2b2" stroke-dasharray="6 5"/>
<circle cx="-1294.2493532156006" cy="-182.9708967908157" r="614.7497844052002" fill="none" stroke="#c9c2b2" stroke-dasharray="6 5"/>
<circle cx="-1293.0243887701956" cy="-571.8409322949017" r="480.7889709835293" fill="none" stroke="#c9c2b2" stroke-dasharray="6 5"/>
<circle cx="-1584.4529812378332" cy="500.26517325271067" r="455.9025785168188" fill="none" stroke="#c9c2b2" stroke-dasharray="6 5"/>
<circle cx="-1497.5224223567377" cy="1072.5447848722924" r="511.8806055891844" fill="none" stroke="#c9c2b2" stroke-dasharray="6 5"/>
<circle cx="-1080.371066213572" cy="1488.6984926684204" r="642.267389720498" fill="none" stroke="#c9c2b2" stroke-dasharray="6 5"/>
<circle cx="-772.9892455629981" cy="1264.414192604019" r="529.1956982251993" fill="none" stroke="#c9c2b2" stroke-dasharray="6 5"/>
<circle cx="-1356.2438691430416" cy="1543.6803147660535" r="405.583801945328" fill="none" stroke="#c9c2b2" stroke-dasharray="6 5"/>
<circle cx="-19.809573930211513" cy="2333.7517096945758" r="693.6812204367793" fill="none" stroke="#c9c2b2" stroke-dasharray="6 5"/>
<circle cx="2390.0098911018995" cy="-204.8758527597538" r="566.1568895698152" fill="none" stroke="#c9c2b2" stroke-dasharray="6 5"/>
<circle cx="-574.2041687618605" cy="-1261.217827449664" r="416.37191435624464" fill="none" stroke="#c9c2b2" stroke-dasharray="6 5"/>
<circle cx="-331.9493425041287" cy="-1304.3550278291934" r="452.2817141046814" fill="none" stroke="#c9c2b2" stroke-dasharray="6 5"/>
<circle cx="-15.060320890390699" cy="-1574.626806547869" r="941.7672014839845" fill="#c1a97e" fill-opacity="0.25" stroke="#a8895c"/>
<circle cx="-15.060320890390699" cy="-1574.626806547869" r="2.5" fill="#8a6b3f"/>
<circle cx="394.37997813221614" cy="-1680.5536467715692" r="751.2690710858532" fill="#c1a97e" fill-opacity="0.25" stroke="#a8895c"/>
<circle cx="394.37997813221614" cy="-1680.5536467715692" r="2.5" fill="#8a6b3f"/>
<circle cx="-517.6228405000288" cy="-1348.4275236527783" r="776.4529749091118" fill="#c1a97e" fill-opacity="0.25" stroke="#a8895c"/>
<circle cx="-517.6228405000288" cy="-1348.4275236527783" r="2.5" fill="#8a6b3f"/>
<circle cx="979.3374118449995" cy="-1560.4050244211949" r="725.6406960760555" fill="#c1a97e" fill-opacity="0.25" stroke="#a8895c"/>
<circle cx="979.3374118449995" cy="-1560.4050244211949" r="2.5" fill="#8a6b3f"/>
<circle cx="294.6477291829574" cy="-1710.7187709668842" r="544.7515110763576" fill="#c1a97e" fill-opacity="0.25" stroke="#a8895c"/>
<circle cx="294.6477291829574" cy="-1710.7187709668842" r="2.5" fill="#8a6b3f"/>
<circle cx="1139.4591697627627" cy="2328.284386091024" r="1005.5128205128204" fill="#c1a97e" fill-opacity="0.25" stroke="#a8895c"/>
<circle cx="1139.4591697627627" cy="2328.284386091024" r="2.5" fill="#8a6b3f"/>
<circle cx="1784.201422853765" cy="2298.4520157095003" r="781.6609011407179" fill="#c1a97e" fill-opacity="0.25" stroke="#a8895c"/>
<circle cx="1784.201422853765" cy="2298.4520157095003" r="2.5" fill="#8a6b3f"/>
<circle cx="420.59539567460547" cy="2232.259856230129" r="786.9230769230769" fill="#c1a97e" fill-opacity="0.25" stroke="#a8895c"/>
<circle cx="420.59539567460547" cy="2232.259856230129" r="2.5" fill="#8a6b3f"/>
<circle cx="-341.58426075284547" cy="2078.4301612905924" r="699.4871794871796" fill="#c1a97e" fill-opacity="0.25" stroke="#a8895c"/>
<circle cx="-341.58426075284547" cy="2078.4301612905924" r="2.5" fill="#8a6b3f"/>
<circle cx="946.4792049118147" cy="831.8774957721339" r="218.5897435897436" fill="#c1a97e" fill-opacity="0.25" stroke="#a8895c"/>
<circle cx="946.4792049118147" cy="831.8774957721339" r="2.5" fill="#8a6b3f"/>
<circle cx="1022.722470675983" cy="963.2301869514545" r="240.44871794871798" fill="#c1a97e" fill-opacity="0.25" stroke="#a8895c"/>
<circle cx="1022.722470675983" cy="963.2301869514545" r="2.5" fill="#8a6b3f"/>
<circle cx="1156.6358974358973" cy="829.2025641025641" r="174.8717948717949" fill="#c1a97e" fill-opacity="0.25" stroke="#a8895c"/>
<circle cx="1156.6358974358973" cy="829.2025641025641" r="2.5" fill="#8a6b3f"/>
<circle cx="1092.7095120036715" cy="624.6331191909564" r="142.08333333333334" fill="#c1a97e" fill-opacity="0.25" stroke="#a8895c"/>
<circle cx="1092.7095120036715" cy="624.6331191909564" r="2.5" fill="#8a6b3f"/>
<circle cx="1834.60942079231" cy="1001.5079227213521" r="612.051282051282" fill="#c1a97e" fill-opacity="0.25" stroke="#a8895c"/>
<circle cx="1834.60942079231" cy="1001.5079227213521" r="2.5" fill="#8a6b3f"/>
<circle cx="2411.9495359159387" cy="674.1299690610625" r="655.7692307692308" fill="#c1a97e" fill-opacity="0.25" stroke="#a8895c"/>
<circle cx="2411.9495359159387" cy="674.1299690610625" r="2.5" fill="#8a6b3f"/>
<circle cx="1383.4302960281564" cy="-1235.922062917478" r="612.051282051282" fill="#c1a97e" fill-opacity="0.25" stroke="#a8895c"/>
<circle cx="1383.4302960281564" cy="-1235.922062917478" r="2.5" fill="#8a6b3f"/>
<circle cx="1897.181504186812" cy="-797.1815041868119" r="524.6153846153845" fill="#c1a97e" fill-opacity="0.25" stroke="#a8895c"/>
<circle cx="1897.181504186812" cy="-797.1815041868119" r="2.5" fill="#8a6b3f"/>
<circle cx="-1216.9850065403282" cy="-885.6753178140166" r="577.6681752151073" fill="#c1a97e" fill-opacity="0.25" stroke="#a8895c"/>
<circle cx="-1216.9850065403282" cy="-885.6753178140166" r="2.5" fill="#8a6b3f"/>
<circle cx="-1703.676861411247" cy="723.3597585700959" r="693.4390342803837" fill="#c1a97e" fill-opacity="0.25" stroke="#a8895c"/>
<circle cx="-1703.676861411247" cy="723.3597585700959" r="2.5" fill="#8a6b3f"/>
<circle cx="2668.5685878747104" cy="550" r="953.3558645436198" fill="#c1a97e" fill-opacity="0.25" stroke="#a8895c"/>
<circle cx="2668.5685878747104" cy="550" r="2.5" fill="#8a6b3f"/>
<circle cx="2724.107890232271" cy="-58.75020926503589" r="695.7145248743267" fill="#c1a97e" fill-opacity="0.25" stroke="#a8895c"/>
<circle cx="2724.107890232271" cy="-58.75020926503589" r="2.5" fill="#8a6b3f"/>
<circle cx="2517.9567527404074" cy="1378.6133695749086" r="828.6133695749085" fill="#c1a97e" fill-opacity="0.25" stroke="#a8895c"/>
<circle cx="2517.9567527404074" cy="1378.6133695749086" r="2.5" fill="#8a6b3f"/>
<circle cx="2713.46202740618" cy="1090.865506851545" r="649.0386082218539" fill="#c1a97e" fill-opacity="0.25" stroke="#a8895c"/>
<circle cx="2713.46202740618" cy="1090.865506851545" r="2.5" fill="#8a6b3f"/>
<circle cx="550" cy="2763.326923076923" r="1014.4415064102562" fill="#c1a97e" fill-opacity="0.25" stroke="#a8895c"/>
<circle cx="550" cy="2763.326923076923" r="2.5" fill="#8a6b3f"/>
<circle cx="1127.5732438379364" cy="2777.7825119463264" r="759.0962633298592" fill="#c1a97e" fill-opacity="0.25" stroke="#a8895c"/>
<circle cx="1127.5732438379364" cy="2777.7825119463264" r="2.5" fill="#8a6b3f"/>
<circle cx="38.65531039896791" cy="2765.8269882711393" r="784.0618573882491" fill="#c1a97e" fill-opacity="0.25" stroke="#a8895c"/>
<circle cx="38.65531039896791" cy="2765.8269882711393" r="2.5" fill="#8a6b3f"/>
<circle cx="1621.3444863260456" cy="2514.1315582644174" r="714.2296575506972" fill="#c1a97e" fill-opacity="0.25" stroke="#a8895c"/>
<circle cx="1621.3444863260456" cy="2514.1315582644174" r="2.5" fill="#8a6b3f"/>
<circle cx="-1298.6285623328922" cy="1894.4571362421034" r="705.8399965271042" fill="#c1a97e" fill-opacity="0.25" stroke="#a8895c"/>
<circle cx="-1298.6285623328922" cy="1894.4571362421034" r="2.5" fill="#8a6b3f"/>
<circle cx="-1656.5687752394933" cy="1338.0602768712477" r="630.4482214969981" fill="#c1a97e" fill-opacity="0.25" stroke="#a8895c"/>
<circle cx="-1656.5687752394933" cy="1338.0602768712477" r="2.5" fill="#8a6b3f"/>
<circle cx="-1000.5474542326685" cy="2263.762975730844" r="620.2189816930673" fill="#c1a97e" fill-opacity="0.25" stroke="#a8895c"/>
<circle cx="-1000.5474542326685" cy="2263.762975730844" r="2.5" fill="#8a6b3f"/>
<circle cx="-1814.0033062925" cy="321.22548648782254" r="686.3235405365324" fill="#c1a97e" fill-opacity="0.25" stroke="#a8895c"/>
<circle cx="-1814.0033062925" cy="321.22548648782254" r="2.5" fill="#8a6b3f"/>
<circle cx="-1673.7484693234373" cy="-164.7762937111048" r="635.356705520982" fill="#c1a97e" fill-opacity="0.25" stroke="#a8895c"/>
<circle cx="-1673.7484693234373" cy="-164.7762937111048" r="2.5" fill="#8a6b3f"/>
<circle cx="92.43664291971265" cy="-1780.5226987289298" r="762.6055951338121" fill="#c1a97e" fill-opacity="0.25" stroke="#a8895c"/>
<circle cx="92.43664291971265" cy="-1780.5226987289298" r="2.5" fill="#8a6b3f"/>
<circle cx="570.3876261836479" cy="-1797.7135689939141" r="658.6771536255471" fill="#c1a97e" fill-opacity="0.25" stroke="#a8895c"/>
<circle cx="570.3876261836479" cy="-1797.7135689939141" r="2.5" fill="#8a6b3f"/>
<circle cx="-545.6428296553954" cy="-1528.5909682605215" r="626.0816169459403" fill="#c1a97e" fill-opacity="0.25" stroke="#a8895c"/>
<circle cx="-545.6428296553954" cy="-1528.5909682605215" r="2.5" fill="#8a6b3f"/>
<circle cx="-241.25256410256395" cy="669.5051282051281" r="243.26923076923075" fill="#79b55a" fill-opacity="0.45" stroke="#579a41"/>
<circle cx="-455.8251203835838" cy="-724.9159967459452" r="148.07692307692304" fill="#79b55a" fill-opacity="0.45" stroke="#579a41"/>
<circle cx="344.69049736851184" cy="207.8174956141865" r="84.61538461538463" fill="#79b55a" fill-opacity="0.45" stroke="#579a41"/>
<circle cx="427.8171474358974" cy="336.1800080128205" r="63.46153846153845" fill="#79b55a" fill-opacity="0.45" stroke="#579a41"/>
<circle cx="-776.9726528626043" cy="317.98003313126696" r="105.76923076923077" fill="#79b55a" fill-opacity="0.45" stroke="#579a41"/>
<circle cx="943.0809434097987" cy="824.1222368515702" r="264.4230769230769" fill="#79b55a" fill-opacity="0.45" stroke="#579a41"/>
<circle cx="1116.4435897435897" cy="855.9974358974358" r="285.5769230769231" fill="#79b55a" fill-opacity="0.45" stroke="#579a41"/>
<circle cx="-991.2470350618637" cy="-123.48609935476406" r="179.8076923076923" fill="#79b55a" fill-opacity="0.45" stroke="#579a41"/>
<circle cx="-1295.4313479586745" cy="400.37043124659397" r="179.8076923076923" fill="#79b55a" fill-opacity="0.45" stroke="#579a41"/>
<circle cx="-118.54305513872396" cy="-559.781471530282" r="190.3846153846154" fill="#79b55a" fill-opacity="0.45" stroke="#579a41"/>
<circle cx="308.90115090309257" cy="-601.9167234630022" r="169.23076923076925" fill="#79b55a" fill-opacity="0.45" stroke="#579a41"/>
<circle cx="-1062.0870492431422" cy="885.9599827986516" r="116.34615384615385" fill="#79b55a" fill-opacity="0.45" stroke="#579a41"/>
<circle cx="-756.3847057868975" cy="1003.2355101709643" r="105.76923076923077" fill="#79b55a" fill-opacity="0.45" stroke="#579a41"/>
<path d="M-1328.5,261.5 L-1000.2,-119.6 L-912.4,-467.0 L-909.9,-748.3 L-1034.5,-892.7 L-1239.8,-835.5 L-1164.4,-1037.4" fill="none" stroke="#5ec4cc" stroke-width="174.87179487179486" stroke-linecap="round" stroke-linejoin="round"/>
<path d="M-132.0,2575.2 L-561.8,2006.9 L-284.0,1426.3 L-796.0,908.4 L-1251.5,1164.5 L-1328.5,261.5" fill="none" stroke="#5ec4cc" stroke-width="118.46153846153845" stroke-linecap="round" stroke-linejoin="round"/>
<path d="M2367.3,-309.7 L813.0,13.0 L690.3,-693.3 L-466.5,-591.2 L-829.6,-1146.7 L-1107.4,-991.7" fill="none" stroke="#5ec4cc" stroke-width="126.92307692307692" stroke-linecap="round" stroke-linejoin="round"/>
<path d="M-964.8,114.3 L-241.5,305.4 L872.4,230.2 L992.1,291.4 L1076.5,157.7 L1181.0,96.9 L1390.0,44.6 L1920.8,-19.0" fill="none" stroke="#8e8878" stroke-width="47.94871794871795" stroke-linecap="round" stroke-linejoin="round"/>
<path d="M-691.9,386.7 L-119.9,408.0 L140.9,356.2 L296.6,329.5 L438.0,332.6" fill="none" stroke="#8e8878" stroke-width="39.48717948717949" stroke-linecap="round" stroke-linejoin="round"/>
<path d="M-697.0,410.3 L-474.6,530.2 L-442.5,540.9 L-378.7,549.7 L905.2,600.8 L977.2,581.3 L1004.8,537.2 L1026.7,467.1" fill="none" stroke="#8e8878" stroke-width="33.84615384615385" stroke-linecap="round" stroke-linejoin="round"/>
<path d="M-1307.2,499.5 L-1059.8,514.7 L-910.4,654.8 L-673.7,763.1 L-69.0,782.8 L130.4,861.4 L286.8,992.7 L492.2,1133.4" fill="none" stroke="#8e8878" stroke-width="31.025641025641026" stroke-linecap="round" stroke-linejoin="round"/>
<path d="M-899.6,-25.4 L-857.1,-38.9 L-803.9,-46.2 L-768.5,-42.5 L-614.0,-4.7 L-509.1,4.4 L704.6,12.7 L989.7,-131.7" fill="none" stroke="#8e8878" stroke-width="36.666666666666664" stroke-linecap="round" stroke-linejoin="round"/>
<path d="M-384.6,255.5 L-274.2,223.4 L-177.5,178.9 L48.1,124.5 L353.2,64.0 L755.1,43.6 L914.5,64.2 L1023.7,28.3" fill="none" stroke="#8e8878" stroke-width="31.025641025641026" stroke-linecap="round" stroke-linejoin="round"/>
<path d="M-739.7,506.9 L-586.4,15.8 L-576.7,-407.6 L-471.0,-646.3 L-495.4,-789.0 L-353.4,-1117.8 L-324.4,-1330.4 L-112.4,-1488.8" fill="none" stroke="#8e8878" stroke-width="42.30769230769231" stroke-linecap="round" stroke-linejoin="round"/>
<path d="M117.0,925.0 L58.8,714.1 L55.6,655.3 L41.5,571.5 L73.0,336.3 L130.1,-142.1 L134.9,-171.0 L160.7,-242.3" fill="none" stroke="#8e8878" stroke-width="39.48717948717949" stroke-linecap="round" stroke-linejoin="round"/>
<path d="M-21.5,906.6 L-20.4,700.2 L-36.9,632.4 L-23.3,567.7 L-22.7,523.1 L-26.4,478.8 L-17.6,422.3 L1.5,-222.0" fill="none" stroke="#8e8878" stroke-width="31.025641025641026" stroke-linecap="round" stroke-linejoin="round"/>
<path d="M-919.0,802.7 L-992.9,732.0 L-1039.5,663.8 L-1042.8,616.6 L-1003.9,516.6 L-986.2,457.7 L-908.9,150.8" fill="none" stroke="#8e8878" stroke-width="31.025641025641026" stroke-linecap="round" stroke-linejoin="round"/>
<path d="M-295.4,1276.1 L-239.4,1237.0 L-136.2,1188.8 L-49.4,1125.8 L-35.5,1076.3 L195.4,834.7 L504.8,227.5 L709.5,22.6" fill="none" stroke="#8e8878" stroke-width="36.666666666666664" stroke-linecap="round" stroke-linejoin="round"/>
<path d="M-725.4,536.9 L-509.7,858.1 L-236.2,1141.6 L-179.6,1226.6 L-127.4,1523.7 L-140.7,1578.0 L-81.5,1672.8 L-104.4,1801.0" fill="none" stroke="#8e8878" stroke-width="31.025641025641026" stroke-linecap="round" stroke-linejoin="round"/>
<path d="M282.3,-285.7 L310.2,-115.9 L322.5,-66.0 L345.2,-13.7 L363.7,18.7 L299.8,141.1 L193.2,609.8 L204.6,750.8" fill="none" stroke="#8e8878" stroke-width="28.205128205128204" stroke-linecap="round" stroke-linejoin="round"/>
<path d="M742.2,181.4 L749.4,254.4 L750.1,387.1 L745.5,654.9 L748.0,765.8 L744.9,856.3 L739.5,926.1 L758.4,962.8" fill="none" stroke="#8e8878" stroke-width="25.384615384615383" stroke-linecap="round" stroke-linejoin="round"/>
<path d="M419.7,424.3 L496.0,425.8 L611.1,427.8 L719.5,429.9" fill="none" stroke="#8e8878" stroke-width="22.564102564102566" stroke-linecap="round" stroke-linejoin="round"/>
<path d="M-449.7,-999.6 L-631.8,-500.5 L-729.5,16.9 L-655.2,469.7 L-253.8,590.2 L39.5,566.0 L295.5,585.6 L830.0,600.9 L996.6,671.8 L1009.3,737.1" fill="none" stroke="#E3002C" stroke-width="1.6" stroke-opacity="0.85"/>
<path d="M-1150.1,331.0 L-733.1,282.7 L-200.3,308.8 L62.8,315.0 L870.9,229.1 L1085.9,148.1 L1927.3,-19.5" fill="none" stroke="#0070BD" stroke-width="1.6" stroke-opacity="0.85"/>
<path d="M-655.7,1598.5 L-601.9,817.9 L-681.5,442.9 L-361.0,201.7 L280.5,24.5 L839.1,42.0" fill="none" stroke="#1DA742" stroke-width="1.6" stroke-opacity="0.85"/>
<path d="M-251.3,1618.4 L-119.9,871.5 L-200.3,282.1 L-518.4,-251.3 L-918.0,-79.1" fill="none" stroke="#F8B61C" stroke-width="1.6" stroke-opacity="0.85"/>
<path d="M871.5,1675.2 L286.3,978.4 L-13.3,308.6 L14.1,-119.9 L308.8,-521.8 L364.3,-908.9" fill="none" stroke="#C48C31" stroke-width="1.6" stroke-opacity="0.85"/>
<path d="M1067.8,614.8 L1063.1,626.7 L1057.9,639.5 L1052.6,651.9 L1047.0,664.6 L1040.8,677.1 L1034.8,680.7 L1029.1,682.0 L1023.4,683.2 L1017.6,684.8 L1011.3,687.7 L1004.5,692.6 L997.1,699.3 L989.2,708.2 L980.4,719.6 L970.8,733.4 L965.5,742.5 L973.7,736.1 L980.6,732.6 L986.8,731.5 L992.0,733.5 L995.5,738.1 L998.2,745.2 L999.1,754.4 L998.8,765.3 L996.6,778.3 L993.6,789.5 L993.2,778.5 L990.9,771.6 L986.6,768.0 L980.3,768.8 L972.5,773.5 L962.6,783.1 L955.1,792.7 L963.9,786.4 L971.2,783.9 L971.8,791.2 L963.3,806.8 L953.8,822.6 L950.7,827.8" fill="none" stroke="#4a4438" stroke-width="1.4" stroke-dasharray="2 3"/>
<circle cx="550" cy="550" r="4" fill="#232019"/>
<text x="556" y="546" font-size="11" fill="#232019">Taipei 101</text>
<circle cx="548.4727143429487" cy="335.16181757478637" r="4" fill="#232019"/>
<text x="554.4727143429487" y="331.16181757478637" font-size="11" fill="#232019">Taipei City Hall</text>
<circle cx="342.7625552239422" cy="208.8402442129992" r="4" fill="#232019"/>
<text x="348.7625552239422" y="204.8402442129992" font-size="11" fill="#232019">Sun Yat-sen Hall</text>
<circle cx="340.65089902172997" cy="144.38611685460182" r="4" fill="#232019"/>
<text x="346.65089902172997" y="140.38611685460182" font-size="11" fill="#232019">Taipei Dome</text>
<circle cx="491.9631450320513" cy="463.453812767094" r="4" fill="#232019"/>
<text x="497.9631450320513" y="459.453812767094" font-size="11" fill="#232019">Grand Hyatt Taipei</text>
<circle cx="642.146234642094" cy="511.3087633547009" r="4" fill="#232019"/>
<text x="648.146234642094" y="507.3087633547009" font-size="11" fill="#232019">Breeze Nan Shan</text>
<circle cx="691.0193756677351" cy="386.0713394764957" r="4" fill="#232019"/>
<text x="697.0193756677351" y="382.0713394764957" font-size="11" fill="#232019">Mitsukoshi A11</text>
<circle cx="161.47039003521758" cy="45.71536141122715" r="4" fill="#232019"/>
<text x="167.47039003521758" y="41.71536141122715" font-size="11" fill="#232019">Taipei Arena</text>
<circle cx="838.1363692172464" cy="42.382644099447816" r="4" fill="#232019"/>
<text x="844.1363692172464" y="38.382644099447816" font-size="11" fill="#232019">Raohe Night Market</text>
<circle cx="-603.3915852553216" cy="522.1364169880247" r="4" fill="#232019"/>
<text x="-597.3915852553216" y="518.1364169880247" font-size="11" fill="#232019">CKS Memorial Hall</text>
<circle cx="-859.7138970442365" cy="364.80542235885457" r="4" fill="#232019"/>
<text x="-853.7138970442365" y="360.80542235885457" font-size="11" fill="#232019">Presidential Office</text>
<circle cx="-726.2239172004956" cy="136.07510532312858" r="4" fill="#232019"/>
<text x="-720.2239172004956" y="132.07510532312858" font-size="11" fill="#232019">Taipei Main Station</text>
<circle cx="-1136.3079773370705" cy="447.8073563902818" r="4" fill="#232019"/>
<text x="-1130.3079773370705" y="443.8073563902818" font-size="11" fill="#232019">Longshan Temple</text>
<circle cx="-724.9214746310115" cy="-574.8851414812004" r="4" fill="#232019"/>
<text x="-718.9214746310115" y="-578.8851414812004" font-size="11" fill="#232019">Bao’an Temple</text>
<circle cx="-452.0918877466587" cy="-747.9748983066113" r="4" fill="#232019"/>
<text x="-446.0918877466587" y="-751.9748983066113" font-size="11" fill="#232019">Grand Hotel</text>
<circle cx="-452.9038060927378" cy="-967.8200387817569" r="4" fill="#232019"/>
<text x="-446.9038060927378" y="-971.8200387817569" font-size="11" fill="#232019">Shilin Night Market</text>
<circle cx="361.6139057368536" cy="-904.8182462603261" r="4" fill="#232019"/>
<text x="367.6139057368536" y="-908.8182462603261" font-size="11" fill="#232019">Miramar Ferris Wheel</text>
<circle cx="159.58427654871042" cy="-1298.8709275869903" r="4" fill="#232019"/>
<text x="165.58427654871042" y="-1302.8709275869903" font-size="11" fill="#232019">Palace Museum</text>
<circle cx="641.6371394230769" cy="763.8199919871795" r="2" fill="#6b6455"/>
<circle cx="1461.025641025641" cy="496.4102564102564" r="2" fill="#6b6455"/>
<circle cx="-334.23076923076917" cy="228.4615384615385" r="2" fill="#6b6455"/>
<circle cx="236.61489920523945" cy="215.72255915225543" r="2" fill="#6b6455"/>
<circle cx="14.101293268544055" cy="898.3341593754463" r="2" fill="#6b6455"/>
<circle cx="683.974358974359" cy="-253.8461538461537" r="2" fill="#6b6455"/>
<circle cx="730.1101638745786" cy="189.77967225084285" r="2" fill="#6b6455"/>
<circle cx="-441.4102564102566" cy="710.7692307692307" r="2" fill="#6b6455"/>
<circle cx="282.05128205128204" cy="1166.2820512820513" r="2" fill="#6b6455"/>
<circle cx="-119.8717948717948" cy="-173.46153846153845" r="2" fill="#6b6455"/>
<path d="M542.9636191239316,534.309000400641 L552.9636191239316,544.309000400641 M542.9636191239316,544.309000400641 L552.9636191239316,534.309000400641" stroke="#d81b9f" stroke-width="1.6"/>
<text x="553.9636191239316" y="551.309000400641" font-size="9" fill="#d81b9f">taipei-101</text>
<path d="M543.4727143429487,330.16181757478637 L553.4727143429487,340.16181757478637 M543.4727143429487,340.16181757478637 L553.4727143429487,330.16181757478637" stroke="#d81b9f" stroke-width="1.6"/>
<text x="554.4727143429487" y="347.16181757478637" font-size="9" fill="#d81b9f">city-hall</text>
<path d="M337.7625552239422,203.8402442129992 L347.7625552239422,213.8402442129992 M337.7625552239422,213.8402442129992 L347.7625552239422,203.8402442129992" stroke="#d81b9f" stroke-width="1.6"/>
<text x="348.7625552239422" y="220.8402442129992" font-size="9" fill="#d81b9f">sun-yat-sen-hall</text>
<path d="M335.65089902172997,139.38611685460182 L345.65089902172997,149.38611685460182 M335.65089902172997,149.38611685460182 L345.65089902172997,139.38611685460182" stroke="#d81b9f" stroke-width="1.6"/>
<text x="346.65089902172997" y="156.38611685460182" font-size="9" fill="#d81b9f">taipei-dome</text>
<path d="M486.9631450320513,458.453812767094 L496.9631450320513,468.453812767094 M486.9631450320513,468.453812767094 L496.9631450320513,458.453812767094" stroke="#d81b9f" stroke-width="1.6"/>
<text x="497.9631450320513" y="475.453812767094" font-size="9" fill="#d81b9f">grand-hyatt</text>
<path d="M637.146234642094,506.3087633547009 L647.146234642094,516.3087633547009 M637.146234642094,516.3087633547009 L647.146234642094,506.3087633547009" stroke="#d81b9f" stroke-width="1.6"/>
<text x="648.146234642094" y="523.3087633547009" font-size="9" fill="#d81b9f">breeze-nanshan</text>
<path d="M686.0193756677351,381.0713394764957 L696.0193756677351,391.0713394764957 M686.0193756677351,391.0713394764957 L696.0193756677351,381.0713394764957" stroke="#d81b9f" stroke-width="1.6"/>
<text x="697.0193756677351" y="398.0713394764957" font-size="9" fill="#d81b9f">mitsukoshi-a11</text>
<path d="M156.47039003521758,40.71536141122715 L166.47039003521758,50.71536141122715 M156.47039003521758,50.71536141122715 L166.47039003521758,40.71536141122715" stroke="#d81b9f" stroke-width="1.6"/>
<text x="167.47039003521758" y="57.71536141122715" font-size="9" fill="#d81b9f">taipei-arena</text>
<path d="M833.1363692172464,37.382644099447816 L843.1363692172464,47.382644099447816 M833.1363692172464,47.382644099447816 L843.1363692172464,37.382644099447816" stroke="#d81b9f" stroke-width="1.6"/>
<text x="844.1363692172464" y="54.382644099447816" font-size="9" fill="#d81b9f">raohe-night-market</text>
<path d="M-608.3915852553216,517.1364169880247 L-598.3915852553216,527.1364169880247 M-608.3915852553216,527.1364169880247 L-598.3915852553216,517.1364169880247" stroke="#d81b9f" stroke-width="1.6"/>
<text x="-597.3915852553216" y="534.1364169880247" font-size="9" fill="#d81b9f">cks-memorial</text>
<path d="M-864.7138970442365,359.80542235885457 L-854.7138970442365,369.80542235885457 M-864.7138970442365,369.80542235885457 L-854.7138970442365,359.80542235885457" stroke="#d81b9f" stroke-width="1.6"/>
<text x="-853.7138970442365" y="376.80542235885457" font-size="9" fill="#d81b9f">presidential-office</text>
<path d="M-731.2239172004956,131.07510532312858 L-721.2239172004956,141.07510532312858 M-731.2239172004956,141.07510532312858 L-721.2239172004956,131.07510532312858" stroke="#d81b9f" stroke-width="1.6"/>
<text x="-720.2239172004956" y="148.07510532312858" font-size="9" fill="#d81b9f">main-station</text>
<path d="M-1141.3079773370705,442.8073563902818 L-1131.3079773370705,452.8073563902818 M-1141.3079773370705,452.8073563902818 L-1131.3079773370705,442.8073563902818" stroke="#d81b9f" stroke-width="1.6"/>
<text x="-1130.3079773370705" y="459.8073563902818" font-size="9" fill="#d81b9f">longshan-temple</text>
<path d="M-457.0918877466587,-752.9748983066113 L-447.0918877466587,-742.9748983066113 M-457.0918877466587,-742.9748983066113 L-447.0918877466587,-752.9748983066113" stroke="#d81b9f" stroke-width="1.6"/>
<text x="-446.0918877466587" y="-735.9748983066113" font-size="9" fill="#d81b9f">grand-hotel</text>
<path d="M-457.9038060927378,-972.8200387817569 L-447.9038060927378,-962.8200387817569 M-457.9038060927378,-962.8200387817569 L-447.9038060927378,-972.8200387817569" stroke="#d81b9f" stroke-width="1.6"/>
<text x="-446.9038060927378" y="-955.8200387817569" font-size="9" fill="#d81b9f">shilin-night-market</text>
<path d="M154.58427654871042,-1303.8709275869903 L164.58427654871042,-1293.8709275869903 M154.58427654871042,-1293.8709275869903 L164.58427654871042,-1303.8709275869903" stroke="#d81b9f" stroke-width="1.6"/>
<text x="165.58427654871042" y="-1286.8709275869903" font-size="9" fill="#d81b9f">palace-museum</text>
<path d="M356.6139057368536,-909.8182462603261 L366.6139057368536,-899.8182462603261 M356.6139057368536,-899.8182462603261 L366.6139057368536,-909.8182462603261" stroke="#d81b9f" stroke-width="1.6"/>
<text x="367.6139057368536" y="-892.8182462603261" font-size="9" fill="#d81b9f">miramar-ferris-wheel</text>
<path d="M-729.9214746310115,-579.8851414812004 L-719.9214746310115,-569.8851414812004 M-729.9214746310115,-569.8851414812004 L-719.9214746310115,-579.8851414812004" stroke="#d81b9f" stroke-width="1.6"/>
<text x="-718.9214746310115" y="-562.8851414812004" font-size="9" fill="#d81b9f">baoan-temple</text>
<path d="M-246.25256410256395,664.5051282051281 L-236.25256410256395,674.5051282051281 M-246.25256410256395,674.5051282051281 L-236.25256410256395,664.5051282051281" stroke="#d81b9f" stroke-width="1.6"/>
<text x="-235.25256410256395" y="681.5051282051281" font-size="9" fill="#d81b9f">daan-forest-park</text>
<path d="M-781.9726528626043,312.98003313126696 L-771.9726528626043,322.98003313126696 M-781.9726528626043,322.98003313126696 L-771.9726528626043,312.98003313126696" stroke="#d81b9f" stroke-width="1.6"/>
<text x="-770.9726528626043" y="329.98003313126696" font-size="9" fill="#d81b9f">peace-park</text>
<path d="M941.4792049118147,826.8774957721339 L951.4792049118147,836.8774957721339 M941.4792049118147,836.8774957721339 L951.4792049118147,826.8774957721339" stroke="#d81b9f" stroke-width="1.6"/>
<text x="952.4792049118147" y="843.8774957721339" font-size="9" fill="#d81b9f">elephant-mountain</text>
<path d="M1081.7012820512819,935.1333333333332 L1091.7012820512819,945.1333333333332 M1081.7012820512819,945.1333333333332 L1091.7012820512819,935.1333333333332" stroke="#d81b9f" stroke-width="1.6"/>
<text x="1092.7012820512819" y="952.1333333333332" font-size="9" fill="#d81b9f">thumb-mountain</text>
<path d="M1087.7095120036715,619.6331191909564 L1097.7095120036715,629.6331191909564 M1087.7095120036715,629.6331191909564 L1097.7095120036715,619.6331191909564" stroke="#d81b9f" stroke-width="1.6"/>
<text x="1098.7095120036715" y="636.6331191909564" font-size="9" fill="#d81b9f">tiger-mountain</text>
<path d="M371.77901053527853,-1806.3662808253275 L381.77901053527853,-1796.3662808253275 M371.77901053527853,-1796.3662808253275 L381.77901053527853,-1806.3662808253275" stroke="#d81b9f" stroke-width="1.6"/>
<text x="382.77901053527853" y="-1789.3662808253275" font-size="9" fill="#d81b9f">qixingshan</text>
<path d="M-77.56441089688724,-1794.978444331914 L-67.56441089688724,-1784.978444331914 M-77.56441089688724,-1784.978444331914 L-67.56441089688724,-1794.978444331914" stroke="#d81b9f" stroke-width="1.6"/>
<text x="-66.56441089688724" y="-1777.978444331914" font-size="9" fill="#d81b9f">datun</text>
<path d="M-1379.9963136569843,-1020.5048792095681 L-1369.9963136569843,-1010.5048792095681 M-1379.9963136569843,-1010.5048792095681 L-1369.9963136569843,-1020.5048792095681" stroke="#d81b9f" stroke-width="1.6"/>
<text x="-1368.9963136569843" y="-1003.5048792095681" font-size="9" fill="#d81b9f">guanyinshan</text>
<path d="M1134.7818591536916,2322.7674939714598 L1144.7818591536916,2332.7674939714598 M1134.7818591536916,2332.7674939714598 L1144.7818591536916,2322.7674939714598" stroke="#d81b9f" stroke-width="1.6"/>
<text x="1145.7818591536916" y="2339.7674939714598" font-size="9" fill="#d81b9f">maokong</text>
<path d="M-964.8,114.3 L-241.5,305.4 L872.4,230.2 L992.1,291.4 L1076.5,157.7 L1181.0,96.9 L1390.0,44.6 L1920.8,-19.0" fill="none" stroke="#d81b9f" stroke-width="1.3" stroke-opacity="0.85"/>
<path d="M-692.7,387.8 L-513.8,413.1 L-464.5,415.2 L-350.6,415.5 L-261.3,418.7 L50.2,407.1 L438.0,333.1" fill="none" stroke="#d81b9f" stroke-width="1.3" stroke-opacity="0.85"/>
<path d="M-697.0,410.3 L-474.6,530.2 L-442.5,540.9 L-378.7,549.7 L905.2,600.8 L977.2,581.3 L1004.8,537.2 L1026.7,467.1" fill="none" stroke="#d81b9f" stroke-width="1.3" stroke-opacity="0.85"/>
<path d="M-1307.2,499.5 L-1059.8,514.7 L-910.4,654.8 L-673.7,763.1 L-69.0,782.8 L130.4,861.4 L286.8,992.7 L492.2,1133.4" fill="none" stroke="#d81b9f" stroke-width="1.3" stroke-opacity="0.85"/>
<path d="M-899.6,-25.4 L-857.1,-38.9 L-803.9,-46.2 L-768.5,-42.5 L-614.0,-4.7 L-509.1,4.4 L704.6,12.7 L989.7,-131.7" fill="none" stroke="#d81b9f" stroke-width="1.3" stroke-opacity="0.85"/>
<path d="M-384.6,255.5 L-274.2,223.4 L-177.5,178.9 L48.1,124.5 L353.2,64.0 L755.1,43.6 L914.5,64.2 L1023.7,28.3" fill="none" stroke="#d81b9f" stroke-width="1.3" stroke-opacity="0.85"/>
<path d="M-739.7,506.9 L-586.4,15.8 L-576.7,-407.6 L-471.0,-646.3 L-495.4,-789.0 L-353.4,-1117.8 L-324.4,-1330.4 L-112.4,-1488.8" fill="none" stroke="#d81b9f" stroke-width="1.3" stroke-opacity="0.85"/>
<path d="M117.0,925.0 L58.8,714.1 L55.6,655.3 L41.5,571.5 L73.0,336.3 L130.1,-142.1 L134.9,-171.0 L160.7,-242.3" fill="none" stroke="#d81b9f" stroke-width="1.3" stroke-opacity="0.85"/>
<path d="M-21.5,906.6 L-20.4,700.2 L-36.9,632.4 L-23.3,567.7 L-22.7,523.1 L-26.4,478.8 L-17.6,422.3 L1.5,-222.0" fill="none" stroke="#d81b9f" stroke-width="1.3" stroke-opacity="0.85"/>
<path d="M-919.0,802.7 L-992.9,732.0 L-1039.5,663.8 L-1042.8,616.6 L-1003.9,516.6 L-986.2,457.7 L-908.9,150.8" fill="none" stroke="#d81b9f" stroke-width="1.3" stroke-opacity="0.85"/>
<path d="M-295.4,1276.1 L-239.4,1237.0 L-136.2,1188.8 L-49.4,1125.8 L-35.5,1076.3 L195.4,834.7 L504.8,227.5 L709.5,22.6" fill="none" stroke="#d81b9f" stroke-width="1.3" stroke-opacity="0.85"/>
<path d="M-725.4,536.9 L-509.7,858.1 L-236.2,1141.6 L-179.6,1226.6 L-127.4,1523.7 L-140.7,1578.0 L-81.5,1672.8 L-104.4,1801.0" fill="none" stroke="#d81b9f" stroke-width="1.3" stroke-opacity="0.85"/>
<path d="M282.3,-285.7 L310.2,-115.9 L322.5,-66.0 L345.2,-13.7 L363.7,18.7 L299.8,141.1 L193.2,609.8 L204.6,750.8" fill="none" stroke="#d81b9f" stroke-width="1.3" stroke-opacity="0.85"/>
<path d="M742.2,181.4 L749.4,254.4 L750.1,387.1 L745.5,654.9 L748.0,765.8 L744.9,856.3 L739.5,926.1 L758.4,962.8" fill="none" stroke="#d81b9f" stroke-width="1.3" stroke-opacity="0.85"/>
<path d="M419.7,424.3 L496.0,425.8 L611.1,427.8 L719.5,429.9" fill="none" stroke="#d81b9f" stroke-width="1.3" stroke-opacity="0.85"/>
<path d="M-1021.3,100.2 L-930.5,60.6 L-254.9,216.1 L181.2,184.6 L410.7,78.8 L555.4,66.1 L734.7,47.9 L886.1,83.5" fill="none" stroke="#d81b9f" stroke-width="1.3" stroke-opacity="0.85"/>
<path d="M-839.3,-294.2 L-59.0,-299.9 L190.9,-275.5 L603.1,-327.8 L1139.8,-494.6 L1367.0,-483.7 L1461.3,-439.6 L1522.8,-434.5" fill="none" stroke="#d81b9f" stroke-width="1.3" stroke-opacity="0.85"/>
<path d="M-891.7,-123.1 L-757.3,-133.4 L-550.4,-168.5 L-487.8,-170.4 L-185.8,-167.0 L114.9,-160.3 L275.4,-176.1 L649.1,-206.2" fill="none" stroke="#d81b9f" stroke-width="1.3" stroke-opacity="0.85"/>
<path d="M-429.4,-535.3 L-447.5,-30.0 L-421.8,73.9 L-391.3,118.3 L-304.8,206.5 L-309.0,546.8 L-251.2,749.4 L-276.9,963.4" fill="none" stroke="#d81b9f" stroke-width="1.3" stroke-opacity="0.85"/>
<path d="M-270.8,-448.1 L-212.7,-393.2 L-192.9,-345.6 L-202.7,250.2 L-168.1,417.4 L-171.0,571.2 L-165.2,626.4 L-176.7,853.0" fill="none" stroke="#d81b9f" stroke-width="1.3" stroke-opacity="0.85"/>
<path d="M-676.6,-1270.6 L-586.6,-1244.0 L-641.1,-1115.3 L-629.0,-990.6 L-537.2,-968.2 L-502.5,-902.3 L-656.0,-553.5 L-737.7,84.5" fill="none" stroke="#d81b9f" stroke-width="1.3" stroke-opacity="0.85"/>
<path d="M-484.0,-1209.1 L-463.9,-1198.3" fill="none" stroke="#d81b9f" stroke-width="1.3" stroke-opacity="0.85"/>
<path d="M-590.0,-1257.3 L-480.3,-1320.4 L-452.1,-1340.6 L-424.0,-1358.9 L-379.1,-1379.7 L-338.4,-1396.2 L-283.2,-1431.3 L-242.0,-1453.0" fill="none" stroke="#d81b9f" stroke-width="1.3" stroke-opacity="0.85"/>
<path d="M-347.6,-1257.8 L-285.6,-1287.9 L-251.3,-1316.1 L-198.4,-1384.5 L-165.8,-1407.9 L-138.7,-1424.4 L-103.7,-1448.6" fill="none" stroke="#d81b9f" stroke-width="1.3" stroke-opacity="0.85"/>
<path d="M411.9,-947.6 L937.1,-777.2 L992.0,-860.7 L1038.9,-836.3 L1087.5,-894.4 L1197.7,-848.7 L1290.8,-921.8" fill="none" stroke="#d81b9f" stroke-width="1.3" stroke-opacity="0.85"/>
<path d="M1270.5,-268.3 L1226.9,-792.3 L1389.3,-755.3 L1482.7,-748.6 L1471.4,-812.2 L1530.3,-821.9 L1570.1,-851.0" fill="none" stroke="#d81b9f" stroke-width="1.3" stroke-opacity="0.85"/>
<path d="M1072.0,5.5 L1124.2,-17.0 L1229.5,-31.2 L1337.5,-65.5 L1553.9,-35.9 L1830.1,-85.1 L2005.5,-62.8" fill="none" stroke="#d81b9f" stroke-width="1.3" stroke-opacity="0.85"/>
<path d="M1943.9,265.0 L1920.1,213.2 L1917.6,157.5 L1925.6,105.7 L1920.0,52.7 L1931.7,-7.1 L1937.2,-60.9" fill="none" stroke="#d81b9f" stroke-width="1.3" stroke-opacity="0.85"/>
<path d="M-1556.6,351.7 L-1529.2,265.6 L-1463.8,190.1 L-1330.9,-27.2 L-1314.5,-62.3 L-1220.6,-177.9 L-1040.8,-290.8" fill="none" stroke="#d81b9f" stroke-width="1.3" stroke-opacity="0.85"/>
<path d="M-1559.8,1059.9 L-1556.8,1010.9 L-1546.1,864.4 L-1540.4,793.7 L-1528.9,684.6 L-1520.2,644.4 L-1476.9,507.6 L-1454.2,490.2" fill="none" stroke="#d81b9f" stroke-width="1.3" stroke-opacity="0.85"/>
<path d="M-69.1,2463.7 L-25.8,2361.6 L-6.5,2299.1 L-0.7,2272.9 L-7.5,2200.5 L-12.7,2165.4 L-75.5,1982.0" fill="none" stroke="#d81b9f" stroke-width="1.3" stroke-opacity="0.85"/>
<path d="M-1082.4,1398.1 L-821.0,1398.8 L-813.1,1363.5 L-804.3,1316.0 L-787.6,1255.4 L-779.4,1213.0 L-766.6,1154.4 L-754.2,1094.4" fill="none" stroke="#d81b9f" stroke-width="1.3" stroke-opacity="0.85"/>
<path d="M-1139.8,1384.3 L-1122.1,1440.0 L-1080.9,1492.2 L-1023.4,1586.3 L-977.1,1641.2 L-643.3,1749.0 L-558.0,1786.2 L-453.2,1811.5" fill="none" stroke="#d81b9f" stroke-width="1.3" stroke-opacity="0.85"/>
<path d="M2057.5,-62.6 L2209.6,-24.3 L2293.1,-101.5 L2538.2,-224.3 L2551.4,-266.1 L2535.5,-349.5 L2547.0,-365.6 L2650.6,-197.1" fill="none" stroke="#d81b9f" stroke-width="1.3" stroke-opacity="0.85"/>
<path d="M-1331.8,-644.1 L-1328.1,-629.9 L-1319.8,-627.3 L-1305.5,-630.3 L-1298.2,-625.7 L-1284.6,-593.4 L-1280.5,-579.8 L-1285.4,-554.5" fill="none" stroke="#d81b9f" stroke-width="1.3" stroke-opacity="0.85"/>
<path d="M-1816.6,762.7 L-1793.4,713.5 L-1782.0,653.1 L-1716.0,573.4 L-1641.7,509.3 L-1615.3,750.0 L-1616.3,532.2 L-1597.7,446.9" fill="none" stroke="#d81b9f" stroke-width="1.3" stroke-opacity="0.85"/>
<path d="M-1574.5,1738.4 L-1560.9,1721.4 L-1533.0,1712.3 L-1490.3,1719.6 L-1480.1,1701.7 L-1487.6,1625.4 L-1521.7,1482.1 L-1529.9,1366.8" fill="none" stroke="#d81b9f" stroke-width="1.3" stroke-opacity="0.85"/>
<path d="M-1328.5,261.5 L-1000.2,-119.6 L-912.4,-467.0 L-909.9,-748.3 L-1034.5,-892.7 L-1239.8,-835.5 L-1095.1,-1225.0 L-1102.0,-1358.7 L-1176.9,-1291.2 L-1291.3,-1176.9" fill="none" stroke="#d81b9f" stroke-width="1.3" stroke-opacity="0.85" stroke-dasharray="8 5"/>
<path d="M-45.0,2696.4 L-267.5,2540.2 L-50.7,2589.1 L29.8,2655.6 L145.8,2633.1 L-561.8,2006.9 L-284.0,1426.3 L-796.0,908.4 L-1251.5,1164.5 L-1328.5,261.5" fill="none" stroke="#d81b9f" stroke-width="1.3" stroke-opacity="0.85" stroke-dasharray="8 5"/>
<path d="M3067.3,361.2 L3060.3,283.7 L2970.2,-167.6 L2798.0,-598.4 L2735.9,-270.7 L813.0,13.0 L690.3,-693.3 L-466.5,-591.2 L-829.6,-1146.7 L-1183.1,-950.4" fill="none" stroke="#d81b9f" stroke-width="1.3" stroke-opacity="0.85" stroke-dasharray="8 5"/>
<path d="M-1026.2,-298.8 L-954.7,-300.6" fill="none" stroke="#d81b9f" stroke-width="1.3" stroke-opacity="0.85"/>
<path d="M-1038.6,74.2 L-1050.7,65.9 L-1063.2,56.9 L-1171.5,-22.1" fill="none" stroke="#d81b9f" stroke-width="1.3" stroke-opacity="0.85"/>
<path d="M10.3,-789.1 L4.9,-670.9 L4.9,-655.4 L3.5,-612.8" fill="none" stroke="#d81b9f" stroke-width="1.3" stroke-opacity="0.85"/>
<path d="M729.3,-360.2 L832.7,-398.3 L859.2,-407.1 L901.0,-419.4" fill="none" stroke="#d81b9f" stroke-width="1.3" stroke-opacity="0.85"/>
<path d="M243.55769230769238,-438.6397435897434 L253.55769230769238,-428.6397435897434 M243.55769230769238,-428.6397435897434 L253.55769230769238,-438.6397435897434" stroke="#d81b9f" stroke-width="1.6"/>
<text x="254.55769230769238" y="-421.6397435897434" font-size="9" fill="#d81b9f">songshan-airport</text>
<path d="M573.8,-500.1 L260.9,-512.4 L135.5,-516.9 L-121.1,-525.7" fill="none" stroke="#d81b9f" stroke-width="1.3" stroke-opacity="0.85"/>
<rect x="20" y="1066" width="141.02564102564102" height="4" fill="#232019"/>
<text x="20" y="1060" font-size="12" fill="#232019">1 km (authored, pre-spread)</text>
<text x="20" y="24" font-size="14" fill="#232019">xinyi / spread — game data (grey/green) vs OSM geo-truth (magenta)</text>
</svg>
