<svg xmlns="http://www.w3.org/2000/svg" width="1100" height="1100" viewBox="0 0 1100 1100">
<rect width="1100" height="1100" fill="#f6f3ec"/>
<circle cx="583.0911892361111" cy="527.939207175926" r="174.16666666666666" fill="none" stroke="#c9c2b2" stroke-dasharray="6 5"/>
<text x="583.0911892361111" y="527.939207175926" font-size="11" fill="#b6ad99" text-anchor="middle">xinyi</text>
<circle cx="422.13077286705834" cy="584.8734255817113" r="174.16666666666666" fill="none" stroke="#c9c2b2" stroke-dasharray="6 5"/>
<text x="422.13077286705834" y="584.8734255817113" font-size="11" fill="#b6ad99" text-anchor="middle">daan</text>
<circle cx="260.84986992836514" cy="497.9529765871057" r="167.7070754415482" fill="none" stroke="#c9c2b2" stroke-dasharray="6 5"/>
<text x="260.84986992836514" y="497.9529765871057" font-size="11" fill="#b6ad99" text-anchor="middle">zhongzheng</text>
<circle cx="176.71150002981562" cy="538.8570597023826" r="128.1438134226006" fill="none" stroke="#c9c2b2" stroke-dasharray="6 5"/>
<text x="176.71150002981562" y="538.8570597023826" font-size="11" fill="#b6ad99" text-anchor="middle">wanhua</text>
<circle cx="335.30486581521967" cy="399.1331489512354" r="145.0642798545813" fill="none" stroke="#c9c2b2" stroke-dasharray="6 5"/>
<text x="335.30486581521967" y="399.1331489512354" font-size="11" fill="#b6ad99" text-anchor="middle">zhongshan</text>
<circle cx="254.76326600447192" cy="368.31585600275196" r="119.23021949819405" fill="none" stroke="#c9c2b2" stroke-dasharray="6 5"/>
<text x="254.76326600447192" y="368.31585600275196" font-size="11" fill="#b6ad99" text-anchor="middle">datong</text>
<circle cx="654.5" cy="433.8888888888889" r="145.13888888888889" fill="none" stroke="#c9c2b2" stroke-dasharray="6 5"/>
<text x="654.5" y="433.8888888888889" font-size="11" fill="#b6ad99" text-anchor="middle">songshan</text>
<circle cx="351.71908142965856" cy="219.53180238276428" r="115.66386916603251" fill="none" stroke="#c9c2b2" stroke-dasharray="6 5"/>
<text x="351.71908142965856" y="219.53180238276428" font-size="11" fill="#b6ad99" text-anchor="middle">shilin</text>
<circle cx="767.9295370629037" cy="309.13051166731697" r="120.43474416634152" fill="none" stroke="#c9c2b2" stroke-dasharray="6 5"/>
<text x="767.9295370629037" y="309.13051166731697" font-size="11" fill="#b6ad99" text-anchor="middle">neihu</text>
<circle cx="866.2201757712654" cy="521.2527112935213" r="126.4880703085062" fill="none" stroke="#c9c2b2" stroke-dasharray="6 5"/>
<text x="866.2201757712654" y="521.2527112935213" font-size="11" fill="#b6ad99" text-anchor="middle">nangang</text>
<circle cx="252.68529698299295" cy="698.6573515085036" r="114.35180885269502" fill="none" stroke="#c9c2b2" stroke-dasharray="6 5"/>
<text x="252.68529698299295" y="698.6573515085036" font-size="11" fill="#b6ad99" text-anchor="middle">gongguan-guting</text>
<circle cx="150.4126401366198" cy="391.1896390286566" r="133.19578662112673" fill="none" stroke="#c9c2b2" stroke-dasharray="6 5"/>
<text x="150.4126401366198" y="391.1896390286566" font-size="11" fill="#b6ad99" text-anchor="middle">sanchong</text>
<circle cx="150.67804909979094" cy="306.93446466943794" r="104.17094371309803" fill="none" stroke="#c9c2b2" stroke-dasharray="6 5"/>
<text x="150.67804909979094" y="306.93446466943794" font-size="11" fill="#b6ad99" text-anchor="middle">luzhou</text>
<circle cx="87.53518739846942" cy="539.2241208714206" r="98.7788920119774" fill="none" stroke="#c9c2b2" stroke-dasharray="6 5"/>
<text x="87.53518739846942" y="539.2241208714206" font-size="11" fill="#b6ad99" text-anchor="middle">xinzhuang</text>
<circle cx="106.37014182270684" cy="663.21803672233" r="110.90746454432329" fill="none" stroke="#c9c2b2" stroke-dasharray="6 5"/>
<text x="106.37014182270684" y="663.21803672233" font-size="11" fill="#b6ad99" text-anchor="middle">banqiao</text>
<circle cx="196.752935653726" cy="753.3846734114911" r="139.15793443944128" fill="none" stroke="#c9c2b2" stroke-dasharray="6 5"/>
<text x="196.752935653726" y="753.3846734114911" font-size="11" fill="#b6ad99" text-anchor="middle">zhonghe</text>
<circle cx="263.35233012801706" cy="704.7897417308708" r="114.6590679487932" fill="none" stroke="#c9c2b2" stroke-dasharray="6 5"/>
<text x="263.35233012801706" y="704.7897417308708" font-size="11" fill="#b6ad99" text-anchor="middle">yonghe</text>
<circle cx="136.9804950190076" cy="765.2974015326449" r="87.87649042148774" fill="none" stroke="#c9c2b2" stroke-dasharray="6 5"/>
<text x="136.9804950190076" y="765.2974015326449" font-size="11" fill="#b6ad99" text-anchor="middle">tucheng-sanxia</text>
<circle cx="426.5412589817875" cy="936.4795371004914" r="150.2975977613022" fill="none" stroke="#c9c2b2" stroke-dasharray="6 5"/>
<text x="426.5412589817875" y="936.4795371004914" font-size="11" fill="#b6ad99" text-anchor="middle">xindian</text>
<circle cx="948.668809738745" cy="386.4435652353867" r="122.66732607345998" fill="none" stroke="#c9c2b2" stroke-dasharray="6 5"/>
<text x="948.668809738745" y="386.4435652353867" font-size="11" fill="#b6ad99" text-anchor="middle">xizhi</text>
<circle cx="306.4224301015969" cy="157.56947071923946" r="90.21391477718635" fill="none" stroke="#c9c2b2" stroke-dasharray="6 5"/>
<text x="306.4224301015969" y="157.56947071923946" font-size="11" fill="#b6ad99" text-anchor="middle">beitou</text>
<circle cx="358.9109757907721" cy="148.2230773036747" r="97.99437138934765" fill="none" stroke="#c9c2b2" stroke-dasharray="6 5"/>
<text x="358.9109757907721" y="148.2230773036747" font-size="11" fill="#b6ad99" text-anchor="middle">tianmu</text>
<circle cx="427.57026380708203" cy="89.6641919146283" r="204.04956032153" fill="#c1a97e" fill-opacity="0.25" stroke="#a8895c"/>
<circle cx="427.57026380708203" cy="89.6641919146283" r="2.5" fill="#8a6b3f"/>
<circle cx="516.2823285953135" cy="66.71337653282666" r="162.77496540193488" fill="#c1a97e" fill-opacity="0.25" stroke="#a8895c"/>
<circle cx="516.2823285953135" cy="66.71337653282666" r="2.5" fill="#8a6b3f"/>
<circle cx="318.6817178916604" cy="138.67403654189798" r="168.23147789697424" fill="#c1a97e" fill-opacity="0.25" stroke="#a8895c"/>
<circle cx="318.6817178916604" cy="138.67403654189798" r="2.5" fill="#8a6b3f"/>
<circle cx="643.0231058997499" cy="92.74557804207444" r="157.22215081647872" fill="#c1a97e" fill-opacity="0.25" stroke="#a8895c"/>
<circle cx="643.0231058997499" cy="92.74557804207444" r="2.5" fill="#8a6b3f"/>
<circle cx="494.6736746563074" cy="60.177599623841786" r="118.02949406654416" fill="#c1a97e" fill-opacity="0.25" stroke="#a8895c"/>
<circle cx="494.6736746563074" cy="60.177599623841786" r="2.5" fill="#8a6b3f"/>
<circle cx="677.7161534485986" cy="935.2949503197219" r="217.86111111111111" fill="#c1a97e" fill-opacity="0.25" stroke="#a8895c"/>
<circle cx="677.7161534485986" cy="935.2949503197219" r="2.5" fill="#8a6b3f"/>
<circle cx="817.4103082849824" cy="928.8312700703918" r="169.35986191382224" fill="#c1a97e" fill-opacity="0.25" stroke="#a8895c"/>
<circle cx="817.4103082849824" cy="928.8312700703918" r="2.5" fill="#8a6b3f"/>
<circle cx="521.9623357294978" cy="914.489635516528" r="170.5" fill="#c1a97e" fill-opacity="0.25" stroke="#a8895c"/>
<circle cx="521.9623357294978" cy="914.489635516528" r="2.5" fill="#8a6b3f"/>
<circle cx="356.8234101702168" cy="881.1598682796284" r="151.5555555555556" fill="#c1a97e" fill-opacity="0.25" stroke="#a8895c"/>
<circle cx="356.8234101702168" cy="881.1598682796284" r="2.5" fill="#8a6b3f"/>
<circle cx="635.9038277308932" cy="611.0734574172957" r="47.361111111111114" fill="#c1a97e" fill-opacity="0.25" stroke="#a8895c"/>
<circle cx="635.9038277308932" cy="611.0734574172957" r="2.5" fill="#8a6b3f"/>
<circle cx="652.4232019797963" cy="639.5332071728151" r="52.097222222222236" fill="#c1a97e" fill-opacity="0.25" stroke="#a8895c"/>
<circle cx="652.4232019797963" cy="639.5332071728151" r="2.5" fill="#8a6b3f"/>
<circle cx="681.4377777777777" cy="610.4938888888889" r="37.8888888888889" fill="#c1a97e" fill-opacity="0.25" stroke="#a8895c"/>
<circle cx="681.4377777777777" cy="610.4938888888889" r="2.5" fill="#8a6b3f"/>
<circle cx="667.5870609341289" cy="566.1705091580405" r="30.784722222222225" fill="#c1a97e" fill-opacity="0.25" stroke="#a8895c"/>
<circle cx="667.5870609341289" cy="566.1705091580405" r="2.5" fill="#8a6b3f"/>
<circle cx="828.3320411716672" cy="647.8267165896262" r="132.61111111111111" fill="#c1a97e" fill-opacity="0.25" stroke="#a8895c"/>
<circle cx="828.3320411716672" cy="647.8267165896262" r="2.5" fill="#8a6b3f"/>
<circle cx="953.4223994484535" cy="576.8948266298969" r="142.08333333333334" fill="#c1a97e" fill-opacity="0.25" stroke="#a8895c"/>
<circle cx="953.4223994484535" cy="576.8948266298969" r="2.5" fill="#8a6b3f"/>
<circle cx="730.5765641394339" cy="163.05021970121305" r="132.61111111111111" fill="#c1a97e" fill-opacity="0.25" stroke="#a8895c"/>
<circle cx="730.5765641394339" cy="163.05021970121305" r="2.5" fill="#8a6b3f"/>
<circle cx="841.8893259071426" cy="258.1106740928574" r="113.66666666666667" fill="#c1a97e" fill-opacity="0.25" stroke="#a8895c"/>
<circle cx="841.8893259071426" cy="258.1106740928574" r="2.5" fill="#8a6b3f"/>
<circle cx="167.15324858292882" cy="238.93701447362974" r="125.16143796327326" fill="#c1a97e" fill-opacity="0.25" stroke="#a8895c"/>
<circle cx="167.15324858292882" cy="238.93701447362974" r="2.5" fill="#8a6b3f"/>
<circle cx="61.703346694229765" cy="587.5612810235208" r="150.24512409408314" fill="#c1a97e" fill-opacity="0.25" stroke="#a8895c"/>
<circle cx="61.703346694229765" cy="587.5612810235208" r="2.5" fill="#8a6b3f"/>
<circle cx="1009.0231940395206" cy="550" r="206.5604373177843" fill="#c1a97e" fill-opacity="0.25" stroke="#a8895c"/>
<circle cx="1009.0231940395206" cy="550" r="2.5" fill="#8a6b3f"/>
<circle cx="1021.0567095503254" cy="418.10412132590886" r="150.7381470561041" fill="#c1a97e" fill-opacity="0.25" stroke="#a8895c"/>
<circle cx="1021.0567095503254" cy="418.10412132590886" r="2.5" fill="#8a6b3f"/>
<circle cx="976.3906297604217" cy="729.5328967412302" r="179.53289674123016" fill="#c1a97e" fill-opacity="0.25" stroke="#a8895c"/>
<circle cx="976.3906297604217" cy="729.5328967412302" r="2.5" fill="#8a6b3f"/>
<circle cx="1018.7501059380056" cy="667.1875264845014" r="140.62503178140167" fill="#c1a97e" fill-opacity="0.25" stroke="#a8895c"/>
<circle cx="1018.7501059380056" cy="667.1875264845014" r="2.5" fill="#8a6b3f"/>
<circle cx="550" cy="1029.5541666666666" r="219.7956597222222" fill="#c1a97e" fill-opacity="0.25" stroke="#a8895c"/>
<circle cx="550" cy="1029.5541666666666" r="2.5" fill="#8a6b3f"/>
<circle cx="675.1408694982196" cy="1032.686210921704" r="164.47085705480285" fill="#c1a97e" fill-opacity="0.25" stroke="#a8895c"/>
<circle cx="675.1408694982196" cy="1032.686210921704" r="2.5" fill="#8a6b3f"/>
<circle cx="439.208650586443" cy="1030.095847458747" r="169.88006910078732" fill="#c1a97e" fill-opacity="0.25" stroke="#a8895c"/>
<circle cx="439.208650586443" cy="1030.095847458747" r="2.5" fill="#8a6b3f"/>
<circle cx="782.1246387039766" cy="975.5618376239571" r="154.7497591359844" fill="#c1a97e" fill-opacity="0.25" stroke="#a8895c"/>
<circle cx="782.1246387039766" cy="975.5618376239571" r="2.5" fill="#8a6b3f"/>
<circle cx="149.46381149453998" cy="841.299046185789" r="152.93199924753927" fill="#c1a97e" fill-opacity="0.25" stroke="#a8895c"/>
<circle cx="149.46381149453998" cy="841.299046185789" r="2.5" fill="#8a6b3f"/>
<circle cx="71.91009869810972" cy="720.7463933221037" r="136.59711465768294" fill="#c1a97e" fill-opacity="0.25" stroke="#a8895c"/>
<circle cx="71.91009869810972" cy="720.7463933221037" r="2.5" fill="#8a6b3f"/>
<circle cx="214.0480515829218" cy="921.3153114083495" r="134.3807793668313" fill="#c1a97e" fill-opacity="0.25" stroke="#a8895c"/>
<circle cx="214.0480515829218" cy="921.3153114083495" r="2.5" fill="#8a6b3f"/>
<circle cx="37.79928363662498" cy="500.4321887390282" r="148.70343378291534" fill="#c1a97e" fill-opacity="0.25" stroke="#a8895c"/>
<circle cx="37.79928363662498" cy="500.4321887390282" r="2.5" fill="#8a6b3f"/>
<circle cx="68.18783164658856" cy="395.1318030292606" r="137.66061952954612" fill="#c1a97e" fill-opacity="0.25" stroke="#a8895c"/>
<circle cx="68.18783164658856" cy="395.1318030292606" r="2.5" fill="#8a6b3f"/>
<circle cx="450.86127263260437" cy="45.05341527539849" r="165.23121227899264" fill="#c1a97e" fill-opacity="0.25" stroke="#a8895c"/>
<circle cx="450.86127263260437" cy="45.05341527539849" r="2.5" fill="#8a6b3f"/>
<circle cx="554.4173190064571" cy="41.328726717985205" r="142.71338328553523" fill="#c1a97e" fill-opacity="0.25" stroke="#a8895c"/>
<circle cx="554.4173190064571" cy="41.328726717985205" r="2.5" fill="#8a6b3f"/>
<circle cx="312.61072024133097" cy="99.63862354355359" r="135.65101700495373" fill="#c1a97e" fill-opacity="0.25" stroke="#a8895c"/>
<circle cx="312.61072024133097" cy="99.63862354355359" r="2.5" fill="#8a6b3f"/>
<circle cx="378.56194444444446" cy="575.8927777777777" r="52.70833333333333" fill="#79b55a" fill-opacity="0.45" stroke="#579a41"/>
<circle cx="332.0712239168902" cy="273.7682007050452" r="32.08333333333333" fill="#79b55a" fill-opacity="0.45" stroke="#579a41"/>
<circle cx="505.5162744298442" cy="475.8604573830737" r="18.333333333333336" fill="#79b55a" fill-opacity="0.45" stroke="#579a41"/>
<circle cx="523.5270486111111" cy="503.67233506944444" r="13.75" fill="#79b55a" fill-opacity="0.45" stroke="#579a41"/>
<circle cx="262.4892585464357" cy="499.7290071784412" r="22.916666666666668" fill="#79b55a" fill-opacity="0.45" stroke="#579a41"/>
<circle cx="635.1675377387897" cy="609.3931513178402" r="57.29166666666667" fill="#79b55a" fill-opacity="0.45" stroke="#579a41"/>
<circle cx="672.7294444444444" cy="616.2994444444445" r="61.875000000000014" fill="#79b55a" fill-opacity="0.45" stroke="#579a41"/>
<circle cx="216.06314240326282" cy="404.07801180646777" r="38.958333333333336" fill="#79b55a" fill-opacity="0.45" stroke="#579a41"/>
<circle cx="150.1565412756205" cy="517.5802601034287" r="38.958333333333336" fill="#79b55a" fill-opacity="0.45" stroke="#579a41"/>
<circle cx="405.14900471994315" cy="309.54734783510554" r="41.25000000000001" fill="#79b55a" fill-opacity="0.45" stroke="#579a41"/>
<circle cx="497.7619160290034" cy="300.41804324968285" r="36.66666666666667" fill="#79b55a" fill-opacity="0.45" stroke="#579a41"/>
<circle cx="200.71447266398582" cy="622.7913296063746" r="25.208333333333336" fill="#79b55a" fill-opacity="0.45" stroke="#579a41"/>
<circle cx="266.94998041283884" cy="648.2010272037089" r="22.916666666666668" fill="#79b55a" fill-opacity="0.45" stroke="#579a41"/>
<path d="M143.0,487.5 L214.1,404.9 L233.2,329.7 L233.7,268.7 L206.7,237.4 L162.2,249.8 L178.6,206.1" fill="none" stroke="#5ec4cc" stroke-width="18.333333333333332" stroke-linecap="round" stroke-linejoin="round"/>
<path d="M402.2,988.8 L309.1,865.7 L369.3,739.9 L258.4,627.7 L159.7,683.1 L143.0,487.5" fill="none" stroke="#5ec4cc" stroke-width="13.444444444444445" stroke-linecap="round" stroke-linejoin="round"/>
<path d="M943.7,363.7 L607.0,433.6 L580.4,280.6 L329.8,302.8 L251.1,182.4 L169.0,232.5" fill="none" stroke="#5ec4cc" stroke-width="13.444444444444445" stroke-linecap="round" stroke-linejoin="round"/>
<path d="M221.8,455.6 L378.5,497.0 L619.8,480.7 L645.8,494.0 L664.1,465.0 L686.7,451.8 L732.0,440.5 L847.0,426.7" fill="none" stroke="#8e8878" stroke-width="10.388888888888891" stroke-linecap="round" stroke-linejoin="round"/>
<path d="M280.9,514.6 L404.9,519.2 L461.4,508.0 L495.1,502.2 L525.7,502.9" fill="none" stroke="#8e8878" stroke-width="8.555555555555557" stroke-linecap="round" stroke-linejoin="round"/>
<path d="M279.8,519.7 L328.0,545.7 L335.0,548.0 L348.8,549.9 L627.0,561.0 L642.6,556.8 L648.5,547.2 L653.3,532.0" fill="none" stroke="#8e8878" stroke-width="7.333333333333333" stroke-linecap="round" stroke-linejoin="round"/>
<path d="M147.6,539.1 L201.2,542.3 L233.6,572.7 L284.9,596.2 L415.9,600.5 L459.1,617.5 L493.0,645.9 L537.5,676.4" fill="none" stroke="#8e8878" stroke-width="6.722222222222222" stroke-linecap="round" stroke-linejoin="round"/>
<path d="M235.9,425.3 L245.1,422.4 L256.7,420.8 L264.3,421.6 L297.8,429.8 L320.5,431.8 L583.5,433.6 L645.3,402.3" fill="none" stroke="#8e8878" stroke-width="7.9444444444444455" stroke-linecap="round" stroke-linejoin="round"/>
<path d="M347.5,486.2 L371.4,479.2 L392.4,469.6 L441.3,457.8 L507.4,444.7 L594.4,440.3 L629.0,444.7 L652.6,437.0" fill="none" stroke="#8e8878" stroke-width="6.722222222222222" stroke-linecap="round" stroke-linejoin="round"/>
<path d="M270.6,540.7 L303.8,434.3 L305.9,342.5 L328.8,290.8 L323.5,259.9 L354.3,188.6 L360.5,142.6 L406.5,108.3" fill="none" stroke="#8e8878" stroke-width="9.166666666666666" stroke-linecap="round" stroke-linejoin="round"/>
<path d="M456.2,631.3 L443.6,585.6 L442.9,572.8 L439.8,554.7 L446.7,503.7 L459.0,400.0 L460.1,393.8 L465.6,378.3" fill="none" stroke="#8e8878" stroke-width="8.555555555555557" stroke-linecap="round" stroke-linejoin="round"/>
<path d="M426.2,627.3 L426.4,582.5 L422.8,567.9 L425.8,553.8 L425.9,544.2 L425.1,534.6 L427.0,522.3 L431.2,382.7" fill="none" stroke="#8e8878" stroke-width="6.722222222222222" stroke-linecap="round" stroke-linejoin="round"/>
<path d="M231.7,604.7 L215.7,589.4 L205.6,574.7 L204.9,564.4 L213.3,542.8 L217.2,530.0 L233.9,463.5" fill="none" stroke="#8e8878" stroke-width="6.722222222222222" stroke-linecap="round" stroke-linejoin="round"/>
<path d="M366.8,707.3 L379.0,698.9 L401.3,688.4 L420.1,674.8 L423.1,664.0 L473.2,611.7 L540.2,480.1 L584.6,435.7" fill="none" stroke="#8e8878" stroke-width="7.9444444444444455" stroke-linecap="round" stroke-linejoin="round"/>
<path d="M273.7,547.2 L320.4,616.8 L379.7,678.2 L391.9,696.6 L403.2,761.0 L400.3,772.7 L413.2,793.3 L408.2,821.1" fill="none" stroke="#8e8878" stroke-width="6.722222222222222" stroke-linecap="round" stroke-linejoin="round"/>
<path d="M492.0,368.9 L498.0,405.7 L500.7,416.5 L505.6,427.9 L509.6,434.9 L495.8,461.4 L472.7,563.0 L475.2,593.5" fill="none" stroke="#8e8878" stroke-width="6.111111111111112" stroke-linecap="round" stroke-linejoin="round"/>
<path d="M591.6,470.1 L593.2,485.9 L593.3,514.7 L592.4,572.7 L592.9,596.8 L592.2,616.4 L591.1,631.5 L595.2,639.4" fill="none" stroke="#8e8878" stroke-width="5.5" stroke-linecap="round" stroke-linejoin="round"/>
<path d="M521.8,522.8 L538.3,523.1 L563.2,523.5 L586.7,524.0" fill="none" stroke="#8e8878" stroke-width="4.888888888888889" stroke-linecap="round" stroke-linejoin="round"/>
<path d="M209.6,452.6 L229.2,444.0 L375.6,477.7 L470.1,470.8 L519.8,447.9 L551.2,445.2 L590.0,441.2 L622.8,448.9" fill="none" stroke="#8e8878" stroke-width="9.166666666666666" stroke-linecap="round" stroke-linejoin="round"/>
<path d="M249.0,367.1 L418.0,365.8 L472.2,371.1 L561.5,359.8 L677.8,323.7 L727.0,326.0 L747.5,335.6 L760.8,336.7" fill="none" stroke="#8e8878" stroke-width="7.9444444444444455" stroke-linecap="round" stroke-linejoin="round"/>
<path d="M237.6,404.2 L266.7,401.9 L311.6,394.3 L325.1,393.9 L390.6,394.6 L455.7,396.1 L490.5,392.7 L571.5,386.2" fill="none" stroke="#8e8878" stroke-width="6.722222222222222" stroke-linecap="round" stroke-linejoin="round"/>
<path d="M337.8,314.8 L333.9,424.3 L339.4,446.8 L346.1,456.5 L364.8,475.6 L363.9,549.3 L376.4,593.2 L370.8,639.6" fill="none" stroke="#8e8878" stroke-width="7.9444444444444455" stroke-linecap="round" stroke-linejoin="round"/>
<path d="M372.2,333.7 L384.7,345.6 L389.0,356.0 L386.9,485.0 L394.4,521.3 L393.8,554.6 L395.0,566.5 L392.6,615.7" fill="none" stroke="#8e8878" stroke-width="7.9444444444444455" stroke-linecap="round" stroke-linejoin="round"/>
<path d="M284.2,155.5 L303.7,161.3 L291.9,189.2 L294.5,216.2 L314.4,221.0 L322.0,235.3 L288.7,310.9 L271.0,449.1" fill="none" stroke="#8e8878" stroke-width="7.333333333333333" stroke-linecap="round" stroke-linejoin="round"/>
<path d="M303.0,158.4 L326.8,144.7 L332.9,140.4 L339.0,136.4 L348.7,131.9 L357.5,128.3 L369.5,120.7 L378.4,116.0" fill="none" stroke="#8e8878" stroke-width="6.111111111111112" stroke-linecap="round" stroke-linejoin="round"/>
<path d="M355.5,158.3 L368.9,151.8 L376.4,145.7 L387.9,130.9 L394.9,125.8 L400.8,122.2 L408.4,117.0" fill="none" stroke="#8e8878" stroke-width="5.5" stroke-linecap="round" stroke-linejoin="round"/>
<path d="M520.1,225.5 L633.9,262.4 L645.8,244.4 L655.9,249.6 L666.4,237.1 L690.3,246.9 L710.5,231.1" fill="none" stroke="#8e8878" stroke-width="6.722222222222222" stroke-linecap="round" stroke-linejoin="round"/>
<path d="M706.1,372.7 L696.7,259.2 L731.9,267.2 L752.1,268.6 L749.6,254.9 L762.4,252.7 L771.0,246.5" fill="none" stroke="#8e8878" stroke-width="6.111111111111112" stroke-linecap="round" stroke-linejoin="round"/>
<path d="M663.1,432.0 L674.4,427.2 L697.2,424.1 L720.6,416.6 L767.5,423.1 L827.4,412.4 L865.4,417.2" fill="none" stroke="#8e8878" stroke-width="7.333333333333333" stroke-linecap="round" stroke-linejoin="round"/>
<path d="M852.0,488.3 L846.9,477.0 L846.3,465.0 L848.0,453.7 L846.8,442.3 L849.4,429.3 L850.6,417.6" fill="none" stroke="#8e8878" stroke-width="5.5" stroke-linecap="round" stroke-linejoin="round"/>
<path d="M93.6,507.0 L99.5,488.4 L113.7,472.0 L142.5,424.9 L146.0,417.3 L166.4,392.3 L205.3,367.8" fill="none" stroke="#8e8878" stroke-width="7.333333333333333" stroke-linecap="round" stroke-linejoin="round"/>
<path d="M92.9,660.5 L93.5,649.9 L95.8,618.1 L97.1,602.8 L99.6,579.2 L101.5,570.4 L110.8,540.8 L115.8,537.0" fill="none" stroke="#8e8878" stroke-width="7.333333333333333" stroke-linecap="round" stroke-linejoin="round"/>
<path d="M415.9,964.6 L425.2,942.5 L429.4,929.0 L430.7,923.3 L429.2,907.6 L428.1,900.0 L414.5,860.3" fill="none" stroke="#8e8878" stroke-width="7.333333333333333" stroke-linecap="round" stroke-linejoin="round"/>
<path d="M196.3,733.8 L253.0,733.9 L254.7,726.3 L256.6,716.0 L260.2,702.8 L262.0,693.6 L264.7,680.9 L267.4,668.0" fill="none" stroke="#8e8878" stroke-width="6.111111111111112" stroke-linecap="round" stroke-linejoin="round"/>
<path d="M183.9,730.8 L187.7,742.8 L196.6,754.1 L209.1,774.5 L219.1,786.4 L291.5,809.8 L309.9,817.8 L332.6,823.3" fill="none" stroke="#8e8878" stroke-width="6.111111111111112" stroke-linecap="round" stroke-linejoin="round"/>
<path d="M876.6,417.3 L909.6,425.6 L927.7,408.8 L980.8,382.2 L983.6,373.2 L980.2,355.1 L982.7,351.6" fill="none" stroke="#8e8878" stroke-width="7.333333333333333" stroke-linecap="round" stroke-linejoin="round"/>
<path d="M142.3,291.3 L143.1,294.3 L144.9,294.9 L148.0,294.3 L149.6,295.3 L152.5,302.3 L153.4,305.2 L152.3,310.7" fill="none" stroke="#8e8878" stroke-width="6.111111111111112" stroke-linecap="round" stroke-linejoin="round"/>
<path d="M37.2,596.1 L42.3,585.4 L44.7,572.3 L59.0,555.1 L75.1,541.2 L80.6,546.1 L84.7,527.7" fill="none" stroke="#8e8878" stroke-width="7.333333333333333" stroke-linecap="round" stroke-linejoin="round"/>
<path d="M89.7,807.5 L92.6,803.8 L98.7,801.8 L107.9,803.4 L110.2,799.5 L108.5,783.0 L101.1,752.0 L99.4,727.0" fill="none" stroke="#8e8878" stroke-width="6.722222222222222" stroke-linecap="round" stroke-linejoin="round"/>
<path d="M333.4,214.3 L293.9,322.4 L272.8,434.5 L288.9,532.6 L375.8,558.7 L439.4,553.5 L494.8,557.7 L610.7,561.0 L630.7,567.2" fill="none" stroke="#E3002C" stroke-width="1.6" stroke-opacity="0.85"/>
<path d="M181.6,502.6 L272.0,492.1 L387.4,497.8 L444.4,499.1 L619.5,480.5 L666.1,462.9 L848.4,426.6" fill="none" stroke="#0070BD" stroke-width="1.6" stroke-opacity="0.85"/>
<path d="M288.8,777.2 L300.4,608.0 L283.2,526.8 L352.6,474.5 L491.6,436.1 L612.6,439.9" fill="none" stroke="#1DA742" stroke-width="1.6" stroke-opacity="0.85"/>
<path d="M376.4,781.5 L404.9,619.7 L387.4,491.9 L318.5,376.4 L231.9,413.7" fill="none" stroke="#F8B61C" stroke-width="1.6" stroke-opacity="0.85"/>
<path d="M619.7,793.8 L492.9,642.8 L428.0,497.7 L433.9,404.9 L497.8,317.8 L509.8,233.9" fill="none" stroke="#C48C31" stroke-width="1.6" stroke-opacity="0.85"/>
<path d="M662.2,564.0 L661.2,566.6 L660.0,569.4 L658.9,572.1 L657.7,574.8 L656.3,577.5 L655.0,578.3 L653.8,578.6 L652.6,578.9 L651.3,579.2 L649.9,579.8 L648.5,580.9 L646.9,582.3 L645.2,584.3 L643.2,586.8 L641.2,589.7 L640.0,591.7 L641.8,590.3 L643.3,589.6 L644.6,589.3 L645.8,589.8 L646.5,590.8 L647.1,592.3 L647.3,594.3 L647.2,596.6 L646.8,599.5 L646.1,601.9 L646.0,599.5 L645.5,598.0 L644.6,597.2 L643.2,597.4 L641.5,598.4 L639.4,600.5 L637.8,602.6 L639.7,601.2 L641.3,600.7 L641.4,602.3 L639.5,605.6 L637.5,609.1 L636.8,610.2" fill="none" stroke="#4a4438" stroke-width="1.4" stroke-dasharray="2 3"/>
<circle cx="550" cy="550" r="4" fill="#232019"/>
<circle cx="549.6690881076389" cy="503.4517271412037" r="4" fill="#232019"/>
<circle cx="505.09855363185414" cy="476.0820529128165" r="4" fill="#232019"/>
<circle cx="504.6410281213748" cy="462.11699198516374" r="4" fill="#232019"/>
<circle cx="537.4253480902778" cy="531.248326099537" r="4" fill="#232019"/>
<circle cx="569.965017505787" cy="541.6168987268519" r="4" fill="#232019"/>
<circle cx="580.5541980613426" cy="514.4821235532407" r="4" fill="#232019"/>
<circle cx="465.8185845076305" cy="440.7383283057659" r="4" fill="#232019"/>
<circle cx="612.4295466637367" cy="440.01623955488037" r="4" fill="#232019"/>
<circle cx="300.09848986134693" cy="543.9628903474054" r="4" fill="#232019"/>
<circle cx="244.56198897374873" cy="509.8745081777518" r="4" fill="#232019"/>
<circle cx="273.4848179398926" cy="460.3162728200112" r="4" fill="#232019"/>
<circle cx="184.63327157696807" cy="527.8582605512278" r="4" fill="#232019"/>
<circle cx="273.7670138299475" cy="306.27488601240657" r="4" fill="#232019"/>
<circle cx="332.88009098822397" cy="268.77210536690086" r="4" fill="#232019"/>
<circle cx="332.7041753465735" cy="221.138991597286" r="4" fill="#232019"/>
<circle cx="509.1830129096516" cy="234.7893799769293" r="4" fill="#232019"/>
<circle cx="465.40992658555393" cy="149.4112990228187" r="4" fill="#232019"/>
<circle cx="483.2361111111111" cy="343.9027777777778" r="4" fill="#232019"/>
<circle cx="569.8547135416667" cy="596.3276649305556" r="2" fill="#6b6455"/>
<circle cx="747.3888888888889" cy="538.3888888888889" r="2" fill="#6b6455"/>
<circle cx="358.41666666666663" cy="480.33333333333337" r="2" fill="#6b6455"/>
<circle cx="482.0998948278019" cy="477.57322114965535" r="2" fill="#6b6455"/>
<circle cx="433.8886135415179" cy="625.4724011980134" r="2" fill="#6b6455"/>
<circle cx="579.0277777777778" cy="375.83333333333337" r="2" fill="#6b6455"/>
<circle cx="589.023868839492" cy="471.95226232101595" r="2" fill="#6b6455"/>
<circle cx="335.1944444444444" cy="584.8333333333334" r="2" fill="#6b6455"/>
<circle cx="491.94444444444446" cy="683.5277777777778" r="2" fill="#6b6455"/>
<circle cx="404.8611111111111" cy="393.25" r="2" fill="#6b6455"/>
<path d="M544.5587841435186,542.6836167534723 L554.5587841435186,552.6836167534723 M544.5587841435186,552.6836167534723 L554.5587841435186,542.6836167534723" stroke="#d81b9f" stroke-width="1.6"/>
<path d="M544.6690881076389,498.4517271412037 L554.6690881076389,508.4517271412037 M544.6690881076389,508.4517271412037 L554.6690881076389,498.4517271412037" stroke="#d81b9f" stroke-width="1.6"/>
<path d="M500.09855363185414,471.0820529128165 L510.09855363185414,481.0820529128165 M500.09855363185414,481.0820529128165 L510.09855363185414,471.0820529128165" stroke="#d81b9f" stroke-width="1.6"/>
<path d="M499.6410281213748,457.11699198516374 L509.6410281213748,467.11699198516374 M499.6410281213748,467.11699198516374 L509.6410281213748,457.11699198516374" stroke="#d81b9f" stroke-width="1.6"/>
<path d="M532.4253480902778,526.248326099537 L542.4253480902778,536.248326099537 M532.4253480902778,536.248326099537 L542.4253480902778,526.248326099537" stroke="#d81b9f" stroke-width="1.6"/>
<path d="M564.965017505787,536.6168987268519 L574.965017505787,546.6168987268519 M564.965017505787,546.6168987268519 L574.965017505787,536.6168987268519" stroke="#d81b9f" stroke-width="1.6"/>
<path d="M575.5541980613426,509.48212355324074 L585.5541980613426,519.4821235532407 M575.5541980613426,519.4821235532407 L585.5541980613426,509.48212355324074" stroke="#d81b9f" stroke-width="1.6"/>
<path d="M460.8185845076305,435.7383283057659 L470.8185845076305,445.7383283057659 M460.8185845076305,445.7383283057659 L470.8185845076305,435.7383283057659" stroke="#d81b9f" stroke-width="1.6"/>
<path d="M607.4295466637367,435.01623955488037 L617.4295466637367,445.01623955488037 M607.4295466637367,445.01623955488037 L617.4295466637367,435.01623955488037" stroke="#d81b9f" stroke-width="1.6"/>
<path d="M295.09848986134693,538.9628903474054 L305.09848986134693,548.9628903474054 M295.09848986134693,548.9628903474054 L305.09848986134693,538.9628903474054" stroke="#d81b9f" stroke-width="1.6"/>
<path d="M239.56198897374873,504.8745081777518 L249.56198897374873,514.8745081777517 M239.56198897374873,514.8745081777517 L249.56198897374873,504.8745081777518" stroke="#d81b9f" stroke-width="1.6"/>
<path d="M268.4848179398926,455.3162728200112 L278.4848179398926,465.3162728200112 M268.4848179398926,465.3162728200112 L278.4848179398926,455.3162728200112" stroke="#d81b9f" stroke-width="1.6"/>
<path d="M179.63327157696807,522.8582605512278 L189.63327157696807,532.8582605512278 M179.63327157696807,532.8582605512278 L189.63327157696807,522.8582605512278" stroke="#d81b9f" stroke-width="1.6"/>
<path d="M327.88009098822397,263.77210536690086 L337.88009098822397,273.77210536690086 M327.88009098822397,273.77210536690086 L337.88009098822397,263.77210536690086" stroke="#d81b9f" stroke-width="1.6"/>
<path d="M327.7041753465735,216.138991597286 L337.7041753465735,226.138991597286 M327.7041753465735,226.138991597286 L337.7041753465735,216.138991597286" stroke="#d81b9f" stroke-width="1.6"/>
<path d="M460.40992658555393,144.4112990228187 L470.40992658555393,154.4112990228187 M460.40992658555393,154.4112990228187 L470.40992658555393,144.4112990228187" stroke="#d81b9f" stroke-width="1.6"/>
<path d="M504.1830129096516,229.7893799769293 L514.1830129096516,239.7893799769293 M504.1830129096516,239.7893799769293 L514.1830129096516,229.7893799769293" stroke="#d81b9f" stroke-width="1.6"/>
<path d="M268.7670138299475,301.27488601240657 L278.7670138299475,311.27488601240657 M268.7670138299475,311.27488601240657 L278.7670138299475,301.27488601240657" stroke="#d81b9f" stroke-width="1.6"/>
<path d="M373.56194444444446,570.8927777777777 L383.56194444444446,580.8927777777777 M373.56194444444446,580.8927777777777 L383.56194444444446,570.8927777777777" stroke="#d81b9f" stroke-width="1.6"/>
<path d="M257.4892585464357,494.7290071784412 L267.4892585464357,504.7290071784412 M257.4892585464357,504.7290071784412 L267.4892585464357,494.7290071784412" stroke="#d81b9f" stroke-width="1.6"/>
<path d="M630.9038277308932,606.0734574172957 L640.9038277308932,616.0734574172957 M630.9038277308932,616.0734574172957 L640.9038277308932,606.0734574172957" stroke="#d81b9f" stroke-width="1.6"/>
<path d="M661.2852777777778,629.5288888888889 L671.2852777777778,639.5288888888889 M661.2852777777778,639.5288888888889 L671.2852777777778,629.5288888888889" stroke="#d81b9f" stroke-width="1.6"/>
<path d="M662.5870609341289,561.1705091580405 L672.5870609341289,571.1705091580405 M662.5870609341289,571.1705091580405 L672.5870609341289,561.1705091580405" stroke="#d81b9f" stroke-width="1.6"/>
<path d="M507.468785615977,35.53730582117902 L517.468785615977,45.53730582117902 M507.468785615977,45.53730582117902 L517.468785615977,35.53730582117902" stroke="#d81b9f" stroke-width="1.6"/>
<path d="M410.11104430567445,38.004670394751884 L420.11104430567445,48.004670394751884 M410.11104430567445,48.004670394751884 L420.11104430567445,38.004670394751884" stroke="#d81b9f" stroke-width="1.6"/>
<path d="M127.91746537432005,205.80727617126018 L137.91746537432005,215.80727617126018 M127.91746537432005,215.80727617126018 L137.91746537432005,205.80727617126018" stroke="#d81b9f" stroke-width="1.6"/>
<path d="M672.7860694832999,930.1829570271495 L682.7860694832999,940.1829570271495 M672.7860694832999,940.1829570271495 L682.7860694832999,930.1829570271495" stroke="#d81b9f" stroke-width="1.6"/>
<path d="M221.8,455.6 L378.5,497.0 L619.8,480.7 L645.8,494.0 L664.1,465.0 L686.7,451.8 L732.0,440.5 L847.0,426.7" fill="none" stroke="#d81b9f" stroke-width="1.3" stroke-opacity="0.85"/>
<path d="M280.7,514.9 L319.5,520.3 L330.2,520.8 L354.9,520.9 L374.2,521.6 L441.7,519.0 L525.7,503.0" fill="none" stroke="#d81b9f" stroke-width="1.3" stroke-opacity="0.85"/>
<path d="M279.8,519.7 L328.0,545.7 L335.0,548.0 L348.8,549.9 L627.0,561.0 L642.6,556.8 L648.5,547.2 L653.3,532.0" fill="none" stroke="#d81b9f" stroke-width="1.3" stroke-opacity="0.85"/>
<path d="M147.6,539.1 L201.2,542.3 L233.6,572.7 L284.9,596.2 L415.9,600.5 L459.1,617.5 L493.0,645.9 L537.5,676.4" fill="none" stroke="#d81b9f" stroke-width="1.3" stroke-opacity="0.85"/>
<path d="M235.9,425.3 L245.1,422.4 L256.7,420.8 L264.3,421.6 L297.8,429.8 L320.5,431.8 L583.5,433.6 L645.3,402.3" fill="none" stroke="#d81b9f" stroke-width="1.3" stroke-opacity="0.85"/>
<path d="M347.5,486.2 L371.4,479.2 L392.4,469.6 L441.3,457.8 L507.4,444.7 L594.4,440.3 L629.0,444.7 L652.6,437.0" fill="none" stroke="#d81b9f" stroke-width="1.3" stroke-opacity="0.85"/>
<path d="M270.6,540.7 L303.8,434.3 L305.9,342.5 L328.8,290.8 L323.5,259.9 L354.3,188.6 L360.5,142.6 L406.5,108.3" fill="none" stroke="#d81b9f" stroke-width="1.3" stroke-opacity="0.85"/>
<path d="M456.2,631.3 L443.6,585.6 L442.9,572.8 L439.8,554.7 L446.7,503.7 L459.0,400.0 L460.1,393.8 L465.6,378.3" fill="none" stroke="#d81b9f" stroke-width="1.3" stroke-opacity="0.85"/>
<path d="M426.2,627.3 L426.4,582.5 L422.8,567.9 L425.8,553.8 L425.9,544.2 L425.1,534.6 L427.0,522.3 L431.2,382.7" fill="none" stroke="#d81b9f" stroke-width="1.3" stroke-opacity="0.85"/>
<path d="M231.7,604.7 L215.7,589.4 L205.6,574.7 L204.9,564.4 L213.3,542.8 L217.2,530.0 L233.9,463.5" fill="none" stroke="#d81b9f" stroke-width="1.3" stroke-opacity="0.85"/>
<path d="M366.8,707.3 L379.0,698.9 L401.3,688.4 L420.1,674.8 L423.1,664.0 L473.2,611.7 L540.2,480.1 L584.6,435.7" fill="none" stroke="#d81b9f" stroke-width="1.3" stroke-opacity="0.85"/>
<path d="M273.7,547.2 L320.4,616.8 L379.7,678.2 L391.9,696.6 L403.2,761.0 L400.3,772.7 L413.2,793.3 L408.2,821.1" fill="none" stroke="#d81b9f" stroke-width="1.3" stroke-opacity="0.85"/>
<path d="M492.0,368.9 L498.0,405.7 L500.7,416.5 L505.6,427.9 L509.6,434.9 L495.8,461.4 L472.7,563.0 L475.2,593.5" fill="none" stroke="#d81b9f" stroke-width="1.3" stroke-opacity="0.85"/>
<path d="M591.6,470.1 L593.2,485.9 L593.3,514.7 L592.4,572.7 L592.9,596.8 L592.2,616.4 L591.1,631.5 L595.2,639.4" fill="none" stroke="#d81b9f" stroke-width="1.3" stroke-opacity="0.85"/>
<path d="M521.8,522.8 L538.3,523.1 L563.2,523.5 L586.7,524.0" fill="none" stroke="#d81b9f" stroke-width="1.3" stroke-opacity="0.85"/>
<path d="M209.6,452.6 L229.2,444.0 L375.6,477.7 L470.1,470.8 L519.8,447.9 L551.2,445.2 L590.0,441.2 L622.8,448.9" fill="none" stroke="#d81b9f" stroke-width="1.3" stroke-opacity="0.85"/>
<path d="M249.0,367.1 L418.0,365.8 L472.2,371.1 L561.5,359.8 L677.8,323.7 L727.0,326.0 L747.5,335.6 L760.8,336.7" fill="none" stroke="#d81b9f" stroke-width="1.3" stroke-opacity="0.85"/>
<path d="M237.6,404.2 L266.7,401.9 L311.6,394.3 L325.1,393.9 L390.6,394.6 L455.7,396.1 L490.5,392.7 L571.5,386.2" fill="none" stroke="#d81b9f" stroke-width="1.3" stroke-opacity="0.85"/>
<path d="M337.8,314.8 L333.9,424.3 L339.4,446.8 L346.1,456.5 L364.8,475.6 L363.9,549.3 L376.4,593.2 L370.8,639.6" fill="none" stroke="#d81b9f" stroke-width="1.3" stroke-opacity="0.85"/>
<path d="M372.2,333.7 L384.7,345.6 L389.0,356.0 L386.9,485.0 L394.4,521.3 L393.8,554.6 L395.0,566.5 L392.6,615.7" fill="none" stroke="#d81b9f" stroke-width="1.3" stroke-opacity="0.85"/>
<path d="M284.2,155.5 L303.7,161.3 L291.9,189.2 L294.5,216.2 L314.4,221.0 L322.0,235.3 L288.7,310.9 L271.0,449.1" fill="none" stroke="#d81b9f" stroke-width="1.3" stroke-opacity="0.85"/>
<path d="M326.0,168.9 L330.3,171.2" fill="none" stroke="#d81b9f" stroke-width="1.3" stroke-opacity="0.85"/>
<path d="M303.0,158.4 L326.8,144.7 L332.9,140.4 L339.0,136.4 L348.7,131.9 L357.5,128.3 L369.5,120.7 L378.4,116.0" fill="none" stroke="#d81b9f" stroke-width="1.3" stroke-opacity="0.85"/>
<path d="M355.5,158.3 L368.9,151.8 L376.4,145.7 L387.9,130.9 L394.9,125.8 L400.8,122.2 L408.4,117.0" fill="none" stroke="#d81b9f" stroke-width="1.3" stroke-opacity="0.85"/>
<path d="M520.1,225.5 L633.9,262.4 L645.8,244.4 L655.9,249.6 L666.4,237.1 L690.3,246.9 L710.5,231.1" fill="none" stroke="#d81b9f" stroke-width="1.3" stroke-opacity="0.85"/>
<path d="M706.1,372.7 L696.7,259.2 L731.9,267.2 L752.1,268.6 L749.6,254.9 L762.4,252.7 L771.0,246.5" fill="none" stroke="#d81b9f" stroke-width="1.3" stroke-opacity="0.85"/>
<path d="M663.1,432.0 L674.4,427.2 L697.2,424.1 L720.6,416.6 L767.5,423.1 L827.4,412.4 L865.4,417.2" fill="none" stroke="#d81b9f" stroke-width="1.3" stroke-opacity="0.85"/>
<path d="M852.0,488.3 L846.9,477.0 L846.3,465.0 L848.0,453.7 L846.8,442.3 L849.4,429.3 L850.6,417.6" fill="none" stroke="#d81b9f" stroke-width="1.3" stroke-opacity="0.85"/>
<path d="M93.6,507.0 L99.5,488.4 L113.7,472.0 L142.5,424.9 L146.0,417.3 L166.4,392.3 L205.3,367.8" fill="none" stroke="#d81b9f" stroke-width="1.3" stroke-opacity="0.85"/>
<path d="M92.9,660.5 L93.5,649.9 L95.8,618.1 L97.1,602.8 L99.6,579.2 L101.5,570.4 L110.8,540.8 L115.8,537.0" fill="none" stroke="#d81b9f" stroke-width="1.3" stroke-opacity="0.85"/>
<path d="M415.9,964.6 L425.2,942.5 L429.4,929.0 L430.7,923.3 L429.2,907.6 L428.1,900.0 L414.5,860.3" fill="none" stroke="#d81b9f" stroke-width="1.3" stroke-opacity="0.85"/>
<path d="M196.3,733.8 L253.0,733.9 L254.7,726.3 L256.6,716.0 L260.2,702.8 L262.0,693.6 L264.7,680.9 L267.4,668.0" fill="none" stroke="#d81b9f" stroke-width="1.3" stroke-opacity="0.85"/>
<path d="M183.9,730.8 L187.7,742.8 L196.6,754.1 L209.1,774.5 L219.1,786.4 L291.5,809.8 L309.9,817.8 L332.6,823.3" fill="none" stroke="#d81b9f" stroke-width="1.3" stroke-opacity="0.85"/>
<path d="M876.6,417.3 L909.6,425.6 L927.7,408.8 L980.8,382.2 L983.6,373.2 L980.2,355.1 L982.7,351.6 L1005.1,388.1" fill="none" stroke="#d81b9f" stroke-width="1.3" stroke-opacity="0.85"/>
<path d="M142.3,291.3 L143.1,294.3 L144.9,294.9 L148.0,294.3 L149.6,295.3 L152.5,302.3 L153.4,305.2 L152.3,310.7" fill="none" stroke="#d81b9f" stroke-width="1.3" stroke-opacity="0.85"/>
<path d="M37.2,596.1 L42.3,585.4 L44.7,572.3 L59.0,555.1 L75.1,541.2 L80.9,593.3 L80.6,546.1 L84.7,527.7" fill="none" stroke="#d81b9f" stroke-width="1.3" stroke-opacity="0.85"/>
<path d="M89.7,807.5 L92.6,803.8 L98.7,801.8 L107.9,803.4 L110.2,799.5 L108.5,783.0 L101.1,752.0 L99.4,727.0" fill="none" stroke="#d81b9f" stroke-width="1.3" stroke-opacity="0.85"/>
<path d="M143.0,487.5 L214.1,404.9 L233.2,329.7 L233.7,268.7 L206.7,237.4 L162.2,249.8 L193.6,165.4 L192.1,136.4 L175.8,151.1 L151.1,175.8" fill="none" stroke="#d81b9f" stroke-width="1.3" stroke-opacity="0.85" stroke-dasharray="8 5"/>
<path d="M421.1,1015.1 L372.9,981.2 L419.8,991.8 L437.3,1006.2 L462.4,1001.3 L309.1,865.7 L369.3,739.9 L258.4,627.7 L159.7,683.1 L143.0,487.5" fill="none" stroke="#d81b9f" stroke-width="1.3" stroke-opacity="0.85" stroke-dasharray="8 5"/>
<path d="M1095.4,509.1 L1093.9,492.3 L1074.4,394.5 L1037.1,301.2 L1023.6,372.2 L607.0,433.6 L580.4,280.6 L329.8,302.8 L251.1,182.4 L174.5,224.9" fill="none" stroke="#d81b9f" stroke-width="1.3" stroke-opacity="0.85" stroke-dasharray="8 5"/>
<path d="M208.5,366.1 L224.0,365.7" fill="none" stroke="#d81b9f" stroke-width="1.3" stroke-opacity="0.85"/>
<path d="M205.8,446.9 L203.2,445.1 L200.5,443.2 L177.0,426.1" fill="none" stroke="#d81b9f" stroke-width="1.3" stroke-opacity="0.85"/>
<path d="M433.1,259.9 L431.9,285.5 L431.9,288.8 L431.6,298.1" fill="none" stroke="#d81b9f" stroke-width="1.3" stroke-opacity="0.85"/>
<path d="M588.8,352.8 L611.2,344.5 L617.0,342.6 L626.1,340.0" fill="none" stroke="#d81b9f" stroke-width="1.3" stroke-opacity="0.85"/>
<path d="M479.6875,331.87805555555553 L489.6875,341.87805555555553 M479.6875,341.87805555555553 L489.6875,331.87805555555553" stroke="#d81b9f" stroke-width="1.6"/>
<path d="M555.2,322.5 L487.4,319.8 L460.2,318.8 L404.6,316.9" fill="none" stroke="#d81b9f" stroke-width="1.3" stroke-opacity="0.85"/>
<rect x="20" y="1066" width="30.555555555555557" height="4" fill="#232019"/>
<text x="20" y="1060" font-size="12" fill="#232019">1 km (authored, pre-spread)</text>
<text x="20" y="24" font-size="14" fill="#232019">basin / spread — game data (grey/green) vs OSM geo-truth (magenta)</text>
</svg>
