<svg xmlns="http://www.w3.org/2000/svg" width="1100" height="1100" viewBox="0 0 1100 1100">
<rect width="1100" height="1100" fill="#f6f3ec"/>
<circle cx="632.5" cy="495" r="825" fill="none" stroke="#c9c2b2" stroke-dasharray="6 5"/>
<circle cx="-55" cy="715" r="825" fill="none" stroke="#c9c2b2" stroke-dasharray="6 5"/>
<circle cx="-825" cy="302.5" r="797.5" fill="none" stroke="#c9c2b2" stroke-dasharray="6 5"/>
<circle cx="-1292.5" cy="495" r="632.5" fill="none" stroke="#c9c2b2" stroke-dasharray="6 5"/>
<circle cx="-467.5" cy="-165" r="687.5" fill="none" stroke="#c9c2b2" stroke-dasharray="6 5"/>
<circle cx="-880" cy="-330" r="577.5" fill="none" stroke="#c9c2b2" stroke-dasharray="6 5"/>
<circle cx="1045" cy="0" r="687.5" fill="none" stroke="#c9c2b2" stroke-dasharray="6 5"/>
<circle cx="-440" cy="-1100" r="577.5" fill="none" stroke="#c9c2b2" stroke-dasharray="6 5"/>
<circle cx="1595" cy="-605" r="577.5" fill="none" stroke="#c9c2b2" stroke-dasharray="6 5"/>
<circle cx="2062.5" cy="412.5" r="605" fill="none" stroke="#c9c2b2" stroke-dasharray="6 5"/>
<circle cx="-880" cy="1265" r="550" fill="none" stroke="#c9c2b2" stroke-dasharray="6 5"/>
<circle cx="-1595" cy="-302.5" r="715" fill="none" stroke="#c9c2b2" stroke-dasharray="6 5"/>
<circle cx="-1980" cy="-990" r="660" fill="none" stroke="#c9c2b2" stroke-dasharray="6 5"/>
<circle cx="-2282.5" cy="484" r="605" fill="none" stroke="#c9c2b2" stroke-dasharray="6 5"/>
<circle cx="-2090" cy="1223.75" r="660" fill="none" stroke="#c9c2b2" stroke-dasharray="6 5"/>
<circle cx="-1265" cy="1595" r="715" fill="none" stroke="#c9c2b2" stroke-dasharray="6 5"/>
<circle cx="-825" cy="1292.5" r="550" fill="none" stroke="#c9c2b2" stroke-dasharray="6 5"/>
<circle cx="-2035" cy="1897.5" r="550" fill="none" stroke="#c9c2b2" stroke-dasharray="6 5"/>
<circle cx="-82.5" cy="2530" r="770" fill="none" stroke="#c9c2b2" stroke-dasharray="6 5"/>
<circle cx="2695" cy="-330" r="660" fill="none" stroke="#c9c2b2" stroke-dasharray="6 5"/>
<circle cx="-935" cy="-1842.5" r="550" fill="none" stroke="#c9c2b2" stroke-dasharray="6 5"/>
<circle cx="-522.5" cy="-1705" r="550" fill="none" stroke="#c9c2b2" stroke-dasharray="6 5"/>
<circle cx="0" cy="-2612.5" r="1375" fill="#c1a97e" fill-opacity="0.25" stroke="#a8895c"/>
<circle cx="0" cy="-2612.5" r="2.5" fill="#8a6b3f"/>
<circle cx="962.5" cy="-2887.5" r="1155" fill="#c1a97e" fill-opacity="0.25" stroke="#a8895c"/>
<circle cx="962.5" cy="-2887.5" r="2.5" fill="#8a6b3f"/>
<circle cx="-687.5" cy="-2200" r="1100" fill="#c1a97e" fill-opacity="0.25" stroke="#a8895c"/>
<circle cx="-687.5" cy="-2200" r="2.5" fill="#8a6b3f"/>
<circle cx="1787.5" cy="-2337.5" r="990" fill="#c1a97e" fill-opacity="0.25" stroke="#a8895c"/>
<circle cx="1787.5" cy="-2337.5" r="2.5" fill="#8a6b3f"/>
<circle cx="412.5" cy="-3162.5" r="880" fill="#c1a97e" fill-opacity="0.25" stroke="#a8895c"/>
<circle cx="412.5" cy="-3162.5" r="2.5" fill="#8a6b3f"/>
<circle cx="1237.5" cy="2475" r="1265" fill="#c1a97e" fill-opacity="0.25" stroke="#a8895c"/>
<circle cx="1237.5" cy="2475" r="2.5" fill="#8a6b3f"/>
<circle cx="2200" cy="2887.5" r="1045" fill="#c1a97e" fill-opacity="0.25" stroke="#a8895c"/>
<circle cx="2200" cy="2887.5" r="2.5" fill="#8a6b3f"/>
<circle cx="412.5" cy="2337.5" r="990" fill="#c1a97e" fill-opacity="0.25" stroke="#a8895c"/>
<circle cx="412.5" cy="2337.5" r="2.5" fill="#8a6b3f"/>
<circle cx="-412.5" cy="2200" r="880" fill="#c1a97e" fill-opacity="0.25" stroke="#a8895c"/>
<circle cx="-412.5" cy="2200" r="2.5" fill="#8a6b3f"/>
<circle cx="907.5" cy="990" r="275" fill="#c1a97e" fill-opacity="0.25" stroke="#a8895c"/>
<circle cx="907.5" cy="990" r="2.5" fill="#8a6b3f"/>
<circle cx="1086.25" cy="1196.25" r="302.5" fill="#c1a97e" fill-opacity="0.25" stroke="#a8895c"/>
<circle cx="1086.25" cy="1196.25" r="2.5" fill="#8a6b3f"/>
<circle cx="1223.75" cy="1058.75" r="220" fill="#c1a97e" fill-opacity="0.25" stroke="#a8895c"/>
<circle cx="1223.75" cy="1058.75" r="2.5" fill="#8a6b3f"/>
<circle cx="1287" cy="929.5" r="178.75" fill="#c1a97e" fill-opacity="0.25" stroke="#a8895c"/>
<circle cx="1287" cy="929.5" r="2.5" fill="#8a6b3f"/>
<circle cx="1925" cy="1237.5" r="770" fill="#c1a97e" fill-opacity="0.25" stroke="#a8895c"/>
<circle cx="1925" cy="1237.5" r="2.5" fill="#8a6b3f"/>
<circle cx="2612.5" cy="687.5" r="825" fill="#c1a97e" fill-opacity="0.25" stroke="#a8895c"/>
<circle cx="2612.5" cy="687.5" r="2.5" fill="#8a6b3f"/>
<circle cx="1512.5" cy="-1512.5" r="770" fill="#c1a97e" fill-opacity="0.25" stroke="#a8895c"/>
<circle cx="1512.5" cy="-1512.5" r="2.5" fill="#8a6b3f"/>
<circle cx="2062.5" cy="-962.5" r="660" fill="#c1a97e" fill-opacity="0.25" stroke="#a8895c"/>
<circle cx="2062.5" cy="-962.5" r="2.5" fill="#8a6b3f"/>
<circle cx="-2750" cy="-1100" r="935" fill="#c1a97e" fill-opacity="0.25" stroke="#a8895c"/>
<circle cx="-2750" cy="-1100" r="2.5" fill="#8a6b3f"/>
<circle cx="-3025" cy="825" r="1100" fill="#c1a97e" fill-opacity="0.25" stroke="#a8895c"/>
<circle cx="-3025" cy="825" r="2.5" fill="#8a6b3f"/>
<circle cx="3300" cy="550" r="1237.5" fill="#c1a97e" fill-opacity="0.25" stroke="#a8895c"/>
<circle cx="3300" cy="550" r="2.5" fill="#8a6b3f"/>
<circle cx="3987.5" cy="-412.5" r="1100" fill="#c1a97e" fill-opacity="0.25" stroke="#a8895c"/>
<circle cx="3987.5" cy="-412.5" r="2.5" fill="#8a6b3f"/>
<circle cx="3162.5" cy="1650" r="1100" fill="#c1a97e" fill-opacity="0.25" stroke="#a8895c"/>
<circle cx="3162.5" cy="1650" r="2.5" fill="#8a6b3f"/>
<circle cx="3850" cy="1375" r="990" fill="#c1a97e" fill-opacity="0.25" stroke="#a8895c"/>
<circle cx="3850" cy="1375" r="2.5" fill="#8a6b3f"/>
<circle cx="550" cy="3850" r="1512.5" fill="#c1a97e" fill-opacity="0.25" stroke="#a8895c"/>
<circle cx="550" cy="3850" r="2.5" fill="#8a6b3f"/>
<circle cx="1512.5" cy="4262.5" r="1265" fill="#c1a97e" fill-opacity="0.25" stroke="#a8895c"/>
<circle cx="1512.5" cy="4262.5" r="2.5" fill="#8a6b3f"/>
<circle cx="-275" cy="4125" r="1265" fill="#c1a97e" fill-opacity="0.25" stroke="#a8895c"/>
<circle cx="-275" cy="4125" r="2.5" fill="#8a6b3f"/>
<circle cx="2200" cy="3575" r="1100" fill="#c1a97e" fill-opacity="0.25" stroke="#a8895c"/>
<circle cx="2200" cy="3575" r="2.5" fill="#8a6b3f"/>
<circle cx="-2475" cy="2750" r="1155" fill="#c1a97e" fill-opacity="0.25" stroke="#a8895c"/>
<circle cx="-2475" cy="2750" r="2.5" fill="#8a6b3f"/>
<circle cx="-3300" cy="1925" r="1100" fill="#c1a97e" fill-opacity="0.25" stroke="#a8895c"/>
<circle cx="-3300" cy="1925" r="2.5" fill="#8a6b3f"/>
<circle cx="-2062.5" cy="3437.5" r="1045" fill="#c1a97e" fill-opacity="0.25" stroke="#a8895c"/>
<circle cx="-2062.5" cy="3437.5" r="2.5" fill="#8a6b3f"/>
<circle cx="-3712.5" cy="137.5" r="1237.5" fill="#c1a97e" fill-opacity="0.25" stroke="#a8895c"/>
<circle cx="-3712.5" cy="137.5" r="2.5" fill="#8a6b3f"/>
<circle cx="-3300" cy="-687.5" r="1100" fill="#c1a97e" fill-opacity="0.25" stroke="#a8895c"/>
<circle cx="-3300" cy="-687.5" r="2.5" fill="#8a6b3f"/>
<circle cx="0" cy="-3712.5" r="1375" fill="#c1a97e" fill-opacity="0.25" stroke="#a8895c"/>
<circle cx="0" cy="-3712.5" r="2.5" fill="#8a6b3f"/>
<circle cx="1237.5" cy="-3575" r="1155" fill="#c1a97e" fill-opacity="0.25" stroke="#a8895c"/>
<circle cx="1237.5" cy="-3575" r="2.5" fill="#8a6b3f"/>
<circle cx="-1100" cy="-3162.5" r="1100" fill="#c1a97e" fill-opacity="0.25" stroke="#a8895c"/>
<circle cx="-1100" cy="-3162.5" r="2.5" fill="#8a6b3f"/>
<circle cx="-247.5" cy="687.5" r="316.25" fill="#79b55a" fill-opacity="0.45" stroke="#579a41"/>
<circle cx="-522.5" cy="-825" r="192.5" fill="#79b55a" fill-opacity="0.45" stroke="#579a41"/>
<circle cx="308" cy="220" r="110" fill="#79b55a" fill-opacity="0.45" stroke="#579a41"/>
<circle cx="453.75" cy="288.75" r="82.5" fill="#79b55a" fill-opacity="0.45" stroke="#579a41"/>
<circle cx="-962.5" cy="275" r="137.5" fill="#79b55a" fill-opacity="0.45" stroke="#579a41"/>
<circle cx="893.75" cy="976.25" r="343.75" fill="#79b55a" fill-opacity="0.45" stroke="#579a41"/>
<circle cx="1182.5" cy="1086.25" r="371.25" fill="#79b55a" fill-opacity="0.45" stroke="#579a41"/>
<circle cx="-1540" cy="-495" r="233.75" fill="#79b55a" fill-opacity="0.45" stroke="#579a41"/>
<circle cx="-1622.5" cy="715" r="233.75" fill="#79b55a" fill-opacity="0.45" stroke="#579a41"/>
<circle cx="-165" cy="-660" r="247.5" fill="#79b55a" fill-opacity="0.45" stroke="#579a41"/>
<circle cx="935" cy="-385" r="220" fill="#79b55a" fill-opacity="0.45" stroke="#579a41"/>
<circle cx="-1347.5" cy="880" r="151.25" fill="#79b55a" fill-opacity="0.45" stroke="#579a41"/>
<circle cx="-742.5" cy="1155" r="137.5" fill="#79b55a" fill-opacity="0.45" stroke="#579a41"/>
<path d="M-1430.0,1375.0 L-1485.0,550.0 L-1595.0,-275.0 L-1815.0,-1100.0 L-2200.0,-1980.0 L-2475.0,-2282.5" fill="none" stroke="#5ec4cc" stroke-width="341" stroke-linecap="round" stroke-linejoin="round"/>
<path d="M-687.5,2612.5 L-880.0,1787.5 L-1155.0,1237.5 L-1375.0,825.0 L-1457.5,550.0" fill="none" stroke="#5ec4cc" stroke-width="231" stroke-linecap="round" stroke-linejoin="round"/>
<path d="M2612.5,962.5 L2062.5,412.5 L1512.5,-137.5 L962.5,-522.5 L330.0,-687.5 L-357.5,-660.0 L-880.0,-467.5 L-1457.5,-797.5 L-1815.0,-1100.0" fill="none" stroke="#5ec4cc" stroke-width="247.5" stroke-linecap="round" stroke-linejoin="round"/>
<path d="M-1375.0,275.0 L-770.0,302.5 L-220.0,275.0 L82.5,132.0 L701.3,123.8 L1155.0,233.8 L1705.0,453.8" fill="none" stroke="#8e8878" stroke-width="93.5" stroke-linecap="round" stroke-linejoin="round"/>
<path d="M-1210.0,646.3 L-440.0,467.5 L151.3,336.9 L288.8,334.1 L426.3,330.0" fill="none" stroke="#8e8878" stroke-width="77.00000000000001" stroke-linecap="round" stroke-linejoin="round"/>
<path d="M-1265.0,825.0 L-275.0,825.0 L110.0,731.5 L385.0,720.5 L715.0,720.5 L962.5,742.5 L1210.0,825.0" fill="none" stroke="#8e8878" stroke-width="66" stroke-linecap="round" stroke-linejoin="round"/>
<path d="M-1320.0,1072.5 L-275.0,1100.0 L550.0,1113.8 L756.3,1113.8" fill="none" stroke="#8e8878" stroke-width="60.5" stroke-linecap="round" stroke-linejoin="round"/>
<path d="M-1155.0,-137.5 L-412.5,-165.0 L275.0,-178.8 L990.0,-165.0 L1430.0,-137.5" fill="none" stroke="#8e8878" stroke-width="71.5" stroke-linecap="round" stroke-linejoin="round"/>
<path d="M-1155.0,82.5 L-275.0,68.8 L82.5,-137.5 L550.0,-137.5 L1265.0,-82.5" fill="none" stroke="#8e8878" stroke-width="60.5" stroke-linecap="round" stroke-linejoin="round"/>
<path d="M-715.0,1155.0 L-687.5,330.0 L-646.3,-275.0 L-605.0,-825.0" fill="none" stroke="#8e8878" stroke-width="82.5" stroke-linecap="round" stroke-linejoin="round"/>
<path d="M275.0,1210.0 L275.0,550.0 L275.0,-165.0 L302.5,-605.0" fill="none" stroke="#8e8878" stroke-width="77.00000000000001" stroke-linecap="round" stroke-linejoin="round"/>
<path d="M-27.5,1210.0 L-13.8,412.5 L0.0,-192.5" fill="none" stroke="#8e8878" stroke-width="60.5" stroke-linecap="round" stroke-linejoin="round"/>
<path d="M-1237.5,1265.0 L-1210.0,605.0 L-1237.5,55.0" fill="none" stroke="#8e8878" stroke-width="60.5" stroke-linecap="round" stroke-linejoin="round"/>
<path d="M825.0,-27.5 L627.0,123.8 L398.8,269.5 L330.0,453.8 L308.0,720.5 L247.5,921.3" fill="none" stroke="#8e8878" stroke-width="71.5" stroke-linecap="round" stroke-linejoin="round"/>
<path d="M-825.0,687.5 L-935.0,1155.0 L-1045.0,1650.0" fill="none" stroke="#8e8878" stroke-width="60.5" stroke-linecap="round" stroke-linejoin="round"/>
<path d="M187.0,-82.5 L192.5,132.0 L198.0,335.5 L203.5,731.5" fill="none" stroke="#8e8878" stroke-width="55" stroke-linecap="round" stroke-linejoin="round"/>
<path d="M792.0,-27.5 L792.0,123.8 L792.0,412.5 L792.0,720.5" fill="none" stroke="#8e8878" stroke-width="49.5" stroke-linecap="round" stroke-linejoin="round"/>
<path d="M352.0,396.0 L605.0,396.0 L792.0,396.0" fill="none" stroke="#8e8878" stroke-width="44" stroke-linecap="round" stroke-linejoin="round"/>
<path d="M-550.0,-1155.0 L-687.5,-550.0 L-770.0,0.0 L-687.5,412.5 L-275.0,687.5 L110.0,742.5 L385.0,731.5 L715.0,731.5 L962.5,753.5 L1100.0,852.5" fill="none" stroke="#E3002C" stroke-width="1.6" stroke-opacity="0.85"/>
<path d="M-1265.0,440.0 L-770.0,412.5 L-220.0,288.8 L82.5,143.0 L701.3,134.8 L1155.0,242.0 L2200.0,275.0" fill="none" stroke="#0070BD" stroke-width="1.6" stroke-opacity="0.85"/>
<path d="M-715.0,1650.0 L-632.5,825.0 L-715.0,440.0 L-275.0,220.0 L275.0,0.0 L907.5,27.5" fill="none" stroke="#1DA742" stroke-width="1.6" stroke-opacity="0.85"/>
<path d="M-275.0,1650.0 L-137.5,880.0 L-220.0,275.0 L-550.0,-275.0 L-990.0,-110.0" fill="none" stroke="#F8B61C" stroke-width="1.6" stroke-opacity="0.85"/>
<path d="M880.0,1705.0 L385.0,880.0 L165.0,27.5 L275.0,-550.0 L357.5,-962.5" fill="none" stroke="#C48C31" stroke-width="1.6" stroke-opacity="0.85"/>
<path d="M1067.0,830.5 L1057.4,840.4 L1047.5,850.9 L1037.8,860.8 L1028.2,870.6 L1017.5,880.0 L1004.0,880.8 L990.3,879.5 L976.5,877.8 L962.8,876.4 L948.5,875.9 L934.2,876.7 L919.9,878.6 L905.9,881.9 L892.1,886.9 L879.5,893.5 L874.2,898.7 L888.0,898.1 L901.5,899.5 L915.5,902.8 L929.0,908.3 L940.5,915.5 L951.5,924.8 L960.0,935.5 L966.9,947.6 L971.3,961.4 L973.0,973.0 L963.9,959.2 L953.4,949.3 L941.0,941.9 L927.3,938.0 L913.5,937.5 L899.5,940.8 L891.3,946.0 L905.0,945.7 L919.0,948.8 L926.2,958.1 L920.7,970.8 L914.4,983.7 L912.5,988.1" fill="none" stroke="#4a4438" stroke-width="1.4" stroke-dasharray="2 3"/>
<circle cx="550" cy="550" r="4" fill="#232019"/>
<text x="556" y="546" font-size="11" fill="#232019">Taipei 101</text>
<circle cx="572" cy="247.5" r="4" fill="#232019"/>
<text x="578" y="243.5" font-size="11" fill="#232019">Taipei City Hall</text>
<circle cx="297" cy="214.5" r="4" fill="#232019"/>
<text x="303" y="210.5" font-size="11" fill="#232019">Sun Yat-sen Hall</text>
<circle cx="316.25" cy="5.5" r="4" fill="#232019"/>
<text x="322.25" y="1.5" font-size="11" fill="#232019">Taipei Dome</text>
<circle cx="467.5" cy="335.5" r="4" fill="#232019"/>
<text x="473.5" y="331.5" font-size="11" fill="#232019">Grand Hyatt Taipei</text>
<circle cx="731.5" cy="440" r="4" fill="#232019"/>
<text x="737.5" y="436" font-size="11" fill="#232019">Breeze Nan Shan</text>
<circle cx="673.75" cy="368.5" r="4" fill="#232019"/>
<text x="679.75" y="364.5" font-size="11" fill="#232019">Mitsukoshi A11</text>
<circle cx="137.5" cy="27.5" r="4" fill="#232019"/>
<text x="143.5" y="23.5" font-size="11" fill="#232019">Taipei Arena</text>
<circle cx="907.5" cy="27.5" r="4" fill="#232019"/>
<text x="913.5" y="23.5" font-size="11" fill="#232019">Raohe Night Market</text>
<circle cx="-632.5" cy="522.5" r="4" fill="#232019"/>
<text x="-626.5" y="518.5" font-size="11" fill="#232019">CKS Memorial Hall</text>
<circle cx="-907.5" cy="357.5" r="4" fill="#232019"/>
<text x="-901.5" y="353.5" font-size="11" fill="#232019">Presidential Office</text>
<circle cx="-770" cy="123.75" r="4" fill="#232019"/>
<text x="-764" y="119.75" font-size="11" fill="#232019">Taipei Main Station</text>
<circle cx="-1113.75" cy="467.5" r="4" fill="#232019"/>
<text x="-1107.75" y="463.5" font-size="11" fill="#232019">Longshan Temple</text>
<circle cx="-907.5" cy="-591.25" r="4" fill="#232019"/>
<text x="-901.5" y="-595.25" font-size="11" fill="#232019">Bao’an Temple</text>
<circle cx="-522.5" cy="-852.5" r="4" fill="#232019"/>
<text x="-516.5" y="-856.5" font-size="11" fill="#232019">Grand Hotel</text>
<circle cx="-660" cy="-1196.25" r="4" fill="#232019"/>
<text x="-654" y="-1200.25" font-size="11" fill="#232019">Shilin Night Market</text>
<circle cx="357.5" cy="-948.75" r="4" fill="#232019"/>
<text x="363.5" y="-952.75" font-size="11" fill="#232019">Miramar Ferris Wheel</text>
<circle cx="110" cy="-1540" r="4" fill="#232019"/>
<text x="116" y="-1544" font-size="11" fill="#232019">Palace Museum</text>
<circle cx="646.25" cy="770" r="2" fill="#6b6455"/>
<circle cx="1485" cy="495" r="2" fill="#6b6455"/>
<circle cx="-357.5" cy="220" r="2" fill="#6b6455"/>
<circle cx="220" cy="82.5" r="2" fill="#6b6455"/>
<circle cx="0" cy="907.5" r="2" fill="#6b6455"/>
<circle cx="687.5" cy="-275" r="2" fill="#6b6455"/>
<circle cx="742.5" cy="165" r="2" fill="#6b6455"/>
<circle cx="-467.5" cy="715" r="2" fill="#6b6455"/>
<circle cx="275" cy="1182.5" r="2" fill="#6b6455"/>
<circle cx="-137.5" cy="-192.5" r="2" fill="#6b6455"/>
<path d="M543.9,539.225 L553.9,549.225 M543.9,549.225 L553.9,539.225" stroke="#d81b9f" stroke-width="1.6"/>
<text x="554.9" y="556.225" font-size="9" fill="#d81b9f">taipei-101</text>
<path d="M544.175,428.95 L554.175,438.95 M544.175,438.95 L554.175,428.95" stroke="#d81b9f" stroke-width="1.6"/>
<text x="555.175" y="445.95" font-size="9" fill="#d81b9f">city-hall</text>
<path d="M428.4,353.05 L438.4,363.05 M428.4,363.05 L438.4,353.05" stroke="#d81b9f" stroke-width="1.6"/>
<text x="439.4" y="370.05" font-size="9" fill="#d81b9f">sun-yat-sen-hall</text>
<path d="M408.6,280.725 L418.6,290.725 M408.6,290.725 L418.6,280.725" stroke="#d81b9f" stroke-width="1.6"/>
<text x="419.6" y="297.725" font-size="9" fill="#d81b9f">taipei-dome</text>
<path d="M513.65,498.25 L523.65,508.25 M513.65,508.25 L523.65,498.25" stroke="#d81b9f" stroke-width="1.6"/>
<text x="524.65" y="515.25" font-size="9" fill="#d81b9f">grand-hyatt</text>
<path d="M594.775,524.1 L604.775,534.1 M594.775,534.1 L604.775,524.1" stroke="#d81b9f" stroke-width="1.6"/>
<text x="605.775" y="541.1" font-size="9" fill="#d81b9f">breeze-nanshan</text>
<path d="M146.25,27.450000000000045 L156.25,37.450000000000045 M146.25,37.450000000000045 L156.25,27.450000000000045" stroke="#d81b9f" stroke-width="1.6"/>
<text x="157.25" y="44.450000000000045" font-size="9" fill="#d81b9f">taipei-arena</text>
<path d="M838.1500000000001,28.550000000000068 L848.1500000000001,38.55000000000007 M838.1500000000001,38.55000000000007 L848.1500000000001,28.550000000000068" stroke="#d81b9f" stroke-width="1.6"/>
<text x="849.1500000000001" y="45.55000000000007" font-size="9" fill="#d81b9f">raohe-night-market</text>
<path d="M-638.875,516.4 L-628.875,526.4 M-638.875,526.4 L-628.875,516.4" stroke="#d81b9f" stroke-width="1.6"/>
<text x="-627.875" y="533.4" font-size="9" fill="#d81b9f">cks-memorial</text>
<path d="M-911.95,353.6 L-901.95,363.6 M-911.95,363.6 L-901.95,353.6" stroke="#d81b9f" stroke-width="1.6"/>
<text x="-900.95" y="370.6" font-size="9" fill="#d81b9f">presidential-office</text>
<path d="M-769.2249999999999,118.75 L-759.2249999999999,128.75 M-769.2249999999999,128.75 L-759.2249999999999,118.75" stroke="#d81b9f" stroke-width="1.6"/>
<text x="-758.2249999999999" y="135.75" font-size="9" fill="#d81b9f">main-station</text>
<path d="M-1247.45,436.375 L-1237.45,446.375 M-1247.45,446.375 L-1237.45,436.375" stroke="#d81b9f" stroke-width="1.6"/>
<text x="-1236.45" y="453.375" font-size="9" fill="#d81b9f">longshan-temple</text>
<path d="M-512.0999999999999,-824.2250000000001 L-502.0999999999999,-814.2250000000001 M-512.0999999999999,-814.2250000000001 L-502.0999999999999,-824.2250000000001" stroke="#d81b9f" stroke-width="1.6"/>
<text x="-501.0999999999999" y="-807.2250000000001" font-size="9" fill="#d81b9f">grand-hotel</text>
<path d="M-550.875,-1113.5249999999999 L-540.875,-1103.5249999999999 M-550.875,-1103.5249999999999 L-540.875,-1113.5249999999999" stroke="#d81b9f" stroke-width="1.6"/>
<text x="-539.875" y="-1096.5249999999999" font-size="9" fill="#d81b9f">shilin-night-market</text>
<path d="M109.125,-1519.15 L119.125,-1509.15 M109.125,-1509.15 L119.125,-1519.15" stroke="#d81b9f" stroke-width="1.6"/>
<text x="120.125" y="-1502.15" font-size="9" fill="#d81b9f">palace-museum</text>
<path d="M349.75,-962.8249999999998 L359.75,-952.8249999999998 M349.75,-952.8249999999998 L359.75,-962.8249999999998" stroke="#d81b9f" stroke-width="1.6"/>
<text x="360.75" y="-945.8249999999998" font-size="9" fill="#d81b9f">miramar-ferris-wheel</text>
<path d="M-812.6750000000002,-652.8999999999999 L-802.6750000000002,-642.8999999999999 M-812.6750000000002,-642.8999999999999 L-802.6750000000002,-652.8999999999999" stroke="#d81b9f" stroke-width="1.6"/>
<text x="-801.6750000000002" y="-635.8999999999999" font-size="9" fill="#d81b9f">baoan-temple</text>
<path d="M-267.07499999999993,667.65 L-257.07499999999993,677.65 M-267.07499999999993,677.65 L-257.07499999999993,667.65" stroke="#d81b9f" stroke-width="1.6"/>
<text x="-256.07499999999993" y="684.65" font-size="9" fill="#d81b9f">daan-forest-park</text>
<path d="M-821.75,306.025 L-811.75,316.025 M-821.75,316.025 L-811.75,306.025" stroke="#d81b9f" stroke-width="1.6"/>
<text x="-810.75" y="323.025" font-size="9" fill="#d81b9f">peace-park</text>
<path d="M851.35,762.8 L861.35,772.8 M851.35,772.8 L861.35,762.8" stroke="#d81b9f" stroke-width="1.6"/>
<text x="862.35" y="779.8" font-size="9" fill="#d81b9f">elephant-mountain</text>
<path d="M1095.825,945.4 L1105.825,955.4 M1095.825,955.4 L1105.825,945.4" stroke="#d81b9f" stroke-width="1.6"/>
<text x="1106.825" y="962.4" font-size="9" fill="#d81b9f">thumb-mountain</text>
<path d="M238.09999999999997,-3620.9749999999995 L248.09999999999997,-3610.9749999999995 M238.09999999999997,-3610.9749999999995 L248.09999999999997,-3620.9749999999995" stroke="#d81b9f" stroke-width="1.6"/>
<text x="249.09999999999997" y="-3603.9749999999995" font-size="9" fill="#d81b9f">qixingshan</text>
<path d="M-628.4250000000002,-3865.45 L-618.4250000000002,-3855.45 M-628.4250000000002,-3855.45 L-618.4250000000002,-3865.45" stroke="#d81b9f" stroke-width="1.6"/>
<text x="-617.4250000000002" y="-3848.45" font-size="9" fill="#d81b9f">datun</text>
<path d="M-3277.775,-2563.875 L-3267.775,-2553.875 M-3277.775,-2553.875 L-3267.775,-2563.875" stroke="#d81b9f" stroke-width="1.6"/>
<text x="-3266.775" y="-2546.875" font-size="9" fill="#d81b9f">guanyinshan</text>
<path d="M1199.775,2518.675 L1209.775,2528.675 M1199.775,2528.675 L1209.775,2518.675" stroke="#d81b9f" stroke-width="1.6"/>
<text x="1210.775" y="2535.675" font-size="9" fill="#d81b9f">maokong</text>
<path d="M-1035.4,94.1 L-262.4,298.9 L757.4,344.3 L933.1,325.9 L1090.4,147.4 L1197.6,85.0 L1412.1,31.4 L1972.6,-40.4" fill="none" stroke="#d81b9f" stroke-width="1.3" stroke-opacity="0.85"/>
<path d="M-726.8,383.4 L-541.8,409.5 L-491.2,411.7 L-374.3,411.9 L-282.7,415.3 L103.7,422.4 L489.5,432.9" fill="none" stroke="#d81b9f" stroke-width="1.3" stroke-opacity="0.85"/>
<path d="M-2415.3,1753.4 L-2346.3,1858.2 L-1834.0,-991.6 L-689.4,430.4 L-473.5,539.5 L-337.1,552.8 L754.6,578.3 L913.5,486.8" fill="none" stroke="#d81b9f" stroke-width="1.3" stroke-opacity="0.85"/>
<path d="M-1502.0,494.2 L-1135.8,517.8 L-747.5,760.1 L-95.1,771.6 L219.7,838.5 L815.9,1599.1" fill="none" stroke="#d81b9f" stroke-width="1.3" stroke-opacity="0.85"/>
<path d="M-1007.9,-52.3 L-834.9,-67.6 L-676.8,-26.4 L-617.1,-14.8 L-570.9,-11.5 L716.4,13.8 L1279.3,-311.0" fill="none" stroke="#d81b9f" stroke-width="1.3" stroke-opacity="0.85"/>
<path d="M-409.2,247.8 L-295.9,214.8 L-196.6,169.1 L34.9,113.3 L371.3,108.6 L749.6,57.2 L923.5,52.3 L1036.2,14.6" fill="none" stroke="#d81b9f" stroke-width="1.3" stroke-opacity="0.85"/>
<path d="M-2746.2,-4407.4 L-2781.6,-3875.0 L-2863.8,-3734.2 L-332.5,-2211.5 L-539.5,-1721.8 L-462.5,-1272.7 L-617.7,0.5 L-775.2,499.1" fill="none" stroke="#d81b9f" stroke-width="1.3" stroke-opacity="0.85"/>
<path d="M112.5,929.0 L114.4,714.7 L131.2,642.4 L114.4,556.3 L121.3,-179.6 L131.7,-214.2 L166.9,-287.6 L200.5,-339.6" fill="none" stroke="#d81b9f" stroke-width="1.3" stroke-opacity="0.85"/>
<path d="M-36.6,916.0 L-31.6,699.3 L-50.9,629.2 L-29.7,564.6 L-28.9,516.2 L-35.2,476.0 L-26.7,416.1 L-10.2,-433.9" fill="none" stroke="#d81b9f" stroke-width="1.3" stroke-opacity="0.85"/>
<path d="M-975.2,812.3 L-1060.9,740.0 L-1116.8,669.4 L-1120.3,619.9 L-1072.5,515.1 L-1051.6,453.8 L-967.5,134.8" fill="none" stroke="#d81b9f" stroke-width="1.3" stroke-opacity="0.85"/>
<path d="M-317.6,1295.3 L-260.2,1255.1 L-154.3,1205.6 L-65.2,1141.0 L-50.9,1090.1 L321.2,733.7 L525.5,375.4 L706.8,31.6" fill="none" stroke="#d81b9f" stroke-width="1.3" stroke-opacity="0.85"/>
<path d="M-760.9,536.5 L-542.3,859.4 L-201.9,1239.2 L-159.2,1408.0 L-154.3,1652.5 L-102.9,1686.9 L-99.3,1749.0 L-139.1,1888.1" fill="none" stroke="#d81b9f" stroke-width="1.3" stroke-opacity="0.85"/>
<path d="M275.3,-307.7 L303.9,-133.4 L316.5,-82.2 L340.4,-26.7 L363.5,18.1 L363.5,245.3 L354.8,582.7 L355.6,663.0" fill="none" stroke="#d81b9f" stroke-width="1.3" stroke-opacity="0.85"/>
<path d="M660.5,338.0 L658.9,388.6 L658.1,462.0 L655.6,606.6 L657.0,666.6 L656.7,717.8 L660.0,768.4 L690.8,828.9" fill="none" stroke="#d81b9f" stroke-width="1.3" stroke-opacity="0.85"/>
<path d="M479.6,482.1 L520.9,482.9 L583.0,484.0 L641.6,485.1" fill="none" stroke="#d81b9f" stroke-width="1.3" stroke-opacity="0.85"/>
<path d="M-1106.3,75.9 L-996.6,38.8 L-274.2,207.6 L223.9,224.9 L550.5,190.8 L700.7,79.2 L982.6,81.1 L1970.7,-80.6" fill="none" stroke="#d81b9f" stroke-width="1.3" stroke-opacity="0.85"/>
<path d="M-909.7,-338.8 L163.4,-297.0 L382.5,-316.8 L772.8,-393.8 L1085.7,-512.0 L1345.6,-519.8 L1524.6,-458.4 L1680.0,-633.9" fill="none" stroke="#d81b9f" stroke-width="1.3" stroke-opacity="0.85"/>
<path d="M-989.7,-155.1 L-811.5,-158.7 L-608.3,-186.2 L-550.5,-190.9 L-157.6,-185.1 L115.2,-179.6 L278.3,-196.1 L651.8,-226.1" fill="none" stroke="#d81b9f" stroke-width="1.3" stroke-opacity="0.85"/>
<path d="M-464.8,-574.5 L-467.5,3.9 L-413.3,110.8 L-327.0,205.1 L-331.4,548.9 L-271.7,767.0 L-291.2,935.8 L-321.8,1064.5" fill="none" stroke="#d81b9f" stroke-width="1.3" stroke-opacity="0.85"/>
<path d="M-294.0,-476.3 L-233.2,-418.5 L-212.6,-369.3 L-222.5,242.3 L-187.0,413.9 L-190.0,571.7 L-184.0,628.4 L-195.8,861.0" fill="none" stroke="#d81b9f" stroke-width="1.3" stroke-opacity="0.85"/>
<path d="M-1232.5,-2095.8 L-935.3,-1794.4 L-891.8,-1465.8 L-792.3,-1204.0 L-654.8,-1132.5 L-592.6,-1026.6 L-721.3,-613.3 L-777.4,70.1" fill="none" stroke="#d81b9f" stroke-width="1.3" stroke-opacity="0.85"/>
<path d="M-695.2,-1568.3 L-654.8,-1527.3" fill="none" stroke="#d81b9f" stroke-width="1.3" stroke-opacity="0.85"/>
<path d="M-966.6,-1854.3 L-817.9,-1933.3 L-789.0,-1976.2 L-757.6,-2012.7 L-694.9,-2035.5 L-636.3,-2049.0 L-579.4,-2135.7 L-531.0,-2183.8" fill="none" stroke="#d81b9f" stroke-width="1.3" stroke-opacity="0.85"/>
<path d="M-514.8,-1594.4 L-441.6,-1631.0 L-408.4,-1681.9 L-376.2,-1844.2 L-344.6,-1896.9 L-316.3,-1933.5 L-282.7,-1995.9" fill="none" stroke="#d81b9f" stroke-width="1.3" stroke-opacity="0.85"/>
<path d="M406.4,-1006.5 L949.3,-819.0 L1008.4,-913.3 L1056.8,-887.2 L1110.4,-956.2 L1225.4,-908.6 L1332.4,-1004.3" fill="none" stroke="#d81b9f" stroke-width="1.3" stroke-opacity="0.85"/>
<path d="M1289.5,-289.8 L1253.4,-845.1 L1426.2,-812.6 L1528.7,-812.6 L1522.7,-888.0 L1591.4,-907.5 L1642.9,-951.0" fill="none" stroke="#d81b9f" stroke-width="1.3" stroke-opacity="0.85"/>
<path d="M1085.7,-8.8 L1139.3,-31.9 L1247.4,-46.5 L1358.2,-81.7 L1580.4,-51.4 L1873.6,-106.7 L2073.8,-91.6" fill="none" stroke="#d81b9f" stroke-width="1.3" stroke-opacity="0.85"/>
<path d="M1990.7,255.5 L1965.1,202.1 L1963.5,144.4 L1973.7,90.2 L1969.0,34.9 L1984.4,-28.3 L1993.2,-85.5" fill="none" stroke="#d81b9f" stroke-width="1.3" stroke-opacity="0.85"/>
<path d="M-2175.5,293.4 L-2086.2,189.5 L-1884.3,114.9 L-1618.7,-115.5 L-1594.4,-154.3 L-1444.8,-270.1 L-1179.5,-364.1" fill="none" stroke="#d81b9f" stroke-width="1.3" stroke-opacity="0.85"/>
<path d="M-2404.9,1264.2 L-2337.5,1181.7 L-2174.2,958.6 L-2118.3,861.0 L-2044.9,718.0 L-2007.8,666.6 L-1868.6,499.4 L-1808.1,479.6" fill="none" stroke="#d81b9f" stroke-width="1.3" stroke-opacity="0.85"/>
<path d="M-181.2,2810.2 L-95.4,2580.6 L-60.8,2469.8 L-50.0,2427.4 L-48.4,2321.6 L-50.3,2273.4 L-103.7,2046.5" fill="none" stroke="#d81b9f" stroke-width="1.3" stroke-opacity="0.85"/>
<path d="M-1243.8,1482.0 L-891.0,1442.1 L-878.3,1402.5 L-864.3,1350.0 L-841.2,1283.7 L-829.7,1238.0 L-812.9,1175.6 L-797.2,1112.4" fill="none" stroke="#d81b9f" stroke-width="1.3" stroke-opacity="0.85"/>
<path d="M-1333.2,1479.8 L-1319.7,1545.2 L-1266.9,1599.7 L-1203.1,1704.7 L-1147.6,1763.0 L-718.8,1824.9 L-622.3,1857.9 L-504.3,1875.8" fill="none" stroke="#d81b9f" stroke-width="1.3" stroke-opacity="0.85"/>
<path d="M2137.6,-95.1 L2336.4,-68.2 L2477.8,-170.5 L3183.1,-475.5 L3313.8,-577.0 L3370.1,-727.6 L3458.9,-783.8 L3751.8,-588.8" fill="none" stroke="#d81b9f" stroke-width="1.3" stroke-opacity="0.85"/>
<path d="M-2315.2,-1268.0 L-2268.5,-1220.7 L-2223.4,-1196.3 L-2161.5,-1174.8 L-2117.2,-1146.8 L-1984.9,-1029.9 L-1937.6,-985.3 L-1910.7,-930.9" fill="none" stroke="#d81b9f" stroke-width="1.3" stroke-opacity="0.85"/>
<path d="M-3721.6,933.9 L-3564.6,837.1 L-3480.9,728.2 L-3070.4,587.4 L-2620.2,491.1 L-2501.1,831.9 L-2464.8,525.3 L-2364.5,410.0" fill="none" stroke="#d81b9f" stroke-width="1.3" stroke-opacity="0.85"/>
<path d="M-3501.3,2816.3 L-3402.0,2743.1 L-3243.9,2667.0 L-3042.6,2609.5 L-2957.9,2540.2 L-2855.6,2347.4 L-2783.0,2049.6 L-2641.7,1803.5" fill="none" stroke="#d81b9f" stroke-width="1.3" stroke-opacity="0.85"/>
<path d="M-1555.4,226.6 L-1097.5,-161.7 L-1032.9,-550.8 L-1122.3,-937.2 L-1576.8,-1386.5 L-2299.8,-1656.1 L-2547.3,-2791.8 L-2876.8,-3409.2 L-3375.6,-3635.5 L-4119.8,-3829.6" fill="none" stroke="#d81b9f" stroke-width="1.3" stroke-opacity="0.85" stroke-dasharray="8 5"/>
<path d="M-354.2,3812.1 L-561.8,3256.8 L-237.1,3221.6 L-176.8,3492.0 L23.1,3265.6 L-669.4,2147.8 L-306.4,1449.8 L-839.0,919.9 L-1471.3,1239.4 L-1555.4,226.6" fill="none" stroke="#d81b9f" stroke-width="1.3" stroke-opacity="0.85" stroke-dasharray="8 5"/>
<path d="M6730.4,86.4 L7677.4,-206.3 L7906.0,-1631.0 L5171.9,-1811.2 L4330.7,-869.5 L819.0,0.8 L694.1,-727.4 L-508.8,-638.5 L-1430.0,-1885.1 L-2307.8,-1924.2" fill="none" stroke="#d81b9f" stroke-width="1.3" stroke-opacity="0.85" stroke-dasharray="8 5"/>
<path d="M-1130.3,46.8 L-1146.8,36.9 L-1164.1,26.1 L-1328.5,-74.3" fill="none" stroke="#d81b9f" stroke-width="1.3" stroke-opacity="0.85"/>
<path d="M-8.5,-835.7 L-11.3,-707.0 L-11.0,-690.5 L-11.8,-645.4" fill="none" stroke="#d81b9f" stroke-width="1.3" stroke-opacity="0.85"/>
<path d="M734.0,-384.2 L840.1,-423.2 L867.3,-432.3 L910.3,-444.9" fill="none" stroke="#d81b9f" stroke-width="1.3" stroke-opacity="0.85"/>
<path d="M235.625,-464.525 L245.625,-454.525 M235.625,-454.525 L245.625,-464.525" stroke="#d81b9f" stroke-width="1.6"/>
<text x="246.625" y="-447.525" font-size="9" fill="#d81b9f">songshan-airport</text>
<path d="M574.5,-527.7 L253.3,-540.4 L124.6,-545.0 L-139.7,-555.5" fill="none" stroke="#d81b9f" stroke-width="1.3" stroke-opacity="0.85"/>
<path d="M621.175,456.45 L631.175,466.45 M621.175,466.45 L631.175,456.45" stroke="#d81b9f" stroke-width="1.6"/>
<text x="632.175" y="473.45" font-size="9" fill="#d81b9f">mitsukoshi-a11</text>
<path d="M1074.9250000000002,617.875 L1084.9250000000002,627.875 M1074.9250000000002,627.875 L1084.9250000000002,617.875" stroke="#d81b9f" stroke-width="1.6"/>
<text x="1085.9250000000002" y="634.875" font-size="9" fill="#d81b9f">tiger-mountain</text>
<path d="M-1159.7,-370.7 L-1060.7,-360.5" fill="none" stroke="#d81b9f" stroke-width="1.3" stroke-opacity="0.85"/>
<rect x="20" y="1066" width="275" height="4" fill="#232019"/>
<text x="20" y="1060" font-size="12" fill="#232019">1 km </text>
<text x="20" y="24" font-size="14" fill="#232019">xinyi / raw — game data (grey/green) vs OSM geo-truth (magenta)</text>
</svg>
