<svg xmlns="http://www.w3.org/2000/svg" width="1100" height="1100" viewBox="0 0 1100 1100">
<rect width="1100" height="1100" fill="#f6f3ec"/>
<circle cx="563.75" cy="540.8333333333334" r="137.5" fill="none" stroke="#c9c2b2" stroke-dasharray="6 5"/>
<text x="563.75" y="540.8333333333334" font-size="11" fill="#b6ad99" text-anchor="middle">xinyi</text>
<circle cx="449.16666666666663" cy="577.5" r="137.5" fill="none" stroke="#c9c2b2" stroke-dasharray="6 5"/>
<text x="449.16666666666663" y="577.5" font-size="11" fill="#b6ad99" text-anchor="middle">daan</text>
<circle cx="320.8333333333333" cy="508.75" r="132.91666666666666" fill="none" stroke="#c9c2b2" stroke-dasharray="6 5"/>
<text x="320.8333333333333" y="508.75" font-size="11" fill="#b6ad99" text-anchor="middle">zhongzheng</text>
<circle cx="242.91666666666663" cy="540.8333333333334" r="105.41666666666666" fill="none" stroke="#c9c2b2" stroke-dasharray="6 5"/>
<text x="242.91666666666663" y="540.8333333333334" font-size="11" fill="#b6ad99" text-anchor="middle">wanhua</text>
<circle cx="380.41666666666663" cy="430.8333333333333" r="114.58333333333334" fill="none" stroke="#c9c2b2" stroke-dasharray="6 5"/>
<text x="380.41666666666663" y="430.8333333333333" font-size="11" fill="#b6ad99" text-anchor="middle">zhongshan</text>
<circle cx="311.66666666666663" cy="403.3333333333333" r="96.25000000000001" fill="none" stroke="#c9c2b2" stroke-dasharray="6 5"/>
<text x="311.66666666666663" y="403.3333333333333" font-size="11" fill="#b6ad99" text-anchor="middle">datong</text>
<circle cx="632.5" cy="458.3333333333333" r="114.58333333333334" fill="none" stroke="#c9c2b2" stroke-dasharray="6 5"/>
<text x="632.5" y="458.3333333333333" font-size="11" fill="#b6ad99" text-anchor="middle">songshan</text>
<circle cx="385" cy="275" r="96.25000000000001" fill="none" stroke="#c9c2b2" stroke-dasharray="6 5"/>
<text x="385" y="275" font-size="11" fill="#b6ad99" text-anchor="middle">shilin</text>
<circle cx="724.1666666666666" cy="357.5" r="96.25000000000001" fill="none" stroke="#c9c2b2" stroke-dasharray="6 5"/>
<text x="724.1666666666666" y="357.5" font-size="11" fill="#b6ad99" text-anchor="middle">neihu</text>
<circle cx="802.0833333333334" cy="527.0833333333334" r="100.83333333333334" fill="none" stroke="#c9c2b2" stroke-dasharray="6 5"/>
<text x="802.0833333333334" y="527.0833333333334" font-size="11" fill="#b6ad99" text-anchor="middle">nangang</text>
<circle cx="311.66666666666663" cy="669.1666666666666" r="91.66666666666667" fill="none" stroke="#c9c2b2" stroke-dasharray="6 5"/>
<text x="311.66666666666663" y="669.1666666666666" font-size="11" fill="#b6ad99" text-anchor="middle">gongguan-guting</text>
<circle cx="192.5" cy="407.91666666666663" r="119.16666666666667" fill="none" stroke="#c9c2b2" stroke-dasharray="6 5"/>
<text x="192.5" y="407.91666666666663" font-size="11" fill="#b6ad99" text-anchor="middle">sanchong</text>
<circle cx="128.33333333333337" cy="293.3333333333333" r="110" fill="none" stroke="#c9c2b2" stroke-dasharray="6 5"/>
<text x="128.33333333333337" y="293.3333333333333" font-size="11" fill="#b6ad99" text-anchor="middle">luzhou</text>
<circle cx="77.91666666666663" cy="539" r="100.83333333333334" fill="none" stroke="#c9c2b2" stroke-dasharray="6 5"/>
<text x="77.91666666666663" y="539" font-size="11" fill="#b6ad99" text-anchor="middle">xinzhuang</text>
<circle cx="110" cy="662.2916666666667" r="110" fill="none" stroke="#c9c2b2" stroke-dasharray="6 5"/>
<text x="110" y="662.2916666666667" font-size="11" fill="#b6ad99" text-anchor="middle">banqiao</text>
<circle cx="247.5" cy="724.1666666666666" r="119.16666666666667" fill="none" stroke="#c9c2b2" stroke-dasharray="6 5"/>
<text x="247.5" y="724.1666666666666" font-size="11" fill="#b6ad99" text-anchor="middle">zhonghe</text>
<circle cx="320.8333333333333" cy="673.75" r="91.66666666666667" fill="none" stroke="#c9c2b2" stroke-dasharray="6 5"/>
<text x="320.8333333333333" y="673.75" font-size="11" fill="#b6ad99" text-anchor="middle">yonghe</text>
<circle cx="119.16666666666663" cy="774.5833333333334" r="91.66666666666667" fill="none" stroke="#c9c2b2" stroke-dasharray="6 5"/>
<text x="119.16666666666663" y="774.5833333333334" font-size="11" fill="#b6ad99" text-anchor="middle">tucheng-sanxia</text>
<circle cx="444.58333333333337" cy="880" r="128.33333333333334" fill="none" stroke="#c9c2b2" stroke-dasharray="6 5"/>
<text x="444.58333333333337" y="880" font-size="11" fill="#b6ad99" text-anchor="middle">xindian</text>
<circle cx="907.5" cy="403.3333333333333" r="110" fill="none" stroke="#c9c2b2" stroke-dasharray="6 5"/>
<text x="907.5" y="403.3333333333333" font-size="11" fill="#b6ad99" text-anchor="middle">xizhi</text>
<circle cx="302.5" cy="151.25" r="91.66666666666667" fill="none" stroke="#c9c2b2" stroke-dasharray="6 5"/>
<text x="302.5" y="151.25" font-size="11" fill="#b6ad99" text-anchor="middle">beitou</text>
<circle cx="371.25" cy="174.16666666666669" r="91.66666666666667" fill="none" stroke="#c9c2b2" stroke-dasharray="6 5"/>
<text x="371.25" y="174.16666666666669" font-size="11" fill="#b6ad99" text-anchor="middle">tianmu</text>
<circle cx="458.3333333333333" cy="22.91666666666663" r="229.16666666666669" fill="#c1a97e" fill-opacity="0.25" stroke="#a8895c"/>
<circle cx="458.3333333333333" cy="22.91666666666663" r="2.5" fill="#8a6b3f"/>
<circle cx="618.75" cy="-22.916666666666742" r="192.50000000000003" fill="#c1a97e" fill-opacity="0.25" stroke="#a8895c"/>
<circle cx="618.75" cy="-22.916666666666742" r="2.5" fill="#8a6b3f"/>
<circle cx="343.75" cy="91.66666666666663" r="183.33333333333334" fill="#c1a97e" fill-opacity="0.25" stroke="#a8895c"/>
<circle cx="343.75" cy="91.66666666666663" r="2.5" fill="#8a6b3f"/>
<circle cx="756.25" cy="68.75" r="165" fill="#c1a97e" fill-opacity="0.25" stroke="#a8895c"/>
<circle cx="756.25" cy="68.75" r="2.5" fill="#8a6b3f"/>
<circle cx="527.0833333333334" cy="-68.75" r="146.66666666666669" fill="#c1a97e" fill-opacity="0.25" stroke="#a8895c"/>
<circle cx="527.0833333333334" cy="-68.75" r="2.5" fill="#8a6b3f"/>
<circle cx="664.5833333333334" cy="870.8333333333334" r="210.83333333333331" fill="#c1a97e" fill-opacity="0.25" stroke="#a8895c"/>
<circle cx="664.5833333333334" cy="870.8333333333334" r="2.5" fill="#8a6b3f"/>
<circle cx="825" cy="939.5833333333334" r="174.16666666666666" fill="#c1a97e" fill-opacity="0.25" stroke="#a8895c"/>
<circle cx="825" cy="939.5833333333334" r="2.5" fill="#8a6b3f"/>
<circle cx="527.0833333333334" cy="847.9166666666667" r="165" fill="#c1a97e" fill-opacity="0.25" stroke="#a8895c"/>
<circle cx="527.0833333333334" cy="847.9166666666667" r="2.5" fill="#8a6b3f"/>
<circle cx="389.5833333333333" cy="825" r="146.66666666666669" fill="#c1a97e" fill-opacity="0.25" stroke="#a8895c"/>
<circle cx="389.5833333333333" cy="825" r="2.5" fill="#8a6b3f"/>
<circle cx="609.5833333333334" cy="623.3333333333334" r="45.833333333333336" fill="#c1a97e" fill-opacity="0.25" stroke="#a8895c"/>
<circle cx="609.5833333333334" cy="623.3333333333334" r="2.5" fill="#8a6b3f"/>
<circle cx="639.375" cy="657.7083333333334" r="50.41666666666667" fill="#c1a97e" fill-opacity="0.25" stroke="#a8895c"/>
<circle cx="639.375" cy="657.7083333333334" r="2.5" fill="#8a6b3f"/>
<circle cx="662.2916666666667" cy="634.7916666666666" r="36.66666666666667" fill="#c1a97e" fill-opacity="0.25" stroke="#a8895c"/>
<circle cx="662.2916666666667" cy="634.7916666666666" r="2.5" fill="#8a6b3f"/>
<circle cx="672.8333333333334" cy="613.25" r="29.791666666666668" fill="#c1a97e" fill-opacity="0.25" stroke="#a8895c"/>
<circle cx="672.8333333333334" cy="613.25" r="2.5" fill="#8a6b3f"/>
<circle cx="779.1666666666667" cy="664.5833333333334" r="128.33333333333334" fill="#c1a97e" fill-opacity="0.25" stroke="#a8895c"/>
<circle cx="779.1666666666667" cy="664.5833333333334" r="2.5" fill="#8a6b3f"/>
<circle cx="893.75" cy="572.9166666666666" r="137.5" fill="#c1a97e" fill-opacity="0.25" stroke="#a8895c"/>
<circle cx="893.75" cy="572.9166666666666" r="2.5" fill="#8a6b3f"/>
<circle cx="710.4166666666667" cy="206.25" r="128.33333333333334" fill="#c1a97e" fill-opacity="0.25" stroke="#a8895c"/>
<circle cx="710.4166666666667" cy="206.25" r="2.5" fill="#8a6b3f"/>
<circle cx="802.0833333333334" cy="297.91666666666663" r="110" fill="#c1a97e" fill-opacity="0.25" stroke="#a8895c"/>
<circle cx="802.0833333333334" cy="297.91666666666663" r="2.5" fill="#8a6b3f"/>
<circle cx="0" cy="275" r="155.83333333333334" fill="#c1a97e" fill-opacity="0.25" stroke="#a8895c"/>
<circle cx="0" cy="275" r="2.5" fill="#8a6b3f"/>
<circle cx="-45.83333333333337" cy="595.8333333333334" r="183.33333333333334" fill="#c1a97e" fill-opacity="0.25" stroke="#a8895c"/>
<circle cx="-45.83333333333337" cy="595.8333333333334" r="2.5" fill="#8a6b3f"/>
<circle cx="1008.3333333333334" cy="550" r="206.25" fill="#c1a97e" fill-opacity="0.25" stroke="#a8895c"/>
<circle cx="1008.3333333333334" cy="550" r="2.5" fill="#8a6b3f"/>
<circle cx="1122.9166666666667" cy="389.5833333333333" r="183.33333333333334" fill="#c1a97e" fill-opacity="0.25" stroke="#a8895c"/>
<circle cx="1122.9166666666667" cy="389.5833333333333" r="2.5" fill="#8a6b3f"/>
<circle cx="985.4166666666667" cy="733.3333333333334" r="183.33333333333334" fill="#c1a97e" fill-opacity="0.25" stroke="#a8895c"/>
<circle cx="985.4166666666667" cy="733.3333333333334" r="2.5" fill="#8a6b3f"/>
<circle cx="1100" cy="687.5" r="165" fill="#c1a97e" fill-opacity="0.25" stroke="#a8895c"/>
<circle cx="1100" cy="687.5" r="2.5" fill="#8a6b3f"/>
<circle cx="550" cy="1100" r="252.08333333333334" fill="#c1a97e" fill-opacity="0.25" stroke="#a8895c"/>
<circle cx="550" cy="1100" r="2.5" fill="#8a6b3f"/>
<circle cx="710.4166666666667" cy="1168.75" r="210.83333333333331" fill="#c1a97e" fill-opacity="0.25" stroke="#a8895c"/>
<circle cx="710.4166666666667" cy="1168.75" r="2.5" fill="#8a6b3f"/>
<circle cx="412.5" cy="1145.8333333333335" r="210.83333333333331" fill="#c1a97e" fill-opacity="0.25" stroke="#a8895c"/>
<circle cx="412.5" cy="1145.8333333333335" r="2.5" fill="#8a6b3f"/>
<circle cx="825" cy="1054.1666666666667" r="183.33333333333334" fill="#c1a97e" fill-opacity="0.25" stroke="#a8895c"/>
<circle cx="825" cy="1054.1666666666667" r="2.5" fill="#8a6b3f"/>
<circle cx="45.833333333333314" cy="916.6666666666667" r="192.50000000000003" fill="#c1a97e" fill-opacity="0.25" stroke="#a8895c"/>
<circle cx="45.833333333333314" cy="916.6666666666667" r="2.5" fill="#8a6b3f"/>
<circle cx="-91.66666666666674" cy="779.1666666666667" r="183.33333333333334" fill="#c1a97e" fill-opacity="0.25" stroke="#a8895c"/>
<circle cx="-91.66666666666674" cy="779.1666666666667" r="2.5" fill="#8a6b3f"/>
<circle cx="114.58333333333331" cy="1031.25" r="174.16666666666666" fill="#c1a97e" fill-opacity="0.25" stroke="#a8895c"/>
<circle cx="114.58333333333331" cy="1031.25" r="2.5" fill="#8a6b3f"/>
<circle cx="-160.41666666666674" cy="481.25" r="206.25" fill="#c1a97e" fill-opacity="0.25" stroke="#a8895c"/>
<circle cx="-160.41666666666674" cy="481.25" r="2.5" fill="#8a6b3f"/>
<circle cx="-91.66666666666674" cy="343.75" r="183.33333333333334" fill="#c1a97e" fill-opacity="0.25" stroke="#a8895c"/>
<circle cx="-91.66666666666674" cy="343.75" r="2.5" fill="#8a6b3f"/>
<circle cx="458.3333333333333" cy="-160.41666666666674" r="229.16666666666669" fill="#c1a97e" fill-opacity="0.25" stroke="#a8895c"/>
<circle cx="458.3333333333333" cy="-160.41666666666674" r="2.5" fill="#8a6b3f"/>
<circle cx="664.5833333333334" cy="-137.5" r="192.50000000000003" fill="#c1a97e" fill-opacity="0.25" stroke="#a8895c"/>
<circle cx="664.5833333333334" cy="-137.5" r="2.5" fill="#8a6b3f"/>
<circle cx="275" cy="-68.75" r="183.33333333333334" fill="#c1a97e" fill-opacity="0.25" stroke="#a8895c"/>
<circle cx="275" cy="-68.75" r="2.5" fill="#8a6b3f"/>
<circle cx="417.08333333333337" cy="572.9166666666666" r="52.70833333333333" fill="#79b55a" fill-opacity="0.45" stroke="#579a41"/>
<circle cx="371.25" cy="320.8333333333333" r="32.083333333333336" fill="#79b55a" fill-opacity="0.45" stroke="#579a41"/>
<circle cx="509.6666666666667" cy="495" r="18.333333333333336" fill="#79b55a" fill-opacity="0.45" stroke="#579a41"/>
<circle cx="533.9583333333334" cy="506.4583333333333" r="13.75" fill="#79b55a" fill-opacity="0.45" stroke="#579a41"/>
<circle cx="297.91666666666663" cy="504.1666666666667" r="22.916666666666668" fill="#79b55a" fill-opacity="0.45" stroke="#579a41"/>
<circle cx="607.2916666666666" cy="621.0416666666666" r="57.29166666666667" fill="#79b55a" fill-opacity="0.45" stroke="#579a41"/>
<circle cx="655.4166666666666" cy="639.375" r="61.87500000000001" fill="#79b55a" fill-opacity="0.45" stroke="#579a41"/>
<circle cx="201.66666666666669" cy="375.83333333333337" r="38.958333333333336" fill="#79b55a" fill-opacity="0.45" stroke="#579a41"/>
<circle cx="187.91666666666663" cy="577.5" r="38.958333333333336" fill="#79b55a" fill-opacity="0.45" stroke="#579a41"/>
<circle cx="430.8333333333333" cy="348.3333333333333" r="41.25" fill="#79b55a" fill-opacity="0.45" stroke="#579a41"/>
<circle cx="614.1666666666666" cy="394.16666666666663" r="36.66666666666667" fill="#79b55a" fill-opacity="0.45" stroke="#579a41"/>
<circle cx="233.74999999999994" cy="605" r="25.208333333333336" fill="#79b55a" fill-opacity="0.45" stroke="#579a41"/>
<circle cx="334.5833333333333" cy="650.8333333333334" r="22.916666666666668" fill="#79b55a" fill-opacity="0.45" stroke="#579a41"/>
<path d="M220.0,687.5 L210.8,550.0 L192.5,412.5 L155.8,275.0 L91.7,128.3 L45.8,77.9" fill="none" stroke="#5ec4cc" stroke-width="56.833333333333336" stroke-linecap="round" stroke-linejoin="round"/>
<path d="M343.8,893.8 L311.7,756.3 L265.8,664.6 L229.2,595.8 L215.4,550.0" fill="none" stroke="#5ec4cc" stroke-width="38.5" stroke-linecap="round" stroke-linejoin="round"/>
<path d="M893.8,618.8 L802.1,527.1 L710.4,435.4 L618.8,371.3 L513.3,343.8 L398.8,348.3 L311.7,380.4 L215.4,325.4 L155.8,275.0" fill="none" stroke="#5ec4cc" stroke-width="41.25" stroke-linecap="round" stroke-linejoin="round"/>
<path d="M229.2,504.2 L330.0,508.8 L421.7,504.2 L472.1,480.3 L575.2,479.0 L650.8,497.3 L742.5,534.0" fill="none" stroke="#8e8878" stroke-width="15.583333333333336" stroke-linecap="round" stroke-linejoin="round"/>
<path d="M256.7,566.0 L385.0,536.3 L483.5,514.5 L506.5,514.0 L529.4,513.3" fill="none" stroke="#8e8878" stroke-width="12.833333333333336" stroke-linecap="round" stroke-linejoin="round"/>
<path d="M247.5,595.8 L412.5,595.8 L476.7,580.3 L522.5,578.4 L577.5,578.4 L618.8,582.1 L660.0,595.8" fill="none" stroke="#8e8878" stroke-width="11" stroke-linecap="round" stroke-linejoin="round"/>
<path d="M238.3,637.1 L412.5,641.7 L550.0,644.0 L584.4,644.0" fill="none" stroke="#8e8878" stroke-width="10.083333333333334" stroke-linecap="round" stroke-linejoin="round"/>
<path d="M265.8,435.4 L389.6,430.8 L504.2,428.5 L623.3,430.8 L696.7,435.4" fill="none" stroke="#8e8878" stroke-width="11.916666666666668" stroke-linecap="round" stroke-linejoin="round"/>
<path d="M265.8,472.1 L412.5,469.8 L472.1,435.4 L550.0,435.4 L669.2,444.6" fill="none" stroke="#8e8878" stroke-width="10.083333333333334" stroke-linecap="round" stroke-linejoin="round"/>
<path d="M339.2,650.8 L343.8,513.3 L350.6,412.5 L357.5,320.8" fill="none" stroke="#8e8878" stroke-width="13.75" stroke-linecap="round" stroke-linejoin="round"/>
<path d="M504.2,660.0 L504.2,550.0 L504.2,430.8 L508.8,357.5" fill="none" stroke="#8e8878" stroke-width="12.833333333333336" stroke-linecap="round" stroke-linejoin="round"/>
<path d="M453.8,660.0 L456.0,527.1 L458.3,426.3" fill="none" stroke="#8e8878" stroke-width="10.083333333333334" stroke-linecap="round" stroke-linejoin="round"/>
<path d="M252.1,669.2 L256.7,559.2 L252.1,467.5" fill="none" stroke="#8e8878" stroke-width="10.083333333333334" stroke-linecap="round" stroke-linejoin="round"/>
<path d="M595.8,453.8 L562.8,479.0 L524.8,503.3 L513.3,534.0 L509.7,578.4 L499.6,611.9" fill="none" stroke="#8e8878" stroke-width="11.916666666666668" stroke-linecap="round" stroke-linejoin="round"/>
<path d="M320.8,572.9 L302.5,650.8 L284.2,733.3" fill="none" stroke="#8e8878" stroke-width="10.083333333333334" stroke-linecap="round" stroke-linejoin="round"/>
<path d="M489.5,444.6 L490.4,480.3 L491.3,514.3 L492.3,580.3" fill="none" stroke="#8e8878" stroke-width="9.166666666666668" stroke-linecap="round" stroke-linejoin="round"/>
<path d="M590.3,453.8 L590.3,479.0 L590.3,527.1 L590.3,578.4" fill="none" stroke="#8e8878" stroke-width="8.25" stroke-linecap="round" stroke-linejoin="round"/>
<path d="M517.0,524.3 L559.2,524.3 L590.3,524.3" fill="none" stroke="#8e8878" stroke-width="7.333333333333334" stroke-linecap="round" stroke-linejoin="round"/>
<path d="M366.7,265.8 L343.8,366.7 L330.0,458.3 L343.8,527.1 L412.5,572.9 L476.7,582.1 L522.5,580.3 L577.5,580.3 L618.8,583.9 L641.7,600.4" fill="none" stroke="#E3002C" stroke-width="1.6" stroke-opacity="0.85"/>
<path d="M247.5,531.7 L330.0,527.1 L421.7,506.5 L472.1,482.2 L575.2,480.8 L650.8,498.7 L825.0,504.2" fill="none" stroke="#0070BD" stroke-width="1.6" stroke-opacity="0.85"/>
<path d="M339.2,733.3 L352.9,595.8 L339.2,531.7 L412.5,495.0 L504.2,458.3 L609.6,462.9" fill="none" stroke="#1DA742" stroke-width="1.6" stroke-opacity="0.85"/>
<path d="M412.5,733.3 L435.4,605.0 L421.7,504.2 L366.7,412.5 L293.3,440.0" fill="none" stroke="#F8B61C" stroke-width="1.6" stroke-opacity="0.85"/>
<path d="M605.0,742.5 L522.5,605.0 L485.8,462.9 L504.2,366.7 L517.9,297.9" fill="none" stroke="#C48C31" stroke-width="1.6" stroke-opacity="0.85"/>
<path d="M636.2,596.8 L634.6,598.4 L632.9,600.1 L631.3,601.8 L629.7,603.4 L627.9,605.0 L625.7,605.1 L623.4,604.9 L621.1,604.6 L618.8,604.4 L616.4,604.3 L614.0,604.5 L611.6,604.8 L609.3,605.3 L607.0,606.1 L604.9,607.2 L604.0,608.1 L606.3,608.0 L608.6,608.3 L610.9,608.8 L613.2,609.7 L615.1,610.9 L616.9,612.5 L618.3,614.3 L619.5,616.3 L620.2,618.6 L620.5,620.5 L619.0,618.2 L617.2,616.5 L615.2,615.3 L612.9,614.7 L610.6,614.6 L608.3,615.1 L606.9,616.0 L609.2,616.0 L611.5,616.5 L612.7,618.0 L611.8,620.1 L610.7,622.3 L610.4,623.0" fill="none" stroke="#4a4438" stroke-width="1.4" stroke-dasharray="2 3"/>
<circle cx="550" cy="550" r="4" fill="#232019"/>
<circle cx="553.6666666666666" cy="499.5833333333333" r="4" fill="#232019"/>
<circle cx="507.8333333333333" cy="494.0833333333333" r="4" fill="#232019"/>
<circle cx="511.0416666666667" cy="459.25" r="4" fill="#232019"/>
<circle cx="536.25" cy="514.25" r="4" fill="#232019"/>
<circle cx="580.25" cy="531.6666666666666" r="4" fill="#232019"/>
<circle cx="570.625" cy="519.75" r="4" fill="#232019"/>
<circle cx="481.25" cy="462.9166666666667" r="4" fill="#232019"/>
<circle cx="609.5833333333334" cy="462.9166666666667" r="4" fill="#232019"/>
<circle cx="352.91666666666663" cy="545.4166666666666" r="4" fill="#232019"/>
<circle cx="307.08333333333337" cy="517.9166666666666" r="4" fill="#232019"/>
<circle cx="330" cy="478.9583333333333" r="4" fill="#232019"/>
<circle cx="272.7083333333333" cy="536.25" r="4" fill="#232019"/>
<circle cx="307.08333333333337" cy="359.79166666666663" r="4" fill="#232019"/>
<circle cx="371.25" cy="316.25" r="4" fill="#232019"/>
<circle cx="348.3333333333333" cy="258.9583333333333" r="4" fill="#232019"/>
<circle cx="517.9166666666666" cy="300.2083333333333" r="4" fill="#232019"/>
<circle cx="476.66666666666663" cy="201.66666666666669" r="4" fill="#232019"/>
<circle cx="566.0416666666666" cy="586.6666666666666" r="2" fill="#6b6455"/>
<circle cx="705.8333333333334" cy="540.8333333333334" r="2" fill="#6b6455"/>
<circle cx="398.75" cy="495" r="2" fill="#6b6455"/>
<circle cx="495" cy="472.0833333333333" r="2" fill="#6b6455"/>
<circle cx="458.3333333333333" cy="609.5833333333334" r="2" fill="#6b6455"/>
<circle cx="572.9166666666666" cy="412.5" r="2" fill="#6b6455"/>
<circle cx="582.0833333333334" cy="485.8333333333333" r="2" fill="#6b6455"/>
<circle cx="380.41666666666663" cy="577.5" r="2" fill="#6b6455"/>
<circle cx="504.1666666666667" cy="655.4166666666666" r="2" fill="#6b6455"/>
<circle cx="435.41666666666663" cy="426.25" r="2" fill="#6b6455"/>
<path d="M544.8166666666667,544.0375 L554.8166666666667,554.0375 M544.8166666666667,554.0375 L554.8166666666667,544.0375" stroke="#d81b9f" stroke-width="1.6"/>
<path d="M544.8625,525.6583333333333 L554.8625,535.6583333333333 M544.8625,535.6583333333333 L554.8625,525.6583333333333" stroke="#d81b9f" stroke-width="1.6"/>
<path d="M525.5666666666667,513.0083333333333 L535.5666666666667,523.0083333333333 M525.5666666666667,523.0083333333333 L535.5666666666667,513.0083333333333" stroke="#d81b9f" stroke-width="1.6"/>
<path d="M522.2666666666667,500.95416666666665 L532.2666666666667,510.95416666666665 M522.2666666666667,510.95416666666665 L532.2666666666667,500.95416666666665" stroke="#d81b9f" stroke-width="1.6"/>
<path d="M539.775,537.2083333333334 L549.775,547.2083333333334 M539.775,547.2083333333334 L549.775,537.2083333333334" stroke="#d81b9f" stroke-width="1.6"/>
<path d="M553.2958333333333,541.5166666666667 L563.2958333333333,551.5166666666667 M553.2958333333333,551.5166666666667 L563.2958333333333,541.5166666666667" stroke="#d81b9f" stroke-width="1.6"/>
<path d="M478.5416666666667,458.7416666666667 L488.5416666666667,468.7416666666667 M478.5416666666667,468.7416666666667 L488.5416666666667,458.7416666666667" stroke="#d81b9f" stroke-width="1.6"/>
<path d="M593.8583333333333,458.925 L603.8583333333333,468.925 M593.8583333333333,468.925 L603.8583333333333,458.925" stroke="#d81b9f" stroke-width="1.6"/>
<path d="M347.6875,540.2333333333333 L357.6875,550.2333333333333 M347.6875,550.2333333333333 L357.6875,540.2333333333333" stroke="#d81b9f" stroke-width="1.6"/>
<path d="M302.17499999999995,513.1 L312.17499999999995,523.1 M302.17499999999995,523.1 L312.17499999999995,513.1" stroke="#d81b9f" stroke-width="1.6"/>
<path d="M325.9625,473.9583333333333 L335.9625,483.9583333333333 M325.9625,483.9583333333333 L335.9625,473.9583333333333" stroke="#d81b9f" stroke-width="1.6"/>
<path d="M246.25833333333333,526.8958333333334 L256.2583333333333,536.8958333333334 M246.25833333333333,536.8958333333334 L256.2583333333333,526.8958333333334" stroke="#d81b9f" stroke-width="1.6"/>
<path d="M368.81666666666666,316.79583333333335 L378.81666666666666,326.79583333333335 M368.81666666666666,326.79583333333335 L378.81666666666666,316.79583333333335" stroke="#d81b9f" stroke-width="1.6"/>
<path d="M362.35416666666663,268.57916666666665 L372.35416666666663,278.57916666666665 M362.35416666666663,278.57916666666665 L372.35416666666663,268.57916666666665" stroke="#d81b9f" stroke-width="1.6"/>
<path d="M472.3541666666667,200.97499999999997 L482.3541666666667,210.97499999999997 M472.3541666666667,210.97499999999997 L482.3541666666667,200.97499999999997" stroke="#d81b9f" stroke-width="1.6"/>
<path d="M512.4583333333334,293.6958333333333 L522.4583333333334,303.6958333333333 M512.4583333333334,303.6958333333333 L522.4583333333334,293.6958333333333" stroke="#d81b9f" stroke-width="1.6"/>
<path d="M318.7208333333333,345.35 L328.7208333333333,355.35 M318.7208333333333,355.35 L328.7208333333333,345.35" stroke="#d81b9f" stroke-width="1.6"/>
<path d="M409.6541666666667,565.4416666666667 L419.6541666666667,575.4416666666667 M409.6541666666667,575.4416666666667 L419.6541666666667,565.4416666666667" stroke="#d81b9f" stroke-width="1.6"/>
<path d="M317.20833333333337,505.17083333333335 L327.20833333333337,515.1708333333333 M317.20833333333337,515.1708333333333 L327.20833333333337,505.17083333333335" stroke="#d81b9f" stroke-width="1.6"/>
<path d="M596.0583333333334,581.3 L606.0583333333334,591.3 M596.0583333333334,591.3 L606.0583333333334,581.3" stroke="#d81b9f" stroke-width="1.6"/>
<path d="M636.8041666666667,611.7333333333333 L646.8041666666667,621.7333333333333 M636.8041666666667,621.7333333333333 L646.8041666666667,611.7333333333333" stroke="#d81b9f" stroke-width="1.6"/>
<path d="M493.85,-149.32916666666665 L503.85,-139.32916666666665 M493.85,-139.32916666666665 L503.85,-149.32916666666665" stroke="#d81b9f" stroke-width="1.6"/>
<path d="M349.4291666666667,-190.07500000000005 L359.4291666666667,-180.07500000000005 M349.4291666666667,-180.07500000000005 L359.4291666666667,-190.07500000000005" stroke="#d81b9f" stroke-width="1.6"/>
<path d="M-92.12916666666672,26.85416666666663 L-82.12916666666672,36.85416666666663 M-92.12916666666672,36.85416666666663 L-82.12916666666672,26.85416666666663" stroke="#d81b9f" stroke-width="1.6"/>
<path d="M654.1291666666666,873.9458333333333 L664.1291666666666,883.9458333333333 M654.1291666666666,883.9458333333333 L664.1291666666666,873.9458333333333" stroke="#d81b9f" stroke-width="1.6"/>
<path d="M285.8,474.0 L414.6,508.2 L584.6,515.7 L613.8,512.6 L640.1,482.9 L657.9,472.5 L693.7,463.6 L787.1,451.6" fill="none" stroke="#d81b9f" stroke-width="1.3" stroke-opacity="0.85"/>
<path d="M337.2,522.2 L368.0,526.6 L376.5,526.9 L396.0,527.0 L411.2,527.5 L475.6,528.7 L539.9,530.5" fill="none" stroke="#d81b9f" stroke-width="1.3" stroke-opacity="0.85"/>
<path d="M55.8,750.6 L67.3,768.0 L152.7,293.1 L343.4,530.1 L379.4,548.3 L402.1,550.5 L584.1,554.7 L610.6,539.5" fill="none" stroke="#d81b9f" stroke-width="1.3" stroke-opacity="0.85"/>
<path d="M208.0,540.7 L269.0,544.6 L333.8,585.0 L442.5,586.9 L495.0,598.1 L594.3,724.9" fill="none" stroke="#d81b9f" stroke-width="1.3" stroke-opacity="0.85"/>
<path d="M290.4,449.6 L319.2,447.1 L345.5,453.9 L355.5,455.9 L363.2,456.4 L577.7,460.6 L671.5,406.5" fill="none" stroke="#d81b9f" stroke-width="1.3" stroke-opacity="0.85"/>
<path d="M390.1,499.6 L409.0,494.1 L425.6,486.5 L464.2,477.2 L520.2,476.4 L583.3,467.9 L612.2,467.0 L631.0,460.8" fill="none" stroke="#d81b9f" stroke-width="1.3" stroke-opacity="0.85"/>
<path d="M0.6,-276.2 L-5.3,-187.5 L-19.0,-164.0 L402.9,89.7 L368.4,171.4 L381.2,246.2 L355.4,458.4 L329.1,541.5" fill="none" stroke="#d81b9f" stroke-width="1.3" stroke-opacity="0.85"/>
<path d="M477.1,613.2 L477.4,577.5 L480.2,565.4 L477.4,551.1 L478.5,428.4 L480.3,422.6 L486.2,410.4 L491.7,401.7" fill="none" stroke="#d81b9f" stroke-width="1.3" stroke-opacity="0.85"/>
<path d="M452.2,611.0 L453.1,574.9 L449.9,563.2 L453.4,552.4 L453.5,544.4 L452.5,537.7 L453.9,527.7 L456.6,386.0" fill="none" stroke="#d81b9f" stroke-width="1.3" stroke-opacity="0.85"/>
<path d="M295.8,593.7 L281.5,581.7 L272.2,569.9 L271.6,561.6 L279.6,544.2 L283.1,534.0 L297.1,480.8" fill="none" stroke="#d81b9f" stroke-width="1.3" stroke-opacity="0.85"/>
<path d="M405.4,674.2 L415.0,667.5 L432.6,659.3 L447.5,648.5 L449.9,640.0 L511.9,580.6 L545.9,520.9 L576.1,463.6" fill="none" stroke="#d81b9f" stroke-width="1.3" stroke-opacity="0.85"/>
<path d="M331.5,547.8 L367.9,601.6 L424.7,664.9 L431.8,693.0 L432.6,733.7 L441.2,739.5 L441.8,749.8 L435.1,773.0" fill="none" stroke="#d81b9f" stroke-width="1.3" stroke-opacity="0.85"/>
<path d="M504.2,407.0 L509.0,436.1 L511.1,444.6 L515.1,453.9 L518.9,461.4 L518.9,499.2 L517.5,555.5 L517.6,568.8" fill="none" stroke="#d81b9f" stroke-width="1.3" stroke-opacity="0.85"/>
<path d="M568.4,514.7 L568.1,523.1 L568.0,535.3 L567.6,559.4 L567.8,569.4 L567.8,578.0 L568.3,586.4 L573.5,596.5" fill="none" stroke="#d81b9f" stroke-width="1.3" stroke-opacity="0.85"/>
<path d="M538.3,538.7 L545.1,538.8 L555.5,539.0 L565.3,539.2" fill="none" stroke="#d81b9f" stroke-width="1.3" stroke-opacity="0.85"/>
<path d="M273.9,471.0 L292.2,464.8 L412.6,492.9 L495.6,495.8 L550.1,490.1 L575.1,471.5 L622.1,471.9 L786.8,444.9" fill="none" stroke="#d81b9f" stroke-width="1.3" stroke-opacity="0.85"/>
<path d="M306.7,401.9 L485.6,408.8 L522.1,405.5 L587.1,392.7 L639.3,373.0 L682.6,371.7 L712.4,381.9 L738.3,352.7" fill="none" stroke="#d81b9f" stroke-width="1.3" stroke-opacity="0.85"/>
<path d="M293.4,432.5 L323.1,431.9 L356.9,427.3 L366.6,426.5 L432.1,427.5 L477.5,428.4 L504.7,425.7 L567.0,420.7" fill="none" stroke="#d81b9f" stroke-width="1.3" stroke-opacity="0.85"/>
<path d="M380.9,362.6 L380.4,459.0 L389.4,476.8 L403.8,492.5 L403.1,549.8 L413.0,586.2 L409.8,614.3 L404.7,635.8" fill="none" stroke="#d81b9f" stroke-width="1.3" stroke-opacity="0.85"/>
<path d="M409.3,378.9 L419.5,388.6 L422.9,396.8 L421.3,498.7 L427.2,527.3 L426.7,553.6 L427.7,563.1 L425.7,601.8" fill="none" stroke="#d81b9f" stroke-width="1.3" stroke-opacity="0.85"/>
<path d="M252.9,109.0 L302.5,159.3 L309.7,214.0 L326.3,257.7 L349.2,269.6 L359.6,287.2 L338.1,356.1 L328.8,470.0" fill="none" stroke="#d81b9f" stroke-width="1.3" stroke-opacity="0.85"/>
<path d="M342.5,196.9 L349.2,203.8" fill="none" stroke="#d81b9f" stroke-width="1.3" stroke-opacity="0.85"/>
<path d="M297.2,149.3 L322.0,136.1 L326.8,129.0 L332.1,122.9 L342.5,119.1 L352.3,116.8 L361.8,102.4 L369.8,94.4" fill="none" stroke="#d81b9f" stroke-width="1.3" stroke-opacity="0.85"/>
<path d="M372.5,192.6 L384.7,186.5 L390.3,178.0 L395.6,151.0 L400.9,142.2 L405.6,136.1 L411.2,125.7" fill="none" stroke="#d81b9f" stroke-width="1.3" stroke-opacity="0.85"/>
<path d="M526.1,290.6 L616.5,321.8 L626.4,306.1 L634.5,310.5 L643.4,299.0 L662.6,306.9 L680.4,290.9" fill="none" stroke="#d81b9f" stroke-width="1.3" stroke-opacity="0.85"/>
<path d="M673.2,410.0 L667.2,317.5 L696.0,322.9 L713.1,322.9 L712.1,310.3 L723.6,307.1 L732.1,299.8" fill="none" stroke="#d81b9f" stroke-width="1.3" stroke-opacity="0.85"/>
<path d="M639.3,456.9 L648.2,453.0 L666.2,450.6 L684.7,444.7 L721.7,449.8 L770.6,440.6 L804.0,443.1" fill="none" stroke="#d81b9f" stroke-width="1.3" stroke-opacity="0.85"/>
<path d="M790.1,500.9 L785.9,492.0 L785.6,482.4 L787.3,473.4 L786.5,464.2 L789.1,453.6 L790.5,444.1" fill="none" stroke="#d81b9f" stroke-width="1.3" stroke-opacity="0.85"/>
<path d="M95.7,507.2 L110.6,489.9 L144.3,477.5 L188.6,439.1 L192.6,432.6 L217.5,413.3 L261.8,397.6" fill="none" stroke="#d81b9f" stroke-width="1.3" stroke-opacity="0.85"/>
<path d="M57.5,669.0 L68.8,655.3 L96.0,618.1 L105.3,601.8 L117.5,578.0 L123.7,569.4 L146.9,541.6 L157.0,538.3" fill="none" stroke="#d81b9f" stroke-width="1.3" stroke-opacity="0.85"/>
<path d="M428.1,926.7 L442.4,888.4 L448.2,870.0 L450.0,862.9 L450.3,845.3 L449.9,837.2 L441.1,799.4" fill="none" stroke="#d81b9f" stroke-width="1.3" stroke-opacity="0.85"/>
<path d="M251.0,705.3 L309.8,698.7 L311.9,692.1 L314.3,683.3 L318.1,672.3 L320.1,664.7 L322.8,654.3 L325.5,643.7" fill="none" stroke="#d81b9f" stroke-width="1.3" stroke-opacity="0.85"/>
<path d="M236.1,705.0 L238.4,715.9 L247.2,724.9 L257.8,742.5 L267.1,752.2 L338.5,762.5 L354.6,768.0 L374.3,771.0" fill="none" stroke="#d81b9f" stroke-width="1.3" stroke-opacity="0.85"/>
<path d="M814.6,442.5 L847.7,447.0 L871.3,429.9 L988.9,379.1 L1010.6,362.2 L1020.0,337.1 L1034.8,327.7 L1083.6,360.2" fill="none" stroke="#d81b9f" stroke-width="1.3" stroke-opacity="0.85"/>
<path d="M72.5,247.0 L80.3,254.9 L87.8,259.0 L98.1,262.5 L105.5,267.2 L127.5,286.7 L135.4,294.1 L139.9,303.2" fill="none" stroke="#d81b9f" stroke-width="1.3" stroke-opacity="0.85"/>
<path d="M-161.9,614.0 L-135.8,597.9 L-121.8,579.7 L-53.4,556.2 L21.6,540.2 L41.5,597.0 L47.5,545.9 L64.3,526.7" fill="none" stroke="#d81b9f" stroke-width="1.3" stroke-opacity="0.85"/>
<path d="M-125.2,927.7 L-108.7,915.5 L-82.3,902.8 L-48.8,893.2 L-34.7,881.7 L-17.6,849.6 L-5.5,799.9 L18.1,758.9" fill="none" stroke="#d81b9f" stroke-width="1.3" stroke-opacity="0.85"/>
<path d="M199.1,496.1 L275.4,431.4 L286.2,366.5 L271.3,302.1 L195.5,227.2 L75.0,182.3 L33.8,-7.0 L-21.1,-109.9 L-104.3,-147.6 L-228.3,-179.9" fill="none" stroke="#d81b9f" stroke-width="1.3" stroke-opacity="0.85" stroke-dasharray="8 5"/>
<path d="M399.3,1093.7 L364.7,1001.1 L418.8,995.3 L428.9,1040.3 L462.2,1002.6 L346.8,816.3 L407.3,700.0 L318.5,611.6 L213.1,664.9 L199.1,496.1" fill="none" stroke="#d81b9f" stroke-width="1.3" stroke-opacity="0.85" stroke-dasharray="8 5"/>
<path d="M1580.1,472.7 L1737.9,424.0 L1776.0,186.5 L1320.3,156.5 L1180.1,313.4 L594.8,458.5 L574.0,337.1 L373.5,351.9 L220.0,144.1 L73.7,137.6" fill="none" stroke="#d81b9f" stroke-width="1.3" stroke-opacity="0.85" stroke-dasharray="8 5"/>
<path d="M270.0,466.1 L267.2,464.5 L264.3,462.7 L236.9,446.0" fill="none" stroke="#d81b9f" stroke-width="1.3" stroke-opacity="0.85"/>
<path d="M456.9,319.0 L456.5,340.5 L456.5,343.2 L456.4,350.8" fill="none" stroke="#d81b9f" stroke-width="1.3" stroke-opacity="0.85"/>
<path d="M580.7,394.3 L598.4,387.8 L602.9,386.3 L610.0,384.2" fill="none" stroke="#d81b9f" stroke-width="1.3" stroke-opacity="0.85"/>
<path d="M493.4375,376.74583333333334 L503.4375,386.74583333333334 M493.4375,386.74583333333334 L503.4375,376.74583333333334" stroke="#d81b9f" stroke-width="1.6"/>
<path d="M554.1,370.4 L500.5,368.3 L479.1,367.5 L435.1,365.8" fill="none" stroke="#d81b9f" stroke-width="1.3" stroke-opacity="0.85"/>
<path d="M557.6958333333333,530.2416666666667 L567.6958333333333,540.2416666666667 M557.6958333333333,540.2416666666667 L567.6958333333333,530.2416666666667" stroke="#d81b9f" stroke-width="1.6"/>
<path d="M633.3208333333333,557.1458333333334 L643.3208333333333,567.1458333333334 M633.3208333333333,567.1458333333334 L643.3208333333333,557.1458333333334" stroke="#d81b9f" stroke-width="1.6"/>
<path d="M265.1,396.6 L281.6,398.2" fill="none" stroke="#d81b9f" stroke-width="1.3" stroke-opacity="0.85"/>
<rect x="20" y="1066" width="45.833333333333336" height="4" fill="#232019"/>
<text x="20" y="1060" font-size="12" fill="#232019">1 km </text>
<text x="20" y="24" font-size="14" fill="#232019">basin / raw — game data (grey/green) vs OSM geo-truth (magenta)</text>
</svg>
