<svg xmlns="http://www.w3.org/2000/svg" width="1100" height="1100" viewBox="0 0 1100 1100">
<rect width="1100" height="1100" fill="#f6f3ec"/>
<circle cx="630.3846153846154" cy="496.4102564102564" r="803.8461538461537" fill="none" stroke="#c9c2b2" stroke-dasharray="6 5"/>
<circle cx="-39.487179487179446" cy="710.7692307692307" r="803.8461538461537" fill="none" stroke="#c9c2b2" stroke-dasharray="6 5"/>
<circle cx="-784.5390618690838" cy="309.78296886356486" r="774.0326558840686" fill="none" stroke="#c9c2b2" stroke-dasharray="6 5"/>
<circle cx="-1172.8699998623892" cy="498.57104478022717" r="591.4329850273874" fill="none" stroke="#c9c2b2" stroke-dasharray="6 5"/>
<circle cx="-440.9006193143707" cy="-146.3085433019902" r="669.5274454826828" fill="none" stroke="#c9c2b2" stroke-dasharray="6 5"/>
<circle cx="-812.6310799793603" cy="-288.5422030642218" r="550.2933207608955" fill="none" stroke="#c9c2b2" stroke-dasharray="6 5"/>
<circle cx="1032.3076923076924" cy="14.102564102564088" r="669.8717948717948" fill="none" stroke="#c9c2b2" stroke-dasharray="6 5"/>
<circle cx="-365.1427010938835" cy="-975.2378351564723" r="533.8332423047653" fill="none" stroke="#c9c2b2" stroke-dasharray="6 5"/>
<circle cx="1555.828632598017" cy="-561.7053307662293" r="555.8526653831146" fill="none" stroke="#c9c2b2" stroke-dasharray="6 5"/>
<circle cx="2009.4777343289172" cy="417.3202059700984" r="583.791093731567" fill="none" stroke="#c9c2b2" stroke-dasharray="6 5"/>
<circle cx="-822.2217062323402" cy="1236.1108531161701" r="527.7775793201308" fill="none" stroke="#c9c2b2" stroke-dasharray="6 5"/>
<circle cx="-1294.2493532156006" cy="-182.9708967908157" r="614.7497844052002" fill="none" stroke="#c9c2b2" stroke-dasharray="6 5"/>
<circle cx="-1293.0243887701956" cy="-571.8409322949017" r="480.7889709835293" fill="none" stroke="#c9c2b2" stroke-dasharray="6 5"/>
<circle cx="-1584.4529812378332" cy="500.26517325271067" r="455.9025785168188" fill="none" stroke="#c9c2b2" stroke-dasharray="6 5"/>
<circle cx="-1497.5224223567377" cy="1072.5447848722924" r="511.8806055891844" fill="none" stroke="#c9c2b2" stroke-dasharray="6 5"/>
<circle cx="-1080.371066213572" cy="1488.6984926684204" r="642.267389720498" fill="none" stroke="#c9c2b2" stroke-dasharray="6 5"/>
<circle cx="-772.9892455629981" cy="1264.414192604019" r="529.1956982251993" fill="none" stroke="#c9c2b2" stroke-dasharray="6 5"/>
<circle cx="-1356.2438691430416" cy="1543.6803147660535" r="405.583801945328" fill="none" stroke="#c9c2b2" stroke-dasharray="6 5"/>
<circle cx="-19.809573930211513" cy="2333.7517096945758" r="693.6812204367793" fill="none" stroke="#c9c2b2" stroke-dasharray="6 5"/>
<circle cx="2390.0098911018995" cy="-204.8758527597538" r="566.1568895698152" fill="none" stroke="#c9c2b2" stroke-dasharray="6 5"/>
<circle cx="-574.2041687618605" cy="-1261.217827449664" r="416.37191435624464" fill="none" stroke="#c9c2b2" stroke-dasharray="6 5"/>
<circle cx="-331.9493425041287" cy="-1304.3550278291934" r="452.2817141046814" fill="none" stroke="#c9c2b2" stroke-dasharray="6 5"/>
<circle cx="173.30530151399785" cy="-1615.9945162945123" r="941.7367462150053" fill="#c1a97e" fill-opacity="0.25" stroke="#a8895c"/>
<circle cx="173.30530151399785" cy="-1615.9945162945123" r="2.5" fill="#8a6b3f"/>
<circle cx="816.8878208578387" cy="-1674.065173815322" r="747.2858984019482" fill="#c1a97e" fill-opacity="0.25" stroke="#a8895c"/>
<circle cx="816.8878208578387" cy="-1674.065173815322" r="2.5" fill="#8a6b3f"/>
<circle cx="-339.05993369132545" cy="-1425.6887415362785" r="790.2754966145114" fill="#c1a97e" fill-opacity="0.25" stroke="#a8895c"/>
<circle cx="-339.05993369132545" cy="-1425.6887415362785" r="2.5" fill="#8a6b3f"/>
<circle cx="1411.594643944381" cy="-1460.387502536889" r="689.2757151555048" fill="#c1a97e" fill-opacity="0.25" stroke="#a8895c"/>
<circle cx="1411.594643944381" cy="-1460.387502536889" r="2.5" fill="#8a6b3f"/>
<circle cx="465.55235275037404" cy="-1730.0864757399013" r="540.4649423976063" fill="#c1a97e" fill-opacity="0.25" stroke="#a8895c"/>
<circle cx="465.55235275037404" cy="-1730.0864757399013" r="2.5" fill="#8a6b3f"/>
<circle cx="1173.1935288684201" cy="2294.941880831577" r="1005.5128205128204" fill="#c1a97e" fill-opacity="0.25" stroke="#a8895c"/>
<circle cx="1173.1935288684201" cy="2294.941880831577" r="2.5" fill="#8a6b3f"/>
<circle cx="1784.201422853765" cy="2298.4520157095003" r="781.6609011407179" fill="#c1a97e" fill-opacity="0.25" stroke="#a8895c"/>
<circle cx="1784.201422853765" cy="2298.4520157095003" r="2.5" fill="#8a6b3f"/>
<circle cx="420.59539567460547" cy="2232.259856230129" r="786.9230769230769" fill="#c1a97e" fill-opacity="0.25" stroke="#a8895c"/>
<circle cx="420.59539567460547" cy="2232.259856230129" r="2.5" fill="#8a6b3f"/>
<circle cx="-341.58426075284547" cy="2078.4301612905924" r="699.4871794871796" fill="#c1a97e" fill-opacity="0.25" stroke="#a8895c"/>
<circle cx="-341.58426075284547" cy="2078.4301612905924" r="2.5" fill="#8a6b3f"/>
<circle cx="898.3333333333333" cy="978.7179487179487" r="218.5897435897436" fill="#c1a97e" fill-opacity="0.25" stroke="#a8895c"/>
<circle cx="898.3333333333333" cy="978.7179487179487" r="2.5" fill="#8a6b3f"/>
<circle cx="1072.5" cy="1179.6794871794873" r="240.44871794871798" fill="#c1a97e" fill-opacity="0.25" stroke="#a8895c"/>
<circle cx="1072.5" cy="1179.6794871794873" r="2.5" fill="#8a6b3f"/>
<circle cx="1206.474358974359" cy="1045.7051282051282" r="174.8717948717949" fill="#c1a97e" fill-opacity="0.25" stroke="#a8895c"/>
<circle cx="1206.474358974359" cy="1045.7051282051282" r="2.5" fill="#8a6b3f"/>
<circle cx="1268.102564102564" cy="919.7692307692307" r="142.08333333333334" fill="#c1a97e" fill-opacity="0.25" stroke="#a8895c"/>
<circle cx="1268.102564102564" cy="919.7692307692307" r="2.5" fill="#8a6b3f"/>
<circle cx="1875.2559530753094" cy="1212.6279765376548" r="612.051282051282" fill="#c1a97e" fill-opacity="0.25" stroke="#a8895c"/>
<circle cx="1875.2559530753094" cy="1212.6279765376548" r="2.5" fill="#8a6b3f"/>
<circle cx="2411.9495359159387" cy="674.1299690610625" r="655.7692307692308" fill="#c1a97e" fill-opacity="0.25" stroke="#a8895c"/>
<circle cx="2411.9495359159387" cy="674.1299690610625" r="2.5" fill="#8a6b3f"/>
<circle cx="1383.4302960281564" cy="-1235.922062917478" r="612.051282051282" fill="#c1a97e" fill-opacity="0.25" stroke="#a8895c"/>
<circle cx="1383.4302960281564" cy="-1235.922062917478" r="2.5" fill="#8a6b3f"/>
<circle cx="1897.181504186812" cy="-797.1815041868119" r="524.6153846153845" fill="#c1a97e" fill-opacity="0.25" stroke="#a8895c"/>
<circle cx="1897.181504186812" cy="-797.1815041868119" r="2.5" fill="#8a6b3f"/>
<circle cx="-1487.0101808151474" cy="-468.5050904075737" r="577.1528845642918" fill="#c1a97e" fill-opacity="0.25" stroke="#a8895c"/>
<circle cx="-1487.0101808151474" cy="-468.5050904075737" r="2.5" fill="#8a6b3f"/>
<circle cx="-1703.676861411247" cy="723.3597585700959" r="693.4390342803837" fill="#c1a97e" fill-opacity="0.25" stroke="#a8895c"/>
<circle cx="-1703.676861411247" cy="723.3597585700959" r="2.5" fill="#8a6b3f"/>
<circle cx="2668.5685878747104" cy="550" r="953.3558645436198" fill="#c1a97e" fill-opacity="0.25" stroke="#a8895c"/>
<circle cx="2668.5685878747104" cy="550" r="2.5" fill="#8a6b3f"/>
<circle cx="2724.107890232271" cy="-58.75020926503589" r="695.7145248743267" fill="#c1a97e" fill-opacity="0.25" stroke="#a8895c"/>
<circle cx="2724.107890232271" cy="-58.75020926503589" r="2.5" fill="#8a6b3f"/>
<circle cx="2517.9567527404074" cy="1378.6133695749086" r="828.6133695749085" fill="#c1a97e" fill-opacity="0.25" stroke="#a8895c"/>
<circle cx="2517.9567527404074" cy="1378.6133695749086" r="2.5" fill="#8a6b3f"/>
<circle cx="2713.46202740618" cy="1090.865506851545" r="649.0386082218539" fill="#c1a97e" fill-opacity="0.25" stroke="#a8895c"/>
<circle cx="2713.46202740618" cy="1090.865506851545" r="2.5" fill="#8a6b3f"/>
<circle cx="550" cy="2763.326923076923" r="1014.4415064102562" fill="#c1a97e" fill-opacity="0.25" stroke="#a8895c"/>
<circle cx="550" cy="2763.326923076923" r="2.5" fill="#8a6b3f"/>
<circle cx="1127.5732438379364" cy="2777.7825119463264" r="759.0962633298592" fill="#c1a97e" fill-opacity="0.25" stroke="#a8895c"/>
<circle cx="1127.5732438379364" cy="2777.7825119463264" r="2.5" fill="#8a6b3f"/>
<circle cx="38.65531039896791" cy="2765.8269882711393" r="784.0618573882491" fill="#c1a97e" fill-opacity="0.25" stroke="#a8895c"/>
<circle cx="38.65531039896791" cy="2765.8269882711393" r="2.5" fill="#8a6b3f"/>
<circle cx="1621.3444863260456" cy="2514.1315582644174" r="714.2296575506972" fill="#c1a97e" fill-opacity="0.25" stroke="#a8895c"/>
<circle cx="1621.3444863260456" cy="2514.1315582644174" r="2.5" fill="#8a6b3f"/>
<circle cx="-1298.6285623328922" cy="1894.4571362421034" r="705.8399965271042" fill="#c1a97e" fill-opacity="0.25" stroke="#a8895c"/>
<circle cx="-1298.6285623328922" cy="1894.4571362421034" r="2.5" fill="#8a6b3f"/>
<circle cx="-1656.5687752394933" cy="1338.0602768712477" r="630.4482214969981" fill="#c1a97e" fill-opacity="0.25" stroke="#a8895c"/>
<circle cx="-1656.5687752394933" cy="1338.0602768712477" r="2.5" fill="#8a6b3f"/>
<circle cx="-1000.5474542326685" cy="2263.762975730844" r="620.2189816930673" fill="#c1a97e" fill-opacity="0.25" stroke="#a8895c"/>
<circle cx="-1000.5474542326685" cy="2263.762975730844" r="2.5" fill="#8a6b3f"/>
<circle cx="-1814.0033062925" cy="321.22548648782254" r="686.3235405365324" fill="#c1a97e" fill-opacity="0.25" stroke="#a8895c"/>
<circle cx="-1814.0033062925" cy="321.22548648782254" r="2.5" fill="#8a6b3f"/>
<circle cx="-1673.7484693234373" cy="-164.7762937111048" r="635.356705520982" fill="#c1a97e" fill-opacity="0.25" stroke="#a8895c"/>
<circle cx="-1673.7484693234373" cy="-164.7762937111048" r="2.5" fill="#8a6b3f"/>
<circle cx="245.73709968279923" cy="-1808.037477458306" r="760.6572507930019" fill="#c1a97e" fill-opacity="0.25" stroke="#a8895c"/>
<circle cx="245.73709968279923" cy="-1808.037477458306" r="2.5" fill="#8a6b3f"/>
<circle cx="937.7351933179568" cy="-1776.411159907741" r="651.3951247741676" fill="#c1a97e" fill-opacity="0.25" stroke="#a8895c"/>
<circle cx="937.7351933179568" cy="-1776.411159907741" r="2.5" fill="#8a6b3f"/>
<circle cx="-399.9056747002239" cy="-1587.2877680755041" r="633.2704498001493" fill="#c1a97e" fill-opacity="0.25" stroke="#a8895c"/>
<circle cx="-399.9056747002239" cy="-1587.2877680755041" r="2.5" fill="#8a6b3f"/>
<circle cx="-227.051282051282" cy="683.974358974359" r="243.26923076923075" fill="#79b55a" fill-opacity="0.45" stroke="#579a41"/>
<circle cx="-465.1331378849501" cy="-751.4527408781412" r="148.07692307692304" fill="#79b55a" fill-opacity="0.45" stroke="#579a41"/>
<circle cx="314.20512820512823" cy="228.4615384615385" r="84.61538461538463" fill="#79b55a" fill-opacity="0.45" stroke="#579a41"/>
<circle cx="456.21794871794873" cy="295.44871794871796" r="63.46153846153845" fill="#79b55a" fill-opacity="0.45" stroke="#579a41"/>
<circle cx="-907.7815483828404" cy="284.9488093849381" r="105.76923076923077" fill="#79b55a" fill-opacity="0.45" stroke="#579a41"/>
<circle cx="884.9358974358975" cy="965.3205128205127" r="264.4230769230769" fill="#79b55a" fill-opacity="0.45" stroke="#579a41"/>
<circle cx="1166.2820512820513" cy="1072.5" r="285.5769230769231" fill="#79b55a" fill-opacity="0.45" stroke="#579a41"/>
<circle cx="-1235.484806139361" cy="-342.74240306968045" r="179.8076923076923" fill="#79b55a" fill-opacity="0.45" stroke="#579a41"/>
<circle cx="-1369.905786435085" cy="695.8156293495001" r="179.8076923076923" fill="#79b55a" fill-opacity="0.45" stroke="#579a41"/>
<circle cx="-143.74960505879653" cy="-624.0377931764249" r="190.3846153846154" fill="#79b55a" fill-opacity="0.45" stroke="#579a41"/>
<circle cx="925.1282051282051" cy="-361.025641025641" r="169.23076923076925" fill="#79b55a" fill-opacity="0.45" stroke="#579a41"/>
<circle cx="-1203.555375674271" cy="854.9661522911775" r="116.34615384615385" fill="#79b55a" fill-opacity="0.45" stroke="#579a41"/>
<circle cx="-703.0217058871212" cy="1136.5207985003547" r="105.76923076923077" fill="#79b55a" fill-opacity="0.45" stroke="#579a41"/>
<path d="M-1211.5,1284.0 L-1297.6,550.0 L-1298.4,-160.9 L-1208.5,-676.9 L-1131.8,-997.2 L-1167.0,-1057.8" fill="none" stroke="#5ec4cc" stroke-width="174.87179487179486" stroke-linecap="round" stroke-linejoin="round"/>
<path d="M-490.5,2284.2 L-778.3,1699.5 L-1045.3,1193.3 L-1223.9,803.4 L-1281.2,550.0" fill="none" stroke="#5ec4cc" stroke-width="118.46153846153845" stroke-linecap="round" stroke-linejoin="round"/>
<path d="M2399.6,919.9 L2009.5,417.3 L1487.7,-119.8 L951.9,-495.0 L335.8,-655.0 L-326.0,-618.0 L-801.8,-411.9 L-1132.9,-579.6 L-1208.5,-676.9" fill="none" stroke="#5ec4cc" stroke-width="126.92307692307692" stroke-linecap="round" stroke-linejoin="round"/>
<path d="M-1223.9,296.6 L-733.3,309.4 L-200.3,282.1 L94.5,142.7 L697.4,134.7 L1139.5,241.9 L1675.3,456.2" fill="none" stroke="#8e8878" stroke-width="47.94871794871795" stroke-linecap="round" stroke-linejoin="round"/>
<path d="M-1112.3,640.9 L-414.6,469.6 L161.5,342.3 L295.4,339.7 L429.4,335.6" fill="none" stroke="#8e8878" stroke-width="39.48717948717949" stroke-linecap="round" stroke-linejoin="round"/>
<path d="M-1148.9,807.4 L-253.8,817.9 L121.3,726.8 L389.2,716.1 L710.8,716.1 L951.9,737.6 L1193.1,817.9" fill="none" stroke="#8e8878" stroke-width="33.84615384615385" stroke-linecap="round" stroke-linejoin="round"/>
<path d="M-1174.0,1031.7 L-253.8,1085.9 L550.0,1099.3 L751.0,1099.3" fill="none" stroke="#8e8878" stroke-width="31.025641025641026" stroke-linecap="round" stroke-linejoin="round"/>
<path d="M-1045.3,-93.3 L-387.7,-146.5 L282.1,-160.1 L978.7,-146.7 L1407.4,-119.9" fill="none" stroke="#8e8878" stroke-width="36.666666666666664" stroke-linecap="round" stroke-linejoin="round"/>
<path d="M-1059.4,108.7 L-253.8,81.1 L94.5,-119.9 L550.0,-119.9 L1246.7,-66.3" fill="none" stroke="#8e8878" stroke-width="31.025641025641026" stroke-linecap="round" stroke-linejoin="round"/>
<path d="M-677.5,1137.1 L-655.0,335.8 L-608.4,-248.9 L-536.6,-743.6" fill="none" stroke="#8e8878" stroke-width="42.30769230769231" stroke-linecap="round" stroke-linejoin="round"/>
<path d="M282.1,1193.1 L282.1,550.0 L282.1,-146.7 L308.9,-575.3" fill="none" stroke="#8e8878" stroke-width="39.48717948717949" stroke-linecap="round" stroke-linejoin="round"/>
<path d="M-12.7,1193.1 L0.7,416.0 L14.1,-173.5" fill="none" stroke="#8e8878" stroke-width="31.025641025641026" stroke-linecap="round" stroke-linejoin="round"/>
<path d="M-1102.1,1210.8 L-1112.7,602.0 L-1118.9,87.9" fill="none" stroke="#8e8878" stroke-width="31.025641025641026" stroke-linecap="round" stroke-linejoin="round"/>
<path d="M817.9,-12.7 L625.0,134.7 L402.6,276.7 L335.6,456.2 L314.2,716.1 L255.3,911.7" fill="none" stroke="#8e8878" stroke-width="36.666666666666664" stroke-linecap="round" stroke-linejoin="round"/>
<path d="M-785.2,683.5 L-874.5,1130.3 L-921.4,1564.8" fill="none" stroke="#8e8878" stroke-width="31.025641025641026" stroke-linecap="round" stroke-linejoin="round"/>
<path d="M196.3,-66.3 L201.7,142.7 L207.0,341.0 L212.4,726.8" fill="none" stroke="#8e8878" stroke-width="28.205128205128204" stroke-linecap="round" stroke-linejoin="round"/>
<path d="M785.8,-12.7 L785.8,134.7 L785.8,416.0 L785.8,716.1" fill="none" stroke="#8e8878" stroke-width="25.384615384615383" stroke-linecap="round" stroke-linejoin="round"/>
<path d="M357.1,399.9 L603.6,399.9 L785.8,399.9" fill="none" stroke="#8e8878" stroke-width="22.564102564102566" stroke-linecap="round" stroke-linejoin="round"/>
<path d="M-449.7,-999.6 L-631.8,-500.5 L-729.5,16.9 L-655.1,416.1 L-253.8,684.0 L121.3,737.6 L389.2,726.8 L710.8,726.8 L951.9,748.3 L1085.9,844.7" fill="none" stroke="#E3002C" stroke-width="1.6" stroke-opacity="0.85"/>
<path d="M-1152.7,446.8 L-733.8,416.3 L-200.3,295.4 L94.5,153.4 L697.4,145.4 L1139.5,249.9 L2123.2,287.8" fill="none" stroke="#0070BD" stroke-width="1.6" stroke-opacity="0.85"/>
<path d="M-655.7,1598.5 L-601.9,817.9 L-681.5,442.9 L-253.8,228.5 L282.1,14.1 L898.3,40.9" fill="none" stroke="#1DA742" stroke-width="1.6" stroke-opacity="0.85"/>
<path d="M-251.3,1618.4 L-119.9,871.5 L-200.3,282.1 L-518.4,-251.3 L-918.0,-79.1" fill="none" stroke="#F8B61C" stroke-width="1.6" stroke-opacity="0.85"/>
<path d="M871.5,1675.2 L389.2,871.5 L174.9,40.9 L282.1,-521.8 L364.3,-908.9" fill="none" stroke="#C48C31" stroke-width="1.6" stroke-opacity="0.85"/>
<path d="M1053.7,823.3 L1044.4,833.0 L1034.7,843.1 L1025.3,852.8 L1016.0,862.4 L1005.5,871.5 L992.4,872.3 L979.0,871.0 L965.6,869.4 L952.2,868.1 L938.3,867.5 L924.3,868.3 L910.4,870.2 L896.7,873.4 L883.3,878.2 L871.0,884.7 L865.9,889.8 L879.3,889.2 L892.4,890.6 L906.1,893.8 L919.2,899.1 L930.5,906.1 L941.2,915.2 L949.5,925.7 L956.2,937.5 L960.5,950.9 L962.1,962.1 L953.3,948.7 L943.1,939.1 L931.0,931.8 L917.6,928.1 L904.2,927.5 L890.6,930.8 L882.5,935.8 L895.9,935.6 L909.6,938.5 L916.6,947.6 L911.2,960.0 L905.0,972.6 L903.2,976.8" fill="none" stroke="#4a4438" stroke-width="1.4" stroke-dasharray="2 3"/>
<circle cx="550" cy="550" r="4" fill="#232019"/>
<text x="556" y="546" font-size="11" fill="#232019">Taipei 101</text>
<circle cx="571.4358974358975" cy="255.25641025641028" r="4" fill="#232019"/>
<text x="577.4358974358975" y="251.25641025641028" font-size="11" fill="#232019">Taipei City Hall</text>
<circle cx="303.48717948717956" cy="223.10256410256414" r="4" fill="#232019"/>
<text x="309.48717948717956" y="219.10256410256414" font-size="11" fill="#232019">Sun Yat-sen Hall</text>
<circle cx="322.2435897435897" cy="19.461538461538453" r="4" fill="#232019"/>
<text x="328.2435897435897" y="15.461538461538453" font-size="11" fill="#232019">Taipei Dome</text>
<circle cx="469.61538461538464" cy="341" r="4" fill="#232019"/>
<text x="475.61538461538464" y="337" font-size="11" fill="#232019">Grand Hyatt Taipei</text>
<circle cx="726.8461538461538" cy="442.8205128205128" r="4" fill="#232019"/>
<text x="732.8461538461538" y="438.8205128205128" font-size="11" fill="#232019">Breeze Nan Shan</text>
<circle cx="670.5769230769231" cy="373.1538461538462" r="4" fill="#232019"/>
<text x="676.5769230769231" y="369.1538461538462" font-size="11" fill="#232019">Mitsukoshi A11</text>
<circle cx="148.07692307692315" cy="40.89743589743591" r="4" fill="#232019"/>
<text x="154.07692307692315" y="36.89743589743591" font-size="11" fill="#232019">Taipei Arena</text>
<circle cx="898.3333333333333" cy="40.89743589743591" r="4" fill="#232019"/>
<text x="904.3333333333333" y="36.89743589743591" font-size="11" fill="#232019">Raohe Night Market</text>
<circle cx="-602.0580572741605" cy="523.2079521564149" r="4" fill="#232019"/>
<text x="-596.0580572741605" y="519.2079521564149" font-size="11" fill="#232019">CKS Memorial Hall</text>
<circle cx="-860.1973038866624" cy="363.7475259017616" r="4" fill="#232019"/>
<text x="-854.1973038866624" y="359.7475259017616" font-size="11" fill="#232019">Presidential Office</text>
<circle cx="-731.5991671685026" cy="136.1502689351709" r="4" fill="#232019"/>
<text x="-725.5991671685026" y="132.1502689351709" font-size="11" fill="#232019">Taipei Main Station</text>
<circle cx="-1037.3689428359553" cy="471.2874904378865" r="4" fill="#232019"/>
<text x="-1031.3689428359553" y="467.2874904378865" font-size="11" fill="#232019">Longshan Temple</text>
<circle cx="-811.436950935502" cy="-516.0308200721386" r="4" fill="#232019"/>
<text x="-805.436950935502" y="-520.0308200721386" font-size="11" fill="#232019">Bao’an Temple</text>
<circle cx="-462.62857717019983" cy="-774.2066009148766" r="4" fill="#232019"/>
<text x="-456.62857717019983" y="-778.2066009148766" font-size="11" fill="#232019">Grand Hotel</text>
<circle cx="-530.7582441205284" cy="-1009.7306477648535" r="4" fill="#232019"/>
<text x="-524.7582441205284" y="-1013.7306477648535" font-size="11" fill="#232019">Shilin Night Market</text>
<circle cx="364.16300586465684" cy="-896.8737400537434" r="4" fill="#232019"/>
<text x="370.16300586465684" y="-900.8737400537434" font-size="11" fill="#232019">Miramar Ferris Wheel</text>
<circle cx="157.8509930613685" cy="-1312.7077829584996" r="4" fill="#232019"/>
<text x="163.8509930613685" y="-1316.7077829584996" font-size="11" fill="#232019">Palace Museum</text>
<circle cx="643.7820512820513" cy="764.3589743589744" r="2" fill="#6b6455"/>
<circle cx="1461.025641025641" cy="496.4102564102564" r="2" fill="#6b6455"/>
<circle cx="-334.23076923076917" cy="228.4615384615385" r="2" fill="#6b6455"/>
<circle cx="228.4615384615385" cy="94.4871794871795" r="2" fill="#6b6455"/>
<circle cx="14.102564102564088" cy="898.3333333333333" r="2" fill="#6b6455"/>
<circle cx="683.974358974359" cy="-253.8461538461537" r="2" fill="#6b6455"/>
<circle cx="737.5641025641025" cy="174.87179487179492" r="2" fill="#6b6455"/>
<circle cx="-441.4102564102566" cy="710.7692307692307" r="2" fill="#6b6455"/>
<circle cx="282.05128205128204" cy="1166.2820512820513" r="2" fill="#6b6455"/>
<circle cx="-119.8717948717948" cy="-173.46153846153845" r="2" fill="#6b6455"/>
<path d="M543.9282051282051,539.373076923077 L553.9282051282051,549.373076923077 M543.9282051282051,549.373076923077 L553.9282051282051,539.373076923077" stroke="#d81b9f" stroke-width="1.6"/>
<text x="554.9282051282051" y="556.373076923077" font-size="9" fill="#d81b9f">taipei-101</text>
<path d="M544.1961538461538,431.925641025641 L554.1961538461538,441.925641025641 M544.1961538461538,441.925641025641 L554.1961538461538,431.925641025641" stroke="#d81b9f" stroke-width="1.6"/>
<text x="555.1961538461538" y="448.925641025641" font-size="9" fill="#d81b9f">city-hall</text>
<path d="M431.3897435897436,357.97179487179494 L441.3897435897436,367.97179487179494 M431.3897435897436,367.97179487179494 L441.3897435897436,357.97179487179494" stroke="#d81b9f" stroke-width="1.6"/>
<text x="442.3897435897436" y="374.97179487179494" font-size="9" fill="#d81b9f">sun-yat-sen-hall</text>
<path d="M412.0974358974359,287.5012820512821 L422.0974358974359,297.5012820512821 M412.0974358974359,297.5012820512821 L422.0974358974359,287.5012820512821" stroke="#d81b9f" stroke-width="1.6"/>
<text x="423.0974358974359" y="304.5012820512821" font-size="9" fill="#d81b9f">taipei-dome</text>
<path d="M514.4538461538461,499.44871794871796 L524.4538461538461,509.44871794871796 M514.4538461538461,509.44871794871796 L524.4538461538461,499.44871794871796" stroke="#d81b9f" stroke-width="1.6"/>
<text x="525.4538461538461" y="516.448717948718" font-size="9" fill="#d81b9f">grand-hyatt</text>
<path d="M593.498717948718,524.6358974358974 L603.498717948718,534.6358974358974 M593.498717948718,534.6358974358974 L603.498717948718,524.6358974358974" stroke="#d81b9f" stroke-width="1.6"/>
<text x="604.498717948718" y="541.6358974358974" font-size="9" fill="#d81b9f">breeze-nanshan</text>
<path d="M156.474358974359,40.72051282051291 L166.474358974359,50.72051282051291 M156.474358974359,50.72051282051291 L166.474358974359,40.72051282051291" stroke="#d81b9f" stroke-width="1.6"/>
<text x="167.474358974359" y="57.72051282051291" font-size="9" fill="#d81b9f">taipei-arena</text>
<path d="M830.6333333333333,41.79230769230776 L840.6333333333333,51.79230769230776 M830.6333333333333,51.79230769230776 L840.6333333333333,41.79230769230776" stroke="#d81b9f" stroke-width="1.6"/>
<text x="841.6333333333333" y="58.79230769230776" font-size="9" fill="#d81b9f">raohe-night-market</text>
<path d="M-608.3915852553216,517.1364169880247 L-598.3915852553216,527.1364169880247 M-608.3915852553216,527.1364169880247 L-598.3915852553216,517.1364169880247" stroke="#d81b9f" stroke-width="1.6"/>
<text x="-597.3915852553216" y="534.1364169880247" font-size="9" fill="#d81b9f">cks-memorial</text>
<path d="M-864.7138970442365,359.80542235885457 L-854.7138970442365,369.80542235885457 M-864.7138970442365,369.80542235885457 L-854.7138970442365,359.80542235885457" stroke="#d81b9f" stroke-width="1.6"/>
<text x="-853.7138970442365" y="376.80542235885457" font-size="9" fill="#d81b9f">presidential-office</text>
<path d="M-731.2239172004956,131.07510532312858 L-721.2239172004956,141.07510532312858 M-731.2239172004956,141.07510532312858 L-721.2239172004956,131.07510532312858" stroke="#d81b9f" stroke-width="1.6"/>
<text x="-720.2239172004956" y="148.07510532312858" font-size="9" fill="#d81b9f">main-station</text>
<path d="M-1141.3079773370705,442.8073563902818 L-1131.3079773370705,452.8073563902818 M-1141.3079773370705,452.8073563902818 L-1131.3079773370705,442.8073563902818" stroke="#d81b9f" stroke-width="1.6"/>
<text x="-1130.3079773370705" y="459.8073563902818" font-size="9" fill="#d81b9f">longshan-temple</text>
<path d="M-457.0918877466587,-752.9748983066113 L-447.0918877466587,-742.9748983066113 M-457.0918877466587,-742.9748983066113 L-447.0918877466587,-752.9748983066113" stroke="#d81b9f" stroke-width="1.6"/>
<text x="-446.0918877466587" y="-735.9748983066113" font-size="9" fill="#d81b9f">grand-hotel</text>
<path d="M-457.9038060927378,-972.8200387817569 L-447.9038060927378,-962.8200387817569 M-457.9038060927378,-962.8200387817569 L-447.9038060927378,-972.8200387817569" stroke="#d81b9f" stroke-width="1.6"/>
<text x="-446.9038060927378" y="-955.8200387817569" font-size="9" fill="#d81b9f">shilin-night-market</text>
<path d="M154.58427654871042,-1303.8709275869903 L164.58427654871042,-1293.8709275869903 M154.58427654871042,-1293.8709275869903 L164.58427654871042,-1303.8709275869903" stroke="#d81b9f" stroke-width="1.6"/>
<text x="165.58427654871042" y="-1286.8709275869903" font-size="9" fill="#d81b9f">palace-museum</text>
<path d="M356.6139057368536,-909.8182462603261 L366.6139057368536,-899.8182462603261 M356.6139057368536,-899.8182462603261 L366.6139057368536,-909.8182462603261" stroke="#d81b9f" stroke-width="1.6"/>
<text x="367.6139057368536" y="-892.8182462603261" font-size="9" fill="#d81b9f">miramar-ferris-wheel</text>
<path d="M-729.9214746310115,-579.8851414812004 L-719.9214746310115,-569.8851414812004 M-729.9214746310115,-569.8851414812004 L-719.9214746310115,-579.8851414812004" stroke="#d81b9f" stroke-width="1.6"/>
<text x="-718.9214746310115" y="-562.8851414812004" font-size="9" fill="#d81b9f">baoan-temple</text>
<path d="M-246.25256410256395,664.5051282051281 L-236.25256410256395,674.5051282051281 M-246.25256410256395,674.5051282051281 L-236.25256410256395,664.5051282051281" stroke="#d81b9f" stroke-width="1.6"/>
<text x="-235.25256410256395" y="681.5051282051281" font-size="9" fill="#d81b9f">daan-forest-park</text>
<path d="M-781.9726528626043,312.98003313126696 L-771.9726528626043,322.98003313126696 M-781.9726528626043,322.98003313126696 L-771.9726528626043,312.98003313126696" stroke="#d81b9f" stroke-width="1.6"/>
<text x="-770.9726528626043" y="329.98003313126696" font-size="9" fill="#d81b9f">peace-park</text>
<path d="M843.4948717948719,757.2153846153847 L853.4948717948719,767.2153846153847 M843.4948717948719,767.2153846153847 L853.4948717948719,757.2153846153847" stroke="#d81b9f" stroke-width="1.6"/>
<text x="854.4948717948719" y="774.2153846153847" font-size="9" fill="#d81b9f">elephant-mountain</text>
<path d="M1081.7012820512819,935.1333333333332 L1091.7012820512819,945.1333333333332 M1081.7012820512819,945.1333333333332 L1091.7012820512819,935.1333333333332" stroke="#d81b9f" stroke-width="1.6"/>
<text x="1092.7012820512819" y="952.1333333333332" font-size="9" fill="#d81b9f">thumb-mountain</text>
<path d="M371.77901053527853,-1806.3662808253275 L381.77901053527853,-1796.3662808253275 M371.77901053527853,-1796.3662808253275 L381.77901053527853,-1806.3662808253275" stroke="#d81b9f" stroke-width="1.6"/>
<text x="382.77901053527853" y="-1789.3662808253275" font-size="9" fill="#d81b9f">qixingshan</text>
<path d="M-77.56441089688724,-1794.978444331914 L-67.56441089688724,-1784.978444331914 M-77.56441089688724,-1784.978444331914 L-67.56441089688724,-1794.978444331914" stroke="#d81b9f" stroke-width="1.6"/>
<text x="-66.56441089688724" y="-1777.978444331914" font-size="9" fill="#d81b9f">datun</text>
<path d="M-1379.9963136569843,-1020.5048792095681 L-1369.9963136569843,-1010.5048792095681 M-1379.9963136569843,-1010.5048792095681 L-1369.9963136569843,-1020.5048792095681" stroke="#d81b9f" stroke-width="1.6"/>
<text x="-1368.9963136569843" y="-1003.5048792095681" font-size="9" fill="#d81b9f">guanyinshan</text>
<path d="M1134.7818591536916,2322.7674939714598 L1144.7818591536916,2332.7674939714598 M1134.7818591536916,2332.7674939714598 L1144.7818591536916,2322.7674939714598" stroke="#d81b9f" stroke-width="1.6"/>
<text x="1145.7818591536916" y="2339.7674939714598" font-size="9" fill="#d81b9f">maokong</text>
<path d="M-964.8,114.3 L-241.5,305.4 L752.0,349.6 L923.3,331.6 L1076.5,157.7 L1181.0,96.9 L1390.0,44.6 L1920.8,-19.0" fill="none" stroke="#d81b9f" stroke-width="1.3" stroke-opacity="0.85"/>
<path d="M-692.7,387.8 L-513.8,413.1 L-464.5,415.2 L-350.6,415.5 L-261.3,418.7 L115.1,425.7 L491.1,435.9" fill="none" stroke="#d81b9f" stroke-width="1.3" stroke-opacity="0.85"/>
<path d="M-1485.7,1376.1 L-1448.8,1452.8 L-1243.7,-610.0 L-657.0,433.5 L-447.3,539.8 L-314.4,552.7 L749.4,577.6 L904.2,488.4" fill="none" stroke="#d81b9f" stroke-width="1.3" stroke-opacity="0.85"/>
<path d="M-1307.2,499.5 L-1055.2,519.4 L-712.2,754.4 L-78.6,766.0 L228.2,831.1 L809.1,1572.2" fill="none" stroke="#d81b9f" stroke-width="1.3" stroke-opacity="0.85"/>
<path d="M-935.7,-24.4 L-786.5,-46.1 L-642.2,-10.2 L-585.8,0.3 L-541.5,3.2 L712.1,27.5 L1260.6,-288.9" fill="none" stroke="#d81b9f" stroke-width="1.3" stroke-opacity="0.85"/>
<path d="M-384.6,255.5 L-274.2,223.4 L-177.5,178.9 L48.1,124.5 L375.8,119.9 L744.5,69.8 L913.9,65.0 L1023.7,28.3" fill="none" stroke="#d81b9f" stroke-width="1.3" stroke-opacity="0.85"/>
<path d="M-847.7,-1552.1 L-968.4,-1466.7 L-1023.1,-1424.2 L-103.5,-1495.0 L-341.0,-1307.7 L-361.1,-1090.1 L-586.4,15.2 L-738.9,500.5" fill="none" stroke="#d81b9f" stroke-width="1.3" stroke-opacity="0.85"/>
<path d="M123.7,919.2 L125.6,710.5 L141.9,640.0 L125.6,556.2 L132.3,-160.9 L142.5,-194.6 L176.7,-266.2 L209.4,-316.8" fill="none" stroke="#d81b9f" stroke-width="1.3" stroke-opacity="0.85"/>
<path d="M-21.5,906.6 L-16.7,695.5 L-35.5,627.2 L-14.8,564.2 L-14.0,517.0 L-20.2,477.9 L-11.9,419.5 L4.2,-408.7" fill="none" stroke="#d81b9f" stroke-width="1.3" stroke-opacity="0.85"/>
<path d="M-919.0,802.7 L-992.9,732.0 L-1039.5,663.8 L-1042.8,616.6 L-1003.9,516.6 L-986.2,457.7 L-908.9,150.8" fill="none" stroke="#d81b9f" stroke-width="1.3" stroke-opacity="0.85"/>
<path d="M-295.4,1276.1 L-239.4,1237.0 L-136.2,1188.8 L-49.4,1125.8 L-35.5,1076.3 L327.1,729.0 L526.2,379.9 L702.7,44.9" fill="none" stroke="#d81b9f" stroke-width="1.3" stroke-opacity="0.85"/>
<path d="M-725.4,536.9 L-514.3,851.4 L-182.6,1221.5 L-141.0,1386.0 L-135.2,1622.6 L-85.1,1656.0 L-80.9,1715.0 L-115.5,1842.3" fill="none" stroke="#d81b9f" stroke-width="1.3" stroke-opacity="0.85"/>
<path d="M282.3,-285.7 L310.2,-115.9 L322.5,-66.0 L345.8,-11.9 L368.3,31.8 L368.3,253.1 L359.8,581.9 L360.6,660.1" fill="none" stroke="#d81b9f" stroke-width="1.3" stroke-opacity="0.85"/>
<path d="M657.7,343.4 L656.1,392.7 L655.3,464.3 L652.9,605.2 L654.2,663.6 L654.0,713.4 L657.2,762.8 L687.2,821.7" fill="none" stroke="#d81b9f" stroke-width="1.3" stroke-opacity="0.85"/>
<path d="M481.4,483.8 L521.6,484.6 L582.2,485.7 L639.2,486.8" fill="none" stroke="#d81b9f" stroke-width="1.3" stroke-opacity="0.85"/>
<path d="M-1021.3,100.2 L-930.5,60.6 L-253.0,216.4 L232.2,233.3 L550.5,200.1 L696.8,91.3 L971.5,93.1 L1917.7,-57.1" fill="none" stroke="#d81b9f" stroke-width="1.3" stroke-opacity="0.85"/>
<path d="M-836.8,-294.4 L173.3,-275.3 L386.8,-294.6 L767.0,-369.6 L1071.9,-484.7 L1323.6,-490.2 L1495.7,-428.6 L1630.9,-582.5" fill="none" stroke="#d81b9f" stroke-width="1.3" stroke-opacity="0.85"/>
<path d="M-915.1,-120.9 L-762.5,-133.1 L-575.1,-165.1 L-520.3,-170.5 L-139.4,-166.2 L126.4,-160.9 L285.3,-176.9 L649.1,-206.2" fill="none" stroke="#d81b9f" stroke-width="1.3" stroke-opacity="0.85"/>
<path d="M-429.4,-535.3 L-441.4,17.9 L-388.6,122.1 L-304.5,214.0 L-308.8,548.9 L-250.6,761.4 L-269.7,925.9 L-299.4,1051.3" fill="none" stroke="#d81b9f" stroke-width="1.3" stroke-opacity="0.85"/>
<path d="M-270.8,-448.1 L-212.7,-393.2 L-192.9,-345.6 L-202.7,250.2 L-168.1,417.4 L-171.0,571.2 L-165.2,626.4 L-176.7,853.0" fill="none" stroke="#d81b9f" stroke-width="1.3" stroke-opacity="0.85"/>
<path d="M-676.6,-1270.6 L-586.6,-1244.0 L-641.1,-1115.3 L-629.0,-990.6 L-537.2,-968.2 L-502.5,-902.3 L-656.0,-553.5 L-737.7,84.5" fill="none" stroke="#d81b9f" stroke-width="1.3" stroke-opacity="0.85"/>
<path d="M-484.0,-1209.1 L-463.9,-1198.3" fill="none" stroke="#d81b9f" stroke-width="1.3" stroke-opacity="0.85"/>
<path d="M-590.0,-1257.3 L-480.3,-1320.4 L-452.1,-1340.6 L-424.0,-1358.9 L-379.1,-1379.7 L-338.4,-1396.2 L-283.2,-1431.3 L-242.0,-1453.0" fill="none" stroke="#d81b9f" stroke-width="1.3" stroke-opacity="0.85"/>
<path d="M-347.6,-1257.8 L-285.6,-1287.9 L-251.3,-1316.1 L-198.4,-1384.5 L-165.8,-1407.9 L-138.7,-1424.4 L-103.7,-1448.6" fill="none" stroke="#d81b9f" stroke-width="1.3" stroke-opacity="0.85"/>
<path d="M411.9,-947.6 L937.1,-777.2 L992.0,-860.7 L1038.9,-836.3 L1087.5,-894.4 L1197.7,-848.7 L1290.8,-921.8" fill="none" stroke="#d81b9f" stroke-width="1.3" stroke-opacity="0.85"/>
<path d="M1270.5,-268.3 L1226.9,-792.3 L1389.3,-755.3 L1482.7,-748.6 L1471.4,-812.2 L1530.3,-821.9 L1570.1,-851.0" fill="none" stroke="#d81b9f" stroke-width="1.3" stroke-opacity="0.85"/>
<path d="M1072.0,5.5 L1124.2,-17.0 L1229.5,-31.2 L1337.5,-65.5 L1553.9,-35.9 L1830.1,-85.1 L2005.5,-62.8" fill="none" stroke="#d81b9f" stroke-width="1.3" stroke-opacity="0.85"/>
<path d="M1943.9,265.0 L1920.1,213.2 L1917.6,157.5 L1925.6,105.7 L1920.0,52.7 L1931.7,-7.1 L1937.2,-60.9" fill="none" stroke="#d81b9f" stroke-width="1.3" stroke-opacity="0.85"/>
<path d="M-1556.6,351.7 L-1529.2,265.6 L-1463.8,190.1 L-1330.9,-27.2 L-1314.5,-62.3 L-1220.6,-177.9 L-1040.8,-290.8" fill="none" stroke="#d81b9f" stroke-width="1.3" stroke-opacity="0.85"/>
<path d="M-1559.8,1059.9 L-1556.8,1010.9 L-1546.1,864.4 L-1540.4,793.7 L-1528.9,684.6 L-1520.2,644.4 L-1476.9,507.6 L-1454.2,490.2" fill="none" stroke="#d81b9f" stroke-width="1.3" stroke-opacity="0.85"/>
<path d="M-69.1,2463.7 L-25.8,2361.6 L-6.5,2299.1 L-0.7,2272.9 L-7.5,2200.5 L-12.7,2165.4 L-75.5,1982.0" fill="none" stroke="#d81b9f" stroke-width="1.3" stroke-opacity="0.85"/>
<path d="M-1082.4,1398.1 L-821.0,1398.8 L-813.1,1363.5 L-804.3,1316.0 L-787.6,1255.4 L-779.4,1213.0 L-766.6,1154.4 L-754.2,1094.4" fill="none" stroke="#d81b9f" stroke-width="1.3" stroke-opacity="0.85"/>
<path d="M-1139.8,1384.3 L-1122.1,1440.0 L-1080.9,1492.2 L-1023.4,1586.3 L-977.1,1641.2 L-643.3,1749.0 L-558.0,1786.2 L-453.2,1811.5" fill="none" stroke="#d81b9f" stroke-width="1.3" stroke-opacity="0.85"/>
<path d="M2057.5,-62.6 L2209.6,-24.3 L2293.1,-101.5 L2538.2,-224.3 L2551.4,-266.1 L2535.5,-349.5 L2547.0,-365.6 L2650.6,-197.1" fill="none" stroke="#d81b9f" stroke-width="1.3" stroke-opacity="0.85"/>
<path d="M-1331.8,-644.1 L-1328.1,-629.9 L-1319.8,-627.3 L-1305.5,-630.3 L-1298.2,-625.7 L-1284.6,-593.4 L-1280.5,-579.8 L-1285.4,-554.5" fill="none" stroke="#d81b9f" stroke-width="1.3" stroke-opacity="0.85"/>
<path d="M-1816.6,762.7 L-1793.4,713.5 L-1782.0,653.1 L-1716.0,573.4 L-1641.7,509.3 L-1615.3,750.0 L-1616.3,532.2 L-1597.7,446.9" fill="none" stroke="#d81b9f" stroke-width="1.3" stroke-opacity="0.85"/>
<path d="M-1574.5,1738.4 L-1560.9,1721.4 L-1533.0,1712.3 L-1490.3,1719.6 L-1480.1,1701.7 L-1487.6,1625.4 L-1521.7,1482.1 L-1529.9,1366.8" fill="none" stroke="#d81b9f" stroke-width="1.3" stroke-opacity="0.85"/>
<path d="M-1328.5,261.5 L-1000.2,-119.6 L-912.4,-467.0 L-909.9,-748.3 L-1034.5,-892.7 L-1239.8,-835.5 L-1095.1,-1225.0 L-1102.0,-1358.7 L-1176.9,-1291.2 L-1291.3,-1176.9" fill="none" stroke="#d81b9f" stroke-width="1.3" stroke-opacity="0.85" stroke-dasharray="8 5"/>
<path d="M-45.0,2696.4 L-267.5,2540.2 L-50.7,2589.1 L29.8,2655.6 L145.8,2633.1 L-561.8,2006.9 L-284.0,1426.3 L-796.0,908.4 L-1251.5,1164.5 L-1328.5,261.5" fill="none" stroke="#d81b9f" stroke-width="1.3" stroke-opacity="0.85" stroke-dasharray="8 5"/>
<path d="M3067.3,361.2 L3060.3,283.7 L2970.2,-167.6 L2798.0,-598.4 L2735.9,-270.7 L812.1,14.9 L690.3,-693.3 L-466.5,-591.2 L-829.6,-1146.7 L-1183.1,-950.4" fill="none" stroke="#d81b9f" stroke-width="1.3" stroke-opacity="0.85" stroke-dasharray="8 5"/>
<path d="M-1038.6,74.2 L-1050.7,65.9 L-1063.2,56.9 L-1171.5,-22.1" fill="none" stroke="#d81b9f" stroke-width="1.3" stroke-opacity="0.85"/>
<path d="M10.3,-789.1 L4.9,-670.9 L4.9,-655.4 L3.5,-612.8" fill="none" stroke="#d81b9f" stroke-width="1.3" stroke-opacity="0.85"/>
<path d="M729.3,-360.2 L832.7,-398.3 L859.2,-407.1 L901.0,-419.4" fill="none" stroke="#d81b9f" stroke-width="1.3" stroke-opacity="0.85"/>
<path d="M243.55769230769238,-438.6397435897434 L253.55769230769238,-428.6397435897434 M243.55769230769238,-428.6397435897434 L253.55769230769238,-438.6397435897434" stroke="#d81b9f" stroke-width="1.6"/>
<text x="254.55769230769238" y="-421.6397435897434" font-size="9" fill="#d81b9f">songshan-airport</text>
<path d="M573.8,-500.1 L260.9,-512.4 L135.5,-516.9 L-121.1,-525.7" fill="none" stroke="#d81b9f" stroke-width="1.3" stroke-opacity="0.85"/>
<path d="M619.2217948717948,458.72051282051285 L629.2217948717948,468.72051282051285 M619.2217948717948,468.72051282051285 L629.2217948717948,458.72051282051285" stroke="#d81b9f" stroke-width="1.6"/>
<text x="630.2217948717948" y="475.72051282051285" font-size="9" fill="#d81b9f">mitsukoshi-a11</text>
<path d="M1061.3371794871796,616.0064102564103 L1071.3371794871796,626.0064102564103 M1061.3371794871796,626.0064102564103 L1071.3371794871796,616.0064102564103" stroke="#d81b9f" stroke-width="1.6"/>
<text x="1072.3371794871796" y="633.0064102564103" font-size="9" fill="#d81b9f">tiger-mountain</text>
<path d="M-1026.2,-298.8 L-954.7,-300.6" fill="none" stroke="#d81b9f" stroke-width="1.3" stroke-opacity="0.85"/>
<rect x="20" y="1066" width="141.02564102564102" height="4" fill="#232019"/>
<text x="20" y="1060" font-size="12" fill="#232019">1 km (authored, pre-spread)</text>
<text x="20" y="24" font-size="14" fill="#232019">xinyi / spread — game data (grey/green) vs OSM geo-truth (magenta)</text>
</svg>
