<svg xmlns="http://www.w3.org/2000/svg" width="1100" height="1100" viewBox="0 0 1100 1100">
<rect width="1100" height="1100" fill="#f6f3ec"/>
<circle cx="577.5" cy="531.6666666666666" r="275" fill="none" stroke="#c9c2b2" stroke-dasharray="6 5"/>
<text x="577.5" y="531.6666666666666" font-size="11" fill="#b6ad99" text-anchor="middle">xinyi</text>
<circle cx="348.3333333333333" cy="605" r="275" fill="none" stroke="#c9c2b2" stroke-dasharray="6 5"/>
<text x="348.3333333333333" y="605" font-size="11" fill="#b6ad99" text-anchor="middle">daan</text>
<circle cx="91.66666666666663" cy="467.5" r="265.8333333333333" fill="none" stroke="#c9c2b2" stroke-dasharray="6 5"/>
<text x="91.66666666666663" y="467.5" font-size="11" fill="#b6ad99" text-anchor="middle">zhongzheng</text>
<circle cx="-64.16666666666674" cy="531.6666666666666" r="210.83333333333331" fill="none" stroke="#c9c2b2" stroke-dasharray="6 5"/>
<text x="-64.16666666666674" y="531.6666666666666" font-size="11" fill="#b6ad99" text-anchor="middle">wanhua</text>
<circle cx="210.83333333333331" cy="311.66666666666663" r="229.16666666666669" fill="none" stroke="#c9c2b2" stroke-dasharray="6 5"/>
<text x="210.83333333333331" y="311.66666666666663" font-size="11" fill="#b6ad99" text-anchor="middle">zhongshan</text>
<circle cx="73.33333333333331" cy="256.66666666666663" r="192.50000000000003" fill="none" stroke="#c9c2b2" stroke-dasharray="6 5"/>
<text x="73.33333333333331" y="256.66666666666663" font-size="11" fill="#b6ad99" text-anchor="middle">datong</text>
<circle cx="715" cy="366.66666666666663" r="229.16666666666669" fill="none" stroke="#c9c2b2" stroke-dasharray="6 5"/>
<text x="715" y="366.66666666666663" font-size="11" fill="#b6ad99" text-anchor="middle">songshan</text>
<circle cx="220" cy="0" r="192.50000000000003" fill="none" stroke="#c9c2b2" stroke-dasharray="6 5"/>
<text x="220" y="0" font-size="11" fill="#b6ad99" text-anchor="middle">shilin</text>
<circle cx="898.3333333333333" cy="164.99999999999994" r="192.50000000000003" fill="none" stroke="#c9c2b2" stroke-dasharray="6 5"/>
<text x="898.3333333333333" y="164.99999999999994" font-size="11" fill="#b6ad99" text-anchor="middle">neihu</text>
<circle cx="1054.1666666666667" cy="504.1666666666667" r="201.66666666666669" fill="none" stroke="#c9c2b2" stroke-dasharray="6 5"/>
<text x="1054.1666666666667" y="504.1666666666667" font-size="11" fill="#b6ad99" text-anchor="middle">nangang</text>
<circle cx="73.33333333333331" cy="788.3333333333334" r="183.33333333333334" fill="none" stroke="#c9c2b2" stroke-dasharray="6 5"/>
<text x="73.33333333333331" y="788.3333333333334" font-size="11" fill="#b6ad99" text-anchor="middle">gongguan-guting</text>
<circle cx="-165" cy="265.8333333333333" r="238.33333333333334" fill="none" stroke="#c9c2b2" stroke-dasharray="6 5"/>
<text x="-165" y="265.8333333333333" font-size="11" fill="#b6ad99" text-anchor="middle">sanchong</text>
<circle cx="-293.33333333333326" cy="36.66666666666663" r="220" fill="none" stroke="#c9c2b2" stroke-dasharray="6 5"/>
<text x="-293.33333333333326" y="36.66666666666663" font-size="11" fill="#b6ad99" text-anchor="middle">luzhou</text>
<circle cx="-394.16666666666674" cy="528" r="201.66666666666669" fill="none" stroke="#c9c2b2" stroke-dasharray="6 5"/>
<text x="-394.16666666666674" y="528" font-size="11" fill="#b6ad99" text-anchor="middle">xinzhuang</text>
<circle cx="-330" cy="774.5833333333334" r="220" fill="none" stroke="#c9c2b2" stroke-dasharray="6 5"/>
<text x="-330" y="774.5833333333334" font-size="11" fill="#b6ad99" text-anchor="middle">banqiao</text>
<circle cx="-55" cy="898.3333333333333" r="238.33333333333334" fill="none" stroke="#c9c2b2" stroke-dasharray="6 5"/>
<text x="-55" y="898.3333333333333" font-size="11" fill="#b6ad99" text-anchor="middle">zhonghe</text>
<circle cx="91.66666666666663" cy="797.5" r="183.33333333333334" fill="none" stroke="#c9c2b2" stroke-dasharray="6 5"/>
<text x="91.66666666666663" y="797.5" font-size="11" fill="#b6ad99" text-anchor="middle">yonghe</text>
<circle cx="-311.66666666666674" cy="999.1666666666667" r="183.33333333333334" fill="none" stroke="#c9c2b2" stroke-dasharray="6 5"/>
<text x="-311.66666666666674" y="999.1666666666667" font-size="11" fill="#b6ad99" text-anchor="middle">tucheng-sanxia</text>
<circle cx="339.1666666666667" cy="1210" r="256.6666666666667" fill="none" stroke="#c9c2b2" stroke-dasharray="6 5"/>
<text x="339.1666666666667" y="1210" font-size="11" fill="#b6ad99" text-anchor="middle">xindian</text>
<circle cx="1265" cy="256.66666666666663" r="220" fill="none" stroke="#c9c2b2" stroke-dasharray="6 5"/>
<text x="1265" y="256.66666666666663" font-size="11" fill="#b6ad99" text-anchor="middle">xizhi</text>
<circle cx="54.99999999999994" cy="-247.5" r="183.33333333333334" fill="none" stroke="#c9c2b2" stroke-dasharray="6 5"/>
<text x="54.99999999999994" y="-247.5" font-size="11" fill="#b6ad99" text-anchor="middle">beitou</text>
<circle cx="192.5" cy="-201.66666666666663" r="183.33333333333334" fill="none" stroke="#c9c2b2" stroke-dasharray="6 5"/>
<text x="192.5" y="-201.66666666666663" font-size="11" fill="#b6ad99" text-anchor="middle">tianmu</text>
<circle cx="366.66666666666663" cy="-504.16666666666674" r="458.33333333333337" fill="#c1a97e" fill-opacity="0.25" stroke="#a8895c"/>
<circle cx="366.66666666666663" cy="-504.16666666666674" r="2.5" fill="#8a6b3f"/>
<circle cx="687.5" cy="-595.8333333333335" r="385.00000000000006" fill="#c1a97e" fill-opacity="0.25" stroke="#a8895c"/>
<circle cx="687.5" cy="-595.8333333333335" r="2.5" fill="#8a6b3f"/>
<circle cx="137.5" cy="-366.66666666666674" r="366.6666666666667" fill="#c1a97e" fill-opacity="0.25" stroke="#a8895c"/>
<circle cx="137.5" cy="-366.66666666666674" r="2.5" fill="#8a6b3f"/>
<circle cx="962.5" cy="-412.5" r="330" fill="#c1a97e" fill-opacity="0.25" stroke="#a8895c"/>
<circle cx="962.5" cy="-412.5" r="2.5" fill="#8a6b3f"/>
<circle cx="504.1666666666667" cy="-687.5" r="293.33333333333337" fill="#c1a97e" fill-opacity="0.25" stroke="#a8895c"/>
<circle cx="504.1666666666667" cy="-687.5" r="2.5" fill="#8a6b3f"/>
<circle cx="779.1666666666667" cy="1191.6666666666667" r="421.66666666666663" fill="#c1a97e" fill-opacity="0.25" stroke="#a8895c"/>
<circle cx="779.1666666666667" cy="1191.6666666666667" r="2.5" fill="#8a6b3f"/>
<circle cx="1100" cy="1329.1666666666667" r="348.3333333333333" fill="#c1a97e" fill-opacity="0.25" stroke="#a8895c"/>
<circle cx="1100" cy="1329.1666666666667" r="2.5" fill="#8a6b3f"/>
<circle cx="504.1666666666667" cy="1145.8333333333335" r="330" fill="#c1a97e" fill-opacity="0.25" stroke="#a8895c"/>
<circle cx="504.1666666666667" cy="1145.8333333333335" r="2.5" fill="#8a6b3f"/>
<circle cx="229.16666666666663" cy="1100" r="293.33333333333337" fill="#c1a97e" fill-opacity="0.25" stroke="#a8895c"/>
<circle cx="229.16666666666663" cy="1100" r="2.5" fill="#8a6b3f"/>
<circle cx="669.1666666666666" cy="696.6666666666667" r="91.66666666666667" fill="#c1a97e" fill-opacity="0.25" stroke="#a8895c"/>
<circle cx="669.1666666666666" cy="696.6666666666667" r="2.5" fill="#8a6b3f"/>
<circle cx="728.75" cy="765.4166666666667" r="100.83333333333334" fill="#c1a97e" fill-opacity="0.25" stroke="#a8895c"/>
<circle cx="728.75" cy="765.4166666666667" r="2.5" fill="#8a6b3f"/>
<circle cx="774.5833333333334" cy="719.5833333333334" r="73.33333333333334" fill="#c1a97e" fill-opacity="0.25" stroke="#a8895c"/>
<circle cx="774.5833333333334" cy="719.5833333333334" r="2.5" fill="#8a6b3f"/>
<circle cx="795.6666666666667" cy="676.5" r="59.583333333333336" fill="#c1a97e" fill-opacity="0.25" stroke="#a8895c"/>
<circle cx="795.6666666666667" cy="676.5" r="2.5" fill="#8a6b3f"/>
<circle cx="1008.3333333333334" cy="779.1666666666667" r="256.6666666666667" fill="#c1a97e" fill-opacity="0.25" stroke="#a8895c"/>
<circle cx="1008.3333333333334" cy="779.1666666666667" r="2.5" fill="#8a6b3f"/>
<circle cx="1237.5" cy="595.8333333333334" r="275" fill="#c1a97e" fill-opacity="0.25" stroke="#a8895c"/>
<circle cx="1237.5" cy="595.8333333333334" r="2.5" fill="#8a6b3f"/>
<circle cx="870.8333333333334" cy="-137.5" r="256.6666666666667" fill="#c1a97e" fill-opacity="0.25" stroke="#a8895c"/>
<circle cx="870.8333333333334" cy="-137.5" r="2.5" fill="#8a6b3f"/>
<circle cx="1054.1666666666667" cy="45.833333333333314" r="220" fill="#c1a97e" fill-opacity="0.25" stroke="#a8895c"/>
<circle cx="1054.1666666666667" cy="45.833333333333314" r="2.5" fill="#8a6b3f"/>
<circle cx="-550" cy="0" r="311.6666666666667" fill="#c1a97e" fill-opacity="0.25" stroke="#a8895c"/>
<circle cx="-550" cy="0" r="2.5" fill="#8a6b3f"/>
<circle cx="-641.6666666666667" cy="641.6666666666666" r="366.6666666666667" fill="#c1a97e" fill-opacity="0.25" stroke="#a8895c"/>
<circle cx="-641.6666666666667" cy="641.6666666666666" r="2.5" fill="#8a6b3f"/>
<circle cx="1466.6666666666667" cy="550" r="412.5" fill="#c1a97e" fill-opacity="0.25" stroke="#a8895c"/>
<circle cx="1466.6666666666667" cy="550" r="2.5" fill="#8a6b3f"/>
<circle cx="1695.8333333333335" cy="229.16666666666663" r="366.6666666666667" fill="#c1a97e" fill-opacity="0.25" stroke="#a8895c"/>
<circle cx="1695.8333333333335" cy="229.16666666666663" r="2.5" fill="#8a6b3f"/>
<circle cx="1420.8333333333335" cy="916.6666666666667" r="366.6666666666667" fill="#c1a97e" fill-opacity="0.25" stroke="#a8895c"/>
<circle cx="1420.8333333333335" cy="916.6666666666667" r="2.5" fill="#8a6b3f"/>
<circle cx="1650" cy="825" r="330" fill="#c1a97e" fill-opacity="0.25" stroke="#a8895c"/>
<circle cx="1650" cy="825" r="2.5" fill="#8a6b3f"/>
<circle cx="550" cy="1650" r="504.1666666666667" fill="#c1a97e" fill-opacity="0.25" stroke="#a8895c"/>
<circle cx="550" cy="1650" r="2.5" fill="#8a6b3f"/>
<circle cx="870.8333333333334" cy="1787.5" r="421.66666666666663" fill="#c1a97e" fill-opacity="0.25" stroke="#a8895c"/>
<circle cx="870.8333333333334" cy="1787.5" r="2.5" fill="#8a6b3f"/>
<circle cx="275" cy="1741.6666666666667" r="421.66666666666663" fill="#c1a97e" fill-opacity="0.25" stroke="#a8895c"/>
<circle cx="275" cy="1741.6666666666667" r="2.5" fill="#8a6b3f"/>
<circle cx="1100" cy="1558.3333333333335" r="366.6666666666667" fill="#c1a97e" fill-opacity="0.25" stroke="#a8895c"/>
<circle cx="1100" cy="1558.3333333333335" r="2.5" fill="#8a6b3f"/>
<circle cx="-458.33333333333337" cy="1283.3333333333335" r="385.00000000000006" fill="#c1a97e" fill-opacity="0.25" stroke="#a8895c"/>
<circle cx="-458.33333333333337" cy="1283.3333333333335" r="2.5" fill="#8a6b3f"/>
<circle cx="-733.3333333333335" cy="1008.3333333333334" r="366.6666666666667" fill="#c1a97e" fill-opacity="0.25" stroke="#a8895c"/>
<circle cx="-733.3333333333335" cy="1008.3333333333334" r="2.5" fill="#8a6b3f"/>
<circle cx="-320.83333333333337" cy="1512.5" r="348.3333333333333" fill="#c1a97e" fill-opacity="0.25" stroke="#a8895c"/>
<circle cx="-320.83333333333337" cy="1512.5" r="2.5" fill="#8a6b3f"/>
<circle cx="-870.8333333333335" cy="412.5" r="412.5" fill="#c1a97e" fill-opacity="0.25" stroke="#a8895c"/>
<circle cx="-870.8333333333335" cy="412.5" r="2.5" fill="#8a6b3f"/>
<circle cx="-733.3333333333335" cy="137.5" r="366.6666666666667" fill="#c1a97e" fill-opacity="0.25" stroke="#a8895c"/>
<circle cx="-733.3333333333335" cy="137.5" r="2.5" fill="#8a6b3f"/>
<circle cx="366.66666666666663" cy="-870.8333333333335" r="458.33333333333337" fill="#c1a97e" fill-opacity="0.25" stroke="#a8895c"/>
<circle cx="366.66666666666663" cy="-870.8333333333335" r="2.5" fill="#8a6b3f"/>
<circle cx="779.1666666666667" cy="-825" r="385.00000000000006" fill="#c1a97e" fill-opacity="0.25" stroke="#a8895c"/>
<circle cx="779.1666666666667" cy="-825" r="2.5" fill="#8a6b3f"/>
<circle cx="0" cy="-687.5" r="366.6666666666667" fill="#c1a97e" fill-opacity="0.25" stroke="#a8895c"/>
<circle cx="0" cy="-687.5" r="2.5" fill="#8a6b3f"/>
<circle cx="284.1666666666667" cy="595.8333333333334" r="105.41666666666666" fill="#79b55a" fill-opacity="0.45" stroke="#579a41"/>
<circle cx="192.5" cy="91.66666666666663" r="64.16666666666667" fill="#79b55a" fill-opacity="0.45" stroke="#579a41"/>
<circle cx="469.3333333333333" cy="440" r="36.66666666666667" fill="#79b55a" fill-opacity="0.45" stroke="#579a41"/>
<circle cx="517.9166666666666" cy="462.9166666666667" r="27.5" fill="#79b55a" fill-opacity="0.45" stroke="#579a41"/>
<circle cx="45.833333333333314" cy="458.3333333333333" r="45.833333333333336" fill="#79b55a" fill-opacity="0.45" stroke="#579a41"/>
<circle cx="664.5833333333334" cy="692.0833333333334" r="114.58333333333334" fill="#79b55a" fill-opacity="0.45" stroke="#579a41"/>
<circle cx="760.8333333333333" cy="728.75" r="123.75000000000001" fill="#79b55a" fill-opacity="0.45" stroke="#579a41"/>
<circle cx="-146.66666666666663" cy="201.66666666666669" r="77.91666666666667" fill="#79b55a" fill-opacity="0.45" stroke="#579a41"/>
<circle cx="-174.16666666666674" cy="605" r="77.91666666666667" fill="#79b55a" fill-opacity="0.45" stroke="#579a41"/>
<circle cx="311.66666666666663" cy="146.66666666666663" r="82.5" fill="#79b55a" fill-opacity="0.45" stroke="#579a41"/>
<circle cx="678.3333333333334" cy="238.33333333333331" r="73.33333333333334" fill="#79b55a" fill-opacity="0.45" stroke="#579a41"/>
<circle cx="-82.50000000000011" cy="660" r="50.41666666666667" fill="#79b55a" fill-opacity="0.45" stroke="#579a41"/>
<circle cx="119.16666666666663" cy="751.6666666666667" r="45.833333333333336" fill="#79b55a" fill-opacity="0.45" stroke="#579a41"/>
<path d="M-110.0,825.0 L-128.3,550.0 L-165.0,275.0 L-238.3,0.0 L-366.7,-293.3 L-458.3,-394.2" fill="none" stroke="#5ec4cc" stroke-width="113.66666666666667" stroke-linecap="round" stroke-linejoin="round"/>
<path d="M137.5,1237.5 L73.3,962.5 L-18.3,779.2 L-91.7,641.7 L-119.2,550.0" fill="none" stroke="#5ec4cc" stroke-width="77" stroke-linecap="round" stroke-linejoin="round"/>
<path d="M1237.5,687.5 L1054.2,504.2 L870.8,320.8 L687.5,192.5 L476.7,137.5 L247.5,146.7 L73.3,210.8 L-119.2,100.8 L-238.3,0.0" fill="none" stroke="#5ec4cc" stroke-width="82.5" stroke-linecap="round" stroke-linejoin="round"/>
<path d="M-91.7,458.3 L110.0,467.5 L293.3,458.3 L394.2,410.7 L600.4,407.9 L751.7,444.6 L935.0,517.9" fill="none" stroke="#8e8878" stroke-width="31.16666666666667" stroke-linecap="round" stroke-linejoin="round"/>
<path d="M-36.7,582.1 L220.0,522.5 L417.1,479.0 L462.9,478.0 L508.8,476.7" fill="none" stroke="#8e8878" stroke-width="25.66666666666667" stroke-linecap="round" stroke-linejoin="round"/>
<path d="M-55.0,641.7 L275.0,641.7 L403.3,610.5 L495.0,606.8 L605.0,606.8 L687.5,614.2 L770.0,641.7" fill="none" stroke="#8e8878" stroke-width="22" stroke-linecap="round" stroke-linejoin="round"/>
<path d="M-73.3,724.2 L275.0,733.3 L550.0,737.9 L618.8,737.9" fill="none" stroke="#8e8878" stroke-width="20.166666666666668" stroke-linecap="round" stroke-linejoin="round"/>
<path d="M-18.3,320.8 L229.2,311.7 L458.3,307.1 L696.7,311.7 L843.3,320.8" fill="none" stroke="#8e8878" stroke-width="23.833333333333336" stroke-linecap="round" stroke-linejoin="round"/>
<path d="M-18.3,394.2 L275.0,389.6 L394.2,320.8 L550.0,320.8 L788.3,339.2" fill="none" stroke="#8e8878" stroke-width="20.166666666666668" stroke-linecap="round" stroke-linejoin="round"/>
<path d="M128.3,751.7 L137.5,476.7 L151.3,275.0 L165.0,91.7" fill="none" stroke="#8e8878" stroke-width="27.5" stroke-linecap="round" stroke-linejoin="round"/>
<path d="M458.3,770.0 L458.3,550.0 L458.3,311.7 L467.5,165.0" fill="none" stroke="#8e8878" stroke-width="25.66666666666667" stroke-linecap="round" stroke-linejoin="round"/>
<path d="M357.5,770.0 L362.1,504.2 L366.7,302.5" fill="none" stroke="#8e8878" stroke-width="20.166666666666668" stroke-linecap="round" stroke-linejoin="round"/>
<path d="M-45.8,788.3 L-36.7,568.3 L-45.8,385.0" fill="none" stroke="#8e8878" stroke-width="20.166666666666668" stroke-linecap="round" stroke-linejoin="round"/>
<path d="M641.7,357.5 L575.7,407.9 L499.6,456.5 L476.7,517.9 L469.3,606.8 L449.2,673.8" fill="none" stroke="#8e8878" stroke-width="23.833333333333336" stroke-linecap="round" stroke-linejoin="round"/>
<path d="M91.7,595.8 L55.0,751.7 L18.3,916.7" fill="none" stroke="#8e8878" stroke-width="20.166666666666668" stroke-linecap="round" stroke-linejoin="round"/>
<path d="M429.0,339.2 L430.8,410.7 L432.7,478.5 L434.5,610.5" fill="none" stroke="#8e8878" stroke-width="18.333333333333336" stroke-linecap="round" stroke-linejoin="round"/>
<path d="M630.7,357.5 L630.7,407.9 L630.7,504.2 L630.7,606.8" fill="none" stroke="#8e8878" stroke-width="16.5" stroke-linecap="round" stroke-linejoin="round"/>
<path d="M484.0,498.7 L568.3,498.7 L630.7,498.7" fill="none" stroke="#8e8878" stroke-width="14.666666666666668" stroke-linecap="round" stroke-linejoin="round"/>
<path d="M183.3,-18.3 L137.5,183.3 L110.0,366.7 L137.5,504.2 L275.0,595.8 L403.3,614.2 L495.0,610.5 L605.0,610.5 L687.5,617.8 L733.3,650.8" fill="none" stroke="#E3002C" stroke-width="1.6" stroke-opacity="0.85"/>
<path d="M-55.0,513.3 L110.0,504.2 L293.3,462.9 L394.2,414.3 L600.4,411.6 L751.7,447.3 L1100.0,458.3" fill="none" stroke="#0070BD" stroke-width="1.6" stroke-opacity="0.85"/>
<path d="M128.3,916.7 L155.8,641.7 L128.3,513.3 L275.0,440.0 L458.3,366.7 L669.2,375.8" fill="none" stroke="#1DA742" stroke-width="1.6" stroke-opacity="0.85"/>
<path d="M275.0,916.7 L320.8,660.0 L293.3,458.3 L183.3,275.0 L36.7,330.0" fill="none" stroke="#F8B61C" stroke-width="1.6" stroke-opacity="0.85"/>
<path d="M660.0,935.0 L495.0,660.0 L421.7,375.8 L458.3,183.3 L485.8,45.8" fill="none" stroke="#C48C31" stroke-width="1.6" stroke-opacity="0.85"/>
<path d="M722.3,643.5 L719.1,646.8 L715.8,650.3 L712.6,653.6 L709.4,656.9 L705.8,660.0 L701.3,660.3 L696.8,659.8 L692.2,659.3 L687.6,658.8 L682.8,658.6 L678.1,658.9 L673.3,659.5 L668.6,660.6 L664.0,662.3 L659.8,664.5 L658.1,666.2 L662.7,666.0 L667.1,666.5 L671.8,667.6 L676.3,669.4 L680.2,671.8 L683.8,674.9 L686.7,678.5 L689.0,682.5 L690.4,687.1 L691.0,691.0 L688.0,686.4 L684.5,683.1 L680.4,680.6 L675.8,679.3 L671.2,679.2 L666.5,680.3 L663.8,682.0 L668.3,681.9 L673.0,682.9 L675.4,686.0 L673.6,690.3 L671.5,694.6 L670.8,696.0" fill="none" stroke="#4a4438" stroke-width="1.4" stroke-dasharray="2 3"/>
<circle cx="550" cy="550" r="4" fill="#232019"/>
<text x="556" y="546" font-size="11" fill="#232019">Taipei 101</text>
<circle cx="557.3333333333334" cy="449.16666666666663" r="4" fill="#232019"/>
<text x="563.3333333333334" y="445.16666666666663" font-size="11" fill="#232019">Taipei City Hall</text>
<circle cx="465.66666666666663" cy="438.16666666666663" r="4" fill="#232019"/>
<text x="471.66666666666663" y="434.16666666666663" font-size="11" fill="#232019">Sun Yat-sen Hall</text>
<circle cx="472.0833333333333" cy="368.5" r="4" fill="#232019"/>
<text x="478.0833333333333" y="364.5" font-size="11" fill="#232019">Taipei Dome</text>
<circle cx="522.5" cy="478.5" r="4" fill="#232019"/>
<text x="528.5" y="474.5" font-size="11" fill="#232019">Grand Hyatt Taipei</text>
<circle cx="610.5" cy="513.3333333333334" r="4" fill="#232019"/>
<text x="616.5" y="509.33333333333337" font-size="11" fill="#232019">Breeze Nan Shan</text>
<circle cx="591.25" cy="489.5" r="4" fill="#232019"/>
<text x="597.25" y="485.5" font-size="11" fill="#232019">Mitsukoshi A11</text>
<circle cx="412.5" cy="375.83333333333337" r="4" fill="#232019"/>
<text x="418.5" y="371.83333333333337" font-size="11" fill="#232019">Taipei Arena</text>
<circle cx="669.1666666666666" cy="375.83333333333337" r="4" fill="#232019"/>
<text x="675.1666666666666" y="371.83333333333337" font-size="11" fill="#232019">Raohe Night Market</text>
<circle cx="155.83333333333331" cy="540.8333333333334" r="4" fill="#232019"/>
<text x="161.83333333333331" y="536.8333333333334" font-size="11" fill="#232019">CKS Memorial Hall</text>
<circle cx="64.16666666666669" cy="485.8333333333333" r="4" fill="#232019"/>
<text x="70.16666666666669" y="481.8333333333333" font-size="11" fill="#232019">Presidential Office</text>
<circle cx="110" cy="407.91666666666663" r="4" fill="#232019"/>
<text x="116" y="403.91666666666663" font-size="11" fill="#232019">Taipei Main Station</text>
<circle cx="-4.583333333333371" cy="522.5" r="4" fill="#232019"/>
<text x="1.4166666666666288" y="518.5" font-size="11" fill="#232019">Longshan Temple</text>
<circle cx="64.16666666666669" cy="169.58333333333326" r="4" fill="#232019"/>
<text x="70.16666666666669" y="165.58333333333326" font-size="11" fill="#232019">Bao’an Temple</text>
<circle cx="192.5" cy="82.5" r="4" fill="#232019"/>
<text x="198.5" y="78.5" font-size="11" fill="#232019">Grand Hotel</text>
<circle cx="146.66666666666663" cy="-32.08333333333337" r="4" fill="#232019"/>
<text x="152.66666666666663" y="-36.08333333333337" font-size="11" fill="#232019">Shilin Night Market</text>
<circle cx="485.8333333333333" cy="50.41666666666663" r="4" fill="#232019"/>
<text x="491.8333333333333" y="46.41666666666663" font-size="11" fill="#232019">Miramar Ferris Wheel</text>
<circle cx="403.3333333333333" cy="-146.66666666666663" r="4" fill="#232019"/>
<text x="409.3333333333333" y="-150.66666666666663" font-size="11" fill="#232019">Palace Museum</text>
<circle cx="582.0833333333334" cy="623.3333333333334" r="2" fill="#6b6455"/>
<circle cx="861.6666666666667" cy="531.6666666666666" r="2" fill="#6b6455"/>
<circle cx="247.5" cy="440" r="2" fill="#6b6455"/>
<circle cx="440" cy="394.16666666666663" r="2" fill="#6b6455"/>
<circle cx="366.66666666666663" cy="669.1666666666666" r="2" fill="#6b6455"/>
<circle cx="595.8333333333334" cy="275" r="2" fill="#6b6455"/>
<circle cx="614.1666666666666" cy="421.66666666666663" r="2" fill="#6b6455"/>
<circle cx="210.83333333333331" cy="605" r="2" fill="#6b6455"/>
<circle cx="458.3333333333333" cy="760.8333333333333" r="2" fill="#6b6455"/>
<circle cx="320.8333333333333" cy="302.5" r="2" fill="#6b6455"/>
<path d="M544.6333333333333,543.075 L554.6333333333333,553.075 M544.6333333333333,553.075 L554.6333333333333,543.075" stroke="#d81b9f" stroke-width="1.6"/>
<text x="555.6333333333333" y="560.075" font-size="9" fill="#d81b9f">taipei-101</text>
<path d="M544.725,506.31666666666666 L554.725,516.3166666666666 M544.725,516.3166666666666 L554.725,506.31666666666666" stroke="#d81b9f" stroke-width="1.6"/>
<text x="555.725" y="523.3166666666666" font-size="9" fill="#d81b9f">city-hall</text>
<path d="M506.1333333333333,481.01666666666665 L516.1333333333333,491.01666666666665 M506.1333333333333,491.01666666666665 L516.1333333333333,481.01666666666665" stroke="#d81b9f" stroke-width="1.6"/>
<text x="517.1333333333333" y="498.01666666666665" font-size="9" fill="#d81b9f">sun-yat-sen-hall</text>
<path d="M499.5333333333333,456.9083333333333 L509.5333333333333,466.9083333333333 M499.5333333333333,466.9083333333333 L509.5333333333333,456.9083333333333" stroke="#d81b9f" stroke-width="1.6"/>
<text x="510.5333333333333" y="473.9083333333333" font-size="9" fill="#d81b9f">taipei-dome</text>
<path d="M534.55,529.4166666666666 L544.55,539.4166666666666 M534.55,539.4166666666666 L544.55,529.4166666666666" stroke="#d81b9f" stroke-width="1.6"/>
<text x="545.55" y="546.4166666666666" font-size="9" fill="#d81b9f">grand-hyatt</text>
<path d="M561.5916666666667,538.0333333333333 L571.5916666666667,548.0333333333333 M561.5916666666667,548.0333333333333 L571.5916666666667,538.0333333333333" stroke="#d81b9f" stroke-width="1.6"/>
<text x="572.5916666666667" y="555.0333333333333" font-size="9" fill="#d81b9f">breeze-nanshan</text>
<path d="M412.08333333333337,372.48333333333335 L422.08333333333337,382.48333333333335 M412.08333333333337,382.48333333333335 L422.08333333333337,372.48333333333335" stroke="#d81b9f" stroke-width="1.6"/>
<text x="423.08333333333337" y="389.48333333333335" font-size="9" fill="#d81b9f">taipei-arena</text>
<path d="M642.7166666666667,372.85 L652.7166666666667,382.85 M642.7166666666667,382.85 L652.7166666666667,372.85" stroke="#d81b9f" stroke-width="1.6"/>
<text x="653.7166666666667" y="389.85" font-size="9" fill="#d81b9f">raohe-night-market</text>
<path d="M150.375,535.4666666666667 L160.375,545.4666666666667 M150.375,545.4666666666667 L160.375,535.4666666666667" stroke="#d81b9f" stroke-width="1.6"/>
<text x="161.375" y="552.4666666666667" font-size="9" fill="#d81b9f">cks-memorial</text>
<path d="M59.349999999999966,481.2 L69.34999999999997,491.2 M59.349999999999966,491.2 L69.34999999999997,481.2" stroke="#d81b9f" stroke-width="1.6"/>
<text x="70.34999999999997" y="498.2" font-size="9" fill="#d81b9f">presidential-office</text>
<path d="M106.92500000000001,402.91666666666663 L116.92500000000001,412.91666666666663 M106.92500000000001,412.91666666666663 L116.92500000000001,402.91666666666663" stroke="#d81b9f" stroke-width="1.6"/>
<text x="117.92500000000001" y="419.91666666666663" font-size="9" fill="#d81b9f">main-station</text>
<path d="M-52.48333333333335,508.79166666666663 L-42.48333333333335,518.7916666666666 M-52.48333333333335,518.7916666666666 L-42.48333333333335,508.79166666666663" stroke="#d81b9f" stroke-width="1.6"/>
<text x="-41.48333333333335" y="525.7916666666666" font-size="9" fill="#d81b9f">longshan-temple</text>
<path d="M192.63333333333333,88.59166666666664 L202.63333333333333,98.59166666666664 M192.63333333333333,98.59166666666664 L202.63333333333333,88.59166666666664" stroke="#d81b9f" stroke-width="1.6"/>
<text x="203.63333333333333" y="105.59166666666664" font-size="9" fill="#d81b9f">grand-hotel</text>
<path d="M179.70833333333331,-7.841666666666697 L189.70833333333331,2.158333333333303 M179.70833333333331,2.158333333333303 L189.70833333333331,-7.841666666666697" stroke="#d81b9f" stroke-width="1.6"/>
<text x="190.70833333333331" y="9.158333333333303" font-size="9" fill="#d81b9f">shilin-night-market</text>
<path d="M399.70833333333337,-143.05000000000007 L409.70833333333337,-133.05000000000007 M399.70833333333337,-133.05000000000007 L409.70833333333337,-143.05000000000007" stroke="#d81b9f" stroke-width="1.6"/>
<text x="410.70833333333337" y="-126.05000000000007" font-size="9" fill="#d81b9f">palace-museum</text>
<path d="M479.9166666666667,42.39166666666665 L489.9166666666667,52.39166666666665 M479.9166666666667,52.39166666666665 L489.9166666666667,42.39166666666665" stroke="#d81b9f" stroke-width="1.6"/>
<text x="490.9166666666667" y="59.39166666666665" font-size="9" fill="#d81b9f">miramar-ferris-wheel</text>
<path d="M92.4416666666666,145.7 L102.4416666666666,155.7 M92.4416666666666,155.7 L102.4416666666666,145.7" stroke="#d81b9f" stroke-width="1.6"/>
<text x="103.4416666666666" y="162.7" font-size="9" fill="#d81b9f">baoan-temple</text>
<path d="M274.30833333333334,585.8833333333333 L284.30833333333334,595.8833333333333 M274.30833333333334,595.8833333333333 L284.30833333333334,585.8833333333333" stroke="#d81b9f" stroke-width="1.6"/>
<path d="M89.41666666666669,465.3416666666667 L99.41666666666669,475.3416666666667 M89.41666666666669,475.3416666666667 L99.41666666666669,465.3416666666667" stroke="#d81b9f" stroke-width="1.6"/>
<path d="M647.1166666666667,617.6 L657.1166666666667,627.6 M647.1166666666667,627.6 L657.1166666666667,617.6" stroke="#d81b9f" stroke-width="1.6"/>
<path d="M728.6083333333333,678.4666666666667 L738.6083333333333,688.4666666666667 M728.6083333333333,688.4666666666667 L738.6083333333333,678.4666666666667" stroke="#d81b9f" stroke-width="1.6"/>
<path d="M442.7,-843.6583333333333 L452.7,-833.6583333333333 M442.7,-833.6583333333333 L452.7,-843.6583333333333" stroke="#d81b9f" stroke-width="1.6"/>
<text x="453.7" y="-826.6583333333333" font-size="9" fill="#d81b9f">qixingshan</text>
<path d="M153.8583333333333,-925.1500000000001 L163.8583333333333,-915.1500000000001 M153.8583333333333,-915.1500000000001 L163.8583333333333,-925.1500000000001" stroke="#d81b9f" stroke-width="1.6"/>
<text x="164.8583333333333" y="-908.1500000000001" font-size="9" fill="#d81b9f">datun</text>
<path d="M-729.2583333333334,-491.29166666666674 L-719.2583333333334,-481.29166666666674 M-729.2583333333334,-481.29166666666674 L-719.2583333333334,-491.29166666666674" stroke="#d81b9f" stroke-width="1.6"/>
<text x="-718.2583333333334" y="-474.29166666666674" font-size="9" fill="#d81b9f">guanyinshan</text>
<path d="M763.2583333333333,1202.8916666666667 L773.2583333333333,1212.8916666666667 M763.2583333333333,1212.8916666666667 L773.2583333333333,1202.8916666666667" stroke="#d81b9f" stroke-width="1.6"/>
<text x="774.2583333333333" y="1219.8916666666667" font-size="9" fill="#d81b9f">maokong</text>
<path d="M21.5,398.0 L279.2,466.3 L619.1,481.4 L677.7,475.3 L730.1,415.8 L765.9,395.0 L837.4,377.1 L1024.2,353.2" fill="none" stroke="#d81b9f" stroke-width="1.3" stroke-opacity="0.85"/>
<path d="M124.4,494.4 L186.1,503.2 L202.9,503.9 L241.9,504.0 L272.4,505.1 L401.2,507.5 L529.8,510.9" fill="none" stroke="#d81b9f" stroke-width="1.3" stroke-opacity="0.85"/>
<path d="M-438.4,951.1 L-415.4,986.1 L-244.7,36.1 L136.9,510.1 L208.8,546.5 L254.3,550.9 L618.2,559.4 L671.2,528.9" fill="none" stroke="#d81b9f" stroke-width="1.3" stroke-opacity="0.85"/>
<path d="M-134.0,531.4 L-11.9,539.3 L117.5,620.0 L334.9,623.9 L439.9,646.2 L638.6,899.7" fill="none" stroke="#d81b9f" stroke-width="1.3" stroke-opacity="0.85"/>
<path d="M30.7,349.3 L88.4,344.1 L141.1,357.9 L161.0,361.7 L176.4,362.8 L605.5,371.3 L793.1,263.0" fill="none" stroke="#d81b9f" stroke-width="1.3" stroke-opacity="0.85"/>
<path d="M230.3,449.3 L268.0,438.3 L301.1,423.0 L378.3,404.4 L490.4,402.9 L616.5,385.7 L674.5,384.1 L712.1,371.5" fill="none" stroke="#d81b9f" stroke-width="1.3" stroke-opacity="0.85"/>
<path d="M-548.7,-1102.5 L-560.5,-925.0 L-588.0,-878.1 L255.8,-370.5 L186.8,-207.3 L212.5,-57.6 L160.8,366.9 L108.3,533.0" fill="none" stroke="#d81b9f" stroke-width="1.3" stroke-opacity="0.85"/>
<path d="M404.2,676.3 L404.8,604.9 L410.4,580.8 L404.8,552.1 L407.1,306.8 L410.6,295.3 L422.3,270.8 L433.5,253.5" fill="none" stroke="#d81b9f" stroke-width="1.3" stroke-opacity="0.85"/>
<path d="M354.5,672.0 L356.1,599.8 L349.7,576.4 L356.8,554.9 L357.0,538.7 L354.9,525.3 L357.8,505.4 L363.3,222.0" fill="none" stroke="#d81b9f" stroke-width="1.3" stroke-opacity="0.85"/>
<path d="M41.6,637.5 L13.0,613.3 L-5.6,589.8 L-6.8,573.3 L9.2,538.4 L16.1,517.9 L44.2,411.6" fill="none" stroke="#d81b9f" stroke-width="1.3" stroke-opacity="0.85"/>
<path d="M260.8,798.4 L279.9,785.0 L315.2,768.5 L344.9,747.0 L349.7,730.0 L473.7,611.2 L541.8,491.8 L602.3,377.2" fill="none" stroke="#d81b9f" stroke-width="1.3" stroke-opacity="0.85"/>
<path d="M113.0,545.5 L185.9,653.1 L299.4,779.7 L313.6,836.0 L315.2,917.5 L332.4,929.0 L333.6,949.7 L320.3,996.0" fill="none" stroke="#d81b9f" stroke-width="1.3" stroke-opacity="0.85"/>
<path d="M458.4,264.1 L468.0,322.2 L472.2,339.3 L480.1,357.8 L487.9,372.7 L487.9,448.4 L484.9,560.9 L485.2,587.7" fill="none" stroke="#d81b9f" stroke-width="1.3" stroke-opacity="0.85"/>
<path d="M586.9,479.3 L586.3,496.2 L586.0,520.7 L585.2,568.9 L585.7,588.9 L585.6,605.9 L586.7,622.8 L596.9,643.0" fill="none" stroke="#d81b9f" stroke-width="1.3" stroke-opacity="0.85"/>
<path d="M526.5,527.4 L540.3,527.6 L561.0,528.0 L580.5,528.4" fill="none" stroke="#d81b9f" stroke-width="1.3" stroke-opacity="0.85"/>
<path d="M-2.1,392.0 L34.5,379.6 L275.3,435.9 L441.3,441.6 L550.2,430.3 L600.2,393.1 L694.2,393.7 L1023.6,339.8" fill="none" stroke="#d81b9f" stroke-width="1.3" stroke-opacity="0.85"/>
<path d="M63.4,253.7 L421.1,267.7 L494.2,261.1 L624.3,235.4 L728.6,196.0 L815.2,193.4 L874.9,213.9 L926.7,155.4" fill="none" stroke="#d81b9f" stroke-width="1.3" stroke-opacity="0.85"/>
<path d="M36.8,315.0 L96.2,313.8 L163.9,304.6 L183.1,303.0 L314.1,305.0 L405.1,306.8 L459.4,301.3 L583.9,291.3" fill="none" stroke="#d81b9f" stroke-width="1.3" stroke-opacity="0.85"/>
<path d="M211.8,175.2 L210.8,367.9 L228.9,403.6 L257.7,435.1 L256.2,549.6 L276.1,622.3 L269.6,678.6 L259.4,721.5" fill="none" stroke="#d81b9f" stroke-width="1.3" stroke-opacity="0.85"/>
<path d="M268.7,207.9 L288.9,227.1 L295.8,243.6 L292.5,447.4 L304.3,504.6 L303.3,557.2 L305.3,576.1 L301.4,653.7" fill="none" stroke="#d81b9f" stroke-width="1.3" stroke-opacity="0.85"/>
<path d="M-44.2,-331.9 L54.9,-231.5 L69.4,-121.9 L102.6,-34.7 L148.4,-10.8 L169.1,24.5 L126.2,162.2 L107.5,390.0" fill="none" stroke="#d81b9f" stroke-width="1.3" stroke-opacity="0.85"/>
<path d="M134.9,-156.1 L148.4,-142.5" fill="none" stroke="#d81b9f" stroke-width="1.3" stroke-opacity="0.85"/>
<path d="M44.5,-251.4 L94.0,-277.8 L103.7,-292.1 L114.1,-304.2 L135.0,-311.9 L154.5,-316.3 L173.5,-345.2 L189.7,-361.3" fill="none" stroke="#d81b9f" stroke-width="1.3" stroke-opacity="0.85"/>
<path d="M195.1,-164.8 L219.4,-177.0 L230.5,-194.0 L241.3,-248.0 L251.8,-265.6 L261.3,-277.8 L272.4,-298.6" fill="none" stroke="#d81b9f" stroke-width="1.3" stroke-opacity="0.85"/>
<path d="M502.1,31.2 L683.1,93.7 L702.8,62.2 L718.9,70.9 L736.8,47.9 L775.1,63.8 L810.8,31.9" fill="none" stroke="#d81b9f" stroke-width="1.3" stroke-opacity="0.85"/>
<path d="M796.5,270.1 L784.5,85.0 L842.0,95.8 L876.2,95.8 L874.2,70.7 L897.1,64.2 L914.3,49.7" fill="none" stroke="#d81b9f" stroke-width="1.3" stroke-opacity="0.85"/>
<path d="M728.6,363.7 L746.4,356.0 L782.5,351.2 L819.4,339.4 L893.5,349.5 L991.2,331.1 L1057.9,336.1" fill="none" stroke="#d81b9f" stroke-width="1.3" stroke-opacity="0.85"/>
<path d="M1030.2,451.8 L1021.7,434.0 L1021.2,414.8 L1024.6,396.7 L1023.0,378.3 L1028.1,357.2 L1031.1,338.2" fill="none" stroke="#d81b9f" stroke-width="1.3" stroke-opacity="0.85"/>
<path d="M-358.5,464.5 L-328.7,429.8 L-261.4,405.0 L-172.9,328.2 L-164.8,315.2 L-115.0,276.6 L-26.5,245.3" fill="none" stroke="#d81b9f" stroke-width="1.3" stroke-opacity="0.85"/>
<path d="M-435.0,788.1 L-412.5,760.6 L-358.1,686.2 L-339.4,653.7 L-315.0,606.0 L-302.6,588.9 L-256.2,533.1 L-236.0,526.5" fill="none" stroke="#d81b9f" stroke-width="1.3" stroke-opacity="0.85"/>
<path d="M306.3,1303.4 L334.9,1226.9 L346.4,1189.9 L350.0,1175.8 L350.5,1140.5 L349.9,1124.5 L332.1,1048.8" fill="none" stroke="#d81b9f" stroke-width="1.3" stroke-opacity="0.85"/>
<path d="M-47.9,860.7 L69.7,847.4 L73.9,834.2 L78.6,816.7 L86.3,794.6 L90.1,779.4 L95.7,758.5 L100.9,737.5" fill="none" stroke="#d81b9f" stroke-width="1.3" stroke-opacity="0.85"/>
<path d="M-77.7,859.9 L-73.2,881.7 L-55.6,899.9 L-34.4,934.9 L-15.9,954.3 L127.1,975.0 L159.2,986.0 L198.5,991.9" fill="none" stroke="#d81b9f" stroke-width="1.3" stroke-opacity="0.85"/>
<path d="M1079.2,334.9 L1145.5,343.9 L1192.6,309.8 L1427.7,208.2 L1471.3,174.3 L1490.0,124.1 L1519.7,105.4 L1617.3,170.4" fill="none" stroke="#d81b9f" stroke-width="1.3" stroke-opacity="0.85"/>
<path d="M-405.1,-56.0 L-389.5,-40.2 L-374.5,-32.1 L-353.8,-24.9 L-339.1,-15.6 L-295.0,23.4 L-279.2,38.2 L-270.2,56.4" fill="none" stroke="#d81b9f" stroke-width="1.3" stroke-opacity="0.85"/>
<path d="M-873.9,678.0 L-821.5,645.7 L-793.7,609.4 L-656.8,562.5 L-506.7,530.4 L-467.0,644.0 L-454.9,541.8 L-421.5,503.3" fill="none" stroke="#d81b9f" stroke-width="1.3" stroke-opacity="0.85"/>
<path d="M-800.4,1305.4 L-767.3,1281.0 L-714.6,1255.7 L-647.5,1236.5 L-619.3,1213.4 L-585.2,1149.1 L-561.0,1049.9 L-513.9,967.8" fill="none" stroke="#d81b9f" stroke-width="1.3" stroke-opacity="0.85"/>
<path d="M-151.8,442.2 L0.8,312.8 L22.4,183.1 L-7.4,54.3 L-159.0,-95.5 L-399.9,-185.4 L-482.4,-563.9 L-592.3,-769.7 L-758.5,-845.2 L-1006.6,-909.9" fill="none" stroke="#d81b9f" stroke-width="1.3" stroke-opacity="0.85" stroke-dasharray="8 5"/>
<path d="M248.6,1637.4 L179.4,1452.3 L287.6,1440.5 L307.7,1530.7 L374.4,1455.2 L143.5,1082.6 L264.6,849.9 L87.0,673.3 L-123.8,779.8 L-151.8,442.2" fill="none" stroke="#d81b9f" stroke-width="1.3" stroke-opacity="0.85" stroke-dasharray="8 5"/>
<path d="M2610.1,395.4 L2925.8,297.9 L3002.0,-177.0 L2090.6,-237.1 L1810.2,76.8 L639.6,366.9 L598.0,124.2 L197.1,153.8 L-110.0,-261.7 L-402.6,-274.7" fill="none" stroke="#d81b9f" stroke-width="1.3" stroke-opacity="0.85" stroke-dasharray="8 5"/>
<path d="M-10.1,382.3 L-15.6,378.9 L-21.4,375.4 L-76.2,341.9" fill="none" stroke="#d81b9f" stroke-width="1.3" stroke-opacity="0.85"/>
<path d="M363.8,88.1 L362.9,131.0 L363.0,136.5 L362.7,151.5" fill="none" stroke="#d81b9f" stroke-width="1.3" stroke-opacity="0.85"/>
<path d="M611.3,238.6 L646.7,225.6 L655.8,222.6 L670.1,218.3" fill="none" stroke="#d81b9f" stroke-width="1.3" stroke-opacity="0.85"/>
<path d="M441.875,208.49166666666667 L451.875,218.49166666666667 M441.875,218.49166666666667 L451.875,208.49166666666667" stroke="#d81b9f" stroke-width="1.6"/>
<path d="M558.2,190.8 L451.1,186.5 L408.2,185.0 L320.1,181.5" fill="none" stroke="#d81b9f" stroke-width="1.3" stroke-opacity="0.85"/>
<path d="M570.3916666666667,515.4833333333333 L580.3916666666667,525.4833333333333 M570.3916666666667,525.4833333333333 L580.3916666666667,515.4833333333333" stroke="#d81b9f" stroke-width="1.6"/>
<text x="581.3916666666667" y="532.4833333333333" font-size="9" fill="#d81b9f">mitsukoshi-a11</text>
<path d="M721.6416666666667,569.2916666666666 L731.6416666666667,579.2916666666666 M721.6416666666667,579.2916666666666 L731.6416666666667,569.2916666666666" stroke="#d81b9f" stroke-width="1.6"/>
<path d="M-19.9,243.1 L13.1,246.5" fill="none" stroke="#d81b9f" stroke-width="1.3" stroke-opacity="0.85"/>
<rect x="20" y="1066" width="91.66666666666667" height="4" fill="#232019"/>
<text x="20" y="1060" font-size="12" fill="#232019">1 km </text>
<text x="20" y="24" font-size="14" fill="#232019">grid / raw — game data (grey/green) vs OSM geo-truth (magenta)</text>
</svg>
