<svg xmlns="http://www.w3.org/2000/svg" width="1100" height="1100" viewBox="0 0 1100 1100">
<rect width="1100" height="1100" fill="#f6f3ec"/>
<circle cx="567.4166666666666" cy="538.3888888888889" r="174.16666666666666" fill="none" stroke="#c9c2b2" stroke-dasharray="6 5"/>
<text x="567.4166666666666" y="538.3888888888889" font-size="11" fill="#b6ad99" text-anchor="middle">xinyi</text>
<circle cx="422.27777777777777" cy="584.8333333333334" r="174.16666666666666" fill="none" stroke="#c9c2b2" stroke-dasharray="6 5"/>
<text x="422.27777777777777" y="584.8333333333334" font-size="11" fill="#b6ad99" text-anchor="middle">daan</text>
<circle cx="260.84986992836514" cy="497.9529765871057" r="167.7070754415482" fill="none" stroke="#c9c2b2" stroke-dasharray="6 5"/>
<text x="260.84986992836514" y="497.9529765871057" font-size="11" fill="#b6ad99" text-anchor="middle">zhongzheng</text>
<circle cx="176.71150002981562" cy="538.8570597023826" r="128.1438134226006" fill="none" stroke="#c9c2b2" stroke-dasharray="6 5"/>
<text x="176.71150002981562" y="538.8570597023826" font-size="11" fill="#b6ad99" text-anchor="middle">wanhua</text>
<circle cx="335.30486581521967" cy="399.1331489512354" r="145.0642798545813" fill="none" stroke="#c9c2b2" stroke-dasharray="6 5"/>
<text x="335.30486581521967" y="399.1331489512354" font-size="11" fill="#b6ad99" text-anchor="middle">zhongshan</text>
<circle cx="254.76326600447192" cy="368.31585600275196" r="119.23021949819405" fill="none" stroke="#c9c2b2" stroke-dasharray="6 5"/>
<text x="254.76326600447192" y="368.31585600275196" font-size="11" fill="#b6ad99" text-anchor="middle">datong</text>
<circle cx="654.5" cy="433.8888888888889" r="145.13888888888889" fill="none" stroke="#c9c2b2" stroke-dasharray="6 5"/>
<text x="654.5" y="433.8888888888889" font-size="11" fill="#b6ad99" text-anchor="middle">songshan</text>
<circle cx="351.71908142965856" cy="219.53180238276428" r="115.66386916603251" fill="none" stroke="#c9c2b2" stroke-dasharray="6 5"/>
<text x="351.71908142965856" y="219.53180238276428" font-size="11" fill="#b6ad99" text-anchor="middle">shilin</text>
<circle cx="767.9295370629037" cy="309.13051166731697" r="120.43474416634152" fill="none" stroke="#c9c2b2" stroke-dasharray="6 5"/>
<text x="767.9295370629037" y="309.13051166731697" font-size="11" fill="#b6ad99" text-anchor="middle">neihu</text>
<circle cx="866.2201757712654" cy="521.2527112935213" r="126.4880703085062" fill="none" stroke="#c9c2b2" stroke-dasharray="6 5"/>
<text x="866.2201757712654" y="521.2527112935213" font-size="11" fill="#b6ad99" text-anchor="middle">nangang</text>
<circle cx="252.68529698299295" cy="698.6573515085036" r="114.35180885269502" fill="none" stroke="#c9c2b2" stroke-dasharray="6 5"/>
<text x="252.68529698299295" y="698.6573515085036" font-size="11" fill="#b6ad99" text-anchor="middle">gongguan-guting</text>
<circle cx="150.4126401366198" cy="391.1896390286566" r="133.19578662112673" fill="none" stroke="#c9c2b2" stroke-dasharray="6 5"/>
<text x="150.4126401366198" y="391.1896390286566" font-size="11" fill="#b6ad99" text-anchor="middle">sanchong</text>
<circle cx="150.67804909979094" cy="306.93446466943794" r="104.17094371309803" fill="none" stroke="#c9c2b2" stroke-dasharray="6 5"/>
<text x="150.67804909979094" y="306.93446466943794" font-size="11" fill="#b6ad99" text-anchor="middle">luzhou</text>
<circle cx="87.53518739846942" cy="539.2241208714206" r="98.7788920119774" fill="none" stroke="#c9c2b2" stroke-dasharray="6 5"/>
<text x="87.53518739846942" y="539.2241208714206" font-size="11" fill="#b6ad99" text-anchor="middle">xinzhuang</text>
<circle cx="106.37014182270684" cy="663.21803672233" r="110.90746454432329" fill="none" stroke="#c9c2b2" stroke-dasharray="6 5"/>
<text x="106.37014182270684" y="663.21803672233" font-size="11" fill="#b6ad99" text-anchor="middle">banqiao</text>
<circle cx="196.752935653726" cy="753.3846734114911" r="139.15793443944128" fill="none" stroke="#c9c2b2" stroke-dasharray="6 5"/>
<text x="196.752935653726" y="753.3846734114911" font-size="11" fill="#b6ad99" text-anchor="middle">zhonghe</text>
<circle cx="263.35233012801706" cy="704.7897417308708" r="114.6590679487932" fill="none" stroke="#c9c2b2" stroke-dasharray="6 5"/>
<text x="263.35233012801706" y="704.7897417308708" font-size="11" fill="#b6ad99" text-anchor="middle">yonghe</text>
<circle cx="136.9804950190076" cy="765.2974015326449" r="87.87649042148774" fill="none" stroke="#c9c2b2" stroke-dasharray="6 5"/>
<text x="136.9804950190076" y="765.2974015326449" font-size="11" fill="#b6ad99" text-anchor="middle">tucheng-sanxia</text>
<circle cx="426.5412589817875" cy="936.4795371004914" r="150.2975977613022" fill="none" stroke="#c9c2b2" stroke-dasharray="6 5"/>
<text x="426.5412589817875" y="936.4795371004914" font-size="11" fill="#b6ad99" text-anchor="middle">xindian</text>
<circle cx="948.668809738745" cy="386.4435652353867" r="122.66732607345998" fill="none" stroke="#c9c2b2" stroke-dasharray="6 5"/>
<text x="948.668809738745" y="386.4435652353867" font-size="11" fill="#b6ad99" text-anchor="middle">xizhi</text>
<circle cx="306.4224301015969" cy="157.56947071923946" r="90.21391477718635" fill="none" stroke="#c9c2b2" stroke-dasharray="6 5"/>
<text x="306.4224301015969" y="157.56947071923946" font-size="11" fill="#b6ad99" text-anchor="middle">beitou</text>
<circle cx="358.9109757907721" cy="148.2230773036747" r="97.99437138934765" fill="none" stroke="#c9c2b2" stroke-dasharray="6 5"/>
<text x="358.9109757907721" y="148.2230773036747" font-size="11" fill="#b6ad99" text-anchor="middle">tianmu</text>
<circle cx="468.38281532803285" cy="80.70118813618899" r="204.04296167991782" fill="#c1a97e" fill-opacity="0.25" stroke="#a8895c"/>
<circle cx="468.38281532803285" cy="80.70118813618899" r="2.5" fill="#8a6b3f"/>
<circle cx="607.8256945191984" cy="68.11921234001352" r="161.91194465375546" fill="#c1a97e" fill-opacity="0.25" stroke="#a8895c"/>
<circle cx="607.8256945191984" cy="68.11921234001352" r="2.5" fill="#8a6b3f"/>
<circle cx="357.37034770021285" cy="121.93410600047298" r="171.22635759981083" fill="#c1a97e" fill-opacity="0.25" stroke="#a8895c"/>
<circle cx="357.37034770021285" cy="121.93410600047298" r="2.5" fill="#8a6b3f"/>
<circle cx="736.6788395212825" cy="114.41604111700735" r="149.34307161702606" fill="#c1a97e" fill-opacity="0.25" stroke="#a8895c"/>
<circle cx="736.6788395212825" cy="114.41604111700735" r="2.5" fill="#8a6b3f"/>
<circle cx="531.703009762581" cy="55.98126358968801" r="117.10073751948137" fill="#c1a97e" fill-opacity="0.25" stroke="#a8895c"/>
<circle cx="531.703009762581" cy="55.98126358968801" r="2.5" fill="#8a6b3f"/>
<circle cx="685.0252645881577" cy="928.0707408468415" r="217.86111111111111" fill="#c1a97e" fill-opacity="0.25" stroke="#a8895c"/>
<circle cx="685.0252645881577" cy="928.0707408468415" r="2.5" fill="#8a6b3f"/>
<circle cx="817.4103082849824" cy="928.8312700703918" r="169.35986191382224" fill="#c1a97e" fill-opacity="0.25" stroke="#a8895c"/>
<circle cx="817.4103082849824" cy="928.8312700703918" r="2.5" fill="#8a6b3f"/>
<circle cx="521.9623357294978" cy="914.489635516528" r="170.5" fill="#c1a97e" fill-opacity="0.25" stroke="#a8895c"/>
<circle cx="521.9623357294978" cy="914.489635516528" r="2.5" fill="#8a6b3f"/>
<circle cx="356.8234101702168" cy="881.1598682796284" r="151.5555555555556" fill="#c1a97e" fill-opacity="0.25" stroke="#a8895c"/>
<circle cx="356.8234101702168" cy="881.1598682796284" r="2.5" fill="#8a6b3f"/>
<circle cx="625.4722222222222" cy="642.8888888888889" r="47.361111111111114" fill="#c1a97e" fill-opacity="0.25" stroke="#a8895c"/>
<circle cx="625.4722222222222" cy="642.8888888888889" r="2.5" fill="#8a6b3f"/>
<circle cx="663.2083333333333" cy="686.4305555555555" r="52.097222222222236" fill="#c1a97e" fill-opacity="0.25" stroke="#a8895c"/>
<circle cx="663.2083333333333" cy="686.4305555555555" r="2.5" fill="#8a6b3f"/>
<circle cx="692.2361111111111" cy="657.4027777777778" r="37.8888888888889" fill="#c1a97e" fill-opacity="0.25" stroke="#a8895c"/>
<circle cx="692.2361111111111" cy="657.4027777777778" r="2.5" fill="#8a6b3f"/>
<circle cx="705.5888888888888" cy="630.1166666666667" r="30.784722222222225" fill="#c1a97e" fill-opacity="0.25" stroke="#a8895c"/>
<circle cx="705.5888888888888" cy="630.1166666666667" r="2.5" fill="#8a6b3f"/>
<circle cx="837.1387898329838" cy="693.5693949164919" r="132.61111111111111" fill="#c1a97e" fill-opacity="0.25" stroke="#a8895c"/>
<circle cx="837.1387898329838" cy="693.5693949164919" r="2.5" fill="#8a6b3f"/>
<circle cx="953.4223994484535" cy="576.8948266298969" r="142.08333333333334" fill="#c1a97e" fill-opacity="0.25" stroke="#a8895c"/>
<circle cx="953.4223994484535" cy="576.8948266298969" r="2.5" fill="#8a6b3f"/>
<circle cx="730.5765641394339" cy="163.05021970121305" r="132.61111111111111" fill="#c1a97e" fill-opacity="0.25" stroke="#a8895c"/>
<circle cx="730.5765641394339" cy="163.05021970121305" r="2.5" fill="#8a6b3f"/>
<circle cx="841.8893259071426" cy="258.1106740928574" r="113.66666666666667" fill="#c1a97e" fill-opacity="0.25" stroke="#a8895c"/>
<circle cx="841.8893259071426" cy="258.1106740928574" r="2.5" fill="#8a6b3f"/>
<circle cx="108.64779415671802" cy="329.323897078359" r="125.04979165559655" fill="#c1a97e" fill-opacity="0.25" stroke="#a8895c"/>
<circle cx="108.64779415671802" cy="329.323897078359" r="2.5" fill="#8a6b3f"/>
<circle cx="61.703346694229765" cy="587.5612810235208" r="150.24512409408314" fill="#c1a97e" fill-opacity="0.25" stroke="#a8895c"/>
<circle cx="61.703346694229765" cy="587.5612810235208" r="2.5" fill="#8a6b3f"/>
<circle cx="1009.0231940395206" cy="550" r="206.5604373177843" fill="#c1a97e" fill-opacity="0.25" stroke="#a8895c"/>
<circle cx="1009.0231940395206" cy="550" r="2.5" fill="#8a6b3f"/>
<circle cx="1021.0567095503254" cy="418.10412132590886" r="150.7381470561041" fill="#c1a97e" fill-opacity="0.25" stroke="#a8895c"/>
<circle cx="1021.0567095503254" cy="418.10412132590886" r="2.5" fill="#8a6b3f"/>
<circle cx="976.3906297604217" cy="729.5328967412302" r="179.53289674123016" fill="#c1a97e" fill-opacity="0.25" stroke="#a8895c"/>
<circle cx="976.3906297604217" cy="729.5328967412302" r="2.5" fill="#8a6b3f"/>
<circle cx="1018.7501059380056" cy="667.1875264845014" r="140.62503178140167" fill="#c1a97e" fill-opacity="0.25" stroke="#a8895c"/>
<circle cx="1018.7501059380056" cy="667.1875264845014" r="2.5" fill="#8a6b3f"/>
<circle cx="550" cy="1029.5541666666666" r="219.7956597222222" fill="#c1a97e" fill-opacity="0.25" stroke="#a8895c"/>
<circle cx="550" cy="1029.5541666666666" r="2.5" fill="#8a6b3f"/>
<circle cx="675.1408694982196" cy="1032.686210921704" r="164.47085705480285" fill="#c1a97e" fill-opacity="0.25" stroke="#a8895c"/>
<circle cx="675.1408694982196" cy="1032.686210921704" r="2.5" fill="#8a6b3f"/>
<circle cx="439.208650586443" cy="1030.095847458747" r="169.88006910078732" fill="#c1a97e" fill-opacity="0.25" stroke="#a8895c"/>
<circle cx="439.208650586443" cy="1030.095847458747" r="2.5" fill="#8a6b3f"/>
<circle cx="782.1246387039766" cy="975.5618376239571" r="154.7497591359844" fill="#c1a97e" fill-opacity="0.25" stroke="#a8895c"/>
<circle cx="782.1246387039766" cy="975.5618376239571" r="2.5" fill="#8a6b3f"/>
<circle cx="149.46381149453998" cy="841.299046185789" r="152.93199924753927" fill="#c1a97e" fill-opacity="0.25" stroke="#a8895c"/>
<circle cx="149.46381149453998" cy="841.299046185789" r="2.5" fill="#8a6b3f"/>
<circle cx="71.91009869810972" cy="720.7463933221037" r="136.59711465768294" fill="#c1a97e" fill-opacity="0.25" stroke="#a8895c"/>
<circle cx="71.91009869810972" cy="720.7463933221037" r="2.5" fill="#8a6b3f"/>
<circle cx="214.0480515829218" cy="921.3153114083495" r="134.3807793668313" fill="#c1a97e" fill-opacity="0.25" stroke="#a8895c"/>
<circle cx="214.0480515829218" cy="921.3153114083495" r="2.5" fill="#8a6b3f"/>
<circle cx="37.79928363662498" cy="500.4321887390282" r="148.70343378291534" fill="#c1a97e" fill-opacity="0.25" stroke="#a8895c"/>
<circle cx="37.79928363662498" cy="500.4321887390282" r="2.5" fill="#8a6b3f"/>
<circle cx="68.18783164658856" cy="395.1318030292606" r="137.66061952954612" fill="#c1a97e" fill-opacity="0.25" stroke="#a8895c"/>
<circle cx="68.18783164658856" cy="395.1318030292606" r="2.5" fill="#8a6b3f"/>
<circle cx="484.07637159793984" cy="39.09187988403369" r="164.80907100515043" fill="#c1a97e" fill-opacity="0.25" stroke="#a8895c"/>
<circle cx="484.07637159793984" cy="39.09187988403369" r="2.5" fill="#8a6b3f"/>
<circle cx="634.0092918855573" cy="45.94424868665607" r="141.13561036773632" fill="#c1a97e" fill-opacity="0.25" stroke="#a8895c"/>
<circle cx="634.0092918855573" cy="45.94424868665607" r="2.5" fill="#8a6b3f"/>
<circle cx="344.18710381495146" cy="86.92098358364075" r="137.20859745669904" fill="#c1a97e" fill-opacity="0.25" stroke="#a8895c"/>
<circle cx="344.18710381495146" cy="86.92098358364075" r="2.5" fill="#8a6b3f"/>
<circle cx="381.6388888888889" cy="579.0277777777778" r="52.70833333333333" fill="#79b55a" fill-opacity="0.45" stroke="#579a41"/>
<circle cx="330.0544867915942" cy="268.01857280973604" r="32.08333333333333" fill="#79b55a" fill-opacity="0.45" stroke="#579a41"/>
<circle cx="498.9111111111111" cy="480.33333333333337" r="18.333333333333336" fill="#79b55a" fill-opacity="0.45" stroke="#579a41"/>
<circle cx="529.6805555555555" cy="494.84722222222223" r="13.75" fill="#79b55a" fill-opacity="0.45" stroke="#579a41"/>
<circle cx="234.14733118371788" cy="492.57224203340326" r="22.916666666666668" fill="#79b55a" fill-opacity="0.45" stroke="#579a41"/>
<circle cx="622.5694444444445" cy="639.9861111111111" r="57.29166666666667" fill="#79b55a" fill-opacity="0.45" stroke="#579a41"/>
<circle cx="683.5277777777778" cy="663.2083333333334" r="61.875000000000014" fill="#79b55a" fill-opacity="0.45" stroke="#579a41"/>
<circle cx="163.14495866980508" cy="356.57247933490254" r="38.958333333333336" fill="#79b55a" fill-opacity="0.45" stroke="#579a41"/>
<circle cx="134.02041293906484" cy="581.5933863590584" r="38.958333333333336" fill="#79b55a" fill-opacity="0.45" stroke="#579a41"/>
<circle cx="399.6875855705941" cy="295.6251448117746" r="41.25000000000001" fill="#79b55a" fill-opacity="0.45" stroke="#579a41"/>
<circle cx="631.2777777777778" cy="352.6111111111111" r="36.66666666666667" fill="#79b55a" fill-opacity="0.45" stroke="#579a41"/>
<circle cx="170.0630019372412" cy="616.0759996630885" r="25.208333333333336" fill="#79b55a" fill-opacity="0.45" stroke="#579a41"/>
<circle cx="278.511963724457" cy="677.0795063417435" r="22.916666666666668" fill="#79b55a" fill-opacity="0.45" stroke="#579a41"/>
<path d="M168.3,709.0 L149.7,550.0 L149.5,396.0 L169.0,284.2 L185.6,214.8 L178.0,201.6" fill="none" stroke="#5ec4cc" stroke-width="37.88888888888889" stroke-linecap="round" stroke-linejoin="round"/>
<path d="M324.6,925.7 L262.2,799.1 L204.3,689.4 L165.7,604.9 L153.2,550.0" fill="none" stroke="#5ec4cc" stroke-width="25.666666666666668" stroke-linecap="round" stroke-linejoin="round"/>
<path d="M950.7,630.1 L866.2,521.3 L753.2,404.9 L637.1,323.6 L503.6,288.9 L360.2,296.9 L257.1,341.6 L185.4,305.2 L169.0,284.2" fill="none" stroke="#5ec4cc" stroke-width="27.500000000000004" stroke-linecap="round" stroke-linejoin="round"/>
<path d="M165.7,495.1 L272.0,497.9 L387.4,491.9 L451.3,461.8 L581.9,460.0 L677.7,483.2 L793.8,529.7" fill="none" stroke="#8e8878" stroke-width="10.388888888888891" stroke-linecap="round" stroke-linejoin="round"/>
<path d="M189.8,569.7 L341.0,532.6 L465.8,505.0 L494.8,504.4 L523.9,503.6" fill="none" stroke="#8e8878" stroke-width="8.555555555555557" stroke-linecap="round" stroke-linejoin="round"/>
<path d="M181.9,605.8 L375.8,608.1 L457.1,588.3 L515.2,586.0 L584.8,586.0 L637.1,590.6 L689.3,608.1" fill="none" stroke="#8e8878" stroke-width="7.333333333333333" stroke-linecap="round" stroke-linejoin="round"/>
<path d="M176.5,654.4 L375.8,666.1 L550.0,669.0 L593.5,669.0" fill="none" stroke="#8e8878" stroke-width="6.722222222222222" stroke-linecap="round" stroke-linejoin="round"/>
<path d="M204.3,410.6 L346.8,399.1 L491.9,396.2 L642.9,399.1 L735.8,404.9" fill="none" stroke="#8e8878" stroke-width="7.9444444444444455" stroke-linecap="round" stroke-linejoin="round"/>
<path d="M201.3,454.4 L375.8,448.4 L451.3,404.9 L550.0,404.9 L700.9,416.5" fill="none" stroke="#8e8878" stroke-width="6.722222222222222" stroke-linecap="round" stroke-linejoin="round"/>
<path d="M284.0,677.2 L288.9,503.6 L299.0,376.9 L314.6,269.7" fill="none" stroke="#8e8878" stroke-width="9.166666666666666" stroke-linecap="round" stroke-linejoin="round"/>
<path d="M491.9,689.3 L491.9,550.0 L491.9,399.1 L497.8,306.2" fill="none" stroke="#8e8878" stroke-width="8.555555555555557" stroke-linecap="round" stroke-linejoin="round"/>
<path d="M428.1,689.3 L431.0,521.0 L433.9,393.3" fill="none" stroke="#8e8878" stroke-width="6.722222222222222" stroke-linecap="round" stroke-linejoin="round"/>
<path d="M192.0,693.2 L189.8,561.3 L188.4,449.9" fill="none" stroke="#8e8878" stroke-width="6.722222222222222" stroke-linecap="round" stroke-linejoin="round"/>
<path d="M608.1,428.1 L566.3,460.0 L518.1,490.8 L503.6,529.7 L498.9,586.0 L486.1,628.4" fill="none" stroke="#8e8878" stroke-width="7.9444444444444455" stroke-linecap="round" stroke-linejoin="round"/>
<path d="M260.7,578.9 L241.4,675.7 L231.2,769.9" fill="none" stroke="#8e8878" stroke-width="6.722222222222222" stroke-linecap="round" stroke-linejoin="round"/>
<path d="M473.4,416.5 L474.5,461.8 L475.7,504.7 L476.9,588.3" fill="none" stroke="#8e8878" stroke-width="6.111111111111112" stroke-linecap="round" stroke-linejoin="round"/>
<path d="M601.1,428.1 L601.1,460.0 L601.1,521.0 L601.1,586.0" fill="none" stroke="#8e8878" stroke-width="5.5" stroke-linecap="round" stroke-linejoin="round"/>
<path d="M508.2,517.5 L561.6,517.5 L601.1,517.5" fill="none" stroke="#8e8878" stroke-width="4.888888888888889" stroke-linecap="round" stroke-linejoin="round"/>
<path d="M333.4,214.3 L293.9,322.4 L272.8,434.5 L288.9,521.0 L375.8,579.0 L457.1,590.6 L515.2,588.3 L584.8,588.3 L637.1,593.0 L666.1,613.9" fill="none" stroke="#E3002C" stroke-width="1.6" stroke-opacity="0.85"/>
<path d="M181.1,527.6 L271.9,521.0 L387.4,494.8 L451.3,464.1 L581.9,462.3 L677.7,485.0 L890.9,493.2" fill="none" stroke="#0070BD" stroke-width="1.6" stroke-opacity="0.85"/>
<path d="M288.8,777.2 L300.4,608.0 L283.2,526.8 L375.8,480.3 L491.9,433.9 L625.5,439.7" fill="none" stroke="#1DA742" stroke-width="1.6" stroke-opacity="0.85"/>
<path d="M376.4,781.5 L404.9,619.7 L387.4,491.9 L318.5,376.4 L231.9,413.7" fill="none" stroke="#F8B61C" stroke-width="1.6" stroke-opacity="0.85"/>
<path d="M619.7,793.8 L515.2,619.7 L468.7,439.7 L491.9,317.8 L509.8,233.9" fill="none" stroke="#C48C31" stroke-width="1.6" stroke-opacity="0.85"/>
<path d="M659.1,609.2 L657.1,611.3 L655.0,613.5 L653.0,615.6 L651.0,617.7 L648.7,619.7 L645.8,619.8 L642.9,619.6 L640.0,619.2 L637.1,618.9 L634.1,618.8 L631.1,619.0 L628.1,619.4 L625.1,620.1 L622.2,621.1 L619.6,622.5 L618.4,623.6 L621.4,623.5 L624.2,623.8 L627.2,624.5 L630.0,625.6 L632.4,627.2 L634.8,629.1 L636.6,631.4 L638.0,633.9 L638.9,636.9 L639.3,639.3 L637.4,636.4 L635.2,634.3 L632.6,632.7 L629.7,631.9 L626.7,631.8 L623.8,632.5 L622.0,633.6 L624.9,633.5 L627.9,634.2 L629.4,636.2 L628.3,638.8 L626.9,641.6 L626.5,642.5" fill="none" stroke="#4a4438" stroke-width="1.4" stroke-dasharray="2 3"/>
<circle cx="550" cy="550" r="4" fill="#232019"/>
<circle cx="554.6444444444444" cy="486.1388888888889" r="4" fill="#232019"/>
<circle cx="496.5888888888889" cy="479.1722222222222" r="4" fill="#232019"/>
<circle cx="500.65277777777777" cy="435.05" r="4" fill="#232019"/>
<circle cx="532.5833333333334" cy="504.71666666666664" r="4" fill="#232019"/>
<circle cx="588.3166666666666" cy="526.7777777777778" r="4" fill="#232019"/>
<circle cx="576.125" cy="511.68333333333334" r="4" fill="#232019"/>
<circle cx="462.9166666666667" cy="439.69444444444446" r="4" fill="#232019"/>
<circle cx="625.4722222222222" cy="439.69444444444446" r="4" fill="#232019"/>
<circle cx="300.38742092393187" cy="544.1950563005565" r="4" fill="#232019"/>
<circle cx="244.45725082455647" cy="509.645297278715" r="4" fill="#232019"/>
<circle cx="272.3201804468244" cy="460.332558269287" r="4" fill="#232019"/>
<circle cx="206.070062385543" cy="532.9456229282088" r="4" fill="#232019"/>
<circle cx="255.02199396397452" cy="319.02665565103666" r="4" fill="#232019"/>
<circle cx="330.59714161312337" cy="263.0885698017767" r="4" fill="#232019"/>
<circle cx="315.83571377388546" cy="212.05835965094838" r="4" fill="#232019"/>
<circle cx="509.7353179373423" cy="236.51068965502225" r="4" fill="#232019"/>
<circle cx="465.0343818299632" cy="146.41331369232506" r="4" fill="#232019"/>
<circle cx="570.3194444444445" cy="596.4444444444445" r="2" fill="#6b6455"/>
<circle cx="747.3888888888889" cy="538.3888888888889" r="2" fill="#6b6455"/>
<circle cx="358.41666666666663" cy="480.33333333333337" r="2" fill="#6b6455"/>
<circle cx="480.33333333333337" cy="451.30555555555554" r="2" fill="#6b6455"/>
<circle cx="433.8888888888889" cy="625.4722222222222" r="2" fill="#6b6455"/>
<circle cx="579.0277777777778" cy="375.83333333333337" r="2" fill="#6b6455"/>
<circle cx="590.6388888888889" cy="468.72222222222223" r="2" fill="#6b6455"/>
<circle cx="335.1944444444444" cy="584.8333333333334" r="2" fill="#6b6455"/>
<circle cx="491.94444444444446" cy="683.5277777777778" r="2" fill="#6b6455"/>
<circle cx="404.8611111111111" cy="393.25" r="2" fill="#6b6455"/>
<path d="M544.7677777777777,543.7808333333334 L554.7677777777777,553.7808333333334 M544.7677777777777,553.7808333333334 L554.7677777777777,543.7808333333334" stroke="#d81b9f" stroke-width="1.6"/>
<path d="M544.8258333333333,520.5005555555556 L554.8258333333333,530.5005555555556 M544.8258333333333,530.5005555555556 L554.8258333333333,520.5005555555556" stroke="#d81b9f" stroke-width="1.6"/>
<path d="M520.3844444444444,504.4772222222222 L530.3844444444444,514.4772222222223 M520.3844444444444,514.4772222222223 L530.3844444444444,504.4772222222222" stroke="#d81b9f" stroke-width="1.6"/>
<path d="M516.2044444444444,489.2086111111111 L526.2044444444444,499.2086111111111 M516.2044444444444,499.2086111111111 L526.2044444444444,489.2086111111111" stroke="#d81b9f" stroke-width="1.6"/>
<path d="M538.3816666666667,535.1305555555556 L548.3816666666667,545.1305555555556 M538.3816666666667,545.1305555555556 L548.3816666666667,535.1305555555556" stroke="#d81b9f" stroke-width="1.6"/>
<path d="M555.5080555555555,540.5877777777778 L565.5080555555555,550.5877777777778 M555.5080555555555,550.5877777777778 L565.5080555555555,540.5877777777778" stroke="#d81b9f" stroke-width="1.6"/>
<path d="M460.81944444444446,435.7394444444444 L470.81944444444446,445.7394444444444 M460.81944444444446,445.7394444444444 L470.81944444444446,435.7394444444444" stroke="#d81b9f" stroke-width="1.6"/>
<path d="M606.8872222222222,435.9716666666667 L616.8872222222222,445.9716666666667 M606.8872222222222,445.9716666666667 L616.8872222222222,435.9716666666667" stroke="#d81b9f" stroke-width="1.6"/>
<path d="M295.09848986134693,538.9628903474054 L305.09848986134693,548.9628903474054 M295.09848986134693,548.9628903474054 L305.09848986134693,538.9628903474054" stroke="#d81b9f" stroke-width="1.6"/>
<path d="M239.56198897374873,504.8745081777518 L249.56198897374873,514.8745081777517 M239.56198897374873,514.8745081777517 L249.56198897374873,504.8745081777518" stroke="#d81b9f" stroke-width="1.6"/>
<path d="M268.4848179398926,455.3162728200112 L278.4848179398926,465.3162728200112 M268.4848179398926,465.3162728200112 L278.4848179398926,455.3162728200112" stroke="#d81b9f" stroke-width="1.6"/>
<path d="M179.63327157696807,522.8582605512278 L189.63327157696807,532.8582605512278 M179.63327157696807,532.8582605512278 L189.63327157696807,522.8582605512278" stroke="#d81b9f" stroke-width="1.6"/>
<path d="M327.88009098822397,263.77210536690086 L337.88009098822397,273.77210536690086 M327.88009098822397,273.77210536690086 L337.88009098822397,263.77210536690086" stroke="#d81b9f" stroke-width="1.6"/>
<path d="M327.7041753465735,216.138991597286 L337.7041753465735,226.138991597286 M327.7041753465735,226.138991597286 L337.7041753465735,216.138991597286" stroke="#d81b9f" stroke-width="1.6"/>
<path d="M460.40992658555393,144.4112990228187 L470.40992658555393,154.4112990228187 M460.40992658555393,154.4112990228187 L470.40992658555393,144.4112990228187" stroke="#d81b9f" stroke-width="1.6"/>
<path d="M504.1830129096516,229.7893799769293 L514.1830129096516,239.7893799769293 M504.1830129096516,239.7893799769293 L514.1830129096516,229.7893799769293" stroke="#d81b9f" stroke-width="1.6"/>
<path d="M268.7670138299475,301.27488601240657 L278.7670138299475,311.27488601240657 M268.7670138299475,311.27488601240657 L278.7670138299475,301.27488601240657" stroke="#d81b9f" stroke-width="1.6"/>
<path d="M373.56194444444446,570.8927777777777 L383.56194444444446,580.8927777777777 M373.56194444444446,580.8927777777777 L383.56194444444446,570.8927777777777" stroke="#d81b9f" stroke-width="1.6"/>
<path d="M257.4892585464357,494.7290071784412 L267.4892585464357,504.7290071784412 M257.4892585464357,504.7290071784412 L267.4892585464357,494.7290071784412" stroke="#d81b9f" stroke-width="1.6"/>
<path d="M609.6738888888889,590.98 L619.6738888888889,600.98 M609.6738888888889,600.98 L619.6738888888889,590.98" stroke="#d81b9f" stroke-width="1.6"/>
<path d="M661.2852777777778,629.5288888888889 L671.2852777777778,639.5288888888889 M661.2852777777778,639.5288888888889 L671.2852777777778,629.5288888888889" stroke="#d81b9f" stroke-width="1.6"/>
<path d="M507.468785615977,35.53730582117902 L517.468785615977,45.53730582117902 M507.468785615977,45.53730582117902 L517.468785615977,35.53730582117902" stroke="#d81b9f" stroke-width="1.6"/>
<path d="M410.11104430567445,38.004670394751884 L420.11104430567445,48.004670394751884 M410.11104430567445,48.004670394751884 L420.11104430567445,38.004670394751884" stroke="#d81b9f" stroke-width="1.6"/>
<path d="M127.91746537432005,205.80727617126018 L137.91746537432005,215.80727617126018 M127.91746537432005,215.80727617126018 L137.91746537432005,205.80727617126018" stroke="#d81b9f" stroke-width="1.6"/>
<path d="M672.7860694832999,930.1829570271495 L682.7860694832999,940.1829570271495 M672.7860694832999,940.1829570271495 L682.7860694832999,930.1829570271495" stroke="#d81b9f" stroke-width="1.6"/>
<path d="M221.8,455.6 L378.5,497.0 L593.8,506.6 L630.9,502.7 L664.1,465.0 L686.7,451.8 L732.0,440.5 L847.0,426.7" fill="none" stroke="#d81b9f" stroke-width="1.3" stroke-opacity="0.85"/>
<path d="M280.7,514.9 L319.5,520.3 L330.2,520.8 L354.9,520.9 L374.2,521.6 L455.8,523.1 L537.2,525.3" fill="none" stroke="#d81b9f" stroke-width="1.3" stroke-opacity="0.85"/>
<path d="M108.9,729.0 L116.9,745.6 L161.4,298.7 L288.5,524.8 L333.9,547.8 L362.7,550.6 L593.2,556.0 L626.7,536.6" fill="none" stroke="#d81b9f" stroke-width="1.3" stroke-opacity="0.85"/>
<path d="M147.6,539.1 L202.2,543.4 L276.5,594.3 L413.8,596.8 L480.3,610.9 L606.1,771.5" fill="none" stroke="#d81b9f" stroke-width="1.3" stroke-opacity="0.85"/>
<path d="M228.1,425.6 L260.4,420.8 L291.7,428.6 L303.9,430.9 L313.5,431.5 L585.1,436.8 L704.0,368.2" fill="none" stroke="#d81b9f" stroke-width="1.3" stroke-opacity="0.85"/>
<path d="M347.5,486.2 L371.4,479.2 L392.4,469.6 L441.3,457.8 L512.3,456.8 L592.1,446.0 L628.8,444.9 L652.6,437.0" fill="none" stroke="#d81b9f" stroke-width="1.3" stroke-opacity="0.85"/>
<path d="M247.2,94.5 L221.0,113.1 L209.2,122.2 L408.4,106.9 L357.0,147.5 L352.6,194.6 L303.8,434.1 L270.7,539.3" fill="none" stroke="#d81b9f" stroke-width="1.3" stroke-opacity="0.85"/>
<path d="M457.6,630.0 L458.0,584.8 L461.6,569.5 L458.0,551.3 L459.5,396.0 L461.7,388.7 L469.1,373.2 L476.2,362.2" fill="none" stroke="#d81b9f" stroke-width="1.3" stroke-opacity="0.85"/>
<path d="M426.2,627.3 L427.2,581.5 L423.1,566.7 L427.6,553.1 L427.8,542.9 L426.5,534.4 L428.3,521.7 L431.7,342.3" fill="none" stroke="#d81b9f" stroke-width="1.3" stroke-opacity="0.85"/>
<path d="M231.7,604.7 L215.7,589.4 L205.6,574.7 L204.9,564.4 L213.3,542.8 L217.2,530.0 L233.9,463.5" fill="none" stroke="#d81b9f" stroke-width="1.3" stroke-opacity="0.85"/>
<path d="M366.8,707.3 L379.0,698.9 L401.3,688.4 L420.1,674.8 L423.1,664.0 L501.7,588.8 L544.8,513.1 L583.1,440.6" fill="none" stroke="#d81b9f" stroke-width="1.3" stroke-opacity="0.85"/>
<path d="M273.7,547.2 L319.4,615.3 L391.3,695.5 L400.3,731.1 L401.5,782.4 L412.4,789.6 L413.3,802.4 L405.8,830.0" fill="none" stroke="#d81b9f" stroke-width="1.3" stroke-opacity="0.85"/>
<path d="M492.0,368.9 L498.0,405.7 L500.7,416.5 L505.8,428.3 L510.6,437.7 L510.6,485.7 L508.8,556.9 L509.0,573.9" fill="none" stroke="#d81b9f" stroke-width="1.3" stroke-opacity="0.85"/>
<path d="M573.3,505.2 L573.0,515.9 L572.8,531.4 L572.3,562.0 L572.6,574.6 L572.5,585.4 L573.2,596.1 L579.7,608.9" fill="none" stroke="#d81b9f" stroke-width="1.3" stroke-opacity="0.85"/>
<path d="M535.1,535.7 L543.8,535.8 L557.0,536.1 L569.3,536.3" fill="none" stroke="#d81b9f" stroke-width="1.3" stroke-opacity="0.85"/>
<path d="M209.6,452.6 L229.2,444.0 L376.0,477.7 L481.1,481.4 L550.1,474.2 L581.8,450.6 L641.3,451.0 L846.3,418.5" fill="none" stroke="#d81b9f" stroke-width="1.3" stroke-opacity="0.85"/>
<path d="M249.5,367.0 L468.4,371.2 L514.6,367.0 L597.0,350.8 L663.1,325.8 L717.6,324.6 L754.9,338.0 L784.2,304.6" fill="none" stroke="#d81b9f" stroke-width="1.3" stroke-opacity="0.85"/>
<path d="M232.6,404.6 L265.6,402.0 L306.2,395.1 L318.1,393.9 L400.6,394.8 L458.2,396.0 L492.6,392.5 L571.5,386.2" fill="none" stroke="#d81b9f" stroke-width="1.3" stroke-opacity="0.85"/>
<path d="M337.8,314.8 L335.2,434.7 L346.6,457.3 L364.9,477.2 L363.9,549.8 L376.5,595.8 L372.4,631.5 L366.0,658.6" fill="none" stroke="#d81b9f" stroke-width="1.3" stroke-opacity="0.85"/>
<path d="M372.2,333.7 L384.7,345.6 L389.0,356.0 L386.9,485.0 L394.4,521.3 L393.8,554.6 L395.0,566.5 L392.6,615.7" fill="none" stroke="#d81b9f" stroke-width="1.3" stroke-opacity="0.85"/>
<path d="M284.2,155.5 L303.7,161.3 L291.9,189.2 L294.5,216.2 L314.4,221.0 L322.0,235.3 L288.7,310.9 L271.0,449.1" fill="none" stroke="#d81b9f" stroke-width="1.3" stroke-opacity="0.85"/>
<path d="M326.0,168.9 L330.3,171.2" fill="none" stroke="#d81b9f" stroke-width="1.3" stroke-opacity="0.85"/>
<path d="M303.0,158.4 L326.8,144.7 L332.9,140.4 L339.0,136.4 L348.7,131.9 L357.5,128.3 L369.5,120.7 L378.4,116.0" fill="none" stroke="#d81b9f" stroke-width="1.3" stroke-opacity="0.85"/>
<path d="M355.5,158.3 L368.9,151.8 L376.4,145.7 L387.9,130.9 L394.9,125.8 L400.8,122.2 L408.4,117.0" fill="none" stroke="#d81b9f" stroke-width="1.3" stroke-opacity="0.85"/>
<path d="M520.1,225.5 L633.9,262.4 L645.8,244.4 L655.9,249.6 L666.4,237.1 L690.3,246.9 L710.5,231.1" fill="none" stroke="#d81b9f" stroke-width="1.3" stroke-opacity="0.85"/>
<path d="M706.1,372.7 L696.7,259.2 L731.9,267.2 L752.1,268.6 L749.6,254.9 L762.4,252.7 L771.0,246.5" fill="none" stroke="#d81b9f" stroke-width="1.3" stroke-opacity="0.85"/>
<path d="M663.1,432.0 L674.4,427.2 L697.2,424.1 L720.6,416.6 L767.5,423.1 L827.4,412.4 L865.4,417.2" fill="none" stroke="#d81b9f" stroke-width="1.3" stroke-opacity="0.85"/>
<path d="M852.0,488.3 L846.9,477.0 L846.3,465.0 L848.0,453.7 L846.8,442.3 L849.4,429.3 L850.6,417.6" fill="none" stroke="#d81b9f" stroke-width="1.3" stroke-opacity="0.85"/>
<path d="M93.6,507.0 L99.5,488.4 L113.7,472.0 L142.5,424.9 L146.0,417.3 L166.4,392.3 L205.3,367.8" fill="none" stroke="#d81b9f" stroke-width="1.3" stroke-opacity="0.85"/>
<path d="M92.9,660.5 L93.5,649.9 L95.8,618.1 L97.1,602.8 L99.6,579.2 L101.5,570.4 L110.8,540.8 L115.8,537.0" fill="none" stroke="#d81b9f" stroke-width="1.3" stroke-opacity="0.85"/>
<path d="M415.9,964.6 L425.2,942.5 L429.4,929.0 L430.7,923.3 L429.2,907.6 L428.1,900.0 L414.5,860.3" fill="none" stroke="#d81b9f" stroke-width="1.3" stroke-opacity="0.85"/>
<path d="M196.3,733.8 L253.0,733.9 L254.7,726.3 L256.6,716.0 L260.2,702.8 L262.0,693.6 L264.7,680.9 L267.4,668.0" fill="none" stroke="#d81b9f" stroke-width="1.3" stroke-opacity="0.85"/>
<path d="M183.9,730.8 L187.7,742.8 L196.6,754.1 L209.1,774.5 L219.1,786.4 L291.5,809.8 L309.9,817.8 L332.6,823.3" fill="none" stroke="#d81b9f" stroke-width="1.3" stroke-opacity="0.85"/>
<path d="M876.6,417.3 L909.6,425.6 L927.7,408.8 L980.8,382.2 L983.6,373.2 L980.2,355.1 L982.7,351.6 L1005.1,388.1" fill="none" stroke="#d81b9f" stroke-width="1.3" stroke-opacity="0.85"/>
<path d="M142.3,291.3 L143.1,294.3 L144.9,294.9 L148.0,294.3 L149.6,295.3 L152.5,302.3 L153.4,305.2 L152.3,310.7" fill="none" stroke="#d81b9f" stroke-width="1.3" stroke-opacity="0.85"/>
<path d="M37.2,596.1 L42.3,585.4 L44.7,572.3 L59.0,555.1 L75.1,541.2 L80.9,593.3 L80.6,546.1 L84.7,527.7" fill="none" stroke="#d81b9f" stroke-width="1.3" stroke-opacity="0.85"/>
<path d="M89.7,807.5 L92.6,803.8 L98.7,801.8 L107.9,803.4 L110.2,799.5 L108.5,783.0 L101.1,752.0 L99.4,727.0" fill="none" stroke="#d81b9f" stroke-width="1.3" stroke-opacity="0.85"/>
<path d="M143.0,487.5 L214.1,404.9 L233.2,329.7 L233.7,268.7 L206.7,237.4 L162.2,249.8 L193.6,165.4 L192.1,136.4 L175.8,151.1 L151.1,175.8" fill="none" stroke="#d81b9f" stroke-width="1.3" stroke-opacity="0.85" stroke-dasharray="8 5"/>
<path d="M421.1,1015.1 L372.9,981.2 L419.8,991.8 L437.3,1006.2 L462.4,1001.3 L309.1,865.7 L369.3,739.9 L258.4,627.7 L159.7,683.1 L143.0,487.5" fill="none" stroke="#d81b9f" stroke-width="1.3" stroke-opacity="0.85" stroke-dasharray="8 5"/>
<path d="M1095.4,509.1 L1093.9,492.3 L1074.4,394.5 L1037.1,301.2 L1023.6,372.2 L606.8,434.1 L580.4,280.6 L329.8,302.8 L251.1,182.4 L174.5,224.9" fill="none" stroke="#d81b9f" stroke-width="1.3" stroke-opacity="0.85" stroke-dasharray="8 5"/>
<path d="M205.8,446.9 L203.2,445.1 L200.5,443.2 L177.0,426.1" fill="none" stroke="#d81b9f" stroke-width="1.3" stroke-opacity="0.85"/>
<path d="M433.1,259.9 L431.9,285.5 L431.9,288.8 L431.6,298.1" fill="none" stroke="#d81b9f" stroke-width="1.3" stroke-opacity="0.85"/>
<path d="M588.8,352.8 L611.2,344.5 L617.0,342.6 L626.1,340.0" fill="none" stroke="#d81b9f" stroke-width="1.3" stroke-opacity="0.85"/>
<path d="M479.6875,331.87805555555553 L489.6875,341.87805555555553 M479.6875,341.87805555555553 L489.6875,331.87805555555553" stroke="#d81b9f" stroke-width="1.6"/>
<path d="M555.2,322.5 L487.4,319.8 L460.2,318.8 L404.6,316.9" fill="none" stroke="#d81b9f" stroke-width="1.3" stroke-opacity="0.85"/>
<path d="M561.0813888888889,526.3061111111111 L571.0813888888889,536.3061111111111 M561.0813888888889,536.3061111111111 L571.0813888888889,526.3061111111111" stroke="#d81b9f" stroke-width="1.6"/>
<path d="M656.8730555555555,560.3847222222222 L666.8730555555555,570.3847222222222 M656.8730555555555,570.3847222222222 L666.8730555555555,560.3847222222222" stroke="#d81b9f" stroke-width="1.6"/>
<path d="M208.5,366.1 L224.0,365.7" fill="none" stroke="#d81b9f" stroke-width="1.3" stroke-opacity="0.85"/>
<rect x="20" y="1066" width="30.555555555555557" height="4" fill="#232019"/>
<text x="20" y="1060" font-size="12" fill="#232019">1 km (authored, pre-spread)</text>
<text x="20" y="24" font-size="14" fill="#232019">basin / spread — game data (grey/green) vs OSM geo-truth (magenta)</text>
</svg>
