<svg xmlns="http://www.w3.org/2000/svg" width="1100" height="1100" viewBox="0 0 1100 1100">
<rect width="1100" height="1100" fill="#f6f3ec"/>
<circle cx="578.5" cy="531" r="284.99999999999994" fill="none" stroke="#c9c2b2" stroke-dasharray="6 5"/>
<text x="578.5" y="531" font-size="11" fill="#b6ad99" text-anchor="middle">xinyi</text>
<circle cx="341" cy="607" r="284.99999999999994" fill="none" stroke="#c9c2b2" stroke-dasharray="6 5"/>
<text x="341" y="607" font-size="11" fill="#b6ad99" text-anchor="middle">daan</text>
<circle cx="76.84524170096114" cy="464.832143506173" r="274.4297598134425" fill="none" stroke="#c9c2b2" stroke-dasharray="6 5"/>
<text x="76.84524170096114" y="464.832143506173" font-size="11" fill="#b6ad99" text-anchor="middle">zhongzheng</text>
<circle cx="-60.835727223937965" cy="531.7660976948079" r="209.68987650971007" fill="none" stroke="#c9c2b2" stroke-dasharray="6 5"/>
<text x="-60.835727223937965" y="531.7660976948079" font-size="11" fill="#b6ad99" text-anchor="middle">wanhua</text>
<circle cx="198.68068951581404" cy="303.1269710111126" r="237.3779124893148" fill="none" stroke="#c9c2b2" stroke-dasharray="6 5"/>
<text x="198.68068951581404" y="303.1269710111126" font-size="11" fill="#b6ad99" text-anchor="middle">zhongshan</text>
<circle cx="66.88534437095404" cy="252.69867345904862" r="195.10399554249932" fill="none" stroke="#c9c2b2" stroke-dasharray="6 5"/>
<text x="66.88534437095404" y="252.69867345904862" font-size="11" fill="#b6ad99" text-anchor="middle">datong</text>
<circle cx="721" cy="360" r="237.5" fill="none" stroke="#c9c2b2" stroke-dasharray="6 5"/>
<text x="721" y="360" font-size="11" fill="#b6ad99" text-anchor="middle">songshan</text>
<circle cx="225.54031506671402" cy="9.233858444523435" r="189.26814954441681" fill="none" stroke="#c9c2b2" stroke-dasharray="6 5"/>
<text x="225.54031506671402" y="9.233858444523435" font-size="11" fill="#b6ad99" text-anchor="middle">shilin</text>
<circle cx="906.6119697392969" cy="155.8499281828823" r="197.07503590855885" fill="none" stroke="#c9c2b2" stroke-dasharray="6 5"/>
<text x="906.6119697392969" y="155.8499281828823" font-size="11" fill="#b6ad99" text-anchor="middle">neihu</text>
<circle cx="1067.451196716616" cy="502.9589821166713" r="206.98047868664648" fill="none" stroke="#c9c2b2" stroke-dasharray="6 5"/>
<text x="1067.451196716616" y="502.9589821166713" font-size="11" fill="#b6ad99" text-anchor="middle">nangang</text>
<circle cx="63.48503142671575" cy="793.2574842866421" r="187.12114175895547" fill="none" stroke="#c9c2b2" stroke-dasharray="6 5"/>
<text x="63.48503142671575" y="793.2574842866421" font-size="11" fill="#b6ad99" text-anchor="middle">gongguan-guting</text>
<circle cx="-103.87022523098574" cy="290.1285002287108" r="217.9567417436619" fill="none" stroke="#c9c2b2" stroke-dasharray="6 5"/>
<text x="-103.87022523098574" y="290.1285002287108" font-size="11" fill="#b6ad99" text-anchor="middle">sanchong</text>
<circle cx="-103.43591965488747" cy="152.25639673180757" r="170.46154425779676" fill="none" stroke="#c9c2b2" stroke-dasharray="6 5"/>
<text x="-103.43591965488747" y="152.25639673180757" font-size="11" fill="#b6ad99" text-anchor="middle">luzhou</text>
<circle cx="-206.7606024388682" cy="532.3667432441429" r="161.6381869286903" fill="none" stroke="#c9c2b2" stroke-dasharray="6 5"/>
<text x="-206.7606024388682" y="532.3667432441429" font-size="11" fill="#b6ad99" text-anchor="middle">xinzhuang</text>
<circle cx="-175.9397679264797" cy="735.2658782729037" r="181.48494198161993" fill="none" stroke="#c9c2b2" stroke-dasharray="6 5"/>
<text x="-175.9397679264797" y="735.2658782729037" font-size="11" fill="#b6ad99" text-anchor="middle">banqiao</text>
<circle cx="-28.040650748448343" cy="882.8112837642582" r="227.7129836281766" fill="none" stroke="#c9c2b2" stroke-dasharray="6 5"/>
<text x="-28.040650748448343" y="882.8112837642582" font-size="11" fill="#b6ad99" text-anchor="middle">zhonghe</text>
<circle cx="80.94017657311883" cy="803.2923046505159" r="187.6239293707525" fill="none" stroke="#c9c2b2" stroke-dasharray="6 5"/>
<text x="80.94017657311883" y="803.2923046505159" font-size="11" fill="#b6ad99" text-anchor="middle">yonghe</text>
<circle cx="-125.85009905980564" cy="902.3048388716009" r="143.79789341697992" fill="none" stroke="#c9c2b2" stroke-dasharray="6 5"/>
<text x="-125.85009905980564" y="902.3048388716009" font-size="11" fill="#b6ad99" text-anchor="middle">tucheng-sanxia</text>
<circle cx="347.97660560656135" cy="1182.4210607098948" r="245.9415236094036" fill="none" stroke="#c9c2b2" stroke-dasharray="6 5"/>
<text x="347.97660560656135" y="1182.4210607098948" font-size="11" fill="#b6ad99" text-anchor="middle">xindian</text>
<circle cx="1202.3671432088554" cy="282.3621976579055" r="200.72835175657087" fill="none" stroke="#c9c2b2" stroke-dasharray="6 5"/>
<text x="1202.3671432088554" y="282.3621976579055" font-size="11" fill="#b6ad99" text-anchor="middle">xizhi</text>
<circle cx="151.41852198443127" cy="-92.15904791397179" r="147.62276963539583" fill="none" stroke="#c9c2b2" stroke-dasharray="6 5"/>
<text x="151.41852198443127" y="-92.15904791397179" font-size="11" fill="#b6ad99" text-anchor="middle">beitou</text>
<circle cx="237.30886947580888" cy="-107.4531462303504" r="160.35442590984158" fill="none" stroke="#c9c2b2" stroke-dasharray="6 5"/>
<text x="237.30886947580888" y="-107.4531462303504" font-size="11" fill="#b6ad99" text-anchor="middle">tianmu</text>
<circle cx="416.4446069004174" cy="-217.94351032259988" r="333.8884827489564" fill="#c1a97e" fill-opacity="0.25" stroke="#a8895c"/>
<circle cx="416.4446069004174" cy="-217.94351032259988" r="2.5" fill="#8a6b3f"/>
<circle cx="644.6238637586882" cy="-238.53219798906866" r="264.9468185243271" fill="#c1a97e" fill-opacity="0.25" stroke="#a8895c"/>
<circle cx="644.6238637586882" cy="-238.53219798906866" r="2.5" fill="#8a6b3f"/>
<circle cx="234.78784169125737" cy="-150.471462908317" r="280.18858516332676" fill="#c1a97e" fill-opacity="0.25" stroke="#a8895c"/>
<circle cx="234.78784169125737" cy="-150.471462908317" r="2.5" fill="#8a6b3f"/>
<circle cx="855.4744646711897" cy="-162.77375089944246" r="244.37957173695173" fill="#c1a97e" fill-opacity="0.25" stroke="#a8895c"/>
<circle cx="855.4744646711897" cy="-162.77375089944246" r="2.5" fill="#8a6b3f"/>
<circle cx="520.0594705205872" cy="-258.39429594414685" r="191.61938866824224" fill="#c1a97e" fill-opacity="0.25" stroke="#a8895c"/>
<circle cx="520.0594705205872" cy="-258.39429594414685" r="2.5" fill="#8a6b3f"/>
<circle cx="770.9504329624399" cy="1168.6612122948318" r="356.5" fill="#c1a97e" fill-opacity="0.25" stroke="#a8895c"/>
<circle cx="770.9504329624399" cy="1168.6612122948318" r="2.5" fill="#8a6b3f"/>
<circle cx="987.5805044663349" cy="1169.905714660641" r="277.13431949534544" fill="#c1a97e" fill-opacity="0.25" stroke="#a8895c"/>
<circle cx="987.5805044663349" cy="1169.905714660641" r="2.5" fill="#8a6b3f"/>
<circle cx="504.1201857391783" cy="1146.4375853906822" r="279" fill="#c1a97e" fill-opacity="0.25" stroke="#a8895c"/>
<circle cx="504.1201857391783" cy="1146.4375853906822" r="2.5" fill="#8a6b3f"/>
<circle cx="233.8928530058093" cy="1091.8979662757556" r="248.00000000000006" fill="#c1a97e" fill-opacity="0.25" stroke="#a8895c"/>
<circle cx="233.8928530058093" cy="1091.8979662757556" r="2.5" fill="#8a6b3f"/>
<circle cx="673.5" cy="702" r="77.5" fill="#c1a97e" fill-opacity="0.25" stroke="#a8895c"/>
<circle cx="673.5" cy="702" r="2.5" fill="#8a6b3f"/>
<circle cx="735.25" cy="773.25" r="85.25000000000001" fill="#c1a97e" fill-opacity="0.25" stroke="#a8895c"/>
<circle cx="735.25" cy="773.25" r="2.5" fill="#8a6b3f"/>
<circle cx="782.75" cy="725.75" r="62.000000000000014" fill="#c1a97e" fill-opacity="0.25" stroke="#a8895c"/>
<circle cx="782.75" cy="725.75" r="2.5" fill="#8a6b3f"/>
<circle cx="804.6" cy="681.1" r="50.375" fill="#c1a97e" fill-opacity="0.25" stroke="#a8895c"/>
<circle cx="804.6" cy="681.1" r="2.5" fill="#8a6b3f"/>
<circle cx="1019.8634742721551" cy="784.9317371360776" r="217" fill="#c1a97e" fill-opacity="0.25" stroke="#a8895c"/>
<circle cx="1019.8634742721551" cy="784.9317371360776" r="2.5" fill="#8a6b3f"/>
<circle cx="1210.1457445520145" cy="594.0097163034676" r="232.50000000000003" fill="#c1a97e" fill-opacity="0.25" stroke="#a8895c"/>
<circle cx="1210.1457445520145" cy="594.0097163034676" r="2.5" fill="#8a6b3f"/>
<circle cx="845.4889231372555" cy="-83.19054957983315" r="217" fill="#c1a97e" fill-opacity="0.25" stroke="#a8895c"/>
<circle cx="845.4889231372555" cy="-83.19054957983315" r="2.5" fill="#8a6b3f"/>
<circle cx="1027.6370787571425" cy="72.36292124285757" r="186" fill="#c1a97e" fill-opacity="0.25" stroke="#a8895c"/>
<circle cx="1027.6370787571425" cy="72.36292124285757" r="2.5" fill="#8a6b3f"/>
<circle cx="-172.21270047082498" cy="188.8936497645875" r="204.62693180006707" fill="#c1a97e" fill-opacity="0.25" stroke="#a8895c"/>
<circle cx="-172.21270047082498" cy="188.8936497645875" r="2.5" fill="#8a6b3f"/>
<circle cx="-249.0308872276239" cy="611.4639144021249" r="245.85565760849968" fill="#c1a97e" fill-opacity="0.25" stroke="#a8895c"/>
<circle cx="-249.0308872276239" cy="611.4639144021249" r="2.5" fill="#8a6b3f"/>
<circle cx="1301.128862973761" cy="550" r="338.0079883381925" fill="#c1a97e" fill-opacity="0.25" stroke="#a8895c"/>
<circle cx="1301.128862973761" cy="550" r="2.5" fill="#8a6b3f"/>
<circle cx="1320.8200701732599" cy="334.17038035148727" r="246.6624224554431" fill="#c1a97e" fill-opacity="0.25" stroke="#a8895c"/>
<circle cx="1320.8200701732599" cy="334.17038035148727" r="2.5" fill="#8a6b3f"/>
<circle cx="1247.7301214261445" cy="843.7811037583766" r="293.7811037583766" fill="#c1a97e" fill-opacity="0.25" stroke="#a8895c"/>
<circle cx="1247.7301214261445" cy="843.7811037583766" r="2.5" fill="#8a6b3f"/>
<circle cx="1317.0456278985546" cy="741.7614069746387" r="230.11368836956638" fill="#c1a97e" fill-opacity="0.25" stroke="#a8895c"/>
<circle cx="1317.0456278985546" cy="741.7614069746387" r="2.5" fill="#8a6b3f"/>
<circle cx="550" cy="1334.725" r="359.665625" fill="#c1a97e" fill-opacity="0.25" stroke="#a8895c"/>
<circle cx="550" cy="1334.725" r="2.5" fill="#8a6b3f"/>
<circle cx="754.7759682698138" cy="1339.8501633264248" r="269.134129726041" fill="#c1a97e" fill-opacity="0.25" stroke="#a8895c"/>
<circle cx="754.7759682698138" cy="1339.8501633264248" r="2.5" fill="#8a6b3f"/>
<circle cx="368.70506459599767" cy="1335.6113867506765" r="277.98556761947015" fill="#c1a97e" fill-opacity="0.25" stroke="#a8895c"/>
<circle cx="368.70506459599767" cy="1335.6113867506765" r="2.5" fill="#8a6b3f"/>
<circle cx="929.8403178792344" cy="1246.3739161119297" r="253.22687858615626" fill="#c1a97e" fill-opacity="0.25" stroke="#a8895c"/>
<circle cx="929.8403178792344" cy="1246.3739161119297" r="2.5" fill="#8a6b3f"/>
<circle cx="-105.42285391802545" cy="1026.6711664858367" r="250.25236240506422" fill="#c1a97e" fill-opacity="0.25" stroke="#a8895c"/>
<circle cx="-105.42285391802545" cy="1026.6711664858367" r="2.5" fill="#8a6b3f"/>
<circle cx="-232.32892940309307" cy="829.4031890725332" r="223.5225512580266" fill="#c1a97e" fill-opacity="0.25" stroke="#a8895c"/>
<circle cx="-232.32892940309307" cy="829.4031890725332" r="2.5" fill="#8a6b3f"/>
<circle cx="0.2604480447811284" cy="1157.606873213663" r="219.89582078208753" fill="#c1a97e" fill-opacity="0.25" stroke="#a8895c"/>
<circle cx="0.2604480447811284" cy="1157.606873213663" r="2.5" fill="#8a6b3f"/>
<circle cx="-288.14662677643184" cy="468.8890361184098" r="243.33289164477057" fill="#c1a97e" fill-opacity="0.25" stroke="#a8895c"/>
<circle cx="-288.14662677643184" cy="468.8890361184098" r="2.5" fill="#8a6b3f"/>
<circle cx="-238.4199118510369" cy="296.579314047881" r="225.2628319574391" fill="#c1a97e" fill-opacity="0.25" stroke="#a8895c"/>
<circle cx="-238.4199118510369" cy="296.579314047881" r="2.5" fill="#8a6b3f"/>
<circle cx="442.1249717057197" cy="-286.0314692806721" r="269.6875707357007" fill="#c1a97e" fill-opacity="0.25" stroke="#a8895c"/>
<circle cx="442.1249717057197" cy="-286.0314692806721" r="2.5" fill="#8a6b3f"/>
<circle cx="687.4697503581847" cy="-274.8185021491082" r="230.94918060175033" fill="#c1a97e" fill-opacity="0.25" stroke="#a8895c"/>
<circle cx="687.4697503581847" cy="-274.8185021491082" r="2.5" fill="#8a6b3f"/>
<circle cx="213.2152607881024" cy="-207.76566322676956" r="224.5231594745984" fill="#c1a97e" fill-opacity="0.25" stroke="#a8895c"/>
<circle cx="213.2152607881024" cy="-207.76566322676956" r="2.5" fill="#8a6b3f"/>
<circle cx="274.5" cy="597.5" r="86.25" fill="#79b55a" fill-opacity="0.45" stroke="#579a41"/>
<circle cx="190.08916020442678" cy="88.57584641593172" r="52.49999999999999" fill="#79b55a" fill-opacity="0.45" stroke="#579a41"/>
<circle cx="466.4" cy="436" r="30.000000000000004" fill="#79b55a" fill-opacity="0.45" stroke="#579a41"/>
<circle cx="516.75" cy="459.75" r="22.499999999999996" fill="#79b55a" fill-opacity="0.45" stroke="#579a41"/>
<circle cx="33.15017830062925" cy="456.02730514556896" r="37.5" fill="#79b55a" fill-opacity="0.45" stroke="#579a41"/>
<circle cx="668.75" cy="697.25" r="93.75" fill="#79b55a" fill-opacity="0.45" stroke="#579a41"/>
<circle cx="768.5" cy="735.25" r="101.25000000000001" fill="#79b55a" fill-opacity="0.45" stroke="#579a41"/>
<circle cx="-83.03552217668255" cy="233.48223891165873" r="63.74999999999999" fill="#79b55a" fill-opacity="0.45" stroke="#579a41"/>
<circle cx="-130.6938697360756" cy="601.69826858755" r="63.74999999999999" fill="#79b55a" fill-opacity="0.45" stroke="#579a41"/>
<circle cx="304.0342309336994" cy="133.7502369647221" r="67.5" fill="#79b55a" fill-opacity="0.45" stroke="#579a41"/>
<circle cx="683" cy="227" r="60.00000000000001" fill="#79b55a" fill-opacity="0.45" stroke="#579a41"/>
<circle cx="-71.71508773905975" cy="658.1243630850538" r="41.25" fill="#79b55a" fill-opacity="0.45" stroke="#579a41"/>
<circle cx="105.74684973092968" cy="757.9482831046712" r="37.5" fill="#79b55a" fill-opacity="0.45" stroke="#579a41"/>
<path d="M-74.5,810.2 L-105.1,550.0 L-105.3,298.0 L-73.5,115.0 L-46.3,1.4 L-58.8,-20.0" fill="none" stroke="#5ec4cc" stroke-width="62" stroke-linecap="round" stroke-linejoin="round"/>
<path d="M181.1,1164.9 L79.0,957.6 L-15.6,778.1 L-78.9,639.8 L-99.2,550.0" fill="none" stroke="#5ec4cc" stroke-width="42" stroke-linecap="round" stroke-linejoin="round"/>
<path d="M1205.8,681.2 L1067.5,503.0 L882.5,312.5 L692.5,179.5 L474.1,122.8 L239.4,135.9 L70.7,209.0 L-46.7,149.5 L-73.5,115.0" fill="none" stroke="#5ec4cc" stroke-width="45" stroke-linecap="round" stroke-linejoin="round"/>
<path d="M-78.9,460.2 L95.0,464.7 L284.0,455.0 L388.5,405.6 L602.3,402.8 L759.0,440.8 L949.0,516.8" fill="none" stroke="#8e8878" stroke-width="17" stroke-linecap="round" stroke-linejoin="round"/>
<path d="M-39.4,582.2 L208.0,521.5 L412.3,476.4 L459.8,475.4 L507.3,474.0" fill="none" stroke="#8e8878" stroke-width="14.000000000000002" stroke-linecap="round" stroke-linejoin="round"/>
<path d="M-52.3,641.3 L265.0,645.0 L398.0,612.7 L493.0,608.9 L607.0,608.9 L692.5,616.5 L778.0,645.0" fill="none" stroke="#8e8878" stroke-width="12" stroke-linecap="round" stroke-linejoin="round"/>
<path d="M-61.2,720.8 L265.0,740.0 L550.0,744.8 L621.3,744.8" fill="none" stroke="#8e8878" stroke-width="11" stroke-linecap="round" stroke-linejoin="round"/>
<path d="M-15.6,321.9 L217.6,303.0 L455.0,298.3 L702.0,303.0 L854.0,312.5" fill="none" stroke="#8e8878" stroke-width="13" stroke-linecap="round" stroke-linejoin="round"/>
<path d="M-20.6,393.5 L265.0,383.8 L388.5,312.5 L550.0,312.5 L797.0,331.5" fill="none" stroke="#8e8878" stroke-width="11" stroke-linecap="round" stroke-linejoin="round"/>
<path d="M114.8,758.1 L122.8,474.1 L139.3,266.8 L164.7,91.4" fill="none" stroke="#8e8878" stroke-width="15" stroke-linecap="round" stroke-linejoin="round"/>
<path d="M455.0,778.0 L455.0,550.0 L455.0,303.0 L464.5,151.0" fill="none" stroke="#8e8878" stroke-width="14.000000000000002" stroke-linecap="round" stroke-linejoin="round"/>
<path d="M350.5,778.0 L355.3,502.5 L360.0,293.5" fill="none" stroke="#8e8878" stroke-width="11" stroke-linecap="round" stroke-linejoin="round"/>
<path d="M-35.7,784.3 L-39.5,568.4 L-41.7,386.1" fill="none" stroke="#8e8878" stroke-width="11" stroke-linecap="round" stroke-linejoin="round"/>
<path d="M645.0,350.5 L576.6,402.8 L497.8,453.1 L474.0,516.8 L466.4,608.9 L445.5,678.3" fill="none" stroke="#8e8878" stroke-width="13" stroke-linecap="round" stroke-linejoin="round"/>
<path d="M76.6,597.3 L45.0,755.8 L28.3,909.8" fill="none" stroke="#8e8878" stroke-width="11" stroke-linecap="round" stroke-linejoin="round"/>
<path d="M424.6,331.5 L426.5,405.6 L428.4,475.9 L430.3,612.7" fill="none" stroke="#8e8878" stroke-width="10" stroke-linecap="round" stroke-linejoin="round"/>
<path d="M633.6,350.5 L633.6,402.8 L633.6,502.5 L633.6,608.9" fill="none" stroke="#8e8878" stroke-width="9" stroke-linecap="round" stroke-linejoin="round"/>
<path d="M481.6,496.8 L569.0,496.8 L633.6,496.8" fill="none" stroke="#8e8878" stroke-width="8" stroke-linecap="round" stroke-linejoin="round"/>
<path d="M195.6,0.6 L131.0,177.6 L96.3,361.0 L122.7,502.5 L265.0,597.5 L398.0,616.5 L493.0,612.7 L607.0,612.7 L692.5,620.3 L740.0,654.5" fill="none" stroke="#E3002C" stroke-width="1.6" stroke-opacity="0.85"/>
<path d="M-53.7,513.4 L94.8,502.6 L284.0,459.8 L388.5,409.4 L602.3,406.6 L759.0,443.6 L1107.8,457.0" fill="none" stroke="#0070BD" stroke-width="1.6" stroke-opacity="0.85"/>
<path d="M122.5,921.7 L141.6,645.0 L113.4,512.0 L265.0,436.0 L455.0,360.0 L673.5,369.5" fill="none" stroke="#1DA742" stroke-width="1.6" stroke-opacity="0.85"/>
<path d="M265.9,928.8 L312.5,664.0 L284.0,455.0 L171.2,265.9 L29.5,326.9" fill="none" stroke="#F8B61C" stroke-width="1.6" stroke-opacity="0.85"/>
<path d="M664.0,948.9 L493.0,664.0 L417.0,369.5 L455.0,170.0 L484.2,32.7" fill="none" stroke="#C48C31" stroke-width="1.6" stroke-opacity="0.85"/>
<path d="M728.6,646.9 L725.3,650.3 L721.9,653.9 L718.5,657.4 L715.2,660.8 L711.5,664.0 L706.8,664.3 L702.1,663.8 L697.3,663.2 L692.6,662.8 L687.7,662.6 L682.7,662.9 L677.8,663.5 L672.9,664.7 L668.2,666.4 L663.8,668.7 L662.0,670.5 L666.8,670.3 L671.4,670.7 L676.3,671.9 L680.9,673.8 L684.9,676.3 L688.7,679.5 L691.6,683.2 L694.0,687.4 L695.5,692.1 L696.1,696.1 L693.0,691.4 L689.4,687.9 L685.1,685.4 L680.3,684.0 L675.6,683.9 L670.7,685.0 L667.9,686.8 L672.6,686.7 L677.5,687.8 L680.0,691.0 L678.1,695.4 L675.9,699.8 L675.2,701.3" fill="none" stroke="#4a4438" stroke-width="1.4" stroke-dasharray="2 3"/>
<circle cx="550" cy="550" r="4" fill="#232019"/>
<text x="556" y="546" font-size="11" fill="#232019">Taipei 101</text>
<circle cx="557.6" cy="445.5" r="4" fill="#232019"/>
<text x="563.6" y="441.5" font-size="11" fill="#232019">Taipei City Hall</text>
<circle cx="462.6" cy="434.1" r="4" fill="#232019"/>
<text x="468.6" y="430.1" font-size="11" fill="#232019">Sun Yat-sen Hall</text>
<circle cx="469.25" cy="361.9" r="4" fill="#232019"/>
<text x="475.25" y="357.9" font-size="11" fill="#232019">Taipei Dome</text>
<circle cx="521.5" cy="475.9" r="4" fill="#232019"/>
<text x="527.5" y="471.9" font-size="11" fill="#232019">Grand Hyatt Taipei</text>
<circle cx="612.7" cy="512" r="4" fill="#232019"/>
<text x="618.7" y="508" font-size="11" fill="#232019">Breeze Nan Shan</text>
<circle cx="592.75" cy="487.3" r="4" fill="#232019"/>
<text x="598.75" y="483.3" font-size="11" fill="#232019">Mitsukoshi A11</text>
<circle cx="407.5" cy="369.5" r="4" fill="#232019"/>
<text x="413.5" y="365.5" font-size="11" fill="#232019">Taipei Arena</text>
<circle cx="673.5" cy="369.5" r="4" fill="#232019"/>
<text x="679.5" y="365.5" font-size="11" fill="#232019">Raohe Night Market</text>
<circle cx="141.54305242097945" cy="540.5010012190926" r="4" fill="#232019"/>
<text x="147.54305242097945" y="536.5010012190926" font-size="11" fill="#232019">CKS Memorial Hall</text>
<circle cx="50.02095589472873" cy="483.9650319106246" r="4" fill="#232019"/>
<text x="56.02095589472873" y="479.9650319106246" font-size="11" fill="#232019">Presidential Office</text>
<circle cx="95.61484073116719" cy="403.27145898610604" r="4" fill="#232019"/>
<text x="101.61484073116719" y="399.27145898610604" font-size="11" fill="#232019">Taipei Main Station</text>
<circle cx="-12.794443369111491" cy="522.092837518887" r="4" fill="#232019"/>
<text x="-6.794443369111491" y="518.092837518887" font-size="11" fill="#232019">Longshan Temple</text>
<circle cx="67.30871739559473" cy="172.04361833805996" r="4" fill="#232019"/>
<text x="73.30871739559473" y="168.04361833805996" font-size="11" fill="#232019">Bao’an Temple</text>
<circle cx="190.97714082147462" cy="80.50856876654376" r="4" fill="#232019"/>
<text x="196.97714082147462" y="76.50856876654376" font-size="11" fill="#232019">Grand Hotel</text>
<circle cx="166.8220770845399" cy="-2.9954114802662843" r="4" fill="#232019"/>
<text x="172.8220770845399" y="-6.995411480266284" font-size="11" fill="#232019">Shilin Night Market</text>
<circle cx="484.1123384429238" cy="37.01749216276369" r="4" fill="#232019"/>
<text x="490.1123384429238" y="33.01749216276369" font-size="11" fill="#232019">Miramar Ferris Wheel</text>
<circle cx="410.9653520853943" cy="-110.41457759437719" r="4" fill="#232019"/>
<text x="416.9653520853943" y="-114.41457759437719" font-size="11" fill="#232019">Palace Museum</text>
<circle cx="583.25" cy="626" r="2" fill="#6b6455"/>
<circle cx="873" cy="531" r="2" fill="#6b6455"/>
<circle cx="236.5" cy="436" r="2" fill="#6b6455"/>
<circle cx="436" cy="388.5" r="2" fill="#6b6455"/>
<circle cx="360" cy="673.5" r="2" fill="#6b6455"/>
<circle cx="597.5" cy="265.00000000000006" r="2" fill="#6b6455"/>
<circle cx="616.5" cy="417" r="2" fill="#6b6455"/>
<circle cx="198.49999999999994" cy="607" r="2" fill="#6b6455"/>
<circle cx="455" cy="768.5" r="2" fill="#6b6455"/>
<circle cx="312.5" cy="293.5" r="2" fill="#6b6455"/>
<path d="M544.62,543.005 L554.62,553.005 M544.62,553.005 L554.62,543.005" stroke="#d81b9f" stroke-width="1.6"/>
<text x="555.62" y="560.005" font-size="9" fill="#d81b9f">taipei-101</text>
<path d="M544.715,504.91 L554.715,514.9100000000001 M544.715,514.9100000000001 L554.715,504.91" stroke="#d81b9f" stroke-width="1.6"/>
<text x="555.715" y="521.9100000000001" font-size="9" fill="#d81b9f">city-hall</text>
<path d="M504.72,478.69 L514.72,488.69 M504.72,488.69 L514.72,478.69" stroke="#d81b9f" stroke-width="1.6"/>
<text x="515.72" y="495.69" font-size="9" fill="#d81b9f">sun-yat-sen-hall</text>
<path d="M497.88,453.70500000000004 L507.88,463.70500000000004 M497.88,463.70500000000004 L507.88,453.70500000000004" stroke="#d81b9f" stroke-width="1.6"/>
<text x="508.88" y="470.70500000000004" font-size="9" fill="#d81b9f">taipei-dome</text>
<path d="M534.17,528.85 L544.17,538.85 M534.17,538.85 L544.17,528.85" stroke="#d81b9f" stroke-width="1.6"/>
<text x="545.17" y="545.85" font-size="9" fill="#d81b9f">grand-hyatt</text>
<path d="M562.195,537.78 L572.195,547.78 M562.195,547.78 L572.195,537.78" stroke="#d81b9f" stroke-width="1.6"/>
<text x="573.195" y="554.78" font-size="9" fill="#d81b9f">breeze-nanshan</text>
<path d="M407.25,366.21000000000004 L417.25,376.21000000000004 M407.25,376.21000000000004 L417.25,366.21000000000004" stroke="#d81b9f" stroke-width="1.6"/>
<text x="418.25" y="383.21000000000004" font-size="9" fill="#d81b9f">taipei-arena</text>
<path d="M646.27,366.59000000000003 L656.27,376.59000000000003 M646.27,376.59000000000003 L656.27,366.59000000000003" stroke="#d81b9f" stroke-width="1.6"/>
<text x="657.27" y="383.59000000000003" font-size="9" fill="#d81b9f">raohe-night-market</text>
<path d="M136.0702561367496,535.1210932957542 L146.0702561367496,545.1210932957542 M136.0702561367496,545.1210932957542 L146.0702561367496,535.1210932957542" stroke="#d81b9f" stroke-width="1.6"/>
<text x="147.0702561367496" y="552.1210932957542" font-size="9" fill="#d81b9f">cks-memorial</text>
<path d="M45.19234559340708,479.34010429086663 L55.19234559340708,489.34010429086663 M45.19234559340708,489.34010429086663 L55.19234559340708,479.34010429086663" stroke="#d81b9f" stroke-width="1.6"/>
<text x="56.19234559340708" y="496.34010429086663" font-size="9" fill="#d81b9f">presidential-office</text>
<path d="M92.52061117436972,398.24481006910923 L102.52061117436972,408.24481006910923 M92.52061117436972,408.24481006910923 L102.52061117436972,398.24481006910923" stroke="#d81b9f" stroke-width="1.6"/>
<text x="103.52061117436972" y="415.24481006910923" font-size="9" fill="#d81b9f">main-station</text>
<path d="M-52.872828328597734,508.76806272019087 L-42.872828328597734,518.7680627201909 M-52.872828328597734,518.7680627201909 L-42.872828328597734,508.76806272019087" stroke="#d81b9f" stroke-width="1.6"/>
<text x="-41.872828328597734" y="525.7680627201909" font-size="9" fill="#d81b9f">longshan-temple</text>
<path d="M189.7128761625483,84.80889969129231 L199.7128761625483,94.80889969129231 M189.7128761625483,94.80889969129231 L199.7128761625483,84.80889969129231" stroke="#d81b9f" stroke-width="1.6"/>
<text x="200.7128761625483" y="101.80889969129231" font-size="9" fill="#d81b9f">grand-hotel</text>
<path d="M189.4250142034839,6.863804431922517 L199.4250142034839,16.863804431922517 M189.4250142034839,16.863804431922517 L199.4250142034839,6.863804431922517" stroke="#d81b9f" stroke-width="1.6"/>
<text x="200.4250142034839" y="23.863804431922517" font-size="9" fill="#d81b9f">shilin-night-market</text>
<path d="M406.57987986727005,-110.50878341720568 L416.57987986727005,-100.50878341720568 M406.57987986727005,-100.50878341720568 L416.57987986727005,-110.50878341720568" stroke="#d81b9f" stroke-width="1.6"/>
<text x="417.57987986727005" y="-93.50878341720568" font-size="9" fill="#d81b9f">palace-museum</text>
<path d="M478.2085665794299,29.20080359861163 L488.2085665794299,39.20080359861163 M478.2085665794299,39.20080359861163 L488.2085665794299,29.20080359861163" stroke="#d81b9f" stroke-width="1.6"/>
<text x="489.2085665794299" y="46.20080359861163" font-size="9" fill="#d81b9f">miramar-ferris-wheel</text>
<path d="M92.98238626718677,146.17708620211982 L102.98238626718677,156.17708620211982 M92.98238626718677,156.17708620211982 L102.98238626718677,146.17708620211982" stroke="#d81b9f" stroke-width="1.6"/>
<text x="103.98238626718677" y="163.17708620211982" font-size="9" fill="#d81b9f">baoan-temple</text>
<path d="M264.4650000000001,587.37 L274.4650000000001,597.37 M264.4650000000001,597.37 L274.4650000000001,587.37" stroke="#d81b9f" stroke-width="1.6"/>
<path d="M74.52787762144027,462.7383753829037 L84.52787762144027,472.7383753829037 M74.52787762144027,472.7383753829037 L84.52787762144027,462.7383753829037" stroke="#d81b9f" stroke-width="1.6"/>
<path d="M650.83,620.24 L660.83,630.24 M650.83,630.24 L660.83,620.24" stroke="#d81b9f" stroke-width="1.6"/>
<path d="M735.285,683.3199999999999 L745.285,693.3199999999999 M735.285,693.3199999999999 L745.285,683.3199999999999" stroke="#d81b9f" stroke-width="1.6"/>
<path d="M483.58528555341695,-288.66622683807066 L493.58528555341695,-278.66622683807066 M483.58528555341695,-278.66622683807066 L493.58528555341695,-288.66622683807066" stroke="#d81b9f" stroke-width="1.6"/>
<text x="494.58528555341695" y="-271.66622683807066" font-size="9" fill="#d81b9f">qixingshan</text>
<path d="M324.27261795474,-284.6287211722241 L334.27261795474,-274.6287211722241 M324.27261795474,-274.6287211722241 L334.27261795474,-284.6287211722241" stroke="#d81b9f" stroke-width="1.6"/>
<text x="335.27261795474" y="-267.6287211722241" font-size="9" fill="#d81b9f">datun</text>
<path d="M-137.4986930238399,-10.042638992483262 L-127.4986930238399,-0.04263899248326197 M-137.4986930238399,-0.04263899248326197 L-127.4986930238399,-10.042638992483262" stroke="#d81b9f" stroke-width="1.6"/>
<text x="-126.4986930238399" y="6.957361007516738" font-size="9" fill="#d81b9f">guanyinshan</text>
<path d="M754.104477336309,1175.299384226245 L764.104477336309,1185.299384226245 M754.104477336309,1185.299384226245 L764.104477336309,1175.299384226245" stroke="#d81b9f" stroke-width="1.6"/>
<text x="765.104477336309" y="1192.299384226245" font-size="9" fill="#d81b9f">maokong</text>
<path d="M12.9,395.5 L269.4,463.3 L621.6,478.9 L682.3,472.6 L736.7,410.9 L773.7,389.4 L847.8,370.8 L1036.0,348.3" fill="none" stroke="#d81b9f" stroke-width="1.3" stroke-opacity="0.85"/>
<path d="M109.4,492.5 L172.9,501.5 L190.3,502.2 L230.7,502.3 L262.3,503.4 L395.8,505.9 L529.1,509.5" fill="none" stroke="#d81b9f" stroke-width="1.3" stroke-opacity="0.85"/>
<path d="M-171.7,842.9 L-158.7,870.1 L-86.0,138.7 L122.1,508.7 L196.4,546.4 L243.5,551.0 L620.7,559.8 L675.6,528.1" fill="none" stroke="#d81b9f" stroke-width="1.3" stroke-opacity="0.85"/>
<path d="M-108.5,532.1 L-19.1,539.1 L102.5,622.5 L327.1,626.6 L435.9,649.7 L641.9,912.4" fill="none" stroke="#d81b9f" stroke-width="1.3" stroke-opacity="0.85"/>
<path d="M23.2,346.4 L76.1,338.7 L127.3,351.4 L147.3,355.1 L163.0,356.1 L607.5,364.8 L801.9,252.6" fill="none" stroke="#d81b9f" stroke-width="1.3" stroke-opacity="0.85"/>
<path d="M218.6,445.6 L257.8,434.2 L292.1,418.4 L372.1,399.1 L488.3,397.5 L619.0,379.8 L679.0,378.1 L718.0,365.0" fill="none" stroke="#d81b9f" stroke-width="1.3" stroke-opacity="0.85"/>
<path d="M54.5,-195.3 L11.7,-165.0 L-7.8,-150.0 L318.3,-175.1 L234.1,-108.6 L227.0,-31.5 L147.1,360.4 L93.0,532.5" fill="none" stroke="#d81b9f" stroke-width="1.3" stroke-opacity="0.85"/>
<path d="M398.9,680.9 L399.5,606.9 L405.3,581.9 L399.5,552.2 L401.9,298.0 L405.5,286.0 L417.7,260.6 L429.3,242.7" fill="none" stroke="#d81b9f" stroke-width="1.3" stroke-opacity="0.85"/>
<path d="M347.4,676.4 L349.1,601.6 L342.4,577.4 L349.7,555.0 L350.0,538.3 L347.8,524.4 L350.8,503.7 L356.5,210.1" fill="none" stroke="#d81b9f" stroke-width="1.3" stroke-opacity="0.85"/>
<path d="M29.2,639.6 L3.0,614.5 L-13.5,590.4 L-14.7,573.6 L-0.9,538.1 L5.3,517.3 L32.7,408.5" fill="none" stroke="#d81b9f" stroke-width="1.3" stroke-opacity="0.85"/>
<path d="M250.3,807.4 L270.1,793.6 L306.7,776.5 L337.5,754.2 L342.4,736.6 L471.0,613.5 L541.5,489.7 L604.1,370.9" fill="none" stroke="#d81b9f" stroke-width="1.3" stroke-opacity="0.85"/>
<path d="M97.8,545.4 L172.7,656.9 L290.3,788.1 L305.0,846.4 L307.1,930.3 L324.8,942.1 L326.3,963.0 L314.0,1008.2" fill="none" stroke="#d81b9f" stroke-width="1.3" stroke-opacity="0.85"/>
<path d="M455.1,253.7 L465.0,313.9 L469.3,331.6 L477.6,350.8 L485.6,366.3 L485.6,444.7 L482.6,561.3 L482.8,589.0" fill="none" stroke="#d81b9f" stroke-width="1.3" stroke-opacity="0.85"/>
<path d="M588.2,476.8 L587.6,494.2 L587.3,519.6 L586.5,569.6 L587.0,590.3 L586.9,608.0 L588.0,625.4 L598.6,646.3" fill="none" stroke="#d81b9f" stroke-width="1.3" stroke-opacity="0.85"/>
<path d="M525.7,526.5 L539.9,526.8 L561.4,527.2 L581.6,527.6" fill="none" stroke="#d81b9f" stroke-width="1.3" stroke-opacity="0.85"/>
<path d="M-7.1,390.5 L25.1,376.5 L265.3,431.7 L437.3,437.7 L550.2,425.9 L602.1,387.4 L699.4,388.0 L1034.9,334.8" fill="none" stroke="#d81b9f" stroke-width="1.3" stroke-opacity="0.85"/>
<path d="M58.3,250.6 L416.4,257.4 L492.1,250.6 L627.0,224.0 L735.0,183.2 L824.3,181.2 L885.3,203.1 L933.2,148.5" fill="none" stroke="#d81b9f" stroke-width="1.3" stroke-opacity="0.85"/>
<path d="M30.6,312.1 L84.7,307.8 L151.1,296.5 L170.5,294.5 L305.6,296.1 L399.8,298.0 L456.1,292.3 L585.1,281.9" fill="none" stroke="#d81b9f" stroke-width="1.3" stroke-opacity="0.85"/>
<path d="M202.8,165.2 L198.5,361.3 L217.2,398.3 L247.0,430.9 L245.5,549.6 L266.1,625.0 L259.4,683.3 L248.9,727.7" fill="none" stroke="#d81b9f" stroke-width="1.3" stroke-opacity="0.85"/>
<path d="M259.0,196.1 L279.6,215.6 L286.6,232.5 L283.1,443.7 L295.4,503.0 L294.4,557.5 L296.4,577.1 L292.4,657.4" fill="none" stroke="#d81b9f" stroke-width="1.3" stroke-opacity="0.85"/>
<path d="M115.1,-95.5 L147.0,-86.1 L127.7,-40.4 L132.0,3.8 L164.5,11.7 L176.8,35.1 L122.4,158.8 L93.5,385.0" fill="none" stroke="#d81b9f" stroke-width="1.3" stroke-opacity="0.85"/>
<path d="M183.4,-73.7 L190.5,-69.8" fill="none" stroke="#d81b9f" stroke-width="1.3" stroke-opacity="0.85"/>
<path d="M145.8,-90.8 L184.7,-113.1 L194.7,-120.3 L204.7,-126.8 L220.6,-134.2 L235.0,-140.0 L254.6,-152.5 L269.2,-160.1" fill="none" stroke="#d81b9f" stroke-width="1.3" stroke-opacity="0.85"/>
<path d="M231.7,-90.9 L253.7,-101.6 L265.9,-111.6 L284.7,-135.9 L296.2,-144.1 L305.8,-150.0 L318.2,-158.6" fill="none" stroke="#d81b9f" stroke-width="1.3" stroke-opacity="0.85"/>
<path d="M501.0,19.0 L687.3,79.4 L706.7,49.8 L723.3,58.5 L740.6,37.9 L779.6,54.1 L812.7,28.2" fill="none" stroke="#d81b9f" stroke-width="1.3" stroke-opacity="0.85"/>
<path d="M805.5,259.9 L790.0,74.1 L847.6,87.2 L880.7,89.6 L876.7,67.0 L897.6,63.6 L911.7,53.3" fill="none" stroke="#d81b9f" stroke-width="1.3" stroke-opacity="0.85"/>
<path d="M735.1,357.0 L753.6,349.0 L790.9,343.9 L829.2,331.8 L905.9,342.3 L1003.9,324.8 L1066.0,332.7" fill="none" stroke="#d81b9f" stroke-width="1.3" stroke-opacity="0.85"/>
<path d="M1044.2,449.0 L1035.8,430.6 L1034.9,410.9 L1037.7,392.5 L1035.7,373.7 L1039.9,352.5 L1041.8,333.4" fill="none" stroke="#d81b9f" stroke-width="1.3" stroke-opacity="0.85"/>
<path d="M-196.9,479.7 L-187.2,449.2 L-164.0,422.4 L-116.9,345.4 L-111.0,332.9 L-77.8,291.9 L-14.0,251.9" fill="none" stroke="#d81b9f" stroke-width="1.3" stroke-opacity="0.85"/>
<path d="M-198.0,730.8 L-196.9,713.4 L-193.2,661.5 L-191.2,636.4 L-187.1,597.7 L-184.0,583.5 L-168.6,535.0 L-160.6,528.8" fill="none" stroke="#d81b9f" stroke-width="1.3" stroke-opacity="0.85"/>
<path d="M330.5,1228.5 L345.9,1192.3 L352.7,1170.1 L354.8,1160.8 L352.3,1135.2 L350.5,1122.7 L328.2,1057.7" fill="none" stroke="#d81b9f" stroke-width="1.3" stroke-opacity="0.85"/>
<path d="M-28.8,850.7 L63.9,850.9 L66.7,838.4 L69.8,821.6 L75.7,800.1 L78.7,785.1 L83.2,764.3 L87.6,743.0" fill="none" stroke="#d81b9f" stroke-width="1.3" stroke-opacity="0.85"/>
<path d="M-49.1,845.8 L-42.8,865.5 L-28.2,884.1 L-7.8,917.4 L8.6,936.9 L126.9,975.1 L157.1,988.3 L194.3,997.3" fill="none" stroke="#d81b9f" stroke-width="1.3" stroke-opacity="0.85"/>
<path d="M1084.5,332.8 L1138.4,346.4 L1168.0,319.0 L1254.9,275.5 L1259.6,260.7 L1253.9,231.1 L1258.0,225.4 L1294.8,285.1" fill="none" stroke="#d81b9f" stroke-width="1.3" stroke-opacity="0.85"/>
<path d="M-117.2,126.7 L-115.9,131.7 L-112.9,132.6 L-107.9,131.5 L-105.3,133.2 L-100.5,144.6 L-99.0,149.4 L-100.7,158.4" fill="none" stroke="#d81b9f" stroke-width="1.3" stroke-opacity="0.85"/>
<path d="M-289.1,625.4 L-280.8,608.0 L-276.8,586.6 L-253.4,558.3 L-227.0,535.6 L-217.7,620.9 L-218.1,543.7 L-211.4,513.4" fill="none" stroke="#d81b9f" stroke-width="1.3" stroke-opacity="0.85"/>
<path d="M-203.2,971.3 L-198.4,965.3 L-188.5,962.1 L-173.4,964.7 L-169.7,958.3 L-172.4,931.3 L-184.5,880.5 L-187.4,839.6" fill="none" stroke="#d81b9f" stroke-width="1.3" stroke-opacity="0.85"/>
<path d="M-116.0,447.7 L0.4,312.6 L31.5,189.4 L32.4,89.7 L-11.8,38.5 L-84.6,58.8 L-33.3,-79.3 L-35.7,-126.7 L-62.3,-102.8 L-102.8,-62.3" fill="none" stroke="#d81b9f" stroke-width="1.3" stroke-opacity="0.85" stroke-dasharray="8 5"/>
<path d="M339.1,1311.0 L260.2,1255.6 L337.0,1273.0 L365.6,1296.5 L406.7,1288.5 L155.8,1066.5 L254.3,860.7 L72.8,677.1 L-88.7,767.9 L-116.0,447.7" fill="none" stroke="#d81b9f" stroke-width="1.3" stroke-opacity="0.85" stroke-dasharray="8 5"/>
<path d="M1442.5,483.0 L1440.0,455.6 L1408.1,295.6 L1347.0,142.8 L1325.0,259.0 L642.9,360.3 L599.7,109.2 L189.6,145.4 L60.9,-51.5 L-64.5,18.0" fill="none" stroke="#d81b9f" stroke-width="1.3" stroke-opacity="0.85" stroke-dasharray="8 5"/>
<path d="M-13.2,381.3 L-17.5,378.4 L-22.0,375.2 L-60.4,347.2" fill="none" stroke="#d81b9f" stroke-width="1.3" stroke-opacity="0.85"/>
<path d="M358.6,75.2 L356.7,117.1 L356.7,122.6 L356.2,137.7" fill="none" stroke="#d81b9f" stroke-width="1.3" stroke-opacity="0.85"/>
<path d="M613.6,227.3 L650.2,213.8 L659.6,210.7 L674.5,206.3" fill="none" stroke="#d81b9f" stroke-width="1.3" stroke-opacity="0.85"/>
<path d="M438.125,196.25500000000005 L448.125,206.25500000000005 M438.125,206.25500000000005 L448.125,196.25500000000005" stroke="#d81b9f" stroke-width="1.6"/>
<path d="M558.5,177.7 L447.5,173.3 L403.0,171.7 L312.1,168.6" fill="none" stroke="#d81b9f" stroke-width="1.3" stroke-opacity="0.85"/>
<path d="M571.315,514.41 L581.315,524.41 M571.315,524.41 L581.315,514.41" stroke="#d81b9f" stroke-width="1.6"/>
<text x="582.315" y="531.41" font-size="9" fill="#d81b9f">mitsukoshi-a11</text>
<path d="M728.065,570.175 L738.065,580.175 M728.065,580.175 L738.065,570.175" stroke="#d81b9f" stroke-width="1.6"/>
<path d="M-8.8,249.1 L16.5,248.4" fill="none" stroke="#d81b9f" stroke-width="1.3" stroke-opacity="0.85"/>
<rect x="20" y="1066" width="50" height="4" fill="#232019"/>
<text x="20" y="1060" font-size="12" fill="#232019">1 km (authored, pre-spread)</text>
<text x="20" y="24" font-size="14" fill="#232019">grid / spread — game data (grey/green) vs OSM geo-truth (magenta)</text>
</svg>
